<svg width="100" height="100" viewBox="0 0 100 100" fill="none" xmlns="http://www.w3.org/2000/svg"><path d="M59.7009 58.9717C64.3277 55.9842 67.3127 50.756 67.3127 44.7809C67.3127 35.3702 59.7009 27.752 50.2982 27.752C40.8954 27.752 33.2836 35.3702 33.2836 44.7809C33.2836 50.756 36.2686 55.9842 40.8954 58.9717C30.4479 62.8555 22.9854 72.8638 22.9854 84.5152H27.4629C27.4629 71.9675 37.6119 61.8099 50.1489 61.8099C62.6859 61.8099 72.835 71.9675 72.835 84.5152H77.3125C77.4617 72.7144 69.9992 62.7062 59.7009 58.9717ZM50.2982 57.1792C43.4326 57.1792 37.7611 51.5029 37.7611 44.6315C37.7611 37.7602 43.4326 32.0839 50.2982 32.0839C57.1637 32.0839 62.8352 37.7602 62.8352 44.6315C62.686 51.6523 57.1637 57.1792 50.2982 57.1792Z" fill="#2D313E"/><path d="M82.3861 47.4698C87.0128 44.4822 89.9979 39.254 89.9979 33.279C89.9979 23.8682 82.3861 16.25 72.9833 16.25C68.5058 16.25 64.3268 18.0425 61.1925 21.0301C59.9985 22.0757 59.103 23.4201 58.2075 24.7645C59.5508 25.362 61.0433 26.1089 62.2373 26.8558C62.9835 25.5114 64.0283 24.4657 65.2223 23.4201C67.3118 21.7769 69.9983 20.8807 72.8341 20.8807C79.6996 20.8807 85.3711 26.557 85.3711 33.4283C85.3711 39.1047 81.4906 44.0341 76.2668 45.3785C75.2221 45.6773 74.0281 45.8266 72.8341 45.8266C72.3863 45.8266 72.0878 45.8266 71.6401 45.8266C71.4908 47.4698 71.3416 49.1129 70.8938 50.6067C71.4908 50.6067 72.2371 50.4573 72.8341 50.4573C73.7296 50.4573 74.6251 50.4573 75.5206 50.6067C86.7144 51.9511 95.5201 61.5112 95.5201 73.1626H99.9977C100.147 61.3618 92.6844 51.3536 82.3861 47.4698Z" fill="#2D313E"/><path d="M27.4621 50.4573C28.0591 50.4573 28.8053 50.6067 29.4023 50.6067C28.9546 49.1129 28.6561 47.4698 28.6561 45.8266C28.2083 45.8266 27.9098 45.8266 27.4621 45.8266C26.2681 45.8266 25.2233 45.6773 24.0293 45.3785C18.8056 43.8847 14.925 39.1047 14.925 33.4283C14.925 26.557 20.5966 20.8807 27.4621 20.8807C30.2978 20.8807 32.9843 21.9263 35.0738 23.4201C36.2678 24.3164 37.3126 25.5114 38.0589 26.8558C39.2529 25.9595 40.5961 25.362 42.0886 24.7645C41.3424 23.4201 40.2976 22.2251 39.1036 21.0301C36.1186 18.0425 31.9396 16.25 27.3128 16.25C17.9101 16.25 10.2983 23.8682 10.2983 33.279C10.2983 39.254 13.2833 44.4822 17.91 47.4698C7.46252 51.3536 0 61.3618 0 73.0132H4.47751C4.47751 61.3618 13.2833 51.8017 24.4771 50.4573C25.6711 50.4573 26.5666 50.4573 27.4621 50.4573Z" fill="#2D313E"/></svg>