<svg width="85" height="85" viewBox="0 0 85 85" fill="none" xmlns="http://www.w3.org/2000/svg"><path d="M52.3566 39.8948L46.6923 43.1643C45.7244 43.7236 44.9429 43.2719 44.9429 42.1534C44.9429 41.0349 45.7244 39.6797 46.6923 39.1277L52.3566 35.8582C53.3245 35.2989 54.106 35.7506 54.106 36.8691C54.106 37.9876 53.3245 39.3428 52.3566 39.8948Z" fill="#97FDDF"/><path d="M52.3566 32.6603L46.6923 35.9298C45.7244 36.489 44.9429 36.0373 44.9429 34.9188C44.9429 33.8003 45.7244 32.4452 46.6923 31.8931L52.3566 28.6236C53.3245 28.0644 54.106 28.5161 54.106 29.6346C54.106 30.7531 53.3245 32.1082 52.3566 32.6603Z" fill="#97FDDF"/><path d="M52.3566 47.4876L46.6923 50.7571C45.7244 51.3163 44.9429 50.8646 44.9429 49.7461C44.9429 48.6276 45.7244 47.2725 46.6923 46.7204L52.3566 43.4509C53.3245 42.8917 54.106 43.3434 54.106 44.4619C54.106 45.5804 53.3245 46.9355 52.3566 47.4876Z" fill="#97FDDF"/><path d="M77.2506 22.1707L71.5864 25.4402C70.6184 25.9995 69.8369 25.5477 69.8369 24.4292C69.8369 23.3179 70.6184 21.9556 71.5864 21.4035L77.2506 18.134C78.2186 17.5748 79.0001 18.0265 79.0001 19.145C79.0001 20.2563 78.2186 21.6186 77.2506 22.1707Z" fill="#97FDDF"/><path d="M77.2506 14.5706L71.5864 17.8401C70.6184 18.3994 69.8369 17.9477 69.8369 16.8291C69.8369 15.7106 70.6184 14.3555 71.5864 13.8034L77.2506 10.5339C78.2186 9.9747 79.0001 10.4264 79.0001 11.5449C79.0001 12.6634 78.2186 14.0185 77.2506 14.5706Z" fill="#97FDDF"/><path d="M77.2506 29.7637L71.5864 33.0332C70.6184 33.5925 69.8369 33.1408 69.8369 32.0223C69.8369 30.9038 70.6184 29.5486 71.5864 28.9966L77.2506 25.7271C78.2186 25.1678 79.0001 25.6195 79.0001 26.738C79.0001 27.8565 78.2186 29.2116 77.2506 29.7637Z" fill="#97FDDF"/><path d="M52.3566 55.0879L46.6923 58.3574C45.7244 58.9166 44.9429 58.4649 44.9429 57.3464C44.9429 56.2279 45.7244 54.8728 46.6923 54.3207L52.3566 51.0512C53.3245 50.492 54.106 50.9437 54.106 52.0622C54.106 53.1735 53.3245 54.5358 52.3566 55.0879Z" fill="#97FDDF"/><path d="M64.9825 36.403L59.3183 39.6724C58.3504 40.2317 57.5688 39.78 57.5688 38.6615C57.5688 37.543 58.3504 36.1879 59.3183 35.6358L64.9825 32.3663C65.9505 31.807 66.732 32.2587 66.732 33.3772C66.732 34.4958 65.9505 35.8509 64.9825 36.403Z" fill="#97FDDF"/><path d="M65.2845 53.783L59.6203 57.0524C58.6524 57.6117 57.8708 57.16 57.8708 56.0415C57.8708 54.923 58.6524 53.5679 59.6203 53.0158L65.2845 49.7463C66.2525 49.187 67.034 49.6387 67.034 50.7573C67.034 51.8758 66.2525 53.2309 65.2845 53.783Z" fill="#97FDDF"/><path d="M77.2506 46.8711L71.5864 50.1406C70.6184 50.6998 69.8369 50.2481 69.8369 49.1296C69.8369 48.0111 70.6184 46.656 71.5864 46.1039L77.2506 42.8344C78.2186 42.2752 79.0001 42.7269 79.0001 43.8454C79.0001 44.9639 78.2186 46.319 77.2506 46.8711Z" fill="#97FDDF"/><path d="M70.7975 42.6122L65.1332 45.8817C64.1653 46.441 63.3838 45.9893 63.3838 44.8708C63.3838 43.7523 64.1653 42.3971 65.1332 41.8451L70.7975 38.5756C71.7654 38.0163 72.547 38.468 72.547 39.5865C72.547 40.6979 71.7654 42.0602 70.7975 42.6122Z" fill="#97FDDF"/><path d="M41.5587 51.7825L33.2344 56.5935V56.443L41.4296 51.7108V49.3591C41.4296 46.4194 43.5017 42.8344 46.0399 41.3718V41.5223C43.5662 42.9491 41.5515 46.4337 41.5515 49.2945V51.7897L41.5587 51.7825Z" fill="#97FDDF"/><path d="M55.8411 43.5372L52.5645 45.4301V45.2795L55.712 43.4583C55.7479 41.336 57.2392 38.7835 59.0676 37.7224L59.2181 37.6364V37.7869L59.0676 37.873C57.2894 38.8983 55.8411 41.4077 55.8411 43.4583V43.53V43.5372Z" fill="#97FDDF"/><path d="M58.7736 55.6615L58.5872 55.769C57.0815 56.6366 55.8555 55.9339 55.8555 54.1916V54.1558C55.8555 52.4924 54.6868 51.8184 53.2456 52.6501V52.4995C54.7513 51.632 55.9773 52.3346 55.9773 54.0769V54.1128C55.9773 55.7762 57.146 56.4502 58.5872 55.6185L58.7736 55.5109V55.6615Z" fill="#97FDDF"/><path d="M46.0402 56.8661C43.4949 58.3359 41.4299 57.1385 41.4299 54.206V51.7826L41.559 51.7109V54.1343C41.559 56.9879 43.5737 58.1495 46.0474 56.7227V56.8732L46.0402 56.8661Z" fill="#97FDDF"/><path d="M47.1804 48.5345L40.4836 52.3991V52.2486L47.1804 48.384V48.5345Z" fill="#97FDDF"/><path d="M78.971 43.9387L64.8032 52.1195V51.969L78.971 43.7881V43.9387Z" fill="#97FDDF"/><path d="M67.0052 37.0913L55.7771 43.5729V43.4223L67.0052 36.9407C67.7724 36.4962 68.3962 35.4207 68.3962 34.5388C68.3962 33.5708 69.0773 32.395 69.909 31.9146L71.8449 30.7961V30.9466L69.909 32.0652C69.1418 32.5097 68.5181 33.5852 68.5181 34.4671C68.5181 35.435 67.8369 36.6109 67.0052 37.0913Z" fill="#97FDDF"/><path d="M63.8784 31.2192L53.2383 37.3639V37.2133L63.8784 31.0687C64.6241 30.6385 65.2336 29.5845 65.2336 28.7241C65.2336 27.7777 65.9004 26.6305 66.7177 26.1573L73.1707 22.4289V22.5795L66.7177 26.3078C65.9721 26.738 65.3626 27.792 65.3626 28.6524C65.3626 29.5988 64.6958 30.746 63.8784 31.2192Z" fill="#97FDDF"/><path d="M67.3563 42.6552L64.2087 44.4764C61.4196 46.0896 59.1467 44.7775 59.1467 41.5582L59.2758 41.4865C59.2758 44.6269 61.4913 45.9032 64.2087 44.333L67.3563 42.5118V42.6624V42.6552Z" fill="#97FDDF"/><path d="M57.5687 34.8615L57.4397 34.9332V31.7068C57.4397 29.5414 55.9125 28.6595 54.0339 29.7422V29.5916C55.9842 28.4659 57.5615 29.3837 57.5615 31.6279V34.8543L57.5687 34.8615Z" fill="#97FDDF"/><path d="M42.0458 51.424C42.0458 51.0727 41.7949 50.9293 41.4937 51.1014C41.1854 51.2806 40.9417 51.7108 40.9417 52.0621C40.9417 52.4135 41.1926 52.5569 41.4937 52.3848C41.7949 52.2127 42.0458 51.7753 42.0458 51.424Z" fill="#97FDDF"/><path d="M56.3288 43.15C56.3288 42.7986 56.0778 42.6552 55.7767 42.8273C55.4684 43.0066 55.2246 43.4368 55.2246 43.7881C55.2246 44.1394 55.4756 44.2828 55.7767 44.1107C56.085 43.9315 56.3288 43.5013 56.3288 43.15Z" fill="#97FDDF"/><path d="M58.0641 34.5031C58.0641 34.1517 57.8132 34.0083 57.512 34.1804C57.2037 34.3597 56.96 34.7899 56.96 35.1412C56.96 35.4925 57.2109 35.6359 57.512 35.4638C57.8204 35.2846 58.0641 34.8544 58.0641 34.5031Z" fill="#97FDDF"/><path d="M60.3224 33.1982C60.3224 32.8469 60.0715 32.7035 59.7703 32.8755C59.462 33.0548 59.2183 33.485 59.2183 33.8363C59.2183 34.1876 59.4692 34.331 59.7703 34.159C60.0715 33.9869 60.3224 33.5495 60.3224 33.1982Z" fill="#97FDDF"/><path d="M59.7704 41.1639C59.7704 40.8126 59.5195 40.6692 59.2183 40.8412C58.91 41.0205 58.6663 41.4507 58.6663 41.802C58.6663 42.1533 58.9172 42.2967 59.2183 42.1247C59.5266 41.9454 59.7704 41.5152 59.7704 41.1639Z" fill="#97FDDF"/><path d="M59.8278 33.4347L59.6987 33.5064V28.4874C59.6987 25.2466 61.9859 21.2888 64.7894 19.6684L77.5375 12.3121V12.4626L64.7894 19.819C62.0505 21.3964 59.8278 25.2538 59.8278 28.4157V33.4347Z" fill="#97FDDF"/><path d="M7 53.357V60.7754L24.9614 71.1002V63.6817L7 53.357Z" fill="#E1E1E1"/><path d="M39.2831 55.4167V62.8351L37.8082 63.6817L37.6249 63.7864L36.2896 64.5545L28.749 68.9095L26.6107 70.1488L26.4274 70.2536L24.9612 71.1002V63.6817L39.2831 55.4167Z" fill="#F6F6F6"/><path d="M26.4268 64.825V70.2536L26.61 70.1489V64.9385L37.6242 58.5761V63.7865L37.8075 63.6817V58.2532L26.4268 64.825Z" fill="#97FDDF"/><path d="M7 53.3571L24.9614 63.6818L39.2833 55.4168L28.2604 49.0544L7 53.3571Z" fill="#84D5BD" fill-opacity="0.4"/><path d="M36.2894 62.5297V64.5545L28.7488 68.9096V66.8848L36.2894 62.5297Z" fill="#97FDDF"/><path d="M7 45.3189V52.7461L24.9614 63.0708V55.6524L7 45.3189Z" fill="#E1E1E1"/><path d="M24.9612 55.6525V63.0709L39.2831 54.7972V47.3787L24.9612 55.6525Z" fill="#F6F6F6"/><path d="M25.5105 55.9667L38.7328 48.3301V54.483L25.5105 62.1197V55.9667Z" fill="#68B29C"/><path d="M7 45.3189L24.9614 55.6524L39.2833 47.3786L28.2604 41.0162L7 45.3189Z" fill="#84D5BD" fill-opacity="0.4"/><path opacity="0.2" d="M26.3229 56.2197L26 56.403V56.0277L26.3229 55.8357V56.2197Z" fill="#97FDDF"/><path opacity="0.2" d="M27.1174 55.7572L26.7944 55.9492V55.5652L27.1174 55.3819V55.7572Z" fill="#97FDDF"/><path d="M27.9106 55.3033L27.5876 55.4866V55.1113L27.9106 54.9193V55.3033Z" fill="#97FDDF"/><path d="M28.714 54.8408L28.3823 55.0328V54.6488L28.714 54.4568V54.8408Z" fill="#97FDDF"/><path d="M29.5089 54.3782L29.1772 54.5702V54.1949L29.5089 54.0029V54.3782Z" fill="#97FDDF"/><path d="M30.3026 53.9244L29.9709 54.1164V53.7324L30.3026 53.5404V53.9244Z" fill="#97FDDF"/><path d="M31.097 53.4618L30.7654 53.6538V53.2698L31.097 53.0865V53.4618Z" fill="#97FDDF"/><path opacity="0.2" d="M31.8915 53.008L31.5598 53.1913V52.816L31.8915 52.624V53.008Z" fill="#97FDDF"/><path d="M32.6849 52.5455L32.3533 52.7375V52.3534L32.6849 52.1702V52.5455Z" fill="#97FDDF"/><path opacity="0.5" d="M33.4794 52.0829L33.1477 52.2749V51.8996L33.4794 51.7076V52.0829Z" fill="#97FDDF"/><path opacity="0.5" d="M34.2738 51.629L33.9421 51.821V51.437L34.2738 51.245V51.629Z" fill="#97FDDF"/><path opacity="0.5" d="M35.0685 51.1665L34.7368 51.3585V50.9832L35.0685 50.7912V51.1665Z" fill="#97FDDF"/><path d="M35.8627 50.7127L35.5398 50.896V50.5207L35.8627 50.3287V50.7127Z" fill="#97FDDF"/><path opacity="0.2" d="M36.6567 50.25L36.3337 50.442V50.058L36.6567 49.8747V50.25Z" fill="#97FDDF"/><path d="M37.4506 49.7962L37.1277 49.9795V49.6042L37.4506 49.4122V49.7962Z" fill="#97FDDF"/><path opacity="0.2" d="M38.2448 49.3337L37.9219 49.5257V49.1417L38.2448 48.9496V49.3337Z" fill="#97FDDF"/><path opacity="0.2" d="M26.3229 57.1972L26 57.3892V57.014L26.3229 56.822V57.1972Z" fill="#97FDDF"/><path opacity="0.2" d="M27.1174 56.7435L26.7944 56.9355V56.5514L27.1174 56.3594V56.7435Z" fill="#97FDDF"/><path d="M27.9106 56.2809L27.5876 56.4729V56.0976L27.9106 55.9056V56.2809Z" fill="#97FDDF"/><path opacity="0.2" d="M28.714 55.827L28.3823 56.0103V55.635L28.714 55.443V55.827Z" fill="#97FDDF"/><path d="M29.5089 55.3644L29.1772 55.5564V55.1724L29.5089 54.9891V55.3644Z" fill="#97FDDF"/><path d="M30.3026 54.9106L29.9709 55.0939V54.7186L30.3026 54.5266V54.9106Z" fill="#97FDDF"/><path d="M31.097 54.448L30.7654 54.64V54.256L31.097 54.064V54.448Z" fill="#97FDDF"/><path d="M31.8915 53.9855L31.5598 54.1775V53.8022L31.8915 53.6102V53.9855Z" fill="#97FDDF"/><path d="M32.6849 53.5316L32.3533 53.7236V53.3396L32.6849 53.1476V53.5316Z" fill="#97FDDF"/><path opacity="0.5" d="M33.4794 53.0691L33.1477 53.2611V52.8771L33.4794 52.6938V53.0691Z" fill="#97FDDF"/><path opacity="0.5" d="M34.2738 52.6153L33.9421 52.7986V52.4233L34.2738 52.2313V52.6153Z" fill="#97FDDF"/><path opacity="0.5" d="M35.0685 52.1527L34.7368 52.3447V51.9607L35.0685 51.7774V52.1527Z" fill="#97FDDF"/><path opacity="0.2" d="M35.8627 51.6902L35.5398 51.8822V51.5069L35.8627 51.3149V51.6902Z" fill="#97FDDF"/><path opacity="0.2" d="M36.6567 51.2363L36.3337 51.4283V51.0443L36.6567 50.8523V51.2363Z" fill="#97FDDF"/><path d="M37.4506 50.7738L37.1277 50.9658V50.5905L37.4506 50.3985V50.7738Z" fill="#97FDDF"/><path d="M38.2448 50.3199L37.9219 50.5032V50.1279L38.2448 49.9359V50.3199Z" fill="#97FDDF"/><path opacity="0.2" d="M26.3229 58.1835L26 58.3755V57.9914L26.3229 57.8082V58.1835Z" fill="#97FDDF"/><path opacity="0.2" d="M27.1174 57.7295L26.7944 57.9128V57.5375L27.1174 57.3455V57.7295Z" fill="#97FDDF"/><path d="M27.9106 57.2671L27.5876 57.4591V57.0751L27.9106 56.8918V57.2671Z" fill="#97FDDF"/><path d="M28.714 56.8045L28.3823 56.9965V56.6212L28.714 56.4292V56.8045Z" fill="#97FDDF"/><path opacity="0.2" d="M29.5089 56.3507L29.1772 56.5427V56.1587L29.5089 55.9667V56.3507Z" fill="#97FDDF"/><path d="M30.3026 55.8881L29.9709 56.0801V55.7048L30.3026 55.5128V55.8881Z" fill="#97FDDF"/><path d="M31.097 55.4342L30.7654 55.6175V55.2422L31.097 55.0502V55.4342Z" fill="#97FDDF"/><path d="M31.8915 54.9717L31.5598 55.1637V54.7797L31.8915 54.5964V54.9717Z" fill="#97FDDF"/><path d="M32.6849 54.5179L32.3533 54.7011V54.3259L32.6849 54.1339V54.5179Z" fill="#97FDDF"/><path opacity="0.5" d="M33.4794 54.0553L33.1477 54.2473V53.8633L33.4794 53.6713V54.0553Z" fill="#97FDDF"/><path opacity="0.5" d="M34.2738 53.5928L33.9421 53.7848V53.4095L34.2738 53.2175V53.5928Z" fill="#97FDDF"/><path opacity="0.5" d="M35.0685 53.1389L34.7368 53.3309V52.9469L35.0685 52.7549V53.1389Z" fill="#97FDDF"/><path d="M35.8627 52.6763L35.5398 52.8683V52.4843L35.8627 52.301V52.6763Z" fill="#97FDDF"/><path opacity="0.2" d="M36.6567 52.2225L36.3337 52.4058V52.0305L36.6567 51.8385V52.2225Z" fill="#97FDDF"/><path opacity="0.2" d="M37.4506 51.7599L37.1277 51.9519V51.5679L37.4506 51.3846V51.7599Z" fill="#97FDDF"/><path d="M38.2448 51.2973L37.9219 51.4894V51.1141L38.2448 50.9221V51.2973Z" fill="#97FDDF"/><path opacity="0.2" d="M26.3229 59.1697L26 59.3617V58.9776L26.3229 58.7856V59.1697Z" fill="#97FDDF"/><path opacity="0.2" d="M27.1174 58.7071L26.7944 58.8991V58.5239L27.1174 58.3318V58.7071Z" fill="#97FDDF"/><path opacity="0.2" d="M27.9106 58.2533L27.5876 58.4453V58.0613L27.9106 57.8693V58.2533Z" fill="#97FDDF"/><path d="M28.714 57.7907L28.3823 57.9828V57.5987L28.714 57.4155V57.7907Z" fill="#97FDDF"/><path opacity="0.2" d="M29.5089 57.3369L29.1772 57.5202V57.1449L29.5089 56.9529V57.3369Z" fill="#97FDDF"/><path d="M30.3026 56.8743L29.9709 57.0663V56.6823L30.3026 56.499V56.8743Z" fill="#97FDDF"/><path d="M31.097 56.4118L30.7654 56.6038V56.2285L31.097 56.0365V56.4118Z" fill="#97FDDF"/><path opacity="0.2" d="M31.8915 55.9579L31.5598 56.1499V55.7659L31.8915 55.5739V55.9579Z" fill="#97FDDF"/><path d="M32.6849 55.4955L32.3533 55.6875V55.3122L32.6849 55.1202V55.4955Z" fill="#97FDDF"/><path opacity="0.5" d="M33.4794 55.0414L33.1477 55.2247V54.8494L33.4794 54.6574V55.0414Z" fill="#97FDDF"/><path opacity="0.5" d="M34.2738 54.579L33.9421 54.771V54.387L34.2738 54.2037V54.579Z" fill="#97FDDF"/><path opacity="0.5" d="M35.0685 54.125L34.7455 54.3083L34.7368 53.933L35.0685 53.741V54.125Z" fill="#97FDDF"/><path d="M35.8627 53.6626L35.5398 53.8546V53.4706L35.8627 53.2786V53.6626Z" fill="#97FDDF"/><path opacity="0.2" d="M36.6567 53.2L36.3337 53.392V53.0167L36.6567 52.8247V53.2Z" fill="#97FDDF"/><path opacity="0.2" d="M37.4506 52.7461L37.1277 52.9381V52.5541L37.4506 52.3621V52.7461Z" fill="#97FDDF"/><path opacity="0.2" d="M38.2448 52.2837L37.9219 52.4757V52.0917L38.2448 51.9084V52.2837Z" fill="#97FDDF"/><path d="M26.3229 60.1559L26 60.3392V59.9639L26.3229 59.7719V60.1559Z" fill="#97FDDF"/><path opacity="0.2" d="M27.1174 59.6932L26.7944 59.8852V59.5012L27.1174 59.3179V59.6932Z" fill="#97FDDF"/><path opacity="0.2" d="M27.9106 59.2395L27.5876 59.4228V59.0475L27.9106 58.8555V59.2395Z" fill="#97FDDF"/><path d="M28.714 58.777L28.3823 58.969V58.585L28.714 58.3929V58.777Z" fill="#97FDDF"/><path opacity="0.2" d="M29.5089 58.3143L29.1772 58.5063V58.131L29.5089 57.939V58.3143Z" fill="#97FDDF"/><path d="M30.3026 57.8606L29.9709 58.0526V57.6686L30.3026 57.4766V57.8606Z" fill="#97FDDF"/><path d="M31.097 57.398L30.7654 57.59V57.206L31.097 57.0227V57.398Z" fill="#97FDDF"/><path opacity="0.2" d="M31.8915 56.9441L31.5598 57.1274V56.7521L31.8915 56.5601V56.9441Z" fill="#97FDDF"/><path d="M32.6849 56.4815L32.3533 56.6735V56.2895L32.6849 56.1063V56.4815Z" fill="#97FDDF"/><path opacity="0.2" d="M33.4794 56.019L33.1477 56.211V55.8357L33.4794 55.6437V56.019Z" fill="#97FDDF"/><path opacity="0.2" d="M34.2738 55.5652L33.9421 55.7572V55.3732L34.2738 55.1812V55.5652Z" fill="#97FDDF"/><path opacity="0.5" d="M35.0685 55.1025L34.7456 55.2945V54.9192L35.0685 54.7272V55.1025Z" fill="#97FDDF"/><path opacity="0.2" d="M35.8627 54.6488L35.5398 54.8321V54.4568L35.8627 54.2648V54.6488Z" fill="#97FDDF"/><path opacity="0.2" d="M36.6567 54.1862L36.3337 54.3782V53.9942L36.6567 53.8109V54.1862Z" fill="#97FDDF"/><path opacity="0.2" d="M37.4506 53.7323L37.1277 53.9156V53.5403L37.4506 53.3483V53.7323Z" fill="#97FDDF"/><path d="M38.2448 53.2698L37.9219 53.4618V53.0778L38.2448 52.8858V53.2698Z" fill="#97FDDF"/><path opacity="0.2" d="M26.3229 61.1333L26 61.3254V60.9501L26.3229 60.7581V61.1333Z" fill="#97FDDF"/><path opacity="0.5" d="M27.1174 60.6795L26.7944 60.8715V60.4875L27.1174 60.2955V60.6795Z" fill="#97FDDF"/><path opacity="0.2" d="M27.9193 60.217L27.5876 60.409V60.0337L27.9106 59.8417L27.9193 60.217Z" fill="#97FDDF"/><path d="M28.714 59.7633L28.3823 59.9466V59.5713L28.714 59.3793V59.7633Z" fill="#97FDDF"/><path d="M29.5089 59.3005L29.1772 59.4925V59.1085L29.5089 58.9252V59.3005Z" fill="#97FDDF"/><path d="M30.3026 58.8468L29.9709 59.0301V58.6548L30.3026 58.4628V58.8468Z" fill="#97FDDF"/><path d="M31.097 58.3841L30.7654 58.5761V58.1921L31.097 58.0001V58.3841Z" fill="#97FDDF"/><path d="M31.8915 57.9216L31.5598 58.1136V57.7383L31.8915 57.5463V57.9216Z" fill="#97FDDF"/><path d="M32.6849 57.4677L32.3533 57.6597V57.2757L32.6849 57.0837V57.4677Z" fill="#97FDDF"/><path opacity="0.2" d="M33.4794 57.0053L33.1477 57.1973V56.8133L33.4794 56.63V57.0053Z" fill="#97FDDF"/><path opacity="0.2" d="M34.2738 56.5514L33.9421 56.7346V56.3594L34.2738 56.1674V56.5514Z" fill="#97FDDF"/><path opacity="0.2" d="M35.0685 56.0888L34.7456 56.2809V55.8968L35.0685 55.7136V56.0888Z" fill="#97FDDF"/><path d="M35.8627 55.6263L35.5398 55.8183V55.443L35.8627 55.251V55.6263Z" fill="#97FDDF"/><path d="M36.6567 55.1724L36.3337 55.3644V54.9804L36.6567 54.7884V55.1724Z" fill="#97FDDF"/><path d="M37.4506 54.7098L37.1277 54.9018V54.5265L37.4506 54.3345V54.7098Z" fill="#97FDDF"/><path opacity="0.2" d="M38.2448 54.256L37.9219 54.4392V54.064L38.2448 53.8719V54.256Z" fill="#97FDDF"/><path d="M7 37.1761V44.5945L24.9614 54.9193V47.5008L7 37.1761Z" fill="#E1E1E1"/><path d="M24.9612 47.5009V54.9193L39.2831 46.6543V39.2358L24.9612 47.5009Z" fill="#F6F6F6"/><path d="M25.5105 47.8238L38.7328 40.1871V46.3401L25.5105 53.968V47.8238Z" fill="#68B29C"/><path d="M7 37.1761L24.9614 47.5008L39.2833 39.2358L28.2604 32.8734L7 37.1761Z" fill="#84D5BD" fill-opacity="0.4"/><path opacity="0.2" d="M26.3229 48.0683L26 48.2603V47.885L26.3229 47.693V48.0683Z" fill="#97FDDF"/><path opacity="0.2" d="M27.1174 47.6144L26.7944 47.8064V47.4224L27.1174 47.2303V47.6144Z" fill="#97FDDF"/><path d="M27.9106 47.1518L27.5876 47.3438V46.9598L27.9106 46.7766V47.1518Z" fill="#97FDDF"/><path d="M28.714 46.698L28.3823 46.8813V46.506L28.714 46.314V46.698Z" fill="#97FDDF"/><path d="M29.5089 46.2355L29.1772 46.4275V46.0435L29.5089 45.8515V46.2355Z" fill="#97FDDF"/><path d="M30.3026 45.7729L29.9709 45.9649V45.5897L30.3026 45.3976V45.7729Z" fill="#97FDDF"/><path d="M31.097 45.319L30.7654 45.511V45.127L31.097 44.935V45.319Z" fill="#97FDDF"/><path opacity="0.2" d="M31.8915 44.8565L31.5598 45.0486V44.6645L31.8915 44.4813V44.8565Z" fill="#97FDDF"/><path d="M32.6849 44.4026L32.3533 44.5859V44.2106L32.6849 44.0186V44.4026Z" fill="#97FDDF"/><path opacity="0.5" d="M33.4794 43.9401L33.1477 44.1321V43.7481L33.4794 43.5648V43.9401Z" fill="#97FDDF"/><path opacity="0.5" d="M34.2738 43.4863L33.9421 43.6696V43.2943L34.2738 43.1023V43.4863Z" fill="#97FDDF"/><path opacity="0.5" d="M35.0685 43.0237L34.7368 43.2157V42.8317L35.0685 42.6397V43.0237Z" fill="#97FDDF"/><path d="M35.8627 42.5612L35.5398 42.7532V42.3779L35.8627 42.1859V42.5612Z" fill="#97FDDF"/><path opacity="0.2" d="M36.6567 42.1073L36.3337 42.2993V41.9153L36.6567 41.7233V42.1073Z" fill="#97FDDF"/><path d="M37.4506 41.6448L37.1277 41.8368V41.4527L37.4506 41.2695V41.6448Z" fill="#97FDDF"/><path opacity="0.2" d="M38.2448 41.1908L37.9219 41.3741V40.9988L38.2448 40.8068V41.1908Z" fill="#97FDDF"/><path opacity="0.2" d="M26.3229 49.0545L26 49.2466V48.8625L26.3229 48.6793V49.0545Z" fill="#97FDDF"/><path opacity="0.2" d="M27.1174 48.592L26.7944 48.784V48.4087L27.1174 48.2167V48.592Z" fill="#97FDDF"/><path d="M27.9106 48.1381L27.5876 48.3301V47.9461L27.9106 47.7541V48.1381Z" fill="#97FDDF"/><path opacity="0.2" d="M28.714 47.6756L28.3823 47.8676V47.4924L28.714 47.3004V47.6756Z" fill="#97FDDF"/><path d="M29.5089 47.2217L29.1772 47.405V47.0297L29.5089 46.8377V47.2217Z" fill="#97FDDF"/><path d="M30.3026 46.7591L29.9709 46.9511V46.5671L30.3026 46.3838V46.7591Z" fill="#97FDDF"/><path d="M31.097 46.3053L30.7654 46.4886V46.1133L31.097 45.9213V46.3053Z" fill="#97FDDF"/><path d="M31.8915 45.8428L31.5598 46.0348V45.6507L31.8915 45.4587V45.8428Z" fill="#97FDDF"/><path d="M32.6849 45.3802L32.3533 45.5722V45.197L32.6849 45.0049V45.3802Z" fill="#97FDDF"/><path opacity="0.5" d="M33.4794 44.9263L33.1477 45.1183V44.7343L33.4794 44.5423V44.9263Z" fill="#97FDDF"/><path opacity="0.5" d="M34.2738 44.4638L33.9421 44.6559V44.2718L34.2738 44.0886V44.4638Z" fill="#97FDDF"/><path opacity="0.5" d="M35.0685 44.01L34.7368 44.1933V43.818L35.0685 43.626V44.01Z" fill="#97FDDF"/><path opacity="0.2" d="M35.8627 43.5475L35.5398 43.7395V43.3555L35.8627 43.1722V43.5475Z" fill="#97FDDF"/><path opacity="0.2" d="M36.6567 43.0935L36.3337 43.2768V42.9015L36.6567 42.7095V43.0935Z" fill="#97FDDF"/><path d="M37.4506 42.631L37.1277 42.823V42.439L37.4506 42.2469V42.631Z" fill="#97FDDF"/><path d="M38.2448 42.1684L37.9219 42.3604V41.9852L38.2448 41.7932V42.1684Z" fill="#97FDDF"/><path opacity="0.2" d="M26.3229 50.0407L26 50.2327V49.8487L26.3229 49.6567V50.0407Z" fill="#97FDDF"/><path opacity="0.2" d="M27.1174 49.578L26.7944 49.7701V49.386L27.1174 49.2028V49.578Z" fill="#97FDDF"/><path d="M27.9106 49.1244L27.5876 49.3077V48.9324L27.9106 48.7404V49.1244Z" fill="#97FDDF"/><path d="M28.714 48.6617L28.3823 48.8537V48.4697L28.714 48.2864V48.6617Z" fill="#97FDDF"/><path opacity="0.2" d="M29.5089 48.1992L29.1772 48.3912V48.0159L29.5089 47.8239V48.1992Z" fill="#97FDDF"/><path d="M30.3026 47.7454L29.9709 47.9374V47.5534L30.3026 47.3614V47.7454Z" fill="#97FDDF"/><path d="M31.097 47.2828L30.7654 47.4748V47.0995L31.097 46.9075V47.2828Z" fill="#97FDDF"/><path d="M31.8915 46.829L31.5598 47.0123V46.637L31.8915 46.445V46.829Z" fill="#97FDDF"/><path d="M32.6849 46.3663L32.3533 46.5583V46.1743L32.6849 45.991V46.3663Z" fill="#97FDDF"/><path opacity="0.5" d="M33.4794 45.9125L33.1477 46.0958V45.7205L33.4794 45.5285V45.9125Z" fill="#97FDDF"/><path opacity="0.5" d="M34.2738 45.45L33.9421 45.642V45.258L34.2738 45.066V45.45Z" fill="#97FDDF"/><path opacity="0.5" d="M35.0685 44.9875L34.7368 45.1795V44.8042L35.0685 44.6122V44.9875Z" fill="#97FDDF"/><path d="M35.8627 44.5336L35.5398 44.7256V44.3416L35.8627 44.1496V44.5336Z" fill="#97FDDF"/><path opacity="0.2" d="M36.6567 44.0711L36.3337 44.2631V43.8791L36.6567 43.6958V44.0711Z" fill="#97FDDF"/><path opacity="0.2" d="M37.4506 43.6172L37.1277 43.8005V43.4252L37.4506 43.2332V43.6172Z" fill="#97FDDF"/><path d="M38.2448 43.1546L37.9219 43.3467V42.9626L38.2448 42.7794V43.1546Z" fill="#97FDDF"/><path opacity="0.2" d="M26.3229 51.027L26 51.2102V50.835L26.3229 50.6429V51.027Z" fill="#97FDDF"/><path opacity="0.2" d="M27.1174 50.5643L26.7944 50.7563V50.3723L27.1174 50.1803V50.5643Z" fill="#97FDDF"/><path opacity="0.2" d="M27.9106 50.1017L27.5876 50.2937V49.9184L27.9106 49.7264V50.1017Z" fill="#97FDDF"/><path d="M28.714 49.6481L28.3823 49.8401V49.456L28.714 49.264V49.6481Z" fill="#97FDDF"/><path opacity="0.2" d="M29.5089 49.1853L29.1772 49.3773V48.9933L29.5089 48.8101V49.1853Z" fill="#97FDDF"/><path d="M30.3026 48.7317L29.9709 48.915V48.5397L30.3026 48.3477V48.7317Z" fill="#97FDDF"/><path d="M31.097 48.269L30.7654 48.461V48.077L31.097 47.8937V48.269Z" fill="#97FDDF"/><path opacity="0.2" d="M31.8915 47.8064L31.5598 47.9984V47.6232L31.8915 47.4312V47.8064Z" fill="#97FDDF"/><path d="M32.6849 47.3526L32.3533 47.5446V47.1606L32.6849 46.9686V47.3526Z" fill="#97FDDF"/><path opacity="0.5" d="M33.4794 46.8901L33.1477 47.0821V46.7068L33.4794 46.5148V46.8901Z" fill="#97FDDF"/><path opacity="0.5" d="M34.2738 46.4361L33.9421 46.6194V46.2441L34.2738 46.0521V46.4361Z" fill="#97FDDF"/><path opacity="0.5" d="M35.0685 45.9736L34.7455 46.1656L34.7368 45.7816L35.0685 45.5983V45.9736Z" fill="#97FDDF"/><path d="M35.8627 45.5198L35.5398 45.7031V45.3278L35.8627 45.1358V45.5198Z" fill="#97FDDF"/><path opacity="0.2" d="M36.6567 45.0572L36.3337 45.2492V44.8652L36.6567 44.6732V45.0572Z" fill="#97FDDF"/><path opacity="0.2" d="M37.4506 44.5947L37.1277 44.7867V44.4114L37.4506 44.2194V44.5947Z" fill="#97FDDF"/><path opacity="0.2" d="M38.2448 44.1408L37.9219 44.3328V43.9488L38.2448 43.7568V44.1408Z" fill="#97FDDF"/><path d="M26.3229 52.0044L26 52.1964V51.8212L26.3229 51.6292V52.0044Z" fill="#97FDDF"/><path opacity="0.2" d="M27.1174 51.5505L26.7944 51.7338V51.3585L27.1174 51.1665V51.5505Z" fill="#97FDDF"/><path opacity="0.2" d="M27.9106 51.088L27.5876 51.28V50.896L27.9106 50.7127V51.088Z" fill="#97FDDF"/><path d="M28.714 50.6341L28.3823 50.8174V50.4421L28.714 50.2501V50.6341Z" fill="#97FDDF"/><path opacity="0.2" d="M29.5089 50.1716L29.1772 50.3636V49.9795L29.5089 49.7875V50.1716Z" fill="#97FDDF"/><path d="M30.3026 49.709L29.9709 49.901V49.5257L30.3026 49.3337V49.709Z" fill="#97FDDF"/><path d="M31.097 49.2552L30.7654 49.4472V49.0632L31.097 48.8712V49.2552Z" fill="#97FDDF"/><path opacity="0.2" d="M31.8915 48.7926L31.5598 48.9847V48.6006L31.8915 48.4174V48.7926Z" fill="#97FDDF"/><path d="M32.6849 48.3388L32.3533 48.5221V48.1468L32.6849 47.9548V48.3388Z" fill="#97FDDF"/><path opacity="0.2" d="M33.4794 47.8763L33.1477 48.0683V47.6843L33.4794 47.501V47.8763Z" fill="#97FDDF"/><path opacity="0.2" d="M34.2738 47.4137L33.9421 47.6057V47.2305L34.2738 47.0385V47.4137Z" fill="#97FDDF"/><path opacity="0.5" d="M35.0685 46.9599L34.7456 47.1519V46.7679L35.0685 46.5759V46.9599Z" fill="#97FDDF"/><path opacity="0.2" d="M35.8627 46.4973L35.5398 46.6893V46.314L35.8627 46.122V46.4973Z" fill="#97FDDF"/><path opacity="0.2" d="M36.6567 46.0434L36.3337 46.2267V45.8514L36.6567 45.6594V46.0434Z" fill="#97FDDF"/><path opacity="0.2" d="M37.4506 45.5809L37.1277 45.7729V45.3888L37.4506 45.2056V45.5809Z" fill="#97FDDF"/><path d="M38.2448 45.1271L37.9219 45.3104V44.9351L38.2448 44.7431V45.1271Z" fill="#97FDDF"/><path opacity="0.2" d="M26.3229 52.9907L26 53.1827V52.7987L26.3229 52.6154V52.9907Z" fill="#97FDDF"/><path opacity="0.5" d="M27.1174 52.5281L26.7944 52.7201V52.3448L27.1174 52.1528V52.5281Z" fill="#97FDDF"/><path opacity="0.2" d="M27.9193 52.0742L27.5876 52.2662V51.8822L27.9106 51.6902L27.9193 52.0742Z" fill="#97FDDF"/><path d="M28.714 51.6117L28.3823 51.8037V51.4285L28.714 51.2365V51.6117Z" fill="#97FDDF"/><path d="M29.5089 51.1578L29.1772 51.3411V50.9658L29.5089 50.7738V51.1578Z" fill="#97FDDF"/><path d="M30.3026 50.6954L29.9709 50.8874V50.5033L30.3026 50.3201V50.6954Z" fill="#97FDDF"/><path d="M31.097 50.2414L30.7654 50.4247V50.0494L31.097 49.8574V50.2414Z" fill="#97FDDF"/><path d="M31.8915 49.7789L31.5598 49.9709V49.5869L31.8915 49.3949V49.7789Z" fill="#97FDDF"/><path d="M32.6849 49.3164L32.3533 49.5084V49.1331L32.6849 48.9411V49.3164Z" fill="#97FDDF"/><path opacity="0.2" d="M33.4794 48.8625L33.1477 49.0545V48.6705L33.4794 48.4785V48.8625Z" fill="#97FDDF"/><path opacity="0.2" d="M34.2738 48.4L33.9421 48.592V48.208L34.2738 48.0247V48.4Z" fill="#97FDDF"/><path opacity="0.2" d="M35.0685 47.9461L34.7456 48.1294V47.7541L35.0685 47.5621V47.9461Z" fill="#97FDDF"/><path d="M35.8627 47.4834L35.5398 47.6754V47.2914L35.8627 47.1082V47.4834Z" fill="#97FDDF"/><path d="M36.6567 47.0208L36.3337 47.2128V46.8375L36.6567 46.6455V47.0208Z" fill="#97FDDF"/><path d="M37.4506 46.5671L37.1277 46.7591V46.3751L37.4506 46.183V46.5671Z" fill="#97FDDF"/><path opacity="0.2" d="M38.2448 46.1045L37.9219 46.2965V45.9212L38.2448 45.7292V46.1045Z" fill="#97FDDF"/><path d="M7 29.0333V36.4518L24.9614 46.7765V39.3581L7 29.0333Z" fill="#E1E1E1"/><path d="M24.9612 39.358V46.7764L39.2831 38.5114V31.093L24.9612 39.358Z" fill="#F6F6F6"/><path d="M25.5105 39.6722L38.7328 32.0443V38.1885L25.5105 45.8251V39.6722Z" fill="#68B29C"/><path d="M7 29.0333L24.9614 39.358L39.2833 31.093L21.3132 20.7595L7 29.0333Z" fill="#F1F1F1"/><path opacity="0.2" d="M26.3229 39.9253L26 40.1173V39.7333L26.3229 39.5413V39.9253Z" fill="#97FDDF"/><path opacity="0.2" d="M27.1174 39.4627L26.7944 39.6547V39.2794L27.1174 39.0874V39.4627Z" fill="#97FDDF"/><path d="M27.9106 39.0088L27.5876 39.2008V38.8168L27.9106 38.6248V39.0088Z" fill="#97FDDF"/><path d="M28.714 38.5462L28.3823 38.7383V38.3542L28.714 38.171V38.5462Z" fill="#97FDDF"/><path d="M29.5089 38.0924L29.1772 38.2757V37.9004L29.5089 37.7084V38.0924Z" fill="#97FDDF"/><path d="M30.3026 37.6299L29.9709 37.8219V37.4379L30.3026 37.2546V37.6299Z" fill="#97FDDF"/><path d="M31.097 37.1673L30.7654 37.3593V36.984L31.097 36.792V37.1673Z" fill="#97FDDF"/><path opacity="0.2" d="M31.8915 36.7135L31.5598 36.9055V36.5215L31.8915 36.3295V36.7135Z" fill="#97FDDF"/><path d="M32.6849 36.2509L32.3533 36.4429V36.0676L32.6849 35.8756V36.2509Z" fill="#97FDDF"/><path opacity="0.5" d="M33.4794 35.7972L33.1477 35.9804V35.6052L33.4794 35.4131V35.7972Z" fill="#97FDDF"/><path opacity="0.5" d="M34.2738 35.3346L33.9421 35.5266V35.1426L34.2738 34.9593V35.3346Z" fill="#97FDDF"/><path opacity="0.5" d="M35.0685 34.8807L34.7368 35.064V34.6887L35.0685 34.4967V34.8807Z" fill="#97FDDF"/><path d="M35.8627 34.4181L35.5398 34.6101V34.2261L35.8627 34.0341V34.4181Z" fill="#97FDDF"/><path opacity="0.2" d="M36.6567 33.9556L36.3337 34.1476V33.7723L36.6567 33.5803V33.9556Z" fill="#97FDDF"/><path d="M37.4506 33.5018L37.1277 33.6938V33.3098L37.4506 33.1178V33.5018Z" fill="#97FDDF"/><path opacity="0.2" d="M38.2448 33.0391L37.9219 33.2311V32.8471L38.2448 32.6638V33.0391Z" fill="#97FDDF"/><path opacity="0.2" d="M26.3229 40.9115L26 41.0948V40.7195L26.3229 40.5275V40.9115Z" fill="#97FDDF"/><path opacity="0.2" d="M27.1174 40.449L26.7944 40.641V40.2569L27.1174 40.0737V40.449Z" fill="#97FDDF"/><path d="M27.9106 39.9951L27.5876 40.1784V39.8031L27.9106 39.6111V39.9951Z" fill="#97FDDF"/><path opacity="0.2" d="M28.714 39.5326L28.3823 39.7246V39.3406L28.714 39.1486V39.5326Z" fill="#97FDDF"/><path d="M29.5089 39.07L29.1772 39.262V38.8867L29.5089 38.6947V39.07Z" fill="#97FDDF"/><path d="M30.3026 38.6161L29.9709 38.8081V38.4241L30.3026 38.2321V38.6161Z" fill="#97FDDF"/><path d="M31.097 38.1536L30.7654 38.3456V37.9616L31.097 37.7783V38.1536Z" fill="#97FDDF"/><path d="M31.8915 37.6997L31.5598 37.883V37.5077L31.8915 37.3157V37.6997Z" fill="#97FDDF"/><path d="M32.6849 37.2372L32.3533 37.4292V37.0452L32.6849 36.8619V37.2372Z" fill="#97FDDF"/><path opacity="0.5" d="M33.4794 36.7746L33.1477 36.9666V36.5914L33.4794 36.3994V36.7746Z" fill="#97FDDF"/><path opacity="0.5" d="M34.2738 36.3208L33.9421 36.5128V36.1288L34.2738 35.9368V36.3208Z" fill="#97FDDF"/><path opacity="0.5" d="M35.0685 35.8583L34.7368 36.0503V35.675L35.0685 35.483V35.8583Z" fill="#97FDDF"/><path opacity="0.2" d="M35.8627 35.4045L35.5398 35.5877V35.2125L35.8627 35.0204V35.4045Z" fill="#97FDDF"/><path opacity="0.2" d="M36.6567 34.9418L36.3337 35.1338V34.7498L36.6567 34.5665V34.9418Z" fill="#97FDDF"/><path d="M37.4506 34.4881L37.1277 34.6714V34.2961L37.4506 34.1041V34.4881Z" fill="#97FDDF"/><path d="M38.2448 34.0254L37.9219 34.2174V33.8334L38.2448 33.6414V34.0254Z" fill="#97FDDF"/><path opacity="0.2" d="M26.3229 41.889L26 42.081V41.7057L26.3229 41.5137V41.889Z" fill="#97FDDF"/><path opacity="0.2" d="M27.1174 41.4351L26.7944 41.6271V41.2431L27.1174 41.0511V41.4351Z" fill="#97FDDF"/><path d="M27.9106 40.9726L27.5876 41.1646V40.7894L27.9106 40.5974V40.9726Z" fill="#97FDDF"/><path d="M28.714 40.5187L28.3823 40.702V40.3267L28.714 40.1347V40.5187Z" fill="#97FDDF"/><path opacity="0.2" d="M29.5089 40.0561L29.1772 40.2481V39.8641L29.5089 39.6808V40.0561Z" fill="#97FDDF"/><path d="M30.3026 39.6024L29.9709 39.7857V39.4104L30.3026 39.2184V39.6024Z" fill="#97FDDF"/><path d="M31.097 39.1398L30.7654 39.3318V38.9478L31.097 38.7558V39.1398Z" fill="#97FDDF"/><path d="M31.8915 38.6773L31.5598 38.8693V38.494L31.8915 38.302V38.6773Z" fill="#97FDDF"/><path d="M32.6849 38.2235L32.3533 38.4155V38.0315L32.6849 37.8395V38.2235Z" fill="#97FDDF"/><path opacity="0.5" d="M33.4794 37.7607L33.1477 37.9527V37.5687L33.4794 37.3854V37.7607Z" fill="#97FDDF"/><path opacity="0.5" d="M34.2738 37.3069L33.9421 37.4901V37.1149L34.2738 36.9229V37.3069Z" fill="#97FDDF"/><path opacity="0.5" d="M35.0685 36.8444L34.7368 37.0364V36.6524L35.0685 36.4691V36.8444Z" fill="#97FDDF"/><path d="M35.8627 36.3818L35.5398 36.5738V36.1985L35.8627 36.0065V36.3818Z" fill="#97FDDF"/><path opacity="0.2" d="M36.6567 35.9281L36.3337 36.1201V35.7361L36.6567 35.5441V35.9281Z" fill="#97FDDF"/><path opacity="0.2" d="M37.4506 35.4654L37.1277 35.6574V35.2822L37.4506 35.0901V35.4654Z" fill="#97FDDF"/><path d="M38.2448 35.0117L37.9219 35.195V34.8197L38.2448 34.6277V35.0117Z" fill="#97FDDF"/><path opacity="0.2" d="M26.3229 42.8752L26 43.0672V42.6832L26.3229 42.4999V42.8752Z" fill="#97FDDF"/><path opacity="0.2" d="M27.1174 42.4214L26.7944 42.6046V42.2294L27.1174 42.0374V42.4214Z" fill="#97FDDF"/><path opacity="0.2" d="M27.9106 41.9588L27.5876 42.1508V41.7668L27.9106 41.5748V41.9588Z" fill="#97FDDF"/><path d="M28.714 41.4963L28.3823 41.6883V41.313L28.714 41.121V41.4963Z" fill="#97FDDF"/><path opacity="0.2" d="M29.5089 41.0424L29.1772 41.2344V40.8504L29.5089 40.6584V41.0424Z" fill="#97FDDF"/><path d="M30.3026 40.5799L29.9709 40.7719V40.3879L30.3026 40.2047V40.5799Z" fill="#97FDDF"/><path d="M31.097 40.1261L30.7654 40.3094V39.9341L31.097 39.7421V40.1261Z" fill="#97FDDF"/><path opacity="0.2" d="M31.8915 39.6635L31.5598 39.8555V39.4715L31.8915 39.2882V39.6635Z" fill="#97FDDF"/><path d="M32.6849 39.2096L32.3533 39.3929V39.0176L32.6849 38.8256V39.2096Z" fill="#97FDDF"/><path opacity="0.5" d="M33.4794 38.747L33.1477 38.939V38.555L33.4794 38.363V38.747Z" fill="#97FDDF"/><path opacity="0.5" d="M34.2738 38.2845L33.9421 38.4765V38.1012L34.2738 37.9092V38.2845Z" fill="#97FDDF"/><path opacity="0.5" d="M35.0685 37.8305L34.7455 38.0226L34.7368 37.6385L35.0685 37.4465V37.8305Z" fill="#97FDDF"/><path d="M35.8627 37.3681L35.5398 37.5602V37.1761L35.8627 36.9929V37.3681Z" fill="#97FDDF"/><path opacity="0.2" d="M36.6567 36.9142L36.3337 37.0974V36.7222L36.6567 36.5302V36.9142Z" fill="#97FDDF"/><path opacity="0.2" d="M37.4506 36.4517L37.1277 36.6437V36.2597L37.4506 36.0764V36.4517Z" fill="#97FDDF"/><path opacity="0.2" d="M38.2448 35.9891L37.9219 36.1811V35.8058L38.2448 35.6138V35.9891Z" fill="#97FDDF"/><path d="M26.3229 43.8614L26 44.0534V43.6694L26.3229 43.4774V43.8614Z" fill="#97FDDF"/><path opacity="0.2" d="M27.1174 43.3988L26.7944 43.5908V43.2155L27.1174 43.0235V43.3988Z" fill="#97FDDF"/><path opacity="0.2" d="M27.9106 42.9451L27.5876 43.1283V42.753L27.9106 42.561V42.9451Z" fill="#97FDDF"/><path d="M28.714 42.4824L28.3823 42.6744V42.2904L28.714 42.1071V42.4824Z" fill="#97FDDF"/><path opacity="0.2" d="M29.5089 42.0285L29.1772 42.2118V41.8365L29.5089 41.6445V42.0285Z" fill="#97FDDF"/><path d="M30.3026 41.566L29.9709 41.758V41.374L30.3026 41.182V41.566Z" fill="#97FDDF"/><path d="M31.097 41.1035L30.7654 41.2955V40.9202L31.097 40.7282V41.1035Z" fill="#97FDDF"/><path opacity="0.2" d="M31.8915 40.6496L31.5598 40.8416V40.4576L31.8915 40.2656V40.6496Z" fill="#97FDDF"/><path d="M32.6849 40.1871L32.3533 40.3791V39.9951L32.6849 39.8118V40.1871Z" fill="#97FDDF"/><path opacity="0.2" d="M33.4794 39.7332L33.1477 39.9165V39.5412L33.4794 39.3492V39.7332Z" fill="#97FDDF"/><path opacity="0.2" d="M34.2738 39.2707L33.9421 39.4627V39.0787L34.2738 38.8954V39.2707Z" fill="#97FDDF"/><path opacity="0.5" d="M35.0685 38.8169L34.7456 39.0002V38.6249L35.0685 38.4329V38.8169Z" fill="#97FDDF"/><path opacity="0.2" d="M35.8627 38.3543L35.5398 38.5463V38.1623L35.8627 37.9703V38.3543Z" fill="#97FDDF"/><path opacity="0.2" d="M36.6567 37.8918L36.3337 38.0838V37.7085L36.6567 37.5165V37.8918Z" fill="#97FDDF"/><path opacity="0.2" d="M37.4506 37.4379L37.1277 37.6212V37.2459L37.4506 37.0539V37.4379Z" fill="#97FDDF"/><path d="M38.2448 36.9754L37.9219 37.1674V36.7834L38.2448 36.6001V36.9754Z" fill="#97FDDF"/><path opacity="0.2" d="M26.3229 44.8478L26 45.031V44.6558L26.3229 44.4637V44.8478Z" fill="#97FDDF"/><path opacity="0.5" d="M27.1174 44.3851L26.7944 44.5771V44.1931L27.1174 44.0098V44.3851Z" fill="#97FDDF"/><path opacity="0.2" d="M27.9193 43.9225L27.5876 44.1145V43.7392L27.9106 43.5472L27.9193 43.9225Z" fill="#97FDDF"/><path d="M28.714 43.4686L28.3823 43.6606V43.2766L28.714 43.0846V43.4686Z" fill="#97FDDF"/><path d="M29.5089 43.0061L29.1772 43.1982V42.8229L29.5089 42.6309V43.0061Z" fill="#97FDDF"/><path d="M30.3026 42.5522L29.9709 42.7355V42.3602L30.3026 42.1682V42.5522Z" fill="#97FDDF"/><path d="M31.097 42.0897L30.7654 42.2817V41.8977L31.097 41.7144V42.0897Z" fill="#97FDDF"/><path d="M31.8915 41.636L31.5598 41.8192V41.444L31.8915 41.252V41.636Z" fill="#97FDDF"/><path d="M32.6849 41.1733L32.3533 41.3653V40.9813L32.6849 40.7892V41.1733Z" fill="#97FDDF"/><path opacity="0.2" d="M33.4794 40.7108L33.1477 40.9028V40.5275L33.4794 40.3355V40.7108Z" fill="#97FDDF"/><path opacity="0.2" d="M34.2738 40.2569L33.9421 40.4489V40.0649L34.2738 39.8729V40.2569Z" fill="#97FDDF"/><path opacity="0.2" d="M35.0685 39.7945L34.7456 39.9865V39.6025L35.0685 39.4192V39.7945Z" fill="#97FDDF"/><path d="M35.8627 39.3406L35.5398 39.5238V39.1486L35.8627 38.9565V39.3406Z" fill="#97FDDF"/><path d="M36.6567 38.878L36.3337 39.07V38.686L36.6567 38.5027V38.878Z" fill="#97FDDF"/><path d="M37.4506 38.4153L37.1277 38.6073V38.232L37.4506 38.04V38.4153Z" fill="#97FDDF"/><path opacity="0.2" d="M38.2448 37.9616L37.9219 38.1536V37.7696L38.2448 37.5776V37.9616Z" fill="#97FDDF"/><path d="M8.73633 26.8776V28.9897L25.1878 38.4504V36.3296L8.73633 26.8776Z" fill="#E1E1E1"/><path d="M25.188 36.3295V38.4503L37.5462 31.3112V29.1991L25.188 36.3295Z" fill="#F6F6F6"/><path d="M8.73682 26.8776L25.1883 36.3296L37.5466 29.1992L21.0863 19.7385L8.73682 26.8776Z" fill="#F1F1F1"/><path d="M34.229 29.1991L33.6529 29.5308L25.1872 34.4182L12.6282 27.2093L12.0435 26.8776L21.0852 21.6498L34.229 29.1991Z" fill="#F6F6F6"/><path d="M33.6537 29.5308L25.1879 34.4182L12.6289 27.2092L21.0859 22.3218L33.6537 29.5308Z" fill="#97FDDF"/></svg>