<svg width="85" height="85" viewBox="0 0 85 85" fill="none" xmlns="http://www.w3.org/2000/svg"><path d="M42.9961 72.6105L42.9576 72.5874L3 49.5233L42.9961 26.4285L43.0347 26.4516L83 49.5233L82.8922 49.5849L42.9961 72.6182V72.6105ZM3.27732 49.5233L42.9961 72.4564L82.715 49.5233L42.9961 26.5825L3.27732 49.5233Z" fill="#96E1CB"/><path d="M46.5805 28.5146L6.73926 51.5633L6.80869 51.6833L46.6499 28.6346L46.5805 28.5146Z" fill="#96E1CB"/><path d="M50.2149 30.6348L10.3535 53.6487L10.4228 53.7688L50.2842 30.7549L50.2149 30.6348Z" fill="#96E1CB"/><path d="M53.8468 32.7363L13.9653 55.7155L14.0346 55.8357L53.916 32.8565L53.8468 32.7363Z" fill="#96E1CB"/><path d="M57.4677 34.8279L17.5903 57.814L17.6596 57.9342L57.537 34.948L57.4677 34.8279Z" fill="#96E1CB"/><path d="M61.0952 36.9266L21.2178 59.9127L21.287 60.0329L61.1644 37.0467L61.0952 36.9266Z" fill="#96E1CB"/><path d="M64.7121 39.0148L24.8347 62.0009L24.904 62.121L64.7814 39.1349L64.7121 39.0148Z" fill="#96E1CB"/><path d="M68.347 41.1043L28.4656 64.0834L28.5348 64.2036L68.4162 41.2244L68.347 41.1043Z" fill="#96E1CB"/><path d="M71.9644 43.1932L32.083 66.1724L32.1522 66.2925L72.0337 43.3133L71.9644 43.1932Z" fill="#96E1CB"/><path d="M75.5854 45.2888L35.708 68.275L35.7773 68.3951L75.6547 45.409L75.5854 45.2888Z" fill="#96E1CB"/><path d="M79.2129 47.3875L39.3354 70.3737L39.4047 70.4938L79.2821 47.5077L79.2129 47.3875Z" fill="#96E1CB"/><path d="M39.4097 28.5386L39.3403 28.6587L79.2017 51.6727L79.271 51.5526L39.4097 28.5386Z" fill="#96E1CB"/><path d="M35.7866 30.6304L35.7173 30.7505L75.5786 53.7645L75.648 53.6444L35.7866 30.6304Z" fill="#96E1CB"/><path d="M32.1587 32.7249L32.0894 32.845L71.9507 55.859L72.02 55.7389L32.1587 32.7249Z" fill="#96E1CB"/><path d="M28.5425 34.8128L28.4731 34.9329L68.3345 57.9469L68.4038 57.8268L28.5425 34.8128Z" fill="#96E1CB"/><path d="M24.9121 36.9045L24.8428 37.0246L64.7041 60.0386L64.7735 59.9185L24.9121 36.9045Z" fill="#96E1CB"/><path d="M21.292 38.9991L21.2227 39.1191L61.084 62.1331L61.1533 62.013L21.292 38.9991Z" fill="#96E1CB"/><path d="M17.6689 41.0908L17.5996 41.2109L57.461 64.2248L57.5303 64.1048L17.6689 41.0908Z" fill="#96E1CB"/><path d="M14.041 43.1853L13.9717 43.3054L53.833 66.3194L53.9024 66.1993L14.041 43.1853Z" fill="#96E1CB"/><path d="M10.4248 45.2732L10.3555 45.3932L50.2168 68.4072L50.2862 68.2871L10.4248 45.2732Z" fill="#96E1CB"/><path d="M6.79394 47.3649L6.72461 47.485L46.586 70.4989L46.6553 70.3789L6.79394 47.3649Z" fill="#96E1CB"/><path d="M36.5561 22.4612L36.533 30.1184L29.2224 34.3861L29.2378 26.7289L36.5561 22.4612Z" fill="#D5900E"/><path d="M29.2378 26.7289L29.2224 34.3861L21.8579 30.1184L21.881 22.4612L29.2378 26.7289Z" fill="#FFC400"/><path d="M36.5559 22.4612L29.2376 26.7289L21.8809 22.4612L29.1914 18.1935L36.5559 22.4612Z" fill="#FFDE38"/><path d="M40.4921 17.1536L40.4844 21.8604L35.9856 24.4795L36.001 19.7727L40.4921 17.1536Z" fill="#68B29C"/><path d="M36.0011 19.7727L35.9857 24.4795L31.4561 21.8604L31.4715 17.1536L36.0011 19.7727Z" fill="#96E1CB"/><path d="M40.4924 17.1536L36.0013 19.7728L31.4717 17.1536L35.9705 14.5267L40.4924 17.1536Z" fill="#97FDDF"/><path d="M65.3594 43.8613L65.344 47.5667L61.8081 49.6312L61.8158 45.9258L65.3594 43.8613Z" fill="#68B29C"/><path d="M61.8157 45.9258L61.808 49.6312L58.249 47.5667L58.2567 43.8613L61.8157 45.9258Z" fill="#96E1CB"/><path d="M65.3591 43.8613L61.8156 45.9258L58.2566 43.8613L61.7925 41.7968L65.3591 43.8613Z" fill="#97FDDF"/><path d="M55.5913 39.1854L55.5605 51.0564L44.2134 57.6736L44.2519 45.8027L55.5913 39.1854Z" fill="#68B29C"/><path d="M44.2519 45.8027L44.2133 57.6736L32.7969 51.0564L32.8354 39.1854L44.2519 45.8027Z" fill="#96E1CB"/><path d="M55.5911 39.1854L44.2517 45.8026L32.8352 39.1854L44.1746 32.5681L55.5911 39.1854Z" fill="#97FDDF"/><path d="M58.357 35.3414L58.3416 40.2099L53.6887 42.9292L53.7041 38.0607L58.357 35.3414Z" fill="#B3B3B3"/><path d="M53.704 38.0607L53.6886 42.9292L49.0049 40.2176L49.0203 35.3414L53.704 38.0607Z" fill="#E1E1E1"/><path d="M58.357 35.3414L53.7042 38.0607L49.0205 35.3414L53.6734 32.6298L58.357 35.3414Z" fill="#F6F6F6"/><path d="M44.0055 30.0029L43.99 36.4045L37.8735 39.9712L37.8889 33.5696L44.0055 30.0029Z" fill="#B3B3B3"/><path d="M37.8891 33.5696L37.8737 39.9712L31.7109 36.4045L31.734 30.0029L37.8891 33.5696Z" fill="#E1E1E1"/><path d="M44.0054 30.0029L37.8889 33.5695L31.7339 30.0029L37.8504 26.4285L44.0054 30.0029Z" fill="#F6F6F6"/><path d="M67.5624 25.0726L67.547 30.2108L62.6399 33.0765L62.6553 27.9383L67.5624 25.0726Z" fill="#D5900E"/><path d="M62.6553 27.9383L62.6399 33.0765L57.6943 30.2108L57.7097 25.0726L62.6553 27.9383Z" fill="#FFC400"/><path d="M67.5624 25.0727L62.6553 27.9384L57.7097 25.0727L62.6245 22.207L67.5624 25.0727Z" fill="#FFDE38"/><path d="M39.1982 49.739L39.1751 57.4039L31.8491 61.6793L31.8722 54.0144L39.1982 49.739Z" fill="#B3B3B3"/><path d="M31.8723 54.0144L31.8492 61.6793L24.4771 57.4039L24.5002 49.739L31.8723 54.0144Z" fill="#E1E1E1"/><path d="M39.1981 49.739L31.8722 54.0144L24.5 49.739L31.826 45.4636L39.1981 49.739Z" fill="#F6F6F6"/><path d="M63.842 48.9456L63.8189 57.1344L55.9922 61.7025L56.0153 53.5137L63.842 48.9456Z" fill="#B3B3B3"/><path d="M56.0151 53.5137L55.992 61.7025L48.1191 57.1344L48.1422 48.9456L56.0151 53.5137Z" fill="#E1E1E1"/><path d="M63.8417 48.9456L56.015 53.5138L48.1421 48.9456L55.9611 44.3775L63.8417 48.9456Z" fill="#F6F6F6"/><path d="M56.3465 20.4739L56.3234 27.2837L49.814 31.0815L49.8371 24.2717L56.3465 20.4739Z" fill="#68B29C"/><path d="M49.8371 24.2717L49.814 31.0815L43.2661 27.2837L43.2892 20.4739L49.8371 24.2717Z" fill="#96E1CB"/><path d="M56.3464 20.4738L49.837 24.2716L43.2891 20.4738L49.7908 16.676L56.3464 20.4738Z" fill="#97FDDF"/><path d="M40.5617 55.0005L40.554 58.2667L37.4341 60.0847L37.4418 56.8185L40.5617 55.0005Z" fill="#FFB700"/><path d="M37.4418 56.8185L37.4341 60.0847L34.2988 58.2667L34.3065 55.0005L37.4418 56.8185Z" fill="#FFC400"/><path d="M40.5616 55.0005L37.4417 56.8185L34.3064 55.0005L37.4263 53.1825L40.5616 55.0005Z" fill="#FFDE38"/><path d="M23.3062 43.738L23.2908 47.4049L19.7935 49.4463L19.8012 45.7794L23.3062 43.738Z" fill="#291069"/><path d="M19.801 45.7794L19.7933 49.4463L16.2651 47.4049L16.2728 43.738L19.801 45.7794Z" fill="#442397"/><path d="M23.3059 43.7381L19.8009 45.7795L16.2727 43.7381L19.7778 41.689L23.3059 43.7381Z" fill="#5430AF"/><path d="M63.2482 36.6047L63.2404 38.9312L61.0142 40.233L61.0219 37.8989L63.2482 36.6047Z" fill="#FFB700"/><path d="M61.022 37.8989L61.0143 40.233L58.7803 38.9312V36.6047L61.022 37.8989Z" fill="#FFC400"/><path d="M63.2485 36.6047L61.0222 37.8989L58.7805 36.6047L61.0068 35.3029L63.2485 36.6047Z" fill="#FFDE38"/><path d="M51.1234 14.9351L51.1157 18.8176L47.4104 20.9745L47.4181 17.0997L51.1234 14.9351Z" fill="#B3B3B3"/><path d="M47.4183 17.0997L47.4106 20.9745L43.6821 18.8176L43.6898 14.9351L47.4183 17.0997Z" fill="#E1E1E1"/><path d="M51.1233 14.935L47.4179 17.0997L43.6895 14.935L47.3948 12.7781L51.1233 14.935Z" fill="#F6F6F6"/><path d="M54.0428 58.6596L54.0351 63.0429L49.8445 65.4925L49.8522 61.1016L54.0428 58.6596Z" fill="#291069"/><path d="M49.8522 61.1016L49.8445 65.4925L45.623 63.0429L45.6385 58.6596L49.8522 61.1016Z" fill="#442397"/><path d="M54.0429 58.6596L49.8522 61.1016L45.6384 58.6596L49.8291 56.2099L54.0429 58.6596Z" fill="#5430AF"/><path d="M31.7801 37.7834L31.7647 44.1156L25.7175 47.6438L25.7329 41.3116L31.7801 37.7834Z" fill="#68B29C"/><path d="M25.7328 41.3116L25.7174 47.6438L19.624 44.1156L19.6394 37.7834L25.7328 41.3116Z" fill="#96E1CB"/><path d="M31.78 37.7834L25.7328 41.3115L19.6394 37.7834L25.6943 34.2475L31.78 37.7834Z" fill="#97FDDF"/><path d="M60.0054 27.3838L59.9977 30.0954L57.4016 31.6053L57.4093 28.8937L60.0054 27.3838Z" fill="#291069"/><path d="M57.4093 28.8937L57.4016 31.6053L54.7979 30.0954L54.8056 27.3838L57.4093 28.8937Z" fill="#442397"/><path d="M60.0052 27.3838L57.4092 28.8936L54.8054 27.3838L57.3938 25.8739L60.0052 27.3838Z" fill="#5430AF"/><g opacity="0.2"><path d="M76.9144 36.0809L75.0271 37.1748L73.1475 36.0809L75.0271 34.9947L76.9144 36.0809Z" fill="#F6F6F6"/><path opacity="0.99" d="M76.9144 35.9345L75.0271 37.0207L73.1475 35.9345L75.0271 34.8483L76.9144 35.9345Z" fill="#F6F6F6"/><path opacity="0.98" d="M76.9144 35.7804L75.0271 36.8666L73.1475 35.7804L75.0271 34.6942L76.9144 35.7804Z" fill="#F6F6F6"/><path opacity="0.96" d="M76.9144 35.6264L75.0271 36.7203L73.1475 35.6264L75.0271 34.5402L76.9144 35.6264Z" fill="#F6F6F6"/><path opacity="0.95" d="M76.9144 35.48L75.0271 36.5662L73.1475 35.48L75.0271 34.3939L76.9144 35.48Z" fill="#F6F6F6"/><path opacity="0.94" d="M76.9144 35.3259L75.0271 36.4121L73.1475 35.3259L75.0271 34.2397L76.9144 35.3259Z" fill="#F6F6F6"/><path opacity="0.93" d="M76.9144 35.1719L75.0271 36.2658L73.1475 35.1719L75.0271 34.0857L76.9144 35.1719Z" fill="#F6F6F6"/><path opacity="0.91" d="M76.9144 35.0255L75.0271 36.1117L73.1475 35.0255L75.0271 33.9393L76.9144 35.0255Z" fill="#F6F6F6"/><path opacity="0.9" d="M76.9144 34.8714L75.0271 35.9576L73.1475 34.8714L75.0271 33.7852L76.9144 34.8714Z" fill="#F6F6F6"/><path opacity="0.89" d="M76.9144 34.7173L75.0271 35.8112L73.1475 34.7173L75.0271 33.6312L76.9144 34.7173Z" fill="#F6F6F6"/><path opacity="0.88" d="M76.9144 34.571L75.0271 35.6572L73.1475 34.571L75.0271 33.4848L76.9144 34.571Z" fill="#F6F6F6"/><path opacity="0.86" d="M76.9144 34.4169L75.0271 35.5031L73.1475 34.4169L75.0271 33.3307L76.9144 34.4169Z" fill="#F6F6F6"/><path opacity="0.85" d="M76.9144 34.2629L75.0271 35.3568L73.1475 34.2629L75.0271 33.1767L76.9144 34.2629Z" fill="#F6F6F6"/><path opacity="0.84" d="M76.9144 34.1165L75.0271 35.2027L73.1475 34.1165L75.0271 33.0303L76.9144 34.1165Z" fill="#F6F6F6"/><path opacity="0.83" d="M76.9144 33.9624L75.0271 35.0486L73.1475 33.9624L75.0271 32.8762L76.9144 33.9624Z" fill="#F6F6F6"/><path opacity="0.81" d="M76.9144 33.8083L75.0271 34.9022L73.1475 33.8083L75.0271 32.7222L76.9144 33.8083Z" fill="#F6F6F6"/><path opacity="0.8" d="M76.9144 33.662L75.0271 34.7482L73.1475 33.662L75.0271 32.5758L76.9144 33.662Z" fill="#F6F6F6"/><path opacity="0.79" d="M76.9144 33.5079L75.0271 34.5941L73.1475 33.5079L75.0271 32.4218L76.9144 33.5079Z" fill="#F6F6F6"/><path opacity="0.78" d="M76.9144 33.3539L75.0271 34.4478L73.1475 33.3539L75.0271 32.2677L76.9144 33.3539Z" fill="#F6F6F6"/><path opacity="0.77" d="M76.9144 33.2075L75.0271 34.2937L73.1475 33.2075L75.0271 32.1136L76.9144 33.2075Z" fill="#F6F6F6"/><path opacity="0.75" d="M76.9144 33.0534L75.0271 34.1396L73.1475 33.0534L75.0271 31.9672L76.9144 33.0534Z" fill="#F6F6F6"/><path opacity="0.74" d="M76.9144 32.8994L75.0271 33.9932L73.1475 32.8994L75.0271 31.8132L76.9144 32.8994Z" fill="#F6F6F6"/><path opacity="0.73" d="M76.9144 32.753L75.0271 33.8392L73.1475 32.753L75.0271 31.6591L76.9144 32.753Z" fill="#F6F6F6"/><path opacity="0.72" d="M76.9144 32.5989L75.0271 33.6851L73.1475 32.5989L75.0271 31.5127L76.9144 32.5989Z" fill="#F6F6F6"/><path opacity="0.7" d="M76.9144 32.4449L75.0271 33.5388L73.1475 32.4449L75.0271 31.3587L76.9144 32.4449Z" fill="#F6F6F6"/><path opacity="0.69" d="M76.9144 32.2985L75.0271 33.3847L73.1475 32.2985L75.0271 31.2046L76.9144 32.2985Z" fill="#F6F6F6"/><path opacity="0.68" d="M76.9144 32.1444L75.0271 33.2306L73.1475 32.1444L75.0271 31.0582L76.9144 32.1444Z" fill="#F6F6F6"/><path opacity="0.67" d="M76.9144 31.9904L75.0271 33.0842L73.1475 31.9904L75.0271 30.9042L76.9144 31.9904Z" fill="#F6F6F6"/><path opacity="0.65" d="M76.9144 31.844L75.0271 32.9302L73.1475 31.844L75.0271 30.7501L76.9144 31.844Z" fill="#F6F6F6"/><path opacity="0.64" d="M76.9144 31.6899L75.0271 32.7761L73.1475 31.6899L75.0271 30.6038L76.9144 31.6899Z" fill="#F6F6F6"/><path opacity="0.63" d="M76.9144 31.5359L75.0271 32.6298L73.1475 31.5359L75.0271 30.4497L76.9144 31.5359Z" fill="#F6F6F6"/><path opacity="0.62" d="M76.9144 31.3895L75.0271 32.4757L73.1475 31.3895L75.0271 30.2957L76.9144 31.3895Z" fill="#F6F6F6"/><path opacity="0.6" d="M76.9144 31.2355L75.0271 32.3217L73.1475 31.2355L75.0271 30.1493L76.9144 31.2355Z" fill="#F6F6F6"/><path opacity="0.59" d="M76.9144 31.0813L75.0271 32.1752L73.1475 31.0813L75.0271 29.9951L76.9144 31.0813Z" fill="#F6F6F6"/><path opacity="0.58" d="M76.9144 30.9349L75.0271 32.0211L73.1475 30.9349L75.0271 29.8411L76.9144 30.9349Z" fill="#F6F6F6"/><path opacity="0.57" d="M76.9144 30.7809L75.0271 31.8671L73.1475 30.7809L75.0271 29.6947L76.9144 30.7809Z" fill="#F6F6F6"/><path opacity="0.56" d="M76.9144 30.6268L75.0271 31.7207L73.1475 30.6268L75.0271 29.5406L76.9144 30.6268Z" fill="#F6F6F6"/><path opacity="0.54" d="M76.9144 30.4805L75.0271 31.5667L73.1475 30.4805L75.0271 29.3866L76.9144 30.4805Z" fill="#F6F6F6"/><path opacity="0.53" d="M76.9144 30.3264L75.0271 31.4126L73.1475 30.3264L75.0271 29.2402L76.9144 30.3264Z" fill="#F6F6F6"/><path opacity="0.52" d="M76.9144 30.1724L75.0271 31.2662L73.1475 30.1724L75.0271 29.0862L76.9144 30.1724Z" fill="#F6F6F6"/><path opacity="0.51" d="M76.9144 30.026L75.0271 31.1122L73.1475 30.026L75.0271 28.9321L76.9144 30.026Z" fill="#F6F6F6"/><path opacity="0.49" d="M76.9144 29.8719L75.0271 30.9581L73.1475 29.8719L75.0271 28.7858L76.9144 29.8719Z" fill="#F6F6F6"/><path opacity="0.48" d="M76.9144 29.7179L75.0271 30.8118L73.1475 29.7179L75.0271 28.6317L76.9144 29.7179Z" fill="#F6F6F6"/><path opacity="0.47" d="M76.9144 29.5714L75.0271 30.6576L73.1475 29.5714L75.0271 28.4775L76.9144 29.5714Z" fill="#F6F6F6"/><path opacity="0.46" d="M76.9144 29.4175L75.0271 30.5037L73.1475 29.4175L75.0271 28.3313L76.9144 29.4175Z" fill="#F6F6F6"/><path opacity="0.44" d="M76.9144 29.2633L75.0271 30.3572L73.1475 29.2633L75.0271 28.1771L76.9144 29.2633Z" fill="#F6F6F6"/><path opacity="0.43" d="M76.9144 29.117L75.0271 30.2031L73.1475 29.117L75.0271 28.0231L76.9144 29.117Z" fill="#F6F6F6"/><path opacity="0.42" d="M76.9144 28.9629L75.0271 30.0491L73.1475 28.9629L75.0271 27.8767L76.9144 28.9629Z" fill="#F6F6F6"/><path opacity="0.41" d="M76.9144 28.8088L75.0271 29.9027L73.1475 28.8088L75.0271 27.7227L76.9144 28.8088Z" fill="#F6F6F6"/><path opacity="0.4" d="M76.9144 28.6625L75.0271 29.7487L73.1475 28.6625L75.0271 27.5686L76.9144 28.6625Z" fill="#F6F6F6"/><path opacity="0.38" d="M76.9144 28.5084L75.0271 29.5946L73.1475 28.5084L75.0271 27.4222L76.9144 28.5084Z" fill="#F6F6F6"/><path opacity="0.37" d="M76.9144 28.3544L75.0271 29.4483L73.1475 28.3544L75.0271 27.2682L76.9144 28.3544Z" fill="#F6F6F6"/><path opacity="0.36" d="M76.9144 28.208L75.0271 29.2942L73.1475 28.208L75.0271 27.1141L76.9144 28.208Z" fill="#F6F6F6"/><path opacity="0.35" d="M76.9144 28.054L75.0271 29.1401L73.1475 28.054L75.0271 26.9678L76.9144 28.054Z" fill="#F6F6F6"/><path opacity="0.33" d="M76.9144 27.8998L75.0271 28.9937L73.1475 27.8998L75.0271 26.8136L76.9144 27.8998Z" fill="#F6F6F6"/><path opacity="0.32" d="M76.9144 27.7534L75.0271 28.8396L73.1475 27.7534L75.0271 26.6595L76.9144 27.7534Z" fill="#F6F6F6"/><path opacity="0.31" d="M76.9144 27.5994L75.0271 28.6855L73.1475 27.5994L75.0271 26.5132L76.9144 27.5994Z" fill="#F6F6F6"/><path opacity="0.3" d="M76.9144 27.4453L75.0271 28.5392L73.1475 27.4453L75.0271 26.3591L76.9144 27.4453Z" fill="#F6F6F6"/><path opacity="0.28" d="M76.9144 27.299L75.0271 28.3851L73.1475 27.299L75.0271 26.2051L76.9144 27.299Z" fill="#F6F6F6"/><path opacity="0.27" d="M76.9144 27.1449L75.0271 28.2311L73.1475 27.1449L75.0271 26.0587L76.9144 27.1449Z" fill="#F6F6F6"/><path opacity="0.26" d="M76.9144 26.9908L75.0271 28.077L73.1475 26.9908L75.0271 25.9047L76.9144 26.9908Z" fill="#F6F6F6"/><path opacity="0.25" d="M76.9144 26.8445L75.0271 27.9307L73.1475 26.8445L75.0271 25.7506L76.9144 26.8445Z" fill="#F6F6F6"/><path opacity="0.23" d="M76.9144 26.6904L75.0271 27.7766L73.1475 26.6904L75.0271 25.6042L76.9144 26.6904Z" fill="#F6F6F6"/><path opacity="0.22" d="M76.9144 26.5364L75.0271 27.6226L73.1475 26.5364L75.0271 25.4502L76.9144 26.5364Z" fill="#F6F6F6"/><path opacity="0.21" d="M76.9144 26.39L75.0271 27.4762L73.1475 26.39L75.0271 25.2961L76.9144 26.39Z" fill="#F6F6F6"/><path opacity="0.2" d="M76.9144 26.236L75.0271 27.3221L73.1475 26.236L75.0271 25.1498L76.9144 26.236Z" fill="#F6F6F6"/><path opacity="0.19" d="M76.9144 26.0818L75.0271 27.168L73.1475 26.0818L75.0271 24.9956L76.9144 26.0818Z" fill="#F6F6F6"/><path opacity="0.17" d="M76.9144 25.9354L75.0271 27.0216L73.1475 25.9354L75.0271 24.8416L76.9144 25.9354Z" fill="#F6F6F6"/><path opacity="0.16" d="M76.9144 25.7814L75.0271 26.8676L73.1475 25.7814L75.0271 24.6952L76.9144 25.7814Z" fill="#F6F6F6"/><path opacity="0.15" d="M76.9144 25.6273L75.0271 26.7135L73.1475 25.6273L75.0271 24.5411L76.9144 25.6273Z" fill="#F6F6F6"/><path opacity="0.14" d="M76.9144 25.481L75.0271 26.5672L73.1475 25.481L75.0271 24.3871L76.9144 25.481Z" fill="#F6F6F6"/><path opacity="0.12" d="M76.9144 25.3269L75.0271 26.4131L73.1475 25.3269L75.0271 24.2407L76.9144 25.3269Z" fill="#F6F6F6"/><path opacity="0.11" d="M76.9144 25.1729L75.0271 26.259L73.1475 25.1729L75.0271 24.0867L76.9144 25.1729Z" fill="#F6F6F6"/><path opacity="0.1" d="M76.9144 25.0265L75.0271 26.1127L73.1475 25.0265L75.0271 23.9326L76.9144 25.0265Z" fill="#F6F6F6"/><path opacity="0.09" d="M76.9144 24.8724L75.0271 25.9586L73.1475 24.8724L75.0271 23.7863L76.9144 24.8724Z" fill="#F6F6F6"/><path opacity="0.07" d="M76.9144 24.7184L75.0271 25.8046L73.1475 24.7184L75.0271 23.6322L76.9144 24.7184Z" fill="#F6F6F6"/><path opacity="0.06" d="M76.9144 24.5719L75.0271 25.6581L73.1475 24.5719L75.0271 23.478L76.9144 24.5719Z" fill="#F6F6F6"/><path opacity="0.05" d="M76.9144 24.4178L75.0271 25.504L73.1475 24.4178L75.0271 23.3317L76.9144 24.4178Z" fill="#F6F6F6"/><path opacity="0.04" d="M76.9144 24.2638L75.0271 25.35L73.1475 24.2638L75.0271 23.1776L76.9144 24.2638Z" fill="#F6F6F6"/><path opacity="0.02" d="M76.9144 24.1174L75.0271 25.2036L73.1475 24.1174L75.0271 23.0236L76.9144 24.1174Z" fill="#F6F6F6"/><path opacity="0.01" d="M76.9144 23.9634L75.0271 25.0496L73.1475 23.9634L75.0271 22.8772L76.9144 23.9634Z" fill="#F6F6F6"/></g><path d="M75.0273 39.4473C75.0273 39.4473 74.9964 39.4473 74.981 39.4319C74.9502 39.4165 74.9348 39.3856 74.9348 39.3471V37.1825C74.9348 37.1825 74.9502 37.1131 74.981 37.0977L76.8684 36.0115C76.8684 36.0115 76.9377 35.9961 76.9608 36.0115C76.9916 36.027 77.007 36.0578 77.007 36.0963V38.2609C77.007 38.2609 76.9916 38.3303 76.9608 38.3457L75.0735 39.4319C75.0735 39.4319 75.0427 39.4473 75.0273 39.4473ZM75.1197 37.2441V39.1854L76.8145 38.207V36.2658L75.1197 37.2441Z" fill="#97FDDF"/><path d="M75.0271 39.4473C75.0271 39.4473 74.9963 39.4473 74.9809 39.4319L73.0936 38.3457C73.0936 38.3457 73.0474 38.2995 73.0474 38.261V36.0963C73.0474 36.0963 73.0628 36.027 73.0936 36.0116C73.1244 35.9961 73.1629 35.9961 73.186 36.0116L75.0734 37.0977C75.0734 37.0977 75.1196 37.144 75.1196 37.1825V39.3471C75.1196 39.3471 75.1042 39.4165 75.0734 39.4319C75.058 39.4396 75.0425 39.4473 75.0271 39.4473ZM73.2399 38.207L74.9347 39.1854V37.2441L73.2399 36.2658V38.207Z" fill="#97FDDF"/><path d="M75.0271 37.2826C75.0271 37.2826 74.9963 37.2826 74.9809 37.2672L73.0936 36.181C73.0936 36.181 73.0474 36.1348 73.0474 36.0963C73.0474 36.0578 73.0628 36.027 73.0936 36.0115L74.9809 34.9254C74.9809 34.9254 75.0502 34.91 75.0734 34.9254L76.9607 36.0115C76.9607 36.0115 77.0069 36.0578 77.0069 36.0963C77.0069 36.1348 76.9915 36.1656 76.9607 36.181L75.0734 37.2672C75.0734 37.2672 75.0425 37.2826 75.0271 37.2826ZM73.3324 36.0963L75.0271 37.0746L76.7219 36.0963L75.0271 35.118L73.3324 36.0963Z" fill="#97FDDF"/><g opacity="0.5"><path d="M76.8529 38.3688C76.8529 38.3688 76.7913 38.3534 76.7682 38.3226C76.7605 38.3072 76.7528 38.2841 76.7528 38.261L75.0272 37.2596L73.1938 38.3226C73.1476 38.3457 73.086 38.3303 73.0629 38.2841C73.0398 38.2379 73.0552 38.1763 73.1014 38.1531L74.9887 37.067C74.9887 37.067 75.0581 37.0516 75.0812 37.067L76.9685 38.1531C76.9685 38.1531 77.0147 38.1994 77.0147 38.2379C77.0147 38.2764 76.9993 38.3072 76.9685 38.3226L76.9069 38.3534C76.9069 38.3534 76.8761 38.3688 76.8606 38.3688H76.8529Z" fill="#97FDDF"/></g><g opacity="0.5"><path d="M75.0273 37.2518C74.9733 37.2518 74.9348 37.2056 74.9348 37.1593V35.0178C74.9348 34.9639 74.981 34.9254 75.0273 34.9254C75.0735 34.9254 75.1197 34.9716 75.1197 35.0178V37.1593C75.1197 37.2133 75.0735 37.2518 75.0273 37.2518Z" fill="#97FDDF"/></g><g opacity="0.2"><path d="M25.401 25.3577L23.5137 26.4516L21.634 25.3577L23.5137 24.2715L25.401 25.3577Z" fill="#F6F6F6"/><path opacity="0.99" d="M25.401 25.2113L23.5137 26.2975L21.634 25.2113L23.5137 24.1251L25.401 25.2113Z" fill="#F6F6F6"/><path opacity="0.98" d="M25.401 25.0573L23.5137 26.1434L21.634 25.0573L23.5137 23.9711L25.401 25.0573Z" fill="#F6F6F6"/><path opacity="0.96" d="M25.401 24.9032L23.5137 25.9971L21.634 24.9032L23.5137 23.817L25.401 24.9032Z" fill="#F6F6F6"/><path opacity="0.95" d="M25.401 24.7568L23.5137 25.843L21.634 24.7568L23.5137 23.6707L25.401 24.7568Z" fill="#F6F6F6"/><path opacity="0.94" d="M25.401 24.6028L23.5137 25.689L21.634 24.6028L23.5137 23.5166L25.401 24.6028Z" fill="#F6F6F6"/><path opacity="0.93" d="M25.401 24.4487L23.5137 25.5426L21.634 24.4487L23.5137 23.3625L25.401 24.4487Z" fill="#F6F6F6"/><path opacity="0.91" d="M25.401 24.3024L23.5137 25.3885L21.634 24.3024L23.5137 23.2162L25.401 24.3024Z" fill="#F6F6F6"/><path opacity="0.9" d="M25.401 24.1483L23.5137 25.2345L21.634 24.1483L23.5137 23.0621L25.401 24.1483Z" fill="#F6F6F6"/><path opacity="0.89" d="M25.401 23.9941L23.5137 25.088L21.634 23.9941L23.5137 22.908L25.401 23.9941Z" fill="#F6F6F6"/><path opacity="0.88" d="M25.401 23.8478L23.5137 24.934L21.634 23.8478L23.5137 22.7616L25.401 23.8478Z" fill="#F6F6F6"/><path opacity="0.86" d="M25.401 23.6938L23.5137 24.78L21.634 23.6938L23.5137 22.6077L25.401 23.6938Z" fill="#F6F6F6"/><path opacity="0.85" d="M25.401 23.5397L23.5137 24.6336L21.634 23.5397L23.5137 22.4535L25.401 23.5397Z" fill="#F6F6F6"/><path opacity="0.84" d="M25.401 23.3933L23.5137 24.4795L21.634 23.3933L23.5137 22.3071L25.401 23.3933Z" fill="#F6F6F6"/><path opacity="0.83" d="M25.401 23.2393L23.5137 24.3254L21.634 23.2393L23.5137 22.1531L25.401 23.2393Z" fill="#F6F6F6"/><path opacity="0.81" d="M25.401 23.0852L23.5137 24.1791L21.634 23.0852L23.5137 21.999L25.401 23.0852Z" fill="#F6F6F6"/><path opacity="0.8" d="M25.401 22.9389L23.5137 24.025L21.634 22.9389L23.5137 21.845L25.401 22.9389Z" fill="#F6F6F6"/><path opacity="0.79" d="M25.401 22.7848L23.5137 23.871L21.634 22.7848L23.5137 21.6986L25.401 22.7848Z" fill="#F6F6F6"/><path opacity="0.78" d="M25.401 22.6307L23.5137 23.7246L21.634 22.6307L23.5137 21.5446L25.401 22.6307Z" fill="#F6F6F6"/><path opacity="0.77" d="M25.401 22.4844L23.5137 23.5706L21.634 22.4844L23.5137 21.3905L25.401 22.4844Z" fill="#F6F6F6"/><path opacity="0.75" d="M25.401 22.3303L23.5137 23.4165L21.634 22.3303L23.5137 21.2441L25.401 22.3303Z" fill="#F6F6F6"/><path opacity="0.74" d="M25.401 22.1761L23.5137 23.27L21.634 22.1761L23.5137 21.09L25.401 22.1761Z" fill="#F6F6F6"/><path opacity="0.73" d="M25.401 22.0298L23.5137 23.116L21.634 22.0298L23.5137 20.9359L25.401 22.0298Z" fill="#F6F6F6"/><path opacity="0.72" d="M25.401 21.8757L23.5137 22.9619L21.634 21.8757L23.5137 20.7896L25.401 21.8757Z" fill="#F6F6F6"/><path opacity="0.7" d="M25.401 21.7217L23.5137 22.8156L21.634 21.7217L23.5137 20.6355L25.401 21.7217Z" fill="#F6F6F6"/><path opacity="0.69" d="M25.401 21.5753L23.5137 22.6615L21.634 21.5753L23.5137 20.4814L25.401 21.5753Z" fill="#F6F6F6"/><path opacity="0.68" d="M25.401 21.4213L23.5137 22.5074L21.634 21.4213L23.5137 20.3351L25.401 21.4213Z" fill="#F6F6F6"/><path opacity="0.67" d="M25.401 21.2672L23.5137 22.3611L21.634 21.2672L23.5137 20.181L25.401 21.2672Z" fill="#F6F6F6"/><path opacity="0.65" d="M25.401 21.1209L23.5137 22.207L21.634 21.1209L23.5137 20.027L25.401 21.1209Z" fill="#F6F6F6"/><path opacity="0.64" d="M25.401 20.9668L23.5137 22.053L21.634 20.9668L23.5137 19.8806L25.401 20.9668Z" fill="#F6F6F6"/><path opacity="0.63" d="M25.401 20.8127L23.5137 21.9066L21.634 20.8127L23.5137 19.7266L25.401 20.8127Z" fill="#F6F6F6"/><path opacity="0.62" d="M25.401 20.6664L23.5137 21.7526L21.634 20.6664L23.5137 19.5725L25.401 20.6664Z" fill="#F6F6F6"/><path opacity="0.6" d="M25.401 20.5123L23.5137 21.5985L21.634 20.5123L23.5137 19.4261L25.401 20.5123Z" fill="#F6F6F6"/><path opacity="0.59" d="M25.401 20.3582L23.5137 21.452L21.634 20.3582L23.5137 19.272L25.401 20.3582Z" fill="#F6F6F6"/><path opacity="0.58" d="M25.401 20.2118L23.5137 21.298L21.634 20.2118L23.5137 19.1179L25.401 20.2118Z" fill="#F6F6F6"/><path opacity="0.57" d="M25.401 20.0577L23.5137 21.1439L21.634 20.0577L23.5137 18.9716L25.401 20.0577Z" fill="#F6F6F6"/><path opacity="0.56" d="M25.401 19.9037L23.5137 20.9976L21.634 19.9037L23.5137 18.8175L25.401 19.9037Z" fill="#F6F6F6"/><path opacity="0.54" d="M25.401 19.7573L23.5137 20.8435L21.634 19.7573L23.5137 18.6635L25.401 19.7573Z" fill="#F6F6F6"/><path opacity="0.53" d="M25.401 19.6033L23.5137 20.6895L21.634 19.6033L23.5137 18.5171L25.401 19.6033Z" fill="#F6F6F6"/><path opacity="0.52" d="M25.401 19.4492L23.5137 20.5431L21.634 19.4492L23.5137 18.363L25.401 19.4492Z" fill="#F6F6F6"/><path opacity="0.51" d="M25.401 19.3029L23.5137 20.3891L21.634 19.3029L23.5137 18.209L25.401 19.3029Z" fill="#F6F6F6"/><path opacity="0.49" d="M25.401 19.1488L23.5137 20.235L21.634 19.1488L23.5137 18.0626L25.401 19.1488Z" fill="#F6F6F6"/><path opacity="0.48" d="M25.401 18.9948L23.5137 20.0886L21.634 18.9948L23.5137 17.9086L25.401 18.9948Z" fill="#F6F6F6"/><path opacity="0.47" d="M25.401 18.8483L23.5137 19.9345L21.634 18.8483L23.5137 17.7544L25.401 18.8483Z" fill="#F6F6F6"/><path opacity="0.46" d="M25.401 18.6943L23.5137 19.7805L21.634 18.6943L23.5137 17.6082L25.401 18.6943Z" fill="#F6F6F6"/><path opacity="0.44" d="M25.401 18.5402L23.5137 19.634L21.634 18.5402L23.5137 17.454L25.401 18.5402Z" fill="#F6F6F6"/><path opacity="0.43" d="M25.401 18.3938L23.5137 19.48L21.634 18.3938L23.5137 17.2999L25.401 18.3938Z" fill="#F6F6F6"/><path opacity="0.42" d="M25.401 18.2397L23.5137 19.3259L21.634 18.2397L23.5137 17.1536L25.401 18.2397Z" fill="#F6F6F6"/><path opacity="0.41" d="M25.401 18.0857L23.5137 19.1719L21.634 18.0857L23.5137 16.9995L25.401 18.0857Z" fill="#F6F6F6"/><path opacity="0.4" d="M25.401 17.9393L23.5137 19.0255L21.634 17.9393L23.5137 16.8455L25.401 17.9393Z" fill="#F6F6F6"/><path opacity="0.38" d="M25.401 17.7853L23.5137 18.8715L21.634 17.7853L23.5137 16.6991L25.401 17.7853Z" fill="#F6F6F6"/><path opacity="0.37" d="M25.401 17.6312L23.5137 18.7251L21.634 17.6312L23.5137 16.545L25.401 17.6312Z" fill="#F6F6F6"/><path opacity="0.36" d="M25.401 17.4849L23.5137 18.5711L21.634 17.4849L23.5137 16.391L25.401 17.4849Z" fill="#F6F6F6"/><path opacity="0.35" d="M25.401 17.3308L23.5137 18.417L21.634 17.3308L23.5137 16.2446L25.401 17.3308Z" fill="#F6F6F6"/><path opacity="0.33" d="M25.401 17.1766L23.5137 18.2628L21.634 17.1766L23.5137 16.0905L25.401 17.1766Z" fill="#F6F6F6"/><path opacity="0.32" d="M25.401 17.0303L23.5137 18.1165L21.634 17.0303L23.5137 15.9364L25.401 17.0303Z" fill="#F6F6F6"/><path opacity="0.31" d="M25.401 16.8762L23.5137 17.9624L21.634 16.8762L23.5137 15.79L25.401 16.8762Z" fill="#F6F6F6"/><path opacity="0.3" d="M25.401 16.7222L23.5137 17.8084L21.634 16.7222L23.5137 15.636L25.401 16.7222Z" fill="#F6F6F6"/><path opacity="0.28" d="M25.401 16.5758L23.5137 17.662L21.634 16.5758L23.5137 15.4819L25.401 16.5758Z" fill="#F6F6F6"/><path opacity="0.27" d="M25.401 16.4218L23.5137 17.5079L21.634 16.4218L23.5137 15.3356L25.401 16.4218Z" fill="#F6F6F6"/><path opacity="0.26" d="M25.401 16.2677L23.5137 17.3539L21.634 16.2677L23.5137 15.1815L25.401 16.2677Z" fill="#F6F6F6"/><path opacity="0.25" d="M25.401 16.1214L23.5137 17.2075L21.634 16.1214L23.5137 15.0275L25.401 16.1214Z" fill="#F6F6F6"/><path opacity="0.23" d="M25.401 15.9673L23.5137 17.0535L21.634 15.9673L23.5137 14.8811L25.401 15.9673Z" fill="#F6F6F6"/><path opacity="0.22" d="M25.401 15.8132L23.5137 16.8994L21.634 15.8132L23.5137 14.7271L25.401 15.8132Z" fill="#F6F6F6"/><path opacity="0.21" d="M25.401 15.6669L23.5137 16.7531L21.634 15.6669L23.5137 14.573L25.401 15.6669Z" fill="#F6F6F6"/><path opacity="0.2" d="M25.401 15.5128L23.5137 16.599L21.634 15.5128L23.5137 14.4266L25.401 15.5128Z" fill="#F6F6F6"/><path opacity="0.19" d="M25.401 15.3586L23.5137 16.4448L21.634 15.3586L23.5137 14.2725L25.401 15.3586Z" fill="#F6F6F6"/><path opacity="0.17" d="M25.401 15.2123L23.5137 16.2985L21.634 15.2123L23.5137 14.1184L25.401 15.2123Z" fill="#F6F6F6"/><path opacity="0.16" d="M25.401 15.0582L23.5137 16.1444L21.634 15.0582L23.5137 13.972L25.401 15.0582Z" fill="#F6F6F6"/><path opacity="0.15" d="M25.401 14.9042L23.5137 15.9904L21.634 14.9042L23.5137 13.818L25.401 14.9042Z" fill="#F6F6F6"/><path opacity="0.14" d="M25.401 14.7578L23.5137 15.844L21.634 14.7578L23.5137 13.6639L25.401 14.7578Z" fill="#F6F6F6"/><path opacity="0.12" d="M25.401 14.6038L23.5137 15.6899L21.634 14.6038L23.5137 13.5176L25.401 14.6038Z" fill="#F6F6F6"/><path opacity="0.11" d="M25.401 14.4497L23.5137 15.5359L21.634 14.4497L23.5137 13.3635L25.401 14.4497Z" fill="#F6F6F6"/><path opacity="0.1" d="M25.401 14.3034L23.5137 15.3895L21.634 14.3034L23.5137 13.2095L25.401 14.3034Z" fill="#F6F6F6"/><path opacity="0.09" d="M25.401 14.1493L23.5137 15.2355L21.634 14.1493L23.5137 13.0631L25.401 14.1493Z" fill="#F6F6F6"/><path opacity="0.07" d="M25.401 13.9952L23.5137 15.0814L21.634 13.9952L23.5137 12.9091L25.401 13.9952Z" fill="#F6F6F6"/><path opacity="0.06" d="M25.401 13.8488L23.5137 14.935L21.634 13.8488L23.5137 12.7549L25.401 13.8488Z" fill="#F6F6F6"/><path opacity="0.05" d="M25.401 13.6947L23.5137 14.7809L21.634 13.6947L23.5137 12.6085L25.401 13.6947Z" fill="#F6F6F6"/><path opacity="0.04" d="M25.401 13.5406L23.5137 14.6268L21.634 13.5406L23.5137 12.4545L25.401 13.5406Z" fill="#F6F6F6"/><path opacity="0.02" d="M25.401 13.3943L23.5137 14.4805L21.634 13.3943L23.5137 12.3004L25.401 13.3943Z" fill="#F6F6F6"/><path opacity="0.01" d="M25.401 13.2402L23.5137 14.3264L21.634 13.2402L23.5137 12.1541L25.401 13.2402Z" fill="#F6F6F6"/></g><path d="M23.5138 28.7241C23.5138 28.7241 23.483 28.7241 23.4676 28.7087C23.4368 28.6933 23.4214 28.6624 23.4214 28.6239V26.4593C23.4214 26.4593 23.4368 26.3899 23.4676 26.3745L25.3549 25.2883C25.3549 25.2883 25.4243 25.2729 25.4474 25.2883C25.4782 25.3037 25.4936 25.3346 25.4936 25.3731V27.5377C25.4936 27.5377 25.4782 27.6071 25.4474 27.6225L23.56 28.7087C23.56 28.7087 23.5292 28.7241 23.5138 28.7241ZM23.6063 26.5209V28.4622L25.301 27.4838V25.5426L23.6063 26.5209Z" fill="#97FDDF"/><path d="M23.5137 28.724C23.5137 28.724 23.4829 28.724 23.4675 28.7086L21.5802 27.6224C21.5802 27.6224 21.5339 27.5762 21.5339 27.5377V25.373C21.5339 25.373 21.5493 25.3037 21.5802 25.2883C21.611 25.2729 21.6495 25.2729 21.6726 25.2883L23.5599 26.3745C23.5599 26.3745 23.6062 26.4207 23.6062 26.4592V28.6239C23.6062 28.6239 23.5907 28.6932 23.5599 28.7086C23.5445 28.7163 23.5291 28.724 23.5137 28.724ZM21.7265 27.4838L23.4213 28.4621V26.5208L21.7265 25.5425V27.4838Z" fill="#97FDDF"/><path d="M23.514 26.5594C23.514 26.5594 23.4831 26.5594 23.4677 26.544L21.5804 25.4578C21.5804 25.4578 21.5342 25.4116 21.5342 25.3731C21.5342 25.3346 21.5496 25.3037 21.5804 25.2883L23.4677 24.2022C23.4677 24.2022 23.5371 24.1868 23.5602 24.2022L25.4475 25.2883C25.4475 25.2883 25.4937 25.3346 25.4937 25.3731C25.4937 25.4116 25.4783 25.4424 25.4475 25.4578L23.5602 26.544C23.5602 26.544 23.5294 26.5594 23.514 26.5594ZM21.8192 25.3731L23.514 26.3514L25.2087 25.3731L23.514 24.3947L21.8192 25.3731Z" fill="#97FDDF"/><g opacity="0.5"><path d="M25.3395 27.6456C25.3395 27.6456 25.2779 27.6302 25.2548 27.5994C25.2471 27.584 25.2394 27.5609 25.2394 27.5378L23.5138 26.5363L21.6804 27.5994C21.6342 27.6225 21.5725 27.6071 21.5494 27.5609C21.5263 27.5147 21.5417 27.4531 21.588 27.4299L23.4753 26.3438C23.4753 26.3438 23.5446 26.3284 23.5677 26.3438L25.4551 27.4299C25.4551 27.4299 25.5013 27.4762 25.5013 27.5147C25.5013 27.5532 25.4859 27.584 25.4551 27.5994L25.3934 27.6302C25.3934 27.6302 25.3626 27.6456 25.3472 27.6456H25.3395Z" fill="#97FDDF"/></g><g opacity="0.5"><path d="M23.5138 26.5286C23.4599 26.5286 23.4214 26.4824 23.4214 26.4361V24.2946C23.4214 24.2407 23.4676 24.2021 23.5138 24.2021C23.56 24.2021 23.6063 24.2484 23.6063 24.2946V26.4361C23.6063 26.4901 23.56 26.5286 23.5138 26.5286Z" fill="#97FDDF"/></g><g opacity="0.2"><path d="M47.3949 40.803L45.5076 41.8892L43.6279 40.803L45.5076 39.7169L47.3949 40.803Z" fill="#F6F6F6"/><path opacity="0.99" d="M45.5076 39.5782L47.3949 40.6644L45.5076 41.7506L43.6279 40.6644L45.5076 39.5782Z" fill="#F6F6F6"/><path opacity="0.98" d="M45.5076 39.4319V39.4396L47.3949 40.5258L45.5076 41.612L43.6279 40.5258L45.5076 39.4319Z" fill="#F6F6F6"/><path opacity="0.98" d="M45.5076 39.2932L47.3949 40.3871L45.5076 41.4733L43.6279 40.3871L45.5076 39.2932Z" fill="#F6F6F6"/><path opacity="0.97" d="M45.5076 39.1545L47.3949 40.2484L45.5076 41.3346L43.6279 40.2484L45.5076 39.1545Z" fill="#F6F6F6"/><path opacity="0.96" d="M45.5076 39.0159L47.3949 40.1098L45.5076 41.1959L43.6279 40.1098L45.5076 39.0159Z" fill="#F6F6F6"/><path opacity="0.95" d="M45.5076 38.8773L47.3949 39.9711L45.5076 41.0573L43.6279 39.9711L45.5076 38.8773Z" fill="#F6F6F6"/><path opacity="0.94" d="M45.5076 38.7386L47.3949 39.8248V39.8325L45.5076 40.9187L43.6279 39.8325L45.5076 38.7386Z" fill="#F6F6F6"/><path opacity="0.93" d="M45.5076 38.5999L47.3949 39.6861V39.6938L45.5076 40.78L43.6279 39.6938L45.5076 38.5999Z" fill="#F6F6F6"/><path opacity="0.93" d="M45.5076 38.4612L47.3949 39.5474V39.5551L45.5076 40.6413L43.6279 39.5551L45.5076 38.4612Z" fill="#F6F6F6"/><path opacity="0.92" d="M45.5076 38.3226L47.3949 39.4088V39.4165L45.5076 40.5026L43.6279 39.4165V39.4088L45.5076 38.3226Z" fill="#F6F6F6"/><path opacity="0.91" d="M45.5076 38.1839L47.3949 39.2701V39.2778L45.5076 40.364L43.6279 39.2778V39.2701L45.5076 38.1839Z" fill="#F6F6F6"/><path opacity="0.9" d="M45.5076 38.0452L47.3872 39.1314L47.3949 39.1391L45.5076 40.2253L43.6279 39.1391V39.1314L45.5076 38.0452Z" fill="#F6F6F6"/><path opacity="0.89" d="M45.5076 37.9066L47.3872 38.9928L47.3949 39.0005L45.5076 40.0867L43.6279 39.0005V38.9928L45.5076 37.9066Z" fill="#F6F6F6"/><path opacity="0.88" d="M45.5076 37.7679L47.3872 38.8541L47.3949 38.8618L45.5076 39.948L43.6279 38.8618V38.8541L45.5076 37.7679Z" fill="#F6F6F6"/><path opacity="0.88" d="M45.5076 37.6293L47.3872 38.7155L47.3949 38.7232L45.5076 39.8093L43.6279 38.7232V38.7155L45.5076 37.6293Z" fill="#F6F6F6"/><path opacity="0.87" d="M45.5076 37.4907L47.3872 38.5768L47.3949 38.5845L45.5076 39.6707L43.6279 38.5845V38.5768L45.5076 37.4907Z" fill="#F6F6F6"/><path opacity="0.86" d="M45.5076 37.352L47.3872 38.4382V38.4459L45.5076 39.5321L43.6279 38.4459V38.4382L45.5076 37.352Z" fill="#F6F6F6"/><path opacity="0.85" d="M45.5076 37.2133L47.3872 38.2994V38.3071L45.5076 39.3933L43.6279 38.3071V38.2994L45.5076 37.2133Z" fill="#F6F6F6"/><path opacity="0.84" d="M45.5076 37.0746L47.3872 38.1608V38.1685L45.5076 39.2547L43.6279 38.1685V38.1608L45.5076 37.0746Z" fill="#F6F6F6"/><path opacity="0.83" d="M45.5076 36.936L47.3872 38.0222V38.0299L45.5076 39.116L43.6279 38.0299V38.0222L45.5076 36.936Z" fill="#F6F6F6"/><path opacity="0.83" d="M45.5076 36.7973L47.3872 37.8835V37.8912L45.5076 38.9774L43.6279 37.8912V37.8835L45.5076 36.7973Z" fill="#F6F6F6"/><path opacity="0.82" d="M45.5076 36.6586L47.3872 37.7448V37.7525L45.5076 38.8387L43.6279 37.7525V37.7448L45.5076 36.6586Z" fill="#F6F6F6"/><path opacity="0.81" d="M45.5076 36.52L47.3872 37.6062V37.6139L45.5076 38.7001L43.6279 37.6139V37.6062L45.5076 36.52Z" fill="#F6F6F6"/><path opacity="0.8" d="M45.5076 36.3813L47.3872 37.4675V37.4752L45.5076 38.5614L43.6279 37.4752V37.4675L45.5076 36.3813Z" fill="#F6F6F6"/><path opacity="0.79" d="M45.5076 36.2426L47.3872 37.3288V37.3365L45.5076 38.4227L43.6279 37.3365V37.3288L45.5076 36.2426Z" fill="#F6F6F6"/><path opacity="0.79" d="M45.5076 36.104L47.3872 37.1902V37.1979L45.5076 38.2841L43.6279 37.1979V37.1902L45.5076 36.104Z" fill="#F6F6F6"/><path opacity="0.78" d="M45.5076 35.9653L47.3872 37.0515V37.0592L45.5076 38.1377L43.6279 37.0592V37.0515L45.5076 35.9653Z" fill="#F6F6F6"/><path opacity="0.77" d="M45.5076 35.8267L47.3872 36.9128V36.9205L45.5076 37.999L43.6279 36.9205V36.9128L45.5076 35.8267Z" fill="#F6F6F6"/><path opacity="0.76" d="M45.5076 35.688L47.3872 36.7742V36.7819L45.5076 37.8604L43.6279 36.7819V36.7742L45.5076 35.688Z" fill="#F6F6F6"/><path opacity="0.75" d="M45.5076 35.5494L47.3872 36.6356V36.6433L45.5076 37.7217L43.6279 36.6433V36.6356L45.5076 35.5494Z" fill="#F6F6F6"/><path opacity="0.74" d="M45.5076 35.4107L47.3872 36.4969L45.5076 37.5831L43.6279 36.4969L45.5076 35.4107Z" fill="#F6F6F6"/><path opacity="0.74" d="M45.5076 35.272L47.3872 36.3582L45.5076 37.4444L43.6279 36.3582L45.5076 35.272Z" fill="#F6F6F6"/><path opacity="0.73" d="M45.5076 35.1334L47.3872 36.2195L45.5076 37.3057L43.6279 36.2195L45.5076 35.1334Z" fill="#F6F6F6"/><path opacity="0.72" d="M45.5076 34.9947L47.3872 36.0809L45.5076 37.1671L43.6279 36.0809L45.5076 34.9947Z" fill="#F6F6F6"/><path opacity="0.71" d="M45.5076 34.856L47.3872 35.9422L45.5076 37.0284L43.6279 35.9422L45.5076 34.856Z" fill="#F6F6F6"/><path opacity="0.7" d="M45.5076 34.7173L47.3872 35.8035L45.5076 36.8897L43.6279 35.8035L45.5076 34.7173Z" fill="#F6F6F6"/><path opacity="0.69" d="M45.5076 34.5787L47.3872 35.6649L45.5076 36.7511L43.6279 35.6649L45.5076 34.5787Z" fill="#F6F6F6"/><path opacity="0.69" d="M45.5077 34.4401L47.3796 35.5262L45.5 36.6124L43.6204 35.5262L45.5 34.4401H45.5077Z" fill="#F6F6F6"/><path opacity="0.68" d="M45.5076 34.3014L47.3795 35.3876L45.4999 36.4738L43.6279 35.3876L45.5076 34.3014Z" fill="#F6F6F6"/><path opacity="0.67" d="M45.5076 34.1627L47.3795 35.2489L45.4999 36.3351L43.6279 35.2489L45.5076 34.1627Z" fill="#F6F6F6"/><path opacity="0.66" d="M45.5076 34.0241L47.3795 35.1103C47.3795 35.1103 45.5076 36.1965 45.4999 36.1965L43.6279 35.1103L45.5076 34.0241Z" fill="#F6F6F6"/><path opacity="0.65" d="M45.5076 33.8854L47.3795 34.9716C47.3795 34.9716 47.3795 34.9716 47.3795 34.9793C47.3795 34.9793 45.5076 36.0654 45.4999 36.0654L43.6279 34.9793C43.6279 34.9793 43.6279 34.9793 43.6279 34.9716L45.4999 33.8854H45.5076Z" fill="#F6F6F6"/><path opacity="0.64" d="M45.5076 33.7468L47.3795 34.8329C47.3795 34.8329 47.3795 34.8329 47.3795 34.8407C47.3795 34.8407 45.5076 35.9268 45.4999 35.9268L43.6279 34.8407C43.6279 34.8407 43.6279 34.8407 43.6279 34.8329L45.4999 33.7468H45.5076Z" fill="#F6F6F6"/><path opacity="0.64" d="M45.5076 33.6081L47.3795 34.6866C47.3795 34.6866 47.3795 34.6866 47.3795 34.6943C47.3795 34.6943 45.5076 35.7805 45.4999 35.7805L43.6279 34.702C43.6279 34.702 43.6279 34.702 43.6279 34.6943L45.4999 33.6081H45.5076Z" fill="#F6F6F6"/><path opacity="0.63" d="M45.5076 33.4694L47.3795 34.5479C47.3795 34.5479 47.3795 34.5479 47.3795 34.5556C47.3795 34.5556 45.5076 35.6418 45.4999 35.6418L43.6279 34.5633C43.6279 34.5633 43.6279 34.5633 43.6279 34.5556L45.4999 33.4694H45.5076Z" fill="#F6F6F6"/><path opacity="0.62" d="M45.5076 33.3307L47.3795 34.4092C47.3795 34.4092 47.3795 34.4092 47.3795 34.4169C47.3795 34.4169 45.5076 35.5031 45.4999 35.5031L43.6279 34.4246C43.6279 34.4246 43.6279 34.4246 43.6279 34.4169L45.4999 33.3307H45.5076Z" fill="#F6F6F6"/><path opacity="0.61" d="M45.5076 33.1921L47.3795 34.2706C47.3795 34.2706 47.3795 34.2706 47.3795 34.2783C47.3795 34.2783 45.5076 35.3568 45.4999 35.3568L43.6279 34.2783C43.6279 34.2783 43.6279 34.2783 43.6279 34.2706L45.4999 33.1844L45.5076 33.1921Z" fill="#F6F6F6"/><path opacity="0.6" d="M45.5076 33.0535L47.3795 34.1319C47.3795 34.1319 47.3795 34.1319 47.3795 34.1396C47.3795 34.1396 45.5076 35.2181 45.4999 35.2181L43.6279 34.1396C43.6279 34.1396 43.6279 34.1396 43.6279 34.1319L45.4999 33.0535H45.5076Z" fill="#F6F6F6"/><path opacity="0.6" d="M45.5076 32.9148L47.3795 33.9933C47.3795 33.9933 47.3795 33.9933 47.3795 34.001C47.3795 34.001 45.5076 35.0795 45.4999 35.0795L43.6279 34.001C43.6279 34.001 43.6279 34.001 43.6279 33.9933L45.4999 32.9148H45.5076Z" fill="#F6F6F6"/><path opacity="0.59" d="M45.5076 32.7761L47.3795 33.8546C47.3795 33.8546 47.3795 33.8546 47.3795 33.8623C47.3795 33.8623 45.5076 34.9408 45.4999 34.9408L43.6279 33.8623C43.6279 33.8623 43.6279 33.8623 43.6279 33.8546L45.4999 32.7761H45.5076Z" fill="#F6F6F6"/><path opacity="0.58" d="M45.5076 32.6375L47.3795 33.7159C47.3795 33.7159 47.3795 33.7159 47.3795 33.7236C47.3795 33.7236 45.5076 34.8021 45.4999 34.8021L43.6279 33.7236C43.6279 33.7236 43.6279 33.7236 43.6279 33.7159L45.4999 32.6375H45.5076Z" fill="#F6F6F6"/><path opacity="0.57" d="M45.5076 32.4988L47.3795 33.5773C47.3795 33.5773 47.3795 33.5773 47.3795 33.585C47.3795 33.585 45.5076 34.6634 45.4999 34.6634L43.6279 33.585C43.6279 33.585 43.6279 33.585 43.6279 33.5773L45.4999 32.4988H45.5076Z" fill="#F6F6F6"/><path opacity="0.56" d="M45.5076 32.3601L47.3795 33.4386C47.3795 33.4386 47.3795 33.4386 47.3795 33.4463C47.3795 33.4463 45.5076 34.5248 45.4999 34.5248L43.6279 33.4463C43.6279 33.4463 43.6279 33.4463 43.6279 33.4386L45.4999 32.3601H45.5076Z" fill="#F6F6F6"/><path opacity="0.55" d="M45.5076 32.2215L47.3795 33.3C47.3795 33.3 47.3795 33.3 47.3795 33.3077C47.3795 33.3077 45.5076 34.3862 45.4999 34.3862L43.6279 33.3077C43.6279 33.3077 43.6279 33.3077 43.6279 33.3L45.4999 32.2215H45.5076Z" fill="#F6F6F6"/><path opacity="0.55" d="M45.5076 32.0828L47.3795 33.1613V33.169C47.3795 33.169 45.5076 34.2475 45.4999 34.2475L43.6279 33.169V33.1613L45.4999 32.0828H45.5076Z" fill="#F6F6F6"/><path opacity="0.54" d="M45.5076 31.9442L47.3795 33.0226V33.0303C47.3795 33.0303 45.5076 34.1088 45.4999 34.1088L43.6279 33.0303V33.0226L45.4999 31.9442H45.5076Z" fill="#F6F6F6"/><path opacity="0.53" d="M45.5076 31.8055L47.3795 32.884V32.8917C47.3795 32.8917 45.5076 33.9701 45.4999 33.9701L43.6279 32.8917V32.884L45.4999 31.8055H45.5076Z" fill="#F6F6F6"/><path opacity="0.52" d="M45.5076 31.6669L47.3795 32.7453V32.7531C47.3795 32.7531 45.5076 33.8315 45.4999 33.8315L43.6279 32.7531V32.7453L45.4999 31.6669H45.5076Z" fill="#F6F6F6"/><path opacity="0.51" d="M45.5076 31.5281L47.3795 32.6066V32.6143C47.3795 32.6143 45.5076 33.6928 45.4999 33.6928L43.6279 32.6143V32.6066L45.4999 31.5281H45.5076Z" fill="#F6F6F6"/><path opacity="0.5" d="M45.5076 31.3895L47.3795 32.4679V32.4756C47.3795 32.4756 45.5076 33.5541 45.4999 33.5541L43.6279 32.4756V32.4679L45.4999 31.3895H45.5076Z" fill="#F6F6F6"/><path opacity="0.5" d="M45.5076 31.2509L47.3795 32.3293V32.337C47.3795 32.337 45.5076 33.4155 45.4999 33.4155L43.6279 32.337V32.3293L45.4999 31.2509H45.5076Z" fill="#F6F6F6"/><path opacity="0.49" d="M45.5076 31.1122L47.3795 32.1907V32.1984C47.3795 32.1984 45.5076 33.2768 45.4999 33.2768L43.6279 32.1984V32.1907L45.4999 31.1122H45.5076Z" fill="#F6F6F6"/><path opacity="0.48" d="M45.5076 30.9735L47.3795 32.052V32.0597C47.3795 32.0597 45.5076 33.1382 45.4999 33.1382L43.6279 32.0597V32.052L45.4999 30.9735H45.5076Z" fill="#F6F6F6"/><path opacity="0.47" d="M45.5076 30.8348L47.3795 31.9133V31.921C47.3795 31.921 45.5076 32.9995 45.4999 32.9995L43.6279 31.921V31.9133L45.4999 30.8348H45.5076Z" fill="#F6F6F6"/><path opacity="0.46" d="M45.5076 30.6962L47.3795 31.7746C47.3795 31.7746 47.3795 31.7823 47.3795 31.7901C47.3795 31.7901 45.5076 32.8685 45.4999 32.8685L43.6279 31.7901C43.6279 31.7901 43.6279 31.7823 43.6279 31.7746L45.4999 30.6962H45.5076Z" fill="#F6F6F6"/><path opacity="0.45" d="M45.5076 30.5576L47.3795 31.6361C47.3795 31.6361 47.3795 31.6438 47.3795 31.6515C47.3795 31.6515 45.5076 32.73 45.4999 32.73L43.6279 31.6515C43.6279 31.6515 43.6279 31.6438 43.6279 31.6361L45.4999 30.5576H45.5076Z" fill="#F6F6F6"/><path opacity="0.45" d="M45.5076 30.4188L47.3795 31.4973C47.3795 31.4973 47.3795 31.505 47.3795 31.5127C47.3795 31.5127 45.5076 32.5912 45.4999 32.5912L43.6279 31.5127C43.6279 31.5127 43.6279 31.505 43.6279 31.4973L45.4999 30.4188H45.5076Z" fill="#F6F6F6"/><path opacity="0.44" d="M45.5076 30.2802L47.3795 31.3586C47.3795 31.3586 47.3795 31.3663 47.3795 31.374C47.3795 31.374 45.5076 32.4525 45.4999 32.4525L43.6279 31.374C43.6279 31.374 43.6279 31.3663 43.6279 31.3586L45.4999 30.2802H45.5076Z" fill="#F6F6F6"/><path opacity="0.43" d="M45.5076 30.1416L47.3795 31.2201C47.3795 31.2201 47.3795 31.2278 47.3795 31.2355C47.3795 31.2355 45.5076 32.314 45.4999 32.314L43.6279 31.2355C43.6279 31.2355 43.6279 31.2278 43.6279 31.2201L45.4999 30.1416H45.5076Z" fill="#F6F6F6"/><path opacity="0.42" d="M45.5076 30.0029L47.3795 31.0814C47.3795 31.0814 47.3795 31.0891 47.3795 31.0968C47.3795 31.0968 45.5076 32.1753 45.4999 32.1753L43.6279 31.0968C43.6279 31.0968 43.6279 31.0891 43.6279 31.0814L45.4999 30.0029H45.5076Z" fill="#F6F6F6"/><path opacity="0.41" d="M45.5076 29.8643L47.3795 30.9427C47.3795 30.9427 47.3795 30.9504 47.3795 30.9581C47.3795 30.9581 45.5076 32.0366 45.4999 32.0366L43.6279 30.9581C43.6279 30.9581 43.6279 30.9504 43.6279 30.9427L45.4999 29.8643H45.5076Z" fill="#F6F6F6"/><path opacity="0.4" d="M45.5076 29.7256L47.3795 30.8041C47.3795 30.8041 47.3795 30.8118 47.3795 30.8195C47.3795 30.8195 45.5076 31.8979 45.4999 31.8979L43.6279 30.8195C43.6279 30.8195 43.6279 30.8118 43.6279 30.8041L45.4999 29.7256H45.5076Z" fill="#F6F6F6"/><path opacity="0.4" d="M45.5076 29.5869L47.3795 30.6654C47.3795 30.6654 47.3795 30.6731 47.3795 30.6808C47.3795 30.6808 45.5076 31.7593 45.4999 31.7593L43.6279 30.6808C43.6279 30.6808 43.6279 30.6731 43.6279 30.6654L45.4999 29.5869H45.5076Z" fill="#F6F6F6"/><path opacity="0.39" d="M45.5076 29.4482L47.3795 30.5267C47.3795 30.5267 47.3795 30.5344 47.3795 30.5421C47.3795 30.5421 45.5076 31.6206 45.4999 31.6206L43.6279 30.5421C43.6279 30.5421 43.6279 30.5344 43.6279 30.5267L45.4999 29.4482H45.5076Z" fill="#F6F6F6"/><path opacity="0.38" d="M45.5076 29.3096L47.3795 30.3881C47.3795 30.3881 47.3795 30.3958 47.3795 30.4035C47.3795 30.4035 45.5076 31.4819 45.4999 31.4819L43.6279 30.4035C43.6279 30.4035 43.6279 30.3958 43.6279 30.3881L45.4999 29.3096H45.5076Z" fill="#F6F6F6"/><path opacity="0.37" d="M45.5077 29.1709C45.5077 29.1709 45.5077 29.1709 45.5154 29.1709L47.3873 30.2494C47.3873 30.2494 47.3873 30.2571 47.3873 30.2648C47.3873 30.2648 45.5154 31.3433 45.5077 31.3433L43.6357 30.2648C43.6357 30.2648 43.6357 30.2571 43.6357 30.2494L45.5077 29.1709Z" fill="#F6F6F6"/><path opacity="0.36" d="M45.5077 29.0322C45.5077 29.0322 45.5077 29.0322 45.5154 29.0322L47.3873 30.1107C47.3873 30.1107 47.3873 30.1184 47.3873 30.1261C47.3873 30.1261 45.5154 31.2046 45.5077 31.2046L43.6357 30.1261C43.6357 30.1261 43.6357 30.1184 43.6357 30.1107L45.5077 29.0322Z" fill="#F6F6F6"/><path opacity="0.36" d="M45.5077 28.8936C45.5077 28.8936 45.5077 28.8936 45.5154 28.8936L47.3796 29.972C47.3796 29.972 47.3796 29.9797 47.3796 29.9874C47.3796 29.9874 45.5077 31.0659 45.5 31.0659L43.6357 29.9874C43.6357 29.9874 43.6357 29.9797 43.6357 29.972L45.5077 28.8936Z" fill="#F6F6F6"/><path opacity="0.35" d="M45.5077 28.7549C45.5077 28.7549 45.5077 28.7549 45.5154 28.7549L47.3796 29.8334C47.3796 29.8334 47.3796 29.8411 47.3796 29.8488C47.3796 29.8488 45.5154 30.9272 45.5 30.9272L43.6357 29.8488C43.6357 29.8488 43.6357 29.8411 43.6357 29.8334L45.5 28.7549H45.5077Z" fill="#F6F6F6"/><path opacity="0.34" d="M45.5077 28.6163C45.5077 28.6163 45.5077 28.6163 45.5154 28.6163L47.3796 29.6948C47.3796 29.6948 47.3796 29.7025 47.3796 29.7102C47.3796 29.7102 45.5154 30.7887 45.5 30.7887L43.6357 29.7102C43.6357 29.7102 43.6357 29.7025 43.6357 29.6948L45.5 28.6163H45.5077Z" fill="#F6F6F6"/><path opacity="0.33" d="M45.5077 28.4777C45.5077 28.4777 45.5077 28.4777 45.5154 28.4777L47.3796 29.5561C47.3796 29.5561 47.3796 29.5638 47.3796 29.5715C47.3796 29.5715 45.5154 30.65 45.5 30.65L43.6357 29.5715C43.6357 29.5715 43.6357 29.5638 43.6357 29.5561L45.5 28.4777H45.5077Z" fill="#F6F6F6"/><path opacity="0.32" d="M45.5077 28.339C45.5077 28.339 45.5077 28.339 45.5154 28.339L47.3796 29.4175C47.3796 29.4175 47.3796 29.4252 47.3796 29.4329C47.3796 29.4329 45.5154 30.5114 45.5 30.5114L43.6357 29.4329C43.6357 29.4329 43.6357 29.4252 43.6357 29.4175L45.5 28.339H45.5077Z" fill="#F6F6F6"/><path opacity="0.31" d="M45.5075 28.2003C45.5075 28.2003 45.5075 28.2003 45.5152 28.2003L47.3795 29.2788C47.3795 29.2788 47.3795 29.2865 47.3795 29.2942C47.3795 29.2942 45.5152 30.3727 45.5075 30.3727L43.6433 29.2942C43.6433 29.2942 43.6433 29.2865 43.6433 29.2788L45.5075 28.2003Z" fill="#F6F6F6"/><path opacity="0.31" d="M45.5075 28.0616C45.5075 28.0616 45.5075 28.0616 45.5152 28.0616L47.3795 29.1401V29.1555C47.3795 29.1555 45.5152 30.234 45.5075 30.234L43.6433 29.1555V29.1401L45.5075 28.0616Z" fill="#F6F6F6"/><path opacity="0.3" d="M45.5075 27.923C45.5075 27.923 45.5075 27.923 45.5152 27.923L47.3795 29.0015V29.0169C47.3795 29.0169 45.5152 30.0953 45.5075 30.0953L43.6433 29.0169V29.0015L45.5075 27.923Z" fill="#F6F6F6"/><path opacity="0.29" d="M45.5075 27.7843C45.5075 27.7843 45.5075 27.7843 45.5152 27.7843L47.3795 28.8628V28.8782C47.3795 28.8782 45.5152 29.9567 45.5075 29.9567L43.6433 28.8782V28.8628L45.5075 27.7843Z" fill="#F6F6F6"/><path opacity="0.28" d="M45.5075 27.6456C45.5075 27.6456 45.5075 27.6456 45.5152 27.6456L47.3795 28.7241V28.7395C47.3795 28.7395 45.5152 29.818 45.5075 29.818L43.6433 28.7395V28.7241L45.5075 27.6456Z" fill="#F6F6F6"/><path opacity="0.27" d="M45.5075 27.507C45.5075 27.507 45.5075 27.507 45.5152 27.507L47.3795 28.5854V28.6008C47.3795 28.6008 45.5152 29.6793 45.5075 29.6793L43.6433 28.6008V28.5854L45.5075 27.507Z" fill="#F6F6F6"/><path opacity="0.26" d="M45.5075 27.3683C45.5075 27.3683 45.5075 27.3683 45.5152 27.3683L47.3795 28.4468V28.4622C47.3795 28.4622 45.5152 29.5406 45.5075 29.5406L43.6433 28.4622V28.4468L45.5075 27.3683Z" fill="#F6F6F6"/><path opacity="0.26" d="M45.5075 27.2296C45.5075 27.2296 45.5075 27.2296 45.5152 27.2296L47.3795 28.3081V28.3235C47.3795 28.3235 45.5152 29.402 45.5075 29.402L43.6433 28.3235V28.3081L45.5075 27.2296Z" fill="#F6F6F6"/><path opacity="0.25" d="M45.5075 27.0911C45.5075 27.0911 45.5075 27.0911 45.5152 27.0911L47.3795 28.1695V28.1849C47.3795 28.1849 45.5152 29.2634 45.5075 29.2634L43.6433 28.1849V28.1695L45.5075 27.0911Z" fill="#F6F6F6"/><path opacity="0.24" d="M45.5075 26.9523C45.5075 26.9523 45.5075 26.9523 45.5152 26.9523L47.3795 28.0307V28.0462C47.3795 28.0462 45.5152 29.1246 45.5075 29.1246L43.6433 28.0462V28.0307L45.5075 26.9523Z" fill="#F6F6F6"/><path opacity="0.23" d="M45.5075 26.8136C45.5075 26.8136 45.5075 26.8136 45.5152 26.8136L47.3795 27.8921V27.9075C47.3795 27.9075 45.5152 28.986 45.5075 28.986L43.6433 27.9075V27.8921L45.5075 26.8136Z" fill="#F6F6F6"/><path opacity="0.22" d="M45.5075 26.675C45.5075 26.675 45.5075 26.675 45.5152 26.675L47.3795 27.7535V27.7689C47.3795 27.7689 45.5152 28.8474 45.5075 28.8474L43.6433 27.7689V27.7535L45.5075 26.675Z" fill="#F6F6F6"/><path opacity="0.21" d="M45.5075 26.5364C45.5075 26.5364 45.5075 26.5364 45.5152 26.5364L47.3795 27.6149V27.6303C47.3795 27.6303 45.5152 28.7087 45.5075 28.7087L43.6433 27.6303V27.6149L45.5075 26.5364Z" fill="#F6F6F6"/><path opacity="0.21" d="M45.5075 26.3977C45.5075 26.3977 45.5075 26.3977 45.5152 26.3977L47.3795 27.4762V27.4916C47.3795 27.4916 45.5152 28.5701 45.5075 28.5701L43.6433 27.4916V27.4762L45.5075 26.3977Z" fill="#F6F6F6"/><path opacity="0.2" d="M45.5075 26.259C45.5075 26.259 45.5075 26.259 45.5152 26.259L47.3795 27.3375V27.3529C47.3795 27.3529 45.5152 28.4314 45.5075 28.4314L43.6433 27.3529V27.3375L45.5075 26.259Z" fill="#F6F6F6"/><path opacity="0.19" d="M45.5075 26.1204C45.5075 26.1204 45.5075 26.1204 45.5152 26.1204L47.3795 27.1988V27.2142C47.3795 27.2142 45.5152 28.2927 45.5075 28.2927L43.6433 27.2142V27.1988L45.5075 26.1204Z" fill="#F6F6F6"/><path opacity="0.18" d="M45.5075 25.9817C45.5075 25.9817 45.5075 25.9817 45.5152 25.9817L47.3795 27.0602V27.0756C47.3795 27.0756 45.5152 28.1541 45.5075 28.1541L43.6433 27.0756V27.0602L45.5075 25.9817Z" fill="#F6F6F6"/><path opacity="0.17" d="M45.5075 25.843C45.5075 25.843 45.5075 25.843 45.5152 25.843L47.3795 26.9215V26.9369C47.3795 26.9369 45.5152 28.0154 45.5075 28.0154L43.6433 26.9369V26.9215L45.5075 25.843Z" fill="#F6F6F6"/><path opacity="0.17" d="M45.5075 25.7043C45.5075 25.7043 45.5075 25.7043 45.5152 25.7043L47.3795 26.7828V26.7982C47.3795 26.7982 45.5152 27.8767 45.5075 27.8767L43.6433 26.7982V26.7828L45.5075 25.7043Z" fill="#F6F6F6"/><path opacity="0.16" d="M45.5075 25.5657C45.5075 25.5657 45.5075 25.5657 45.5152 25.5657L47.3795 26.6442V26.6596C47.3795 26.6596 45.5152 27.738 45.5075 27.738L43.6433 26.6596V26.6442L45.5075 25.5657Z" fill="#F6F6F6"/><path opacity="0.15" d="M45.5075 25.427C45.5075 25.427 45.5075 25.427 45.5152 25.427L47.3795 26.5055V26.5209C47.3795 26.5209 45.5152 27.5994 45.5075 27.5994L43.6433 26.5209V26.5055L45.5075 25.427Z" fill="#F6F6F6"/><path opacity="0.14" d="M45.5075 25.2885C45.5075 25.2885 45.5075 25.2885 45.5152 25.2885L47.3795 26.3669V26.3823C47.3795 26.3823 45.5152 27.4608 45.5075 27.4608L43.6433 26.3823V26.3669L45.5075 25.2885Z" fill="#F6F6F6"/><path opacity="0.13" d="M45.5075 25.1498C45.5075 25.1498 45.5075 25.1498 45.5152 25.1498L47.3795 26.2283V26.2437C47.3795 26.2437 45.5152 27.3221 45.5075 27.3221L43.6433 26.2437V26.2283L45.5075 25.1498Z" fill="#F6F6F6"/><path opacity="0.12" d="M45.5075 25.0111C45.5075 25.0111 45.5075 25.0111 45.5152 25.0111L47.3795 26.0896V26.105C47.3795 26.105 45.5152 27.1835 45.5075 27.1835L43.6433 26.105V26.0896L45.5075 25.0111Z" fill="#F6F6F6"/><path opacity="0.12" d="M45.5075 24.8724C45.5075 24.8724 45.5075 24.8724 45.5152 24.8724L47.3795 25.9509V25.9663C47.3795 25.9663 45.5152 27.0448 45.5075 27.0448L43.6433 25.9663V25.9509L45.5075 24.8724Z" fill="#F6F6F6"/><path opacity="0.11" d="M45.5075 24.7338C45.5075 24.7338 45.5075 24.7338 45.5152 24.7338L47.3795 25.8122V25.8277C47.3795 25.8277 45.5152 26.9061 45.5075 26.9061L43.6433 25.8277V25.8122L45.5075 24.7338Z" fill="#F6F6F6"/><path opacity="0.1" d="M45.5075 24.5951C45.5075 24.5951 45.5075 24.5951 45.5152 24.5951L47.3795 25.6736V25.689C47.3795 25.689 45.5152 26.7675 45.5075 26.7675L43.6433 25.689C43.6433 25.689 43.6433 25.6736 43.6433 25.6659L45.5075 24.5874V24.5951Z" fill="#F6F6F6"/><path opacity="0.09" d="M45.5075 24.4564C45.5075 24.4564 45.5075 24.4564 45.5152 24.4564L47.3795 25.5349C47.3795 25.5349 47.3795 25.5503 47.3795 25.558C47.3795 25.558 45.5152 26.6365 45.5075 26.6365L43.6433 25.558C43.6433 25.558 43.6433 25.5426 43.6433 25.5349L45.5075 24.4564Z" fill="#F6F6F6"/><path opacity="0.08" d="M45.5075 24.3177H45.5152L47.3795 25.3962C47.3795 25.3962 47.3795 25.4116 47.3795 25.4193C47.3795 25.4193 45.5152 26.4978 45.5075 26.4978L43.6433 25.4193C43.6433 25.4193 43.6433 25.4039 43.6433 25.3962L45.5075 24.3177Z" fill="#F6F6F6"/><path opacity="0.07" d="M45.5075 24.1791H45.5152L47.3795 25.2576C47.3795 25.2576 47.3795 25.273 47.3795 25.2807C47.3795 25.2807 45.5152 26.3514 45.5075 26.3514L43.6433 25.2807C43.6433 25.2807 43.6433 25.2653 43.6433 25.2576L45.5075 24.1791Z" fill="#F6F6F6"/><path opacity="0.07" d="M45.5 24.0404H45.5077L47.3719 25.1112C47.3719 25.1112 47.3719 25.1266 47.3719 25.1343C47.3719 25.1343 45.5077 26.2051 45.5 26.2051L43.6357 25.1343C43.6357 25.1343 43.6357 25.1189 43.6357 25.1112L45.5 24.0404Z" fill="#F6F6F6"/><path opacity="0.06" d="M45.4998 23.9017C45.4998 23.9017 45.5075 23.9017 45.5152 23.9017L47.3795 24.9725C47.3795 24.9725 47.3872 24.9879 47.3795 24.9956C47.3795 24.9956 45.5152 26.0664 45.5075 26.0664L43.6433 24.9956C43.6433 24.9956 43.6433 24.9802 43.6433 24.9725L45.5075 23.9017H45.4998Z" fill="#F6F6F6"/><path opacity="0.05" d="M45.4998 23.7632C45.4998 23.7632 45.5075 23.7632 45.5152 23.7632L47.3795 24.834C47.3795 24.834 47.3872 24.8494 47.3795 24.8571C47.3795 24.8571 45.5152 25.9278 45.5075 25.9278L43.6433 24.8571C43.6433 24.8571 43.6356 24.8417 43.6433 24.834L45.5075 23.7632H45.4998Z" fill="#F6F6F6"/><path opacity="0.04" d="M45.4998 23.6245C45.4998 23.6245 45.5075 23.6245 45.5152 23.6245L47.3795 24.6953C47.3795 24.6953 47.3872 24.7107 47.3795 24.7184C47.3795 24.7184 45.5152 25.7892 45.5075 25.7892L43.6433 24.7184C43.6433 24.7184 43.6356 24.703 43.6433 24.6953L45.5075 23.6245H45.4998Z" fill="#F6F6F6"/><path opacity="0.03" d="M45.4998 23.4857C45.4998 23.4857 45.5075 23.4857 45.5152 23.4857L47.3718 24.5565C47.3718 24.5565 47.3795 24.5719 47.3718 24.5796C47.3718 24.5796 45.5152 25.6504 45.4998 25.6504L43.6433 24.5796C43.6433 24.5796 43.6356 24.5642 43.6433 24.5565L45.4998 23.4857Z" fill="#F6F6F6"/><path opacity="0.02" d="M45.4998 23.3472C45.4998 23.3472 45.5075 23.3472 45.5152 23.3472L47.3718 24.4179C47.3718 24.4179 47.3795 24.4334 47.3718 24.4411C47.3718 24.4411 45.5152 25.5118 45.4998 25.5118L43.6433 24.4411C43.6433 24.4411 43.6356 24.4256 43.6433 24.4179L45.4998 23.3472Z" fill="#F6F6F6"/><path opacity="0.02" d="M45.4998 23.2085C45.4998 23.2085 45.5075 23.2085 45.5152 23.2085L47.3718 24.2793C47.3718 24.2793 47.3795 24.2947 47.3718 24.3024C47.3718 24.3024 45.5152 25.3732 45.4998 25.3732L43.6433 24.3024C43.6433 24.3024 43.6356 24.287 43.6433 24.2793L45.4998 23.2085Z" fill="#F6F6F6"/></g><path d="M45.508 44.1617C45.508 44.1617 45.4772 44.1617 45.4617 44.1463C45.4309 44.1309 45.4155 44.1001 45.4155 44.0616V41.8969C45.4155 41.8969 45.4309 41.8276 45.4617 41.8122L47.3491 40.726C47.3491 40.726 47.4184 40.7106 47.4415 40.726C47.4723 40.7414 47.4877 40.7722 47.4877 40.8108V42.9754C47.4877 42.9754 47.4723 43.0448 47.4415 43.0602L45.5542 44.1463C45.5542 44.1463 45.5234 44.1617 45.508 44.1617ZM45.6004 41.9586V43.8998L47.2952 42.9215V40.9802L45.6004 41.9586Z" fill="#F6F6F6"/><path d="M45.5079 44.1618C45.5079 44.1618 45.477 44.1618 45.4616 44.1463L43.5743 43.0602C43.5743 43.0602 43.5281 43.0139 43.5281 42.9754V40.8108C43.5281 40.8108 43.5435 40.7414 43.5743 40.726C43.6051 40.7106 43.6436 40.7106 43.6667 40.726L45.5541 41.8122C45.5541 41.8122 45.6003 41.8584 45.6003 41.897V44.0616C45.6003 44.0616 45.5849 44.1309 45.5541 44.1463C45.5387 44.1541 45.5233 44.1618 45.5079 44.1618ZM43.7207 42.9215L45.4154 43.8998V41.9586L43.7207 40.9802V42.9215Z" fill="#F6F6F6"/><path d="M45.5076 41.9971C45.5076 41.9971 45.4768 41.9971 45.4614 41.9817L43.5741 40.8955C43.5741 40.8955 43.5278 40.8493 43.5278 40.8108C43.5278 40.7722 43.5432 40.7414 43.5741 40.726L45.4614 39.6398C45.4614 39.6398 45.5307 39.6244 45.5538 39.6398L47.4412 40.726C47.4412 40.726 47.4874 40.7722 47.4874 40.8108C47.4874 40.8493 47.472 40.8801 47.4412 40.8955L45.5538 41.9817C45.5538 41.9817 45.523 41.9971 45.5076 41.9971ZM43.8129 40.8108L45.5076 41.7891L47.2024 40.8108L45.5076 39.8324L43.8129 40.8108Z" fill="#F6F6F6"/><g opacity="0.5"><path d="M47.3337 43.091C47.3337 43.091 47.272 43.0755 47.2489 43.0447C47.2412 43.0293 47.2335 43.0062 47.2335 42.9831L45.5079 41.9817L43.6745 43.0447C43.6283 43.0678 43.5667 43.0524 43.5436 43.0062C43.5205 42.96 43.5359 42.8984 43.5821 42.8753L45.4694 41.7891C45.4694 41.7891 45.5388 41.7737 45.5619 41.7891L47.4492 42.8753C47.4492 42.8753 47.4954 42.9215 47.4954 42.96C47.4954 42.9985 47.48 43.0293 47.4492 43.0447L47.3876 43.0755C47.3876 43.0755 47.3568 43.091 47.3414 43.091H47.3337Z" fill="#F6F6F6"/></g><g opacity="0.5"><path d="M45.508 41.9663C45.454 41.9663 45.4155 41.9201 45.4155 41.8739V39.7323C45.4155 39.6784 45.4617 39.6399 45.508 39.6399C45.5542 39.6399 45.6004 39.6861 45.6004 39.7323V41.8739C45.6004 41.9278 45.5542 41.9663 45.508 41.9663Z" fill="#F6F6F6"/></g><g opacity="0.2"><path d="M9.64002 42.0587L7.75268 43.1449L5.87305 42.0587L7.75268 40.9648L9.64002 42.0587Z" fill="#F6F6F6"/><path opacity="0.99" d="M7.75268 40.8262L9.64002 41.9124V41.9201L7.75268 43.0062L5.87305 41.9201L7.75268 40.8262Z" fill="#F6F6F6"/><path opacity="0.98" d="M7.75268 40.6875L9.64002 41.7737V41.7814L7.75268 42.8676L5.87305 41.7814L7.75268 40.6875Z" fill="#F6F6F6"/><path opacity="0.98" d="M7.75268 40.5489L9.64002 41.6351V41.6428L7.75268 42.729L5.87305 41.6428V41.6351L7.75268 40.5489Z" fill="#F6F6F6"/><path opacity="0.97" d="M7.75268 40.4102L9.64002 41.4964V41.5041L7.75268 42.5903L5.87305 41.5041V41.4964L7.75268 40.4102Z" fill="#F6F6F6"/><path opacity="0.96" d="M7.75268 40.2715L9.64002 41.3577V41.3654L7.75268 42.4516L5.87305 41.3654V41.3577L7.75268 40.2715Z" fill="#F6F6F6"/><path opacity="0.95" d="M7.75268 40.1329L9.64002 41.2191V41.2268L7.75268 42.3129L5.87305 41.2268V41.2191L7.75268 40.1329Z" fill="#F6F6F6"/><path opacity="0.94" d="M7.75268 39.9942L9.63231 41.0804L9.64002 41.0881L7.75268 42.1743L5.87305 41.0881V41.0804L7.75268 39.9942Z" fill="#F6F6F6"/><path opacity="0.93" d="M7.75268 39.8555L9.63231 40.9417L9.64002 40.9494L7.75268 42.0356L5.87305 40.9494V40.9417L7.75268 39.8555Z" fill="#F6F6F6"/><path opacity="0.93" d="M7.75268 39.7169L9.63231 40.803L9.64002 40.8107L7.75268 41.8969L5.87305 40.8107V40.803L7.75268 39.7169Z" fill="#F6F6F6"/><path opacity="0.92" d="M7.75268 39.5782L9.63231 40.6644L9.64002 40.6721L7.75268 41.7583L5.87305 40.6721V40.6644L7.75268 39.5782Z" fill="#F6F6F6"/><path opacity="0.91" d="M7.75268 39.4396L9.63231 40.5258L9.64002 40.5335L7.75268 41.6196L5.87305 40.5335V40.5258L7.75268 39.4396Z" fill="#F6F6F6"/><path opacity="0.9" d="M7.75268 39.3009L9.63231 40.3871V40.3948L7.75268 41.481L5.87305 40.3948V40.3871L7.75268 39.3009Z" fill="#F6F6F6"/><path opacity="0.89" d="M7.75268 39.1622L9.63231 40.2484V40.2561L7.75268 41.3423L5.87305 40.2561V40.2484L7.75268 39.1622Z" fill="#F6F6F6"/><path opacity="0.88" d="M7.75268 39.0236L9.63231 40.1098V40.1175L7.75268 41.2037L5.87305 40.1175V40.1098L7.75268 39.0236Z" fill="#F6F6F6"/><path opacity="0.88" d="M7.75268 38.8849L9.63231 39.9711V39.9788L7.75268 41.065L5.87305 39.9788V39.9711L7.75268 38.8849Z" fill="#F6F6F6"/><path opacity="0.87" d="M7.75268 38.7462L9.63231 39.8324V39.8401L7.75268 40.9263L5.87305 39.8401V39.8324L7.75268 38.7462Z" fill="#F6F6F6"/><path opacity="0.86" d="M7.75268 38.6076L9.63231 39.6938V39.7015L7.75268 40.78L5.87305 39.7015V39.6938L7.75268 38.6076Z" fill="#F6F6F6"/><path opacity="0.85" d="M7.75268 38.4689L9.63231 39.5551V39.5628L7.75268 40.6413L5.87305 39.5628V39.5551L7.75268 38.4689Z" fill="#F6F6F6"/><path opacity="0.84" d="M7.75268 38.3303L9.63231 39.4164V39.4241L7.75268 40.5026L5.87305 39.4241V39.4164L7.75268 38.3303Z" fill="#F6F6F6"/><path opacity="0.83" d="M7.75268 38.1917L9.63231 39.2778V39.2855L7.75268 40.364L5.87305 39.2855V39.2778L7.75268 38.1917Z" fill="#F6F6F6"/><path opacity="0.83" d="M7.75268 38.053L9.63231 39.1392V39.1469L7.75268 40.2253L5.87305 39.1469V39.1392L7.75268 38.053Z" fill="#F6F6F6"/><path opacity="0.82" d="M7.75268 37.9143L9.63231 39.0005V39.0082L7.75268 40.0867L5.87305 39.0082V39.0005L7.75268 37.9143Z" fill="#F6F6F6"/><path opacity="0.81" d="M7.75268 37.7756L9.63231 38.8618V38.8695L7.75268 39.948L5.87305 38.8695V38.8618L7.75268 37.7756Z" fill="#F6F6F6"/><path opacity="0.8" d="M7.75268 37.637L9.63231 38.7231V38.7308L7.75268 39.8093L5.87305 38.7308V38.7231L7.75268 37.637Z" fill="#F6F6F6"/><path opacity="0.79" d="M7.75268 37.4983L9.63231 38.5845V38.5922L7.75268 39.6707L5.87305 38.5922V38.5845L7.75268 37.4983Z" fill="#F6F6F6"/><path opacity="0.79" d="M7.75268 37.3596L9.63231 38.4458V38.4535L7.75268 39.532L5.87305 38.4535V38.4458L7.75268 37.3596Z" fill="#F6F6F6"/><path opacity="0.78" d="M7.75268 37.221L9.63231 38.3072V38.3149L7.75268 39.3934L5.87305 38.3149V38.3072L7.75268 37.221Z" fill="#F6F6F6"/><path opacity="0.77" d="M7.75268 37.0823L9.63231 38.1685V38.1762L7.75268 39.2547L5.87305 38.1762V38.1685L7.75268 37.0823Z" fill="#F6F6F6"/><path opacity="0.76" d="M7.75268 36.9437L9.63231 38.0298V38.0375L7.75268 39.116L5.87305 38.0375V38.0298L7.75268 36.9437Z" fill="#F6F6F6"/><path opacity="0.75" d="M7.75268 36.805L9.63231 37.8912L7.75268 38.9774L5.87305 37.8912L7.75268 36.805Z" fill="#F6F6F6"/><path opacity="0.74" d="M7.75268 36.6664L9.63231 37.7526L7.75268 38.8387L5.87305 37.7526L7.75268 36.6664Z" fill="#F6F6F6"/><path opacity="0.74" d="M7.75268 36.5276L9.63231 37.6138L7.75268 38.7L5.87305 37.6138L7.75268 36.5276Z" fill="#F6F6F6"/><path opacity="0.73" d="M7.75268 36.389L9.63231 37.4752L7.75268 38.5613L5.87305 37.4752L7.75268 36.389Z" fill="#F6F6F6"/><path opacity="0.72" d="M7.75268 36.2504L9.63231 37.3365L7.75268 38.4227L5.87305 37.3365L7.75268 36.2504Z" fill="#F6F6F6"/><path opacity="0.71" d="M7.75268 36.1117L9.63231 37.1979L7.75268 38.2841L5.87305 37.1979L7.75268 36.1117Z" fill="#F6F6F6"/><path opacity="0.7" d="M7.75268 35.973L9.63231 37.0592L7.75268 38.1454L5.87305 37.0592L7.75268 35.973Z" fill="#F6F6F6"/><path opacity="0.69" d="M7.75268 35.8344L9.63231 36.9205L7.75268 38.0067L5.87305 36.9205L7.75268 35.8344Z" fill="#F6F6F6"/><path opacity="0.69" d="M7.75282 35.6957L9.62475 36.7819L7.74511 37.8681L5.86548 36.7819L7.74511 35.6957H7.75282Z" fill="#F6F6F6"/><path opacity="0.68" d="M7.75268 35.5571L9.62461 36.6432L7.74498 37.7294L5.87305 36.6432L7.75268 35.5571Z" fill="#F6F6F6"/><path opacity="0.67" d="M7.75268 35.4184L9.62461 36.5046L7.74498 37.5908L5.87305 36.5046L7.75268 35.4184Z" fill="#F6F6F6"/><path opacity="0.66" d="M7.75268 35.2797L9.62461 36.3659C9.62461 36.3659 7.75268 37.4521 7.74498 37.4521L5.87305 36.3659L7.74498 35.2797H7.75268Z" fill="#F6F6F6"/><path opacity="0.65" d="M7.75268 35.1411L9.62461 36.2272C9.62461 36.2272 9.62461 36.2272 9.62461 36.2349C9.62461 36.2349 7.75268 37.3211 7.74498 37.3211L5.87305 36.2349C5.87305 36.2349 5.87305 36.2349 5.87305 36.2272L7.74498 35.1411H7.75268Z" fill="#F6F6F6"/><path opacity="0.64" d="M7.75268 35.0024L9.62461 36.0886C9.62461 36.0886 9.62461 36.0886 9.62461 36.0963C9.62461 36.0963 7.75268 37.1824 7.74498 37.1824L5.87305 36.0963C5.87305 36.0963 5.87305 36.0963 5.87305 36.0886L7.74498 35.0024H7.75268Z" fill="#F6F6F6"/><path opacity="0.64" d="M7.75268 34.8637L9.62461 35.9422C9.62461 35.9422 9.62461 35.9422 9.62461 35.9499C9.62461 35.9499 7.75268 37.0361 7.74498 37.0361L5.87305 35.9499C5.87305 35.9499 5.87305 35.9499 5.87305 35.9422L7.74498 34.856L7.75268 34.8637Z" fill="#F6F6F6"/><path opacity="0.63" d="M7.75268 34.7251L9.62461 35.8036C9.62461 35.8036 9.62461 35.8036 9.62461 35.8113C9.62461 35.8113 7.75268 36.8975 7.74498 36.8975L5.87305 35.819C5.87305 35.819 5.87305 35.819 5.87305 35.8113L7.74498 34.7251H7.75268Z" fill="#F6F6F6"/><path opacity="0.62" d="M7.75268 34.5864L9.62461 35.6649C9.62461 35.6649 9.62461 35.6649 9.62461 35.6726C9.62461 35.6726 7.75268 36.7588 7.74498 36.7588L5.87305 35.6803C5.87305 35.6803 5.87305 35.6803 5.87305 35.6726L7.74498 34.5864H7.75268Z" fill="#F6F6F6"/><path opacity="0.61" d="M7.75268 34.4478L9.62461 35.5262C9.62461 35.5262 9.62461 35.5262 9.62461 35.5339C9.62461 35.5339 7.75268 36.6124 7.74498 36.6124L5.87305 35.5339C5.87305 35.5339 5.87305 35.5339 5.87305 35.5262L7.74498 34.4478H7.75268Z" fill="#F6F6F6"/><path opacity="0.6" d="M7.75268 34.3091L9.62461 35.3876C9.62461 35.3876 9.62461 35.3876 9.62461 35.3953C9.62461 35.3953 7.75268 36.4738 7.74498 36.4738L5.87305 35.3953C5.87305 35.3953 5.87305 35.3953 5.87305 35.3876L7.74498 34.3091H7.75268Z" fill="#F6F6F6"/><path opacity="0.6" d="M7.75268 34.1704L9.62461 35.2489C9.62461 35.2489 9.62461 35.2489 9.62461 35.2566C9.62461 35.2566 7.75268 36.3351 7.74498 36.3351L5.87305 35.2566C5.87305 35.2566 5.87305 35.2566 5.87305 35.2489L7.74498 34.1704H7.75268Z" fill="#F6F6F6"/><path opacity="0.59" d="M7.75268 34.0317L9.62461 35.1102C9.62461 35.1102 9.62461 35.1102 9.62461 35.1179C9.62461 35.1179 7.75268 36.1964 7.74498 36.1964L5.87305 35.1179C5.87305 35.1179 5.87305 35.1179 5.87305 35.1102L7.74498 34.0317H7.75268Z" fill="#F6F6F6"/><path opacity="0.58" d="M7.75268 33.8931L9.62461 34.9716C9.62461 34.9716 9.62461 34.9716 9.62461 34.9793C9.62461 34.9793 7.75268 36.0578 7.74498 36.0578L5.87305 34.9793C5.87305 34.9793 5.87305 34.9793 5.87305 34.9716L7.74498 33.8931H7.75268Z" fill="#F6F6F6"/><path opacity="0.57" d="M7.75268 33.7545L9.62461 34.8329C9.62461 34.8329 9.62461 34.8329 9.62461 34.8406C9.62461 34.8406 7.75268 35.9191 7.74498 35.9191L5.87305 34.8406C5.87305 34.8406 5.87305 34.8406 5.87305 34.8329L7.74498 33.7545H7.75268Z" fill="#F6F6F6"/><path opacity="0.56" d="M7.75268 33.6158L9.62461 34.6943C9.62461 34.6943 9.62461 34.6943 9.62461 34.702C9.62461 34.702 7.75268 35.7804 7.74498 35.7804L5.87305 34.702C5.87305 34.702 5.87305 34.702 5.87305 34.6943L7.74498 33.6158H7.75268Z" fill="#F6F6F6"/><path opacity="0.55" d="M7.75268 33.4771L9.62461 34.5556C9.62461 34.5556 9.62461 34.5556 9.62461 34.5633C9.62461 34.5633 7.75268 35.6418 7.74498 35.6418L5.87305 34.5633V34.5556L7.74498 33.4771H7.75268Z" fill="#F6F6F6"/><path opacity="0.55" d="M7.75268 33.3385L9.62461 34.417V34.4247C9.62461 34.4247 7.75268 35.5032 7.74498 35.5032L5.87305 34.4247V34.417L7.74498 33.3385H7.75268Z" fill="#F6F6F6"/><path opacity="0.54" d="M7.75268 33.1998L9.62461 34.2783V34.286C9.62461 34.286 7.75268 35.3645 7.74498 35.3645L5.87305 34.286V34.2783L7.74498 33.1998H7.75268Z" fill="#F6F6F6"/><path opacity="0.53" d="M7.75268 33.0612L9.62461 34.1396V34.1473C9.62461 34.1473 7.75268 35.2258 7.74498 35.2258L5.87305 34.1473V34.1396L7.74498 33.0612H7.75268Z" fill="#F6F6F6"/><path opacity="0.52" d="M7.75268 32.9225L9.62461 34.001V34.0087C9.62461 34.0087 7.75268 35.0871 7.74498 35.0871L5.87305 34.0087V34.001L7.74498 32.9225H7.75268Z" fill="#F6F6F6"/><path opacity="0.51" d="M7.75268 32.7838L9.62461 33.8623V33.87C9.62461 33.87 7.75268 34.9485 7.74498 34.9485L5.87305 33.87V33.8623L7.74498 32.7838H7.75268Z" fill="#F6F6F6"/><path opacity="0.5" d="M7.75268 32.6451L9.62461 33.7236V33.7313C9.62461 33.7313 7.75268 34.8098 7.74498 34.8098L5.87305 33.7313V33.7236L7.74498 32.6451H7.75268Z" fill="#F6F6F6"/><path opacity="0.5" d="M7.75268 32.5065L9.62461 33.5849V33.5927C9.62461 33.5927 7.75268 34.6711 7.74498 34.6711L5.87305 33.5927V33.5849L7.74498 32.5065H7.75268Z" fill="#F6F6F6"/><path opacity="0.49" d="M7.75268 32.3679L9.62461 33.4463V33.454C9.62461 33.454 7.75268 34.5325 7.74498 34.5325L5.87305 33.454V33.4463L7.74498 32.3679H7.75268Z" fill="#F6F6F6"/><path opacity="0.48" d="M7.75268 32.2292L9.62461 33.3077V33.3154C9.62461 33.3154 7.75268 34.3938 7.74498 34.3938L5.87305 33.3154V33.3077L7.74498 32.2292H7.75268Z" fill="#F6F6F6"/><path opacity="0.47" d="M7.75268 32.0905L9.62461 33.169V33.1767C9.62461 33.1767 7.75268 34.2552 7.74498 34.2552L5.87305 33.1767V33.169L7.74498 32.0905H7.75268Z" fill="#F6F6F6"/><path opacity="0.46" d="M7.75268 31.9518L9.62461 33.0303C9.62461 33.0303 9.62461 33.038 9.62461 33.0457C9.62461 33.0457 7.75268 34.1242 7.74498 34.1242L5.87305 33.0457C5.87305 33.0457 5.87305 33.038 5.87305 33.0303L7.74498 31.9518H7.75268Z" fill="#F6F6F6"/><path opacity="0.45" d="M7.75268 31.8132L9.62461 32.8917C9.62461 32.8917 9.62461 32.8994 9.62461 32.9071C9.62461 32.9071 7.75268 33.9855 7.74498 33.9855L5.87305 32.9071C5.87305 32.9071 5.87305 32.8994 5.87305 32.8917L7.74498 31.8132H7.75268Z" fill="#F6F6F6"/><path opacity="0.45" d="M7.75268 31.6745L9.62461 32.753C9.62461 32.753 9.62461 32.7607 9.62461 32.7684C9.62461 32.7684 7.75268 33.8469 7.74498 33.8469L5.87305 32.7684C5.87305 32.7684 5.87305 32.7607 5.87305 32.753L7.74498 31.6745H7.75268Z" fill="#F6F6F6"/><path opacity="0.44" d="M7.75268 31.5359L9.62461 32.6144C9.62461 32.6144 9.62461 32.6221 9.62461 32.6298C9.62461 32.6298 7.75268 33.7083 7.74498 33.7083L5.87305 32.6298C5.87305 32.6298 5.87305 32.6221 5.87305 32.6144L7.74498 31.5359H7.75268Z" fill="#F6F6F6"/><path opacity="0.43" d="M7.75268 31.3972L9.62461 32.4757C9.62461 32.4757 9.62461 32.4834 9.62461 32.4911C9.62461 32.4911 7.75268 33.5696 7.74498 33.5696L5.87305 32.4911C5.87305 32.4911 5.87305 32.4834 5.87305 32.4757L7.74498 31.3972H7.75268Z" fill="#F6F6F6"/><path opacity="0.42" d="M7.75268 31.2585L9.62461 32.337C9.62461 32.337 9.62461 32.3447 9.62461 32.3524C9.62461 32.3524 7.75268 33.4309 7.74498 33.4309L5.87305 32.3524C5.87305 32.3524 5.87305 32.3447 5.87305 32.337L7.74498 31.2585H7.75268Z" fill="#F6F6F6"/><path opacity="0.41" d="M7.75268 31.1199L9.62461 32.1984C9.62461 32.1984 9.62461 32.2061 9.62461 32.2138C9.62461 32.2138 7.75268 33.2922 7.74498 33.2922L5.87305 32.2138C5.87305 32.2138 5.87305 32.2061 5.87305 32.1984L7.74498 31.1199H7.75268Z" fill="#F6F6F6"/><path opacity="0.4" d="M7.75268 30.9812L9.62461 32.0597C9.62461 32.0597 9.62461 32.0674 9.62461 32.0751C9.62461 32.0751 7.75268 33.1536 7.74498 33.1536L5.87305 32.0751C5.87305 32.0751 5.87305 32.0674 5.87305 32.0597L7.74498 30.9812H7.75268Z" fill="#F6F6F6"/><path opacity="0.4" d="M7.75268 30.8425L9.62461 31.921C9.62461 31.921 9.62461 31.9287 9.62461 31.9364C9.62461 31.9364 7.75268 33.0149 7.74498 33.0149L5.87305 31.9364C5.87305 31.9364 5.87305 31.9287 5.87305 31.921L7.74498 30.8425H7.75268Z" fill="#F6F6F6"/><path opacity="0.39" d="M7.75268 30.7039L9.62461 31.7823C9.62461 31.7823 9.62461 31.79 9.62461 31.7977C9.62461 31.7977 7.75268 32.8762 7.74498 32.8762L5.87305 31.7977C5.87305 31.7977 5.87305 31.79 5.87305 31.7823L7.74498 30.7039H7.75268Z" fill="#F6F6F6"/><path opacity="0.38" d="M7.75268 30.5652L9.62461 31.6437C9.62461 31.6437 9.62461 31.6514 9.62461 31.6591C9.62461 31.6591 7.75268 32.7375 7.74498 32.7375L5.87305 31.6591C5.87305 31.6591 5.87305 31.6514 5.87305 31.6437L7.74498 30.5652H7.75268Z" fill="#F6F6F6"/><path opacity="0.37" d="M7.75303 30.4265C7.75303 30.4265 7.75303 30.4265 7.76074 30.4265L9.63267 31.505C9.63267 31.505 9.63267 31.5127 9.63267 31.5204C9.63267 31.5204 7.76074 32.5989 7.75303 32.5989L5.8811 31.5204C5.8811 31.5204 5.8811 31.5127 5.8811 31.505L7.75303 30.4265Z" fill="#F6F6F6"/><path opacity="0.36" d="M7.75268 30.288C7.75268 30.288 7.75268 30.288 7.76038 30.288L9.62461 31.3664C9.62461 31.3664 9.62461 31.3741 9.62461 31.3818C9.62461 31.3818 7.75268 32.4603 7.74498 32.4603L5.87305 31.3818C5.87305 31.3818 5.87305 31.3741 5.87305 31.3664L7.74498 30.288H7.75268Z" fill="#F6F6F6"/><path opacity="0.36" d="M7.75303 30.1493C7.75303 30.1493 7.75303 30.1493 7.76074 30.1493L9.62497 31.2278C9.62497 31.2278 9.62497 31.2355 9.62497 31.2432C9.62497 31.2432 7.75303 32.3217 7.74533 32.3217L5.8811 31.2432C5.8811 31.2432 5.8811 31.2355 5.8811 31.2278L7.75303 30.1493Z" fill="#F6F6F6"/><path opacity="0.35" d="M7.75303 30.0106C7.75303 30.0106 7.75303 30.0106 7.76074 30.0106L9.62497 31.0891C9.62497 31.0891 9.62497 31.0968 9.62497 31.1045C9.62497 31.1045 7.76074 32.183 7.74533 32.183L5.8811 31.1045C5.8811 31.1045 5.8811 31.0968 5.8811 31.0891L7.74533 30.0106H7.75303Z" fill="#F6F6F6"/><path opacity="0.34" d="M7.75303 29.8719C7.75303 29.8719 7.75303 29.8719 7.76074 29.8719L9.62497 30.9504C9.62497 30.9504 9.62497 30.9581 9.62497 30.9658C9.62497 30.9658 7.76074 32.0443 7.74533 32.0443L5.8811 30.9658C5.8811 30.9658 5.8811 30.9581 5.8811 30.9504L7.74533 29.8719H7.75303Z" fill="#F6F6F6"/><path opacity="0.33" d="M7.75303 29.7333C7.75303 29.7333 7.75303 29.7333 7.76074 29.7333L9.62497 30.8118C9.62497 30.8118 9.62497 30.8195 9.62497 30.8272C9.62497 30.8272 7.76074 31.9056 7.74533 31.9056L5.8811 30.8272C5.8811 30.8272 5.8811 30.8195 5.8811 30.8118L7.74533 29.7333H7.75303Z" fill="#F6F6F6"/><path opacity="0.32" d="M7.75266 29.5946C7.75266 29.5946 7.75265 29.5946 7.76036 29.5946L9.62459 30.6731C9.62459 30.6731 9.62459 30.6808 9.62459 30.6885C9.62459 30.6885 7.76036 31.767 7.75266 31.767L5.88843 30.6885C5.88843 30.6885 5.88843 30.6808 5.88843 30.6731L7.75266 29.5946Z" fill="#F6F6F6"/><path opacity="0.31" d="M7.75266 29.4559C7.75266 29.4559 7.75265 29.4559 7.76036 29.4559L9.62459 30.5344C9.62459 30.5344 9.62459 30.5421 9.62459 30.5498C9.62459 30.5498 7.76036 31.6283 7.75266 31.6283L5.88843 30.5498V30.5344L7.75266 29.4559Z" fill="#F6F6F6"/><path opacity="0.31" d="M7.75266 29.3173C7.75266 29.3173 7.75265 29.3173 7.76036 29.3173L9.62459 30.3957V30.4111C9.62459 30.4111 7.76036 31.4896 7.75266 31.4896L5.88843 30.4111V30.3957L7.75266 29.3173Z" fill="#F6F6F6"/><path opacity="0.3" d="M7.75266 29.1786C7.75266 29.1786 7.75265 29.1786 7.76036 29.1786L9.62459 30.2571V30.2725C9.62459 30.2725 7.76036 31.351 7.75266 31.351L5.88843 30.2725V30.2571L7.75266 29.1786Z" fill="#F6F6F6"/><path opacity="0.29" d="M7.75266 29.0399C7.75266 29.0399 7.75265 29.0399 7.76036 29.0399L9.62459 30.1184V30.1338C9.62459 30.1338 7.76036 31.2123 7.75266 31.2123L5.88843 30.1338V30.1184L7.75266 29.0399Z" fill="#F6F6F6"/><path opacity="0.28" d="M7.75266 28.9012C7.75266 28.9012 7.75265 28.9012 7.76036 28.9012L9.62459 29.9797V29.9951C9.62459 29.9951 7.76036 31.0736 7.75266 31.0736L5.88843 29.9951V29.9797L7.75266 28.9012Z" fill="#F6F6F6"/><path opacity="0.27" d="M7.75266 28.7627C7.75266 28.7627 7.75265 28.7627 7.76036 28.7627L9.62459 29.8412V29.8566C9.62459 29.8566 7.76036 30.9351 7.75266 30.9351L5.88843 29.8566V29.8412L7.75266 28.7627Z" fill="#F6F6F6"/><path opacity="0.26" d="M7.75266 28.624C7.75266 28.624 7.75265 28.624 7.76036 28.624L9.62459 29.7025V29.7179C9.62459 29.7179 7.76036 30.7964 7.75266 30.7964L5.88843 29.7179V29.7025L7.75266 28.624Z" fill="#F6F6F6"/><path opacity="0.26" d="M7.75266 28.4854C7.75266 28.4854 7.75265 28.4854 7.76036 28.4854L9.62459 29.5638V29.5792C9.62459 29.5792 7.76036 30.6577 7.75266 30.6577L5.88843 29.5792V29.5638L7.75266 28.4854Z" fill="#F6F6F6"/><path opacity="0.25" d="M7.75266 28.3467C7.75266 28.3467 7.75265 28.3467 7.76036 28.3467L9.62459 29.4252V29.4406C9.62459 29.4406 7.76036 30.519 7.75266 30.519L5.88843 29.4406V29.4252L7.75266 28.3467Z" fill="#F6F6F6"/><path opacity="0.24" d="M7.75266 28.208C7.75266 28.208 7.75265 28.208 7.76036 28.208L9.62459 29.2865V29.3019C9.62459 29.3019 7.76036 30.3804 7.75266 30.3804L5.88843 29.3019V29.2865L7.75266 28.208Z" fill="#F6F6F6"/><path opacity="0.23" d="M7.75266 28.0693C7.75266 28.0693 7.75265 28.0693 7.76036 28.0693L9.62459 29.1478V29.1632C9.62459 29.1632 7.76036 30.2417 7.75266 30.2417L5.88843 29.1632V29.1478L7.75266 28.0693Z" fill="#F6F6F6"/><path opacity="0.22" d="M7.75266 27.9307C7.75266 27.9307 7.75265 27.9307 7.76036 27.9307L9.62459 29.0091V29.0245C9.62459 29.0245 7.76036 30.103 7.75266 30.103L5.88843 29.0245V29.0091L7.75266 27.9307Z" fill="#F6F6F6"/><path opacity="0.21" d="M7.75266 27.792C7.75266 27.792 7.75265 27.792 7.76036 27.792L9.62459 28.8705V28.8859C9.62459 28.8859 7.76036 29.9644 7.75266 29.9644L5.88843 28.8859V28.8705L7.75266 27.792Z" fill="#F6F6F6"/><path opacity="0.21" d="M7.75266 27.6533C7.75266 27.6533 7.75265 27.6533 7.76036 27.6533L9.62459 28.7318V28.7472C9.62459 28.7472 7.76036 29.8257 7.75266 29.8257L5.88843 28.7472V28.7318L7.75266 27.6533Z" fill="#F6F6F6"/><path opacity="0.2" d="M7.74533 27.5146C7.74533 27.5146 7.74533 27.5146 7.75303 27.5146L9.61726 28.5931V28.6085C9.61726 28.6085 7.75303 29.687 7.74533 29.687L5.8811 28.6085V28.5931L7.74533 27.5146Z" fill="#F6F6F6"/><path opacity="0.19" d="M7.74533 27.3761C7.74533 27.3761 7.74533 27.3761 7.75303 27.3761L9.61726 28.4546V28.47C9.61726 28.47 7.75303 29.5485 7.74533 29.5485L5.8811 28.47V28.4546L7.74533 27.3761Z" fill="#F6F6F6"/><path opacity="0.18" d="M7.74533 27.2373C7.74533 27.2373 7.74533 27.2373 7.75303 27.2373L9.61726 28.3158V28.3312C9.61726 28.3312 7.75303 29.4097 7.74533 29.4097L5.8811 28.3312V28.3158L7.74533 27.2373Z" fill="#F6F6F6"/><path opacity="0.17" d="M7.74533 27.0986C7.74533 27.0986 7.74533 27.0986 7.75303 27.0986L9.61726 28.1771V28.1925C9.61726 28.1925 7.75303 29.271 7.74533 29.271L5.8811 28.1925V28.1771L7.74533 27.0986Z" fill="#F6F6F6"/><path opacity="0.17" d="M7.74533 26.9523C7.74533 26.9523 7.74533 26.9523 7.75303 26.9523L9.61726 28.0307V28.0462C9.61726 28.0462 7.75303 29.1246 7.74533 29.1246L5.8811 28.0462V28.0307L7.74533 26.9523Z" fill="#F6F6F6"/><path opacity="0.16" d="M7.74533 26.8136C7.74533 26.8136 7.74533 26.8136 7.75303 26.8136L9.61726 27.8921V27.9075C9.61726 27.9075 7.75303 28.986 7.74533 28.986L5.8811 27.9075V27.8921L7.74533 26.8136Z" fill="#F6F6F6"/><path opacity="0.15" d="M7.74533 26.675C7.74533 26.675 7.74533 26.675 7.75303 26.675L9.61726 27.7535V27.7689C9.61726 27.7689 7.75303 28.8474 7.74533 28.8474L5.8811 27.7689V27.7535L7.74533 26.675Z" fill="#F6F6F6"/><path opacity="0.14" d="M7.74533 26.5364C7.74533 26.5364 7.74533 26.5364 7.75303 26.5364L9.61726 27.6149V27.6303C9.61726 27.6303 7.75303 28.7087 7.74533 28.7087L5.8811 27.6303V27.6149L7.74533 26.5364Z" fill="#F6F6F6"/><path opacity="0.13" d="M7.74533 26.3977C7.74533 26.3977 7.74533 26.3977 7.75303 26.3977L9.61726 27.4762V27.4916C9.61726 27.4916 7.75303 28.5701 7.74533 28.5701L5.8811 27.4916V27.4762L7.74533 26.3977Z" fill="#F6F6F6"/><path opacity="0.12" d="M7.74533 26.259C7.74533 26.259 7.74533 26.259 7.75303 26.259L9.61726 27.3375V27.3529C9.61726 27.3529 7.75303 28.4314 7.74533 28.4314L5.8811 27.3529V27.3375L7.74533 26.259Z" fill="#F6F6F6"/><path opacity="0.12" d="M7.74533 26.1204C7.74533 26.1204 7.74533 26.1204 7.75303 26.1204L9.61726 27.1988V27.2142C9.61726 27.2142 7.75303 28.2927 7.74533 28.2927L5.8811 27.2142V27.1988L7.74533 26.1204Z" fill="#F6F6F6"/><path opacity="0.11" d="M7.74533 25.9817C7.74533 25.9817 7.74533 25.9817 7.75303 25.9817L9.61726 27.0602V27.0756C9.61726 27.0756 7.75303 28.1541 7.74533 28.1541L5.8811 27.0756V27.0602L7.74533 25.9817Z" fill="#F6F6F6"/><path opacity="0.1" d="M7.74533 25.843C7.74533 25.843 7.74533 25.843 7.75303 25.843L9.61726 26.9215V26.9369C9.61726 26.9369 7.75303 28.0154 7.74533 28.0154L5.8811 26.9369V26.9215L7.74533 25.843Z" fill="#F6F6F6"/><path opacity="0.09" d="M7.74533 25.7043H7.75303L9.61726 26.7828C9.61726 26.7828 9.61726 26.7982 9.61726 26.8059C9.61726 26.8059 7.75303 27.8844 7.74533 27.8844L5.8811 26.8059C5.8811 26.8059 5.8811 26.7905 5.8811 26.7828L7.74533 25.7043Z" fill="#F6F6F6"/><path opacity="0.08" d="M7.74533 25.5657H7.75303L9.61726 26.6442C9.61726 26.6442 9.61726 26.6596 9.61726 26.6673C9.61726 26.6673 7.75303 27.7457 7.74533 27.7457L5.8811 26.6673C5.8811 26.6673 5.8811 26.6519 5.8811 26.6442L7.74533 25.5657Z" fill="#F6F6F6"/><path opacity="0.07" d="M7.74533 25.427H7.75303L9.61726 26.4978C9.61726 26.4978 9.61726 26.5132 9.61726 26.5209C9.61726 26.5209 7.75303 27.5994 7.74533 27.5994L5.8811 26.5209C5.8811 26.5209 5.8811 26.5055 5.8811 26.4978L7.74533 25.427Z" fill="#F6F6F6"/><path opacity="0.07" d="M7.74533 25.2885H7.75303L9.61726 26.3592C9.61726 26.3592 9.61726 26.3746 9.61726 26.3823C9.61726 26.3823 7.75303 27.4531 7.74533 27.4531L5.8811 26.3823C5.8811 26.3823 5.8811 26.3669 5.8811 26.3592L7.74533 25.2885Z" fill="#F6F6F6"/><path opacity="0.06" d="M7.74534 25.1498H7.75304L9.61727 26.2206C9.61727 26.2206 9.62497 26.236 9.61727 26.2437C9.61727 26.2437 7.75304 27.3144 7.74534 27.3144L5.88111 26.2437C5.88111 26.2437 5.87341 26.2283 5.88111 26.2206L7.74534 25.1498Z" fill="#F6F6F6"/><path opacity="0.05" d="M7.7452 25.0111C7.7452 25.0111 7.7529 25.0111 7.76061 25.0111L9.62484 26.0819C9.62484 26.0819 9.63254 26.0973 9.62484 26.105C9.62484 26.105 7.76061 27.1758 7.7529 27.1758L5.88868 26.105C5.88868 26.105 5.88097 26.0896 5.88868 26.0819L7.7529 25.0111H7.7452Z" fill="#F6F6F6"/><path opacity="0.04" d="M7.7452 24.8724C7.7452 24.8724 7.7529 24.8724 7.76061 24.8724L9.62484 25.9432C9.62484 25.9432 9.63254 25.9586 9.62484 25.9663C9.62484 25.9663 7.76061 27.0371 7.7529 27.0371L5.88868 25.9663C5.88868 25.9663 5.88097 25.9509 5.88868 25.9432L7.7529 24.8724H7.7452Z" fill="#F6F6F6"/><path opacity="0.03" d="M7.7452 24.7338C7.7452 24.7338 7.7529 24.7338 7.76061 24.7338L9.61713 25.8045C9.61713 25.8045 9.62484 25.8199 9.61713 25.8277C9.61713 25.8277 7.76061 26.8984 7.7452 26.8984L5.88868 25.8277C5.88868 25.8277 5.88097 25.8122 5.88868 25.8045L7.7529 24.7338H7.7452Z" fill="#F6F6F6"/><path opacity="0.02" d="M7.7452 24.5951C7.7452 24.5951 7.7529 24.5951 7.76061 24.5951L9.61713 25.6659C9.61713 25.6659 9.62484 25.6813 9.61713 25.689C9.61713 25.689 7.76061 26.7598 7.7452 26.7598L5.88868 25.689C5.88868 25.689 5.88097 25.6736 5.88868 25.6659L7.7452 24.5951Z" fill="#F6F6F6"/><path opacity="0.02" d="M7.7452 24.4564C7.7452 24.4564 7.7529 24.4564 7.76061 24.4564L9.61713 25.5272C9.61713 25.5272 9.62484 25.5426 9.61713 25.5503C9.61713 25.5503 7.76061 26.6211 7.7452 26.6211L5.88868 25.5503C5.88868 25.5503 5.88097 25.5349 5.88868 25.5272L7.7452 24.4564Z" fill="#F6F6F6"/></g><path d="M7.75284 45.4174C7.75284 45.4174 7.72203 45.4174 7.70662 45.402C7.67581 45.3866 7.6604 45.3558 7.6604 45.3173V43.1526C7.6604 43.1526 7.67581 43.0833 7.70662 43.0679L9.59396 41.9817C9.59396 41.9817 9.66329 41.9663 9.6864 41.9817C9.71721 41.9971 9.73262 42.0279 9.73262 42.0664V44.2311C9.73262 44.2311 9.71721 44.3004 9.6864 44.3158L7.79906 45.402C7.79906 45.402 7.76825 45.4174 7.75284 45.4174ZM7.84528 43.2142V45.1555L9.54003 44.1772V42.2359L7.84528 43.2142Z" fill="#F6F6F6"/><path d="M7.75248 45.4174C7.75248 45.4174 7.72167 45.4174 7.70626 45.402L5.81893 44.3158C5.81893 44.3158 5.77271 44.2696 5.77271 44.2311V42.0664C5.77271 42.0664 5.78811 41.9971 5.81893 41.9817C5.84974 41.9663 5.88826 41.9663 5.91137 41.9817L7.7987 43.0679C7.7987 43.0679 7.84492 43.1141 7.84492 43.1526V45.3173C7.84492 45.3173 7.82952 45.3866 7.7987 45.402C7.7833 45.4097 7.76789 45.4174 7.75248 45.4174ZM5.96529 44.1772L7.66004 45.1555V43.2143L5.96529 42.2359V44.1772Z" fill="#F6F6F6"/><path d="M7.75273 43.2528C7.75273 43.2528 7.72191 43.2528 7.70651 43.2374L5.81917 42.1512C5.81917 42.1512 5.77295 42.105 5.77295 42.0664C5.77295 42.0279 5.78836 41.9971 5.81917 41.9817L7.70651 40.8955C7.70651 40.8955 7.77584 40.8801 7.79895 40.8955L9.68629 41.9817C9.68629 41.9817 9.73251 42.0279 9.73251 42.0664C9.73251 42.105 9.7171 42.1358 9.68629 42.1512L7.79895 43.2374C7.79895 43.2374 7.76813 43.2528 7.75273 43.2528ZM6.05798 42.0664L7.75273 43.0448L9.44748 42.0664L7.75273 41.0881L6.05798 42.0664Z" fill="#F6F6F6"/><g opacity="0.5"><path d="M9.57829 44.3466C9.57829 44.3466 9.51666 44.3312 9.49355 44.3004C9.48585 44.285 9.47814 44.2619 9.47814 44.2388L7.75258 43.2373L5.91916 44.3004C5.87294 44.3235 5.81132 44.3081 5.78821 44.2619C5.7651 44.2157 5.7805 44.154 5.82672 44.1309L7.71406 43.0448C7.71406 43.0448 7.78339 43.0293 7.8065 43.0448L9.69384 44.1309C9.69384 44.1309 9.74006 44.1772 9.74006 44.2157C9.74006 44.2542 9.72465 44.285 9.69384 44.3004L9.63221 44.3312C9.63221 44.3312 9.6014 44.3466 9.58599 44.3466H9.57829Z" fill="#F6F6F6"/></g><g opacity="0.5"><path d="M7.75284 43.2219C7.69892 43.2219 7.6604 43.1757 7.6604 43.1295V40.988C7.6604 40.934 7.70662 40.8955 7.75284 40.8955C7.79906 40.8955 7.84528 40.9417 7.84528 40.988V43.1295C7.84528 43.1834 7.79906 43.2219 7.75284 43.2219Z" fill="#F6F6F6"/></g></svg>