<svg width="72" height="72" viewBox="0 0 72 72" fill="none" xmlns="http://www.w3.org/2000/svg">
<g opacity="0.7">
<circle cx="1" cy="1" r="1" fill="#84D5BD"/>
<circle cx="11" cy="1" r="1" fill="#84D5BD"/>
<circle cx="21" cy="1" r="1" fill="#84D5BD"/>
<circle cx="31" cy="1" r="1" fill="#84D5BD"/>
<circle cx="41" cy="1" r="1" fill="#84D5BD"/>
<circle cx="51" cy="1" r="1" fill="#84D5BD"/>
<circle cx="61" cy="1" r="1" fill="#84D5BD"/>
<circle cx="71" cy="1" r="1" fill="#84D5BD"/>
<circle cx="1" cy="11.0001" r="1" fill="#84D5BD"/>
<circle cx="1" cy="21.0001" r="1" fill="#84D5BD"/>
<circle cx="1" cy="31" r="1" fill="#84D5BD"/>
<circle cx="1" cy="41.0001" r="1" fill="#84D5BD"/>
<circle cx="1" cy="50.9999" r="1" fill="#84D5BD"/>
<circle cx="1" cy="61" r="1" fill="#84D5BD"/>
<circle cx="1" cy="70.9999" r="1" fill="#84D5BD"/>
<circle cx="11" cy="11.0001" r="1" fill="#84D5BD"/>
<circle cx="11" cy="21.0001" r="1" fill="#84D5BD"/>
<circle cx="11" cy="31" r="1" fill="#84D5BD"/>
<circle cx="11" cy="41.0001" r="1" fill="#84D5BD"/>
<circle cx="11" cy="50.9999" r="1" fill="#84D5BD"/>
<circle cx="11" cy="61" r="1" fill="#84D5BD"/>
<circle cx="11" cy="70.9999" r="1" fill="#84D5BD"/>
<circle cx="21" cy="11.0001" r="1" fill="#84D5BD"/>
<circle cx="21" cy="21.0001" r="1" fill="#84D5BD"/>
<circle cx="21" cy="31" r="1" fill="#84D5BD"/>
<circle cx="21" cy="41.0001" r="1" fill="#84D5BD"/>
<circle cx="21" cy="50.9999" r="1" fill="#84D5BD"/>
<circle cx="21" cy="61" r="1" fill="#84D5BD"/>
<circle cx="21" cy="70.9999" r="1" fill="#84D5BD"/>
<circle cx="31" cy="11.0001" r="1" fill="#84D5BD"/>
<circle cx="31" cy="21.0001" r="1" fill="#84D5BD"/>
<circle cx="31" cy="31" r="1" fill="#84D5BD"/>
<circle cx="31" cy="41.0001" r="1" fill="#84D5BD"/>
<circle cx="31" cy="50.9999" r="1" fill="#84D5BD"/>
<circle cx="31" cy="61" r="1" fill="#84D5BD"/>
<circle cx="31" cy="70.9999" r="1" fill="#84D5BD"/>
<circle cx="41" cy="11.0001" r="1" fill="#84D5BD"/>
<circle cx="41" cy="21.0001" r="1" fill="#84D5BD"/>
<circle cx="41" cy="31" r="1" fill="#84D5BD"/>
<circle cx="41" cy="41.0001" r="1" fill="#84D5BD"/>
<circle cx="41" cy="50.9999" r="1" fill="#84D5BD"/>
<circle cx="41" cy="61" r="1" fill="#84D5BD"/>
<circle cx="41" cy="70.9999" r="1" fill="#84D5BD"/>
<circle cx="51" cy="11.0001" r="1" fill="#84D5BD"/>
<circle cx="51" cy="21.0001" r="1" fill="#84D5BD"/>
<circle cx="51" cy="31" r="1" fill="#84D5BD"/>
<circle cx="51" cy="41.0001" r="1" fill="#84D5BD"/>
<circle cx="51" cy="50.9999" r="1" fill="#84D5BD"/>
<circle cx="51" cy="61" r="1" fill="#84D5BD"/>
<circle cx="51" cy="70.9999" r="1" fill="#84D5BD"/>
<circle cx="61" cy="11.0001" r="1" fill="#84D5BD"/>
<circle cx="61" cy="21.0001" r="1" fill="#84D5BD"/>
<circle cx="61" cy="31" r="1" fill="#84D5BD"/>
<circle cx="61" cy="41.0001" r="1" fill="#84D5BD"/>
<circle cx="61" cy="50.9999" r="1" fill="#84D5BD"/>
<circle cx="61" cy="61" r="1" fill="#84D5BD"/>
<circle cx="61" cy="70.9999" r="1" fill="#84D5BD"/>
<circle cx="71" cy="11.0001" r="1" fill="#84D5BD"/>
<circle cx="71" cy="21.0001" r="1" fill="#84D5BD"/>
<circle cx="71" cy="31" r="1" fill="#84D5BD"/>
<circle cx="71" cy="41.0001" r="1" fill="#84D5BD"/>
<circle cx="71" cy="50.9999" r="1" fill="#84D5BD"/>
<circle cx="71" cy="61" r="1" fill="#84D5BD"/>
<circle cx="71" cy="71" r="1" fill="#84D5BD"/>
</g>
</svg>
