<svg width="700" height="607" viewBox="0 0 700 607" fill="none" xmlns="http://www.w3.org/2000/svg">
<g clip-path="url(#clip0_363_25636)">
<path d="M274.292 434.623L198.664 303.413L104.492 249.993L0 303.413L174.96 606.826L181.087 489.495L274.292 434.623Z" fill="#C184D5"/>
<path d="M150.74 366.497C156.173 362.988 159.679 356.848 159.679 349.831C159.679 338.779 150.74 329.832 139.697 329.832C128.654 329.832 119.715 338.779 119.715 349.831C119.715 356.848 123.221 362.988 128.654 366.497C116.385 371.058 107.621 382.812 107.621 396.495H112.879C112.879 381.759 124.798 369.83 139.522 369.83C154.245 369.83 166.164 381.759 166.164 396.495H171.423C171.598 382.636 162.834 370.882 150.74 366.497ZM139.697 364.392C131.634 364.392 124.973 357.725 124.973 349.656C124.973 341.586 131.634 334.919 139.697 334.919C147.76 334.919 154.421 341.586 154.421 349.656C154.245 357.901 147.76 364.392 139.697 364.392Z" fill="#F8F8F8"/>
<path d="M177.381 352.989C182.815 349.48 186.321 343.34 186.321 336.323C186.321 325.271 177.381 316.324 166.339 316.324C161.08 316.324 156.172 318.429 152.491 321.938C151.089 323.166 150.038 324.745 148.986 326.324C150.563 327.025 152.316 327.903 153.718 328.78C154.595 327.201 155.822 325.973 157.224 324.745C159.678 322.815 162.833 321.763 166.163 321.763C174.226 321.763 180.887 328.429 180.887 336.499C180.887 343.165 176.33 348.954 170.195 350.533C168.968 350.884 167.566 351.059 166.163 351.059C165.638 351.059 165.287 351.059 164.761 351.059C164.586 352.989 164.411 354.919 163.885 356.673C164.586 356.673 165.462 356.498 166.163 356.498C167.215 356.498 168.267 356.498 169.318 356.673C182.464 358.252 192.806 369.479 192.806 383.163H198.064C198.24 369.304 189.476 357.55 177.381 352.989Z" fill="#F8F8F8"/>
<path d="M112.878 356.498C113.579 356.498 114.456 356.673 115.157 356.673C114.631 354.919 114.28 352.989 114.28 351.059C113.755 351.059 113.404 351.059 112.878 351.059C111.476 351.059 110.249 350.884 108.847 350.533C102.712 348.779 98.1545 343.165 98.1545 336.499C98.1545 328.429 104.815 321.763 112.878 321.763C116.208 321.763 119.364 322.991 121.817 324.745C123.22 325.797 124.447 327.201 125.323 328.78C126.725 327.727 128.303 327.025 130.056 326.324C129.179 324.745 127.952 323.341 126.55 321.938C123.044 318.429 118.137 316.324 112.703 316.324C101.66 316.324 92.7208 325.271 92.7208 336.323C92.7208 343.34 96.2264 349.48 101.66 352.989C89.3905 357.55 80.6265 369.304 80.6265 382.987H85.8849C85.8849 369.304 96.2265 358.076 109.373 356.498C110.775 356.498 111.826 356.498 112.878 356.498Z" fill="#F8F8F8"/>
<path d="M425.708 434.623H274.291L181.087 489.496L174.959 606.826H525.04L426.514 542.916L425.708 434.623Z" fill="#8584D5"/>
<path d="M595.508 356.833L501.497 303.413L425.708 434.623L426.515 542.916L525.04 606.826L700 303.413L595.508 356.833Z" fill="#84A3D5"/>
<path d="M574.573 398.203C570.715 393.66 563.68 392.751 558.687 392.751C558.233 392.751 557.779 392.751 557.325 392.751C557.325 391.389 556.871 390.253 556.417 388.436C556.417 387.981 555.963 387.073 555.963 386.391C553.921 378.442 543.935 369.583 531.226 369.583C518.29 369.583 511.254 376.624 508.304 380.94C506.715 380.032 504.446 379.577 501.722 379.577C499.226 379.577 496.73 380.032 494.687 380.94C487.198 383.893 484.247 390.707 483.34 394.796C481.978 394.341 480.843 394.341 479.481 394.341C475.396 394.341 471.538 395.931 468.588 398.657C461.553 405.017 462.006 412.967 462.006 414.557C462.006 426.823 469.95 430.911 476.985 430.911C477.439 430.911 477.893 430.911 477.893 430.911H566.176C572.077 430.911 577.069 424.551 578.658 416.147C579.566 413.421 580.928 405.471 574.573 398.203ZM572.984 415.92C571.623 421.825 568.445 425.233 566.63 425.233H478.12C477.666 425.233 477.666 425.233 477.666 425.233H477.212C473.808 425.233 468.361 423.643 468.361 414.784V414.33C468.361 413.876 467.907 408.424 472.9 403.881C474.489 402.291 476.758 401.383 479.255 401.383C482.205 401.383 484.247 402.291 484.247 402.291C485.609 402.746 486.29 402.746 487.198 401.837C488.559 401.383 488.786 400.474 488.786 399.339C488.786 399.339 489.24 390.48 496.73 387.073C498.318 386.619 500.134 386.164 501.722 386.164C505.127 386.164 507.169 387.754 507.169 387.754C508.077 388.663 509.212 388.663 510.12 388.663C511.027 388.663 511.708 387.754 512.616 387.3C512.616 387.3 517.609 376.852 531.453 376.852C541.439 376.852 548.928 383.893 550.29 389.117C550.29 390.026 550.743 390.48 550.743 391.161C551.651 393.66 551.651 395.023 551.651 396.613C551.197 397.521 551.651 398.203 552.559 399.111C553.013 400.02 554.148 400.02 555.055 400.02C555.055 399.566 556.644 399.566 558.914 399.566C561.864 399.566 567.765 400.02 570.261 402.973C574.346 407.516 573.892 412.058 572.984 415.92Z" fill="#F8F8F8"/>
<path d="M559.14 409.56C556.644 406.607 550.743 407.515 550.743 407.515C550.743 406.153 550.289 405.471 549.835 403.2C548.928 400.701 544.843 396.84 539.85 396.84C532.36 396.84 529.864 402.746 529.864 402.746C529.864 402.746 527.367 400.701 523.509 402.291C518.97 403.654 518.516 409.105 518.516 409.105C518.516 409.105 514.431 407.515 511.481 410.014C508.531 412.513 508.985 416.374 508.985 416.374C508.985 423.188 514.885 422.734 514.885 422.734H556.19C557.779 422.734 560.048 420.69 560.275 417.283C560.956 415.011 561.183 412.058 559.14 409.56ZM525.325 408.878C523.736 409.787 521.467 408.878 521.24 407.515C520.786 406.153 522.148 404.563 523.736 403.654C525.325 402.746 527.594 403.654 527.821 405.017C528.275 406.153 527.367 407.97 525.325 408.878ZM539.85 398.657C542.8 398.657 545.296 400.02 545.296 401.61C545.296 401.837 545.296 402.064 545.069 402.291C543.254 401.156 541.211 400.474 539.396 400.474C537.353 400.474 535.538 400.928 534.403 402.064C534.403 402.064 534.403 402.064 534.403 402.291C534.176 402.064 534.176 401.61 534.176 401.383C534.176 399.566 536.672 398.657 539.85 398.657Z" fill="#F8F8F8"/>
<path d="M482.403 443.722C480.398 445.35 477.585 446.652 473.965 447.628L472.94 446.105C476.156 445.415 478.809 444.302 480.899 442.765L482.403 443.722ZM488.536 454.425L487.042 455.49C486.579 454.832 486.211 454.344 485.938 454.025C484.063 454.259 482.422 454.425 481.016 454.523V458.605C481.042 459.145 480.879 459.572 480.528 459.884C480.183 460.203 479.128 460.363 477.364 460.363L476.661 458.585C477.383 458.638 478.064 458.664 478.702 458.664C479.06 458.664 479.239 458.491 479.239 458.146V454.689C476.504 454.826 474.473 454.904 473.145 454.923L472.725 453.39C474.411 452.921 476.377 452.095 478.624 450.91C476.286 451.027 474.626 451.085 473.643 451.085L473.36 449.787C476.107 448.927 478.555 447.541 480.704 445.626L482.344 446.564C481.029 447.736 479.408 448.729 477.481 449.542L479.063 449.464L481.475 449.279C481.586 449.266 482.032 448.983 482.813 448.429L484.2 447.404L485.762 448.488C482.631 450.714 479.685 452.306 476.924 453.263C479.255 453.166 481.833 452.941 484.659 452.589C484.32 452.231 483.926 451.85 483.477 451.447L485.059 450.548C486.543 451.935 487.702 453.227 488.536 454.425ZM488.965 458.263L487.764 459.611C486.417 458.472 484.662 457.371 482.5 456.31L483.741 455.07C485.876 456.131 487.618 457.195 488.965 458.263ZM477.862 456.369C476.189 457.684 474.356 458.722 472.364 459.484L471.299 458.048C473.233 457.345 474.974 456.404 476.524 455.226L477.862 456.369ZM498.682 454.386L497.12 454.923C497.12 454.845 497.048 454.5 496.905 453.888C495.153 454.409 493.392 454.803 491.622 455.07L491.319 453.703C492.471 452.772 493.672 451.408 494.922 449.611C493.861 449.774 492.833 449.891 491.836 449.962L491.622 448.791C493.106 447.137 494.297 445.135 495.196 442.785L496.856 443.371C496.01 445.317 495.046 446.961 493.965 448.302C494.649 448.244 495.287 448.166 495.879 448.068C496.277 447.462 496.596 446.876 496.836 446.31L498.379 447.111C496.993 449.611 495.586 451.603 494.161 453.087C495 452.918 495.769 452.71 496.465 452.462C496.329 452.078 496.221 451.792 496.143 451.603L497.52 451.007C498.067 452.14 498.454 453.266 498.682 454.386ZM508.965 455.666C508.842 457.762 508.721 458.914 508.604 459.123C508.487 459.324 508.285 459.562 507.999 459.835C507.719 460.109 507.035 460.246 505.948 460.246C505.036 460.246 504.437 460.109 504.151 459.835C503.864 459.562 503.721 459.012 503.721 458.185V451.447C503.064 451.551 502.556 451.626 502.198 451.671C502.198 453.117 502.129 454.331 501.993 455.314C501.856 456.297 501.524 457.251 500.997 458.175C500.476 459.093 499.776 459.904 498.897 460.607L497.618 459.386C498.197 458.983 498.731 458.436 499.219 457.746C499.714 457.056 500.062 456.297 500.264 455.47C500.466 454.643 500.551 453.442 500.518 451.867L498.76 452.062L498.438 450.744C499.571 449.357 500.499 447.899 501.221 446.369H498.262V444.728H501.905C502.068 444.35 502.286 443.735 502.559 442.882L504.385 443.166C504.157 443.81 503.962 444.331 503.799 444.728H508.76V446.369H503.077C502.497 447.632 501.732 448.931 500.782 450.265C502.481 450.161 504.047 449.969 505.479 449.689C505.238 449.305 504.893 448.865 504.444 448.371L505.86 447.443C507.24 449.09 508.22 450.477 508.799 451.603L507.325 452.589C506.973 451.938 506.664 451.411 506.397 451.007L505.381 451.183V458.205C505.381 458.53 505.678 458.693 506.27 458.693C506.745 458.693 507.035 458.517 507.139 458.166C507.243 457.814 507.325 456.795 507.383 455.109L508.965 455.666ZM498.76 457.99L497.422 458.527C497.214 457.381 496.954 456.44 496.641 455.705L497.959 455.207C498.311 455.929 498.578 456.857 498.76 457.99ZM496.436 459.689L494.922 460.031C494.955 458.735 494.789 457.3 494.424 455.724L495.801 455.363C496.172 456.951 496.384 458.393 496.436 459.689ZM493.819 455.705C493.565 457.69 493.139 459.292 492.54 460.509L491.036 459.826C491.628 458.686 492.064 457.222 492.344 455.431L493.819 455.705ZM527.159 460.363H525.323V459.347H514.825V460.363H512.999V445.07H517.823C518.2 444.471 518.532 443.716 518.819 442.804L520.762 443.126C520.554 443.849 520.261 444.497 519.883 445.07H527.159V460.363ZM525.323 449.142V446.808H514.825V449.142H525.323ZM525.323 453.283V450.832H514.825V453.283H525.323ZM525.323 457.628V454.962H514.825V457.628H525.323ZM541.065 447.531H537.198V448.664H540.645V454.542H537.198V455.666H540.645V457.062H537.198V458.332C538.467 458.214 539.649 458.045 540.743 457.824L540.821 459.25C537.937 459.731 534.883 460.132 531.661 460.451L531.299 459.005L535.596 458.566V457.062H532.1V455.666H535.596V454.542H532.1V448.664H535.596V447.531H531.583V446.066H535.596V444.923C534.73 445.034 533.685 445.122 532.461 445.187L532.022 443.791C535.062 443.66 537.774 443.345 540.157 442.843L540.84 444.123C539.89 444.344 538.676 444.552 537.198 444.748V446.066H541.065V447.531ZM539.024 450.988V449.943H537.198V450.988H539.024ZM535.596 450.968V449.943H533.721V450.968H535.596ZM539.024 453.224V452.208H537.198V453.224H539.024ZM535.596 453.224V452.208H533.721V453.224H535.596ZM548.458 446.642C548.444 449.429 548.383 452.114 548.272 454.699C548.161 457.277 548.047 458.768 547.93 459.171C547.813 459.575 547.588 459.884 547.256 460.099C546.924 460.32 546.387 460.431 545.645 460.431C545.3 460.431 544.945 460.415 544.581 460.382L544.083 458.683C544.59 458.722 544.994 458.742 545.293 458.742C545.873 458.742 546.211 458.67 546.309 458.527C546.407 458.377 546.524 457.186 546.661 454.953C546.797 452.713 546.843 450.496 546.797 448.302H545.079C545.046 453.166 544.157 457.222 542.413 460.47L540.87 459.708C542.647 456.505 543.471 452.703 543.34 448.302H541.602V446.642H543.379C543.412 445.001 543.418 443.784 543.399 442.99H545.137C545.137 444.246 545.118 445.464 545.079 446.642H548.458Z" fill="#F8F8F8"/>
<path d="M488.682 482.494H483.282V484.096H481.583V482.494H476.836V481.01H481.583V479.75H477.559V478.334H481.583V477.152H477.979V475.775H481.583V474.408H476.836V473.012H481.583V471.732H477.979V470.336H481.583V469.096H483.282V470.336H487.5V473.012H488.643V474.408H487.5V477.152H483.282V478.334H487.881V479.75H483.282V481.01H488.682V482.494ZM485.743 473.012V471.732H483.282V473.012H485.743ZM485.743 475.775V474.408H483.282V475.775H485.743ZM488.965 484.594L488.458 486.273C487.839 486.312 487.055 486.332 486.104 486.332C481.95 486.332 479.281 486.179 478.096 485.873C476.911 485.574 475.827 484.975 474.844 484.076C473.991 485.189 473.223 486.023 472.54 486.576L471.163 485.287C472.204 484.512 473.025 483.666 473.624 482.748C472.855 481.667 472.24 480.355 471.778 478.812L473.399 478.275C473.679 479.258 474.034 480.15 474.463 480.951C474.847 479.773 475.04 478.533 475.04 477.23H471.739V475.551C473.047 474.021 474.027 472.582 474.678 471.234H471.436V469.535H476.641V471.234C476.081 472.484 475.202 473.917 474.004 475.531H476.856C476.856 478.552 476.43 480.932 475.577 482.67C476.788 483.783 478.262 484.392 480 484.496C481.745 484.594 483.685 484.643 485.821 484.643C486.908 484.643 487.956 484.626 488.965 484.594ZM508.721 485.99H491.338V484.213H496.417C495.792 480.645 494.958 477.572 493.917 474.994L495.303 474.027H492.042V472.23H499.297C498.965 471.293 498.526 470.365 497.979 469.447L499.903 468.793C500.489 469.887 500.993 471.033 501.417 472.23H508.204V474.027H504.639L506.104 474.975C505.72 477.67 504.926 480.749 503.721 484.213H508.721V485.99ZM504.405 474.027H495.596C496.736 477.055 497.624 480.45 498.262 484.213H501.797C503.112 480.456 503.982 477.061 504.405 474.027ZM528.702 472.367C528.454 473.702 528.034 474.965 527.442 476.156L525.782 475.57C526.107 474.887 526.335 474.327 526.465 473.891H519.942V474.936L525.176 474.73L525.264 476.107L519.942 476.332V476.791C519.942 477.084 520.095 477.23 520.401 477.23H526.778V478.656H520.137C518.848 478.656 518.204 478.061 518.204 476.869V476.371L515.303 476.488L515.264 475.092L518.204 474.994V473.891H514.502V479.369C514.502 482.26 513.9 484.701 512.696 486.693L511.299 485.492C512.263 483.78 512.745 481.801 512.745 479.555V472.367H518.663V469.096H520.42V469.955H527.461V471.449H520.42V472.367H528.702ZM528.799 486.195H514.356V484.672H519.258V483.51H515.958V479.828H517.618V482.133H519.258V479.35H520.899V484.672H522.276V479.35H523.985V482.133H525.557V479.828H527.178V483.51H523.985V484.672H528.799V486.195ZM541.856 474.809H538.145C537.728 474.809 537.383 474.659 537.11 474.359C536.836 474.053 536.7 473.663 536.7 473.188V469.115H538.321V470.248H541.719V471.83H538.321V472.689C538.321 472.826 538.37 472.947 538.467 473.051C538.565 473.155 538.669 473.207 538.78 473.207H541.856V474.809ZM536.124 473.988H534.737V476.273C535.167 475.974 535.547 475.668 535.879 475.355L535.997 477.396C535.704 477.644 535.284 477.95 534.737 478.314V485.15C534.737 485.508 534.581 485.847 534.268 486.166C533.956 486.492 533.145 486.618 531.836 486.547L531.377 484.848C532.113 484.867 532.582 484.87 532.784 484.857C532.992 484.838 533.096 484.75 533.096 484.594V479.535C532.595 479.919 532.136 480.212 531.719 480.414L531.202 478.754C532.042 478.266 532.673 477.859 533.096 477.533V473.988H531.299V472.309H533.096V469.115H534.737V472.309H536.124V473.988ZM549.004 484.633L548.516 486.352C545.873 486.469 544.027 485.788 542.979 484.311C542.575 485.339 542.142 486.133 541.68 486.693L540.401 485.893C541.67 484.174 542.37 481.827 542.5 478.852L543.965 479.008C543.933 480.18 543.783 481.329 543.516 482.455C543.783 483.002 544.086 483.428 544.424 483.734V476.596H542.256V474.936H544.883C544.265 474.076 543.523 473.275 542.657 472.533L543.897 471.508C544.385 471.931 544.841 472.374 545.264 472.836C545.713 472.27 546.084 471.693 546.377 471.107H542.52V469.477H548.321V471.068C547.735 472.117 547.068 473.126 546.319 474.096C546.364 474.135 546.566 474.415 546.924 474.936H548.78C548.532 476.355 548.278 477.462 548.018 478.256L546.563 477.855C546.687 477.497 546.807 477.077 546.924 476.596H546.036V479.447H548.36V481.068H546.036V484.516C546.622 484.613 547.302 484.662 548.077 484.662C548.389 484.662 548.698 484.652 549.004 484.633ZM541.778 480.854H539.903C539.87 481.049 539.838 481.182 539.805 481.254C540.333 481.658 540.892 482.191 541.485 482.855L540.479 484.311C540.206 483.939 539.818 483.493 539.317 482.973C538.77 484.301 537.81 485.541 536.436 486.693L535.245 485.531C537.081 484.073 538.08 482.514 538.243 480.854H535.743V479.271H538.36C538.425 478.738 538.458 478.21 538.458 477.689H537.92C537.562 478.334 537.269 478.803 537.042 479.096L535.743 478.334C536.465 477.403 536.999 476.296 537.344 475.014L538.741 475.531C538.689 475.798 538.63 475.99 538.565 476.107H541.524V477.689H540.098C540.072 478.393 540.04 478.92 540 479.271H541.778V480.854ZM561.641 477.67L560.381 477.992C560.336 477.53 560.274 477.175 560.196 476.928C559.096 477.117 558.083 477.257 557.159 477.348L556.739 475.932C557.149 475.502 557.696 474.789 558.379 473.793C557.774 473.845 557.289 473.871 556.924 473.871L556.602 472.592C557.325 471.602 557.872 470.414 558.243 469.027L559.776 469.516C559.19 470.876 558.711 471.807 558.34 472.309C558.62 472.328 558.939 472.302 559.297 472.23C559.428 472.016 559.649 471.576 559.961 470.912L561.319 471.635C560.486 473.223 559.532 474.617 558.458 475.814C558.887 475.795 559.356 475.74 559.864 475.648C559.825 475.382 559.737 475.102 559.6 474.809L560.801 474.389C561.257 475.749 561.537 476.843 561.641 477.67ZM568.965 483.236C568.607 485.561 567.878 486.723 566.778 486.723C566.01 486.723 565.131 486.026 564.141 484.633C562.514 485.655 561.198 486.342 560.196 486.693L559.219 485.189C561.036 484.506 562.396 483.819 563.301 483.129C562.924 482.315 562.611 481.309 562.364 480.111H559.502L559.483 480.59C560.726 481.443 561.566 482.084 562.002 482.514L560.918 483.91C560.567 483.507 560.02 483.021 559.278 482.455C558.855 484.213 558.103 485.652 557.022 486.771L555.577 485.795C556.996 484.441 557.732 482.546 557.784 480.111H556.084V478.471H562.061C561.781 476.173 561.596 473.025 561.504 469.027H563.165C563.204 472.647 563.389 475.795 563.721 478.471H564.903C564.864 478.282 564.756 478.077 564.581 477.855L566.436 477.475C566.579 477.702 566.762 478.035 566.983 478.471H568.721V480.111H564.063C564.154 480.71 564.34 481.345 564.62 482.016C565.127 481.54 565.593 480.98 566.016 480.336L567.54 481.107C566.882 482.09 566.176 482.911 565.42 483.568C566.019 484.395 566.417 484.809 566.612 484.809C566.976 484.809 567.227 483.975 567.364 482.309L568.965 483.236ZM556.817 477.436L555.782 478.412C555.469 477.709 555.215 477.201 555.02 476.889V486.596H553.34V477.768C552.956 479.291 552.478 480.567 551.905 481.596L551.124 479.496C551.931 477.947 552.562 476.153 553.018 474.115H551.319V472.436H553.34V469.027H555.02V472.436H556.338V474.115H555.02V474.428C555.86 475.6 556.459 476.602 556.817 477.436ZM568.76 477.572L567.54 477.973L567.344 476.85C566.179 477.012 565.137 477.146 564.219 477.25L563.76 475.854C564.164 475.489 564.711 474.815 565.401 473.832C564.893 473.91 564.392 473.975 563.897 474.027L563.643 472.592C564.359 471.609 564.971 470.427 565.479 469.047L566.963 469.594C566.618 470.44 566.065 471.42 565.303 472.533C565.694 472.507 566.039 472.462 566.338 472.396C566.664 471.85 566.918 471.394 567.1 471.029L568.516 471.576C567.839 472.904 566.889 474.291 565.665 475.736C565.944 475.723 566.377 475.674 566.963 475.59C566.905 475.329 566.823 475.089 566.719 474.867L567.94 474.477C568.337 475.512 568.611 476.544 568.76 477.572Z" fill="#F8F8F8"/>
<path d="M425.708 172.203L501.497 303.413L595.508 356.833L700 303.413L525.04 0L519.074 117.33L425.708 172.203Z" fill="#84C3D5"/>
<path d="M274.291 172.203H425.708L519.074 117.33L525.04 0H174.959L273.485 63.9104L274.291 172.203Z" fill="#84D5BD"/>
<path d="M198.664 303.413L274.292 172.203L273.485 63.9104L174.96 0L0 303.413L104.492 249.993L198.664 303.413Z" fill="#9F67BD"/>
<path d="M543.053 190.497C555.918 190.497 566.463 179.943 566.463 167.067C566.463 154.191 555.918 143.637 543.053 143.637C530.188 143.637 519.643 154.191 519.643 167.067C519.643 179.943 530.188 190.497 543.053 190.497ZM543.053 149.758C552.544 149.758 560.136 157.568 560.136 166.856C560.136 176.144 552.333 183.954 543.053 183.954C533.562 183.954 525.97 176.144 525.97 166.856C525.97 157.568 533.562 149.758 543.053 149.758Z" fill="#F96441"/>
<path d="M564.777 188.597H557.184V194.93H564.777C570.471 194.93 574.9 199.574 574.9 205.062V214.983H510.997V204.851C510.997 199.151 515.636 194.719 521.12 194.719H528.712V188.386H521.12C512.051 188.386 504.669 195.774 504.669 204.851V221.104H581.228V204.851C581.228 195.985 573.846 188.597 564.777 188.597Z" fill="#365D96"/>
<path d="M389.394 113.115C394.828 109.606 398.334 103.466 398.334 96.4491C398.334 85.3971 389.394 76.4502 378.352 76.4502C367.309 76.4502 358.37 85.3971 358.37 96.4491C358.37 103.466 361.875 109.606 367.309 113.115C355.039 117.676 346.275 129.43 346.275 143.113H351.534C351.534 128.377 363.453 116.448 378.176 116.448C392.9 116.448 404.819 128.377 404.819 143.113H410.078C410.253 129.254 401.489 117.501 389.394 113.115ZM378.352 111.01C370.289 111.01 363.628 104.343 363.628 96.2737C363.628 88.204 370.289 81.5376 378.352 81.5376C386.415 81.5376 393.075 88.204 393.075 96.2737C392.9 104.519 386.415 111.01 378.352 111.01Z" fill="#F8F8F8"/>
<path d="M416.036 99.6069C421.47 96.0983 424.975 89.9582 424.975 82.9411C424.975 71.889 416.036 62.9421 404.993 62.9421C399.735 62.9421 394.827 65.0473 391.146 68.5559C389.744 69.7839 388.692 71.3627 387.641 72.9416C389.218 73.6433 390.971 74.5205 392.373 75.3976C393.25 73.8188 394.477 72.5907 395.879 71.3627C398.333 69.433 401.488 68.3804 404.818 68.3804C412.881 68.3804 419.542 75.0468 419.542 83.1165C419.542 89.7828 414.984 95.572 408.85 97.1509C407.623 97.5017 406.22 97.6771 404.818 97.6771C404.292 97.6771 403.942 97.6771 403.416 97.6771C403.241 99.6069 403.065 101.537 402.539 103.291C403.241 103.291 404.117 103.115 404.818 103.115C405.87 103.115 406.922 103.115 407.973 103.291C421.119 104.87 431.461 116.097 431.461 129.781H436.719C436.895 115.922 428.13 104.168 416.036 99.6069Z" fill="#F8F8F8"/>
<path d="M351.533 103.115C352.234 103.115 353.11 103.291 353.812 103.291C353.286 101.537 352.935 99.6069 352.935 97.6771C352.409 97.6771 352.059 97.6771 351.533 97.6771C350.131 97.6771 348.904 97.5017 347.501 97.1509C341.367 95.3966 336.809 89.7828 336.809 83.1165C336.809 75.0468 343.47 68.3804 351.533 68.3804C354.863 68.3804 358.018 69.6085 360.472 71.3627C361.874 72.4153 363.101 73.8188 363.978 75.3976C365.38 74.345 366.958 73.6433 368.71 72.9416C367.834 71.3627 366.607 69.9593 365.205 68.5559C361.699 65.0473 356.791 62.9421 351.358 62.9421C340.315 62.9421 331.376 71.889 331.376 82.9411C331.376 89.9582 334.881 96.0983 340.315 99.6069C328.045 104.168 319.281 115.922 319.281 129.605H324.54C324.54 115.922 334.881 104.694 348.027 103.115C349.43 103.115 350.481 103.115 351.533 103.115Z" fill="#F8F8F8"/>
<path d="M326.506 518.203C331.939 514.695 335.445 508.555 335.445 501.538C335.445 490.485 326.506 481.539 315.463 481.539C304.42 481.539 295.481 490.485 295.481 501.538C295.481 508.555 298.987 514.695 304.42 518.203C292.151 522.764 283.387 534.518 283.387 548.202H288.645C288.645 533.466 300.564 521.536 315.288 521.536C330.011 521.536 341.93 533.466 341.93 548.202H347.189C347.364 534.343 338.6 522.589 326.506 518.203ZM315.463 516.098C307.4 516.098 300.739 509.432 300.739 501.362C300.739 493.292 307.4 486.626 315.463 486.626C323.526 486.626 330.187 493.292 330.187 501.362C330.011 509.607 323.526 516.098 315.463 516.098Z" fill="#F8F8F8"/>
<path d="M353.147 504.695C358.581 501.187 362.087 495.047 362.087 488.03C362.087 476.978 353.147 468.031 342.105 468.031C336.846 468.031 331.938 470.136 328.258 473.645C326.855 474.873 325.804 476.451 324.752 478.03C326.329 478.732 328.082 479.609 329.485 480.486C330.361 478.907 331.588 477.679 332.99 476.451C335.444 474.522 338.599 473.469 341.929 473.469C349.992 473.469 356.653 480.135 356.653 488.205C356.653 494.871 352.096 500.661 345.961 502.239C344.734 502.59 343.332 502.766 341.929 502.766C341.404 502.766 341.053 502.766 340.527 502.766C340.352 504.695 340.177 506.625 339.651 508.379C340.352 508.379 341.228 508.204 341.929 508.204C342.981 508.204 344.033 508.204 345.085 508.379C358.231 509.958 368.572 521.186 368.572 534.869H373.831C374.006 521.01 365.242 509.257 353.147 504.695Z" fill="#F8F8F8"/>
<path d="M288.644 508.204C289.345 508.204 290.222 508.379 290.923 508.379C290.397 506.625 290.046 504.695 290.046 502.766C289.521 502.766 289.17 502.766 288.644 502.766C287.242 502.766 286.015 502.59 284.613 502.239C278.478 500.485 273.921 494.871 273.921 488.205C273.921 480.135 280.581 473.469 288.644 473.469C291.975 473.469 295.13 474.697 297.584 476.451C298.986 477.504 300.213 478.907 301.089 480.486C302.491 479.434 304.069 478.732 305.822 478.03C304.945 476.451 303.718 475.048 302.316 473.645C298.811 470.136 293.903 468.031 288.469 468.031C277.426 468.031 268.487 476.978 268.487 488.03C268.487 495.047 271.993 501.187 277.426 504.695C265.157 509.257 256.393 521.01 256.393 534.694H261.651C261.651 521.01 271.993 509.783 285.139 508.204C286.541 508.204 287.593 508.204 288.644 508.204Z" fill="#F8F8F8"/>
<path d="M502.578 242.197H496.416C496.11 242.666 495.732 243.138 495.283 243.613L493.662 242.754C494.762 241.588 495.54 240.455 495.996 239.355L497.802 239.873C497.633 240.218 497.486 240.491 497.363 240.693H502.578V242.197ZM493.662 242.197H488.378C487.773 242.894 487.034 243.58 486.162 244.258L485 242.812C486.536 241.784 487.548 240.651 488.037 239.414L489.843 239.892C489.752 240.14 489.619 240.407 489.443 240.693H493.662V242.197ZM491.816 243.916L489.863 244.277C489.687 243.899 489.407 243.431 489.023 242.871L490.917 242.48C491.165 242.773 491.464 243.252 491.816 243.916ZM499.902 244.033L497.978 244.336C497.822 243.873 497.568 243.353 497.216 242.773L499.16 242.558C499.42 242.982 499.667 243.473 499.902 244.033ZM502.08 248.135H500.322V246.211H487.343V248.135H485.576V244.736H492.783C492.711 244.547 492.548 244.248 492.294 243.838L494.335 243.515C494.518 243.782 494.733 244.189 494.98 244.736H502.08V248.135ZM500.263 256.191H489.638V256.992H487.9V247.217H499.599V251.035H489.638V252.099H500.263V256.191ZM497.822 249.736V248.574H489.638V249.736H497.822ZM498.476 254.834V253.437H489.638V254.834H498.476ZM522.539 256.572H511.083V254.951H515.996V252.978H511.777V251.396H515.996V249.677H511.904V240.078H521.777V249.677H517.744V251.396H522.06V252.978H517.744V254.951H522.539V256.572ZM520.039 244.052V241.66H517.744V244.052H520.039ZM515.996 244.052V241.66H513.662V244.052H515.996ZM520.039 248.095V245.498H517.744V248.095H520.039ZM515.996 248.095V245.498H513.662V248.095H515.996ZM511.162 252.754C509.632 253.698 507.776 254.658 505.595 255.635L504.98 253.935C505.462 253.747 506.256 253.385 507.363 252.851V247.871H505.439V246.211H507.363V242.256H505.136V240.654H511.123V242.256H509.082V246.211H510.82V247.871H509.082V251.933C509.765 251.647 510.439 251.295 511.103 250.879L511.162 252.754ZM540.302 243.955H527.441V240.078H540.302V243.955ZM538.535 242.617V241.474H529.277V242.617H538.535ZM540.742 253.838H531.435L532.099 254.414C530.569 255.514 528.557 256.435 526.064 257.177L525.078 255.752C527.05 255.192 528.652 254.554 529.882 253.838H527.001V245.097H540.742V253.838ZM538.984 247.597V246.474H528.798V247.597H538.984ZM538.984 250.019V248.877H528.798V250.019H538.984ZM538.984 252.48V251.318H528.798V252.48H538.984ZM542.695 255.752L541.816 257.236C540.052 256.52 538.105 255.98 535.976 255.615L536.796 254.131C539.042 254.495 541.009 255.036 542.695 255.752ZM562.041 244.638H560.322V242.334H547.255V244.638H545.517V240.791H552.744C552.666 240.498 552.516 240.12 552.294 239.658L554.179 239.414C554.414 239.941 554.58 240.4 554.677 240.791H562.041V244.638ZM562.558 250.156L561.943 251.699C561.468 251.504 560.846 251.282 560.078 251.035V256.992H558.281V256.318H549.375V256.992H547.578V251.338C547.154 251.481 546.569 251.653 545.82 251.855L544.96 250.351C547.408 249.798 549.514 249.026 551.279 248.037H545.556V246.572H549.199C548.984 246.331 548.645 246.064 548.183 245.771L549.638 244.98C550.205 245.377 550.664 245.761 551.015 246.133L550.224 246.572H552.939V244.658L548.222 244.814L547.656 243.34C548.111 243.353 548.587 243.359 549.082 243.359C551.875 243.359 555.182 243.157 559.003 242.754L559.619 244.131C558.219 244.287 556.578 244.427 554.697 244.551V246.572H557.46L556.357 246.015C556.969 245.566 557.49 245.107 557.919 244.638L559.462 245.351C559.13 245.735 558.717 246.142 558.222 246.572H562.099V248.037H554.843C557.871 248.74 560.442 249.446 562.558 250.156ZM552.939 250.42V248.818C552.073 249.378 551.067 249.912 549.921 250.42H552.939ZM558.281 250.42C557.226 250.068 556.031 249.713 554.697 249.355V250.42H558.281ZM558.281 252.695V251.816H554.697V252.695H558.281ZM552.939 252.695V251.816H549.375V252.695H552.939ZM558.281 254.931V254.013H554.697V254.931H558.281ZM552.939 254.931V254.013H549.375V254.931H552.939ZM582.441 243.32H577.236C576.526 244.596 575.667 245.729 574.658 246.719C575.699 246.673 576.761 246.559 577.841 246.377C578.31 245.719 578.723 245.045 579.082 244.355L580.644 244.98C578.88 248.587 576.012 251.305 572.041 253.135L570.996 251.738C573.118 250.768 574.892 249.586 576.318 248.193C575.081 248.349 573.789 248.47 572.441 248.554L572.041 247.119C573.063 246.546 574.114 245.28 575.195 243.32H571.923V241.611H576.201C575.94 241.032 575.592 240.459 575.156 239.892L576.982 239.414C577.36 239.928 577.792 240.661 578.281 241.611H582.441V243.32ZM571.738 248.34L570.38 249.551C570.139 248.913 569.866 248.346 569.56 247.851V257.011H567.841V248.359C567.32 249.804 566.653 251.064 565.839 252.138L564.902 250.215C565.989 248.886 566.943 247.093 567.763 244.834H565.136V243.154H567.841V239.619H569.56V243.154H571.279V244.834H569.56V245.176C570.426 246.211 571.152 247.265 571.738 248.34ZM582.656 255.957L581.396 257.119C580.198 255.843 578.919 254.743 577.558 253.818C575.677 255.237 573.658 256.315 571.503 257.051L570.458 255.556C575.179 254.124 578.639 251.383 580.839 247.334L582.402 248.076C581.393 249.775 580.198 251.315 578.818 252.695C580.159 253.652 581.438 254.739 582.656 255.957ZM602.08 246.894H600.341V243.711H594.755V247.578H592.958V243.711H587.363V246.914H585.595V242.334H592.958V241.416H586.22V239.912H601.396V241.416H594.755V242.334H602.08V246.894ZM599.638 245.351C598.382 245.56 597.096 245.654 595.781 245.635L595.458 244.394C596.695 244.414 597.936 244.342 599.179 244.179L599.638 245.351ZM592.421 244.619L591.904 245.791C591.123 245.661 589.86 245.556 588.115 245.478L588.583 244.258C589.899 244.258 591.178 244.378 592.421 244.619ZM592.402 247.217C591.21 247.477 589.889 247.649 588.437 247.734L588.076 246.455C589.404 246.39 590.693 246.25 591.943 246.035L592.402 247.217ZM599.736 246.611L599.355 247.832C598.098 247.578 596.767 247.418 595.361 247.353L595.8 246.152C597.454 246.224 598.766 246.377 599.736 246.611ZM602.597 249.736H594.658C594.514 250.107 594.322 250.488 594.082 250.879H601.64V255.263C601.64 255.797 601.468 256.22 601.123 256.533C600.778 256.852 599.804 256.998 598.203 256.972L597.744 255.41L599.443 255.42C599.501 255.42 599.586 255.387 599.697 255.322C599.814 255.25 599.882 255.127 599.902 254.951V252.295H597.08V256.679H595.322V252.295H592.363V256.699H590.664V252.295H587.841V257.011H586.083V250.879H592.177C592.49 250.416 592.698 250.036 592.802 249.736H585.136V248.232H602.597V249.736ZM620.644 241.533L619.101 242.48C618.313 241.679 617.545 241.019 616.796 240.498L618.398 239.531C619.394 240.286 620.143 240.954 620.644 241.533ZM622.675 254.16L621.699 255.713C618.424 254.163 616.184 252.298 614.98 250.117V254.931C614.98 255.543 614.814 256.025 614.482 256.377C614.15 256.735 613.652 256.933 612.988 256.972C612.324 257.011 611.539 257.031 610.634 257.031L610.039 255.254C610.546 255.293 611.347 255.312 612.441 255.312C612.89 255.312 613.115 255.052 613.115 254.531V244.414H605.175V242.636H613.115V239.531H614.98V242.636H622.519V244.414H614.98V246.933C615.188 247.513 615.481 248.092 615.859 248.672C617.669 247.461 619.088 246.289 620.117 245.156L621.601 246.24C620.416 247.529 618.828 248.821 616.835 250.117C618.105 251.686 620.052 253.034 622.675 254.16ZM611.103 248.291L609.843 249.531C608.938 248.437 607.75 247.34 606.279 246.24L607.539 245.039C608.828 245.944 610.016 247.028 611.103 248.291ZM612.48 250.771C609.908 253.167 607.783 254.834 606.103 255.771L605.097 254.277C607.532 252.793 609.667 251.133 611.503 249.297L612.48 250.771Z" fill="#F8F8F8"/>
<path d="M235.495 576.185C235.495 576.725 235.299 577.197 234.909 577.601C234.518 578.005 233.831 578.207 232.848 578.207C232.399 578.207 231.933 578.19 231.452 578.158L230.915 576.4L233.151 576.38C233.307 576.38 233.447 576.315 233.571 576.185C233.694 576.048 233.756 575.902 233.756 575.746V572.142H228.834V577.738H227.135V572.142H222.292C222.07 574.714 221.478 576.761 220.514 578.285L218.932 577.259C219.492 576.426 219.925 575.326 220.231 573.958C220.537 572.585 220.69 571.273 220.69 570.023V561.166H235.495V576.185ZM233.756 565.804V562.904H228.834V565.804H233.756ZM227.135 565.804V562.904H222.467V565.804H227.135ZM233.756 570.462V567.464H228.834V570.462H233.756ZM227.135 570.462V567.464H222.467V570.462H227.135ZM255.768 562.162C254.271 562.552 252.256 562.868 249.723 563.109C247.191 563.35 244.941 563.46 242.975 563.441V565.56H255.553V572.523H242.848C242.451 574.548 241.598 576.455 240.29 578.246L238.815 576.986C240.371 574.987 241.149 572.52 241.149 569.583V561.722C244.196 561.735 246.745 561.667 248.795 561.517C250.853 561.367 252.933 561.048 255.036 560.56L255.768 562.162ZM253.688 570.804V567.259H242.975V570.804H253.688ZM276.588 567.337L275.29 567.826C275.25 567.702 275.192 567.546 275.114 567.357C273.786 567.624 272.324 567.813 270.729 567.923L270.29 566.742C271.142 566.371 271.976 565.742 272.79 564.857C271.963 564.955 271.295 565.003 270.788 565.003L270.495 563.763C271.445 563.164 272.265 562.07 272.956 560.482L274.45 560.941C273.929 562.002 273.31 562.875 272.594 563.558C273.187 563.532 273.652 563.486 273.991 563.421C274.206 563.115 274.427 562.767 274.655 562.376L276.012 563.041C275.303 564.199 274.323 565.313 273.073 566.38C273.496 566.361 274.01 566.296 274.616 566.185C274.557 565.983 274.456 565.749 274.313 565.482L275.651 565.101C275.97 565.674 276.282 566.419 276.588 567.337ZM265.29 567.503L263.991 567.826C263.991 567.793 263.952 567.66 263.874 567.425C262.233 567.692 260.84 567.865 259.694 567.943L259.313 566.761C260.075 566.364 260.856 565.729 261.657 564.857C260.81 564.942 260.13 564.984 259.616 564.984L259.372 563.783C260.491 562.891 261.318 561.791 261.852 560.482L263.454 560.921C262.77 562.054 262.109 562.92 261.471 563.519C261.771 563.506 262.23 563.46 262.848 563.382C263.076 563.102 263.291 562.783 263.493 562.425L264.811 563.119C263.782 564.538 262.783 565.638 261.813 566.419C262.386 566.354 262.933 566.276 263.454 566.185C263.395 565.964 263.314 565.768 263.209 565.599L264.508 565.218C264.808 565.856 265.068 566.618 265.29 567.503ZM270.436 562.943H265.211V561.585H266.911C266.846 561.345 266.751 561.091 266.627 560.824L268.336 560.541C268.571 561.159 268.701 561.507 268.727 561.585H270.436V562.943ZM269.909 564.818H265.729V563.646H269.909V564.818ZM269.909 566.664H265.729V565.482H269.909V566.664ZM269.889 570.765H265.709V567.357H269.889V570.765ZM268.512 569.525V568.539H267.155V569.525H268.512ZM265.211 570.199L263.952 570.638C263.861 570.033 263.655 569.3 263.336 568.441L264.577 568.119C264.896 568.854 265.107 569.548 265.211 570.199ZM276.676 570.638L275.329 570.96C275.172 570.14 274.928 569.346 274.596 568.578L275.856 568.197C276.208 569.004 276.481 569.818 276.676 570.638ZM272.292 568.724C272.129 569.649 271.894 570.508 271.588 571.302L270.27 570.824C270.583 570.042 270.823 569.203 270.993 568.304L272.292 568.724ZM261.256 568.685C261.042 569.655 260.674 570.606 260.153 571.537L258.913 570.785C259.297 570.153 259.629 569.326 259.909 568.304L261.256 568.685ZM263.209 570.882L261.852 571.205C261.833 570.352 261.738 569.499 261.569 568.646L262.829 568.402C263.017 569.125 263.144 569.951 263.209 570.882ZM274.313 571.078L272.956 571.185C272.975 570.182 272.907 569.336 272.75 568.646L274.049 568.519C274.245 569.365 274.333 570.218 274.313 571.078ZM276.754 576.683L276.149 578.216C272.985 578.177 270.198 577.8 267.79 577.083C265.478 577.832 262.692 578.22 259.43 578.246L258.854 576.664C261.647 576.716 263.841 576.533 265.436 576.117C264.687 575.746 263.926 575.248 263.151 574.623L264.596 573.744C265.625 574.525 266.676 575.117 267.75 575.521C269.007 574.974 270.114 574.235 271.071 573.304H263.776C262.448 574.209 261.299 574.86 260.329 575.257L259.352 573.998C261.383 573.184 263.037 572.119 264.313 570.804L265.954 571.419C265.849 571.608 265.703 571.761 265.514 571.878H276.071V573.304H273.112C272.526 574.235 271.465 575.153 269.928 576.058C271.888 576.475 274.163 576.683 276.754 576.683ZM296.715 576.566L295.973 578.216C291.839 578.093 288.467 577.448 285.856 576.283C283.987 577.396 281.907 578.083 279.616 578.343L278.854 576.703C281.022 576.494 282.741 576.061 284.01 575.404C283.014 574.805 282.161 574.151 281.452 573.441L282.809 572.406C283.838 573.317 284.726 573.955 285.475 574.32C286.1 573.734 286.478 572.927 286.608 571.898H280.651V564.017H286.891V562.64H279.196V561.019H296.315V562.64H288.649V564.017H294.792V571.898H288.375C288.193 573.272 287.799 574.32 287.194 575.042C289.635 575.947 292.809 576.455 296.715 576.566ZM293.014 567.123V565.638H288.629V567.123H293.014ZM286.891 567.123V565.638H282.409V567.123H286.891ZM293.014 570.277V568.705H288.571C288.532 569.186 288.512 569.71 288.512 570.277H293.014ZM286.793 568.705H282.409V570.277H286.774C286.787 570.082 286.793 569.557 286.793 568.705ZM306.627 569.447H303.776C303.691 572.676 302.607 575.609 300.524 578.246L299.079 576.908C300.882 574.844 301.859 572.357 302.008 569.447H299.049V567.845H302.096V565.023H299.45V563.363H302.096V560.667H303.834V563.363H306.227V565.023H303.834V567.845H306.627V569.447ZM316.608 574.164C316.595 575.29 316.514 576.139 316.364 576.712C316.214 577.285 315.973 577.64 315.641 577.777C315.309 577.914 314.547 577.982 313.356 577.982C312.327 577.982 311.813 577.448 311.813 576.38V572.259H310.612C310.592 574.766 309.427 576.781 307.116 578.304L305.836 576.908C306.78 576.419 307.526 575.755 308.073 574.916C308.62 574.076 308.887 573.19 308.874 572.259H307.194V561.126H315.69V572.259H313.551V575.785C313.551 576.097 313.753 576.253 314.157 576.253C314.45 576.253 314.648 576.185 314.752 576.048C314.857 575.905 314.918 575.479 314.938 574.769C314.964 574.053 314.967 573.636 314.948 573.519L316.608 574.164ZM313.913 564.32V562.767H308.991V564.32H313.913ZM313.913 567.406V565.882H308.991V567.406H313.913ZM313.913 570.619V568.988H308.991V570.619H313.913ZM306.793 574.662L305.436 575.843C304.935 574.704 304.326 573.63 303.61 572.621L304.87 571.468C305.762 572.66 306.403 573.724 306.793 574.662ZM336.53 568.802L335.67 570.384C333.75 569.772 332.217 569.037 331.071 568.177C329.645 569.069 328.131 569.824 326.53 570.443L325.534 568.939C327.252 568.373 328.633 567.761 329.674 567.103C328.978 566.361 328.47 565.687 328.151 565.082C327.519 565.596 327.086 565.934 326.852 566.097L325.67 564.818C327.148 563.835 328.421 562.416 329.489 560.56L331.208 561.039C331.175 561.143 330.983 561.485 330.631 562.064H335.329V563.783C334.593 565.065 333.662 566.185 332.536 567.142C333.642 567.878 334.974 568.431 336.53 568.802ZM333.268 563.783H329.411L329.333 563.861C329.827 564.772 330.426 565.518 331.129 566.097C331.995 565.401 332.708 564.629 333.268 563.783ZM325.475 568.519L324.274 569.857C324.157 569.525 323.935 569.079 323.61 568.519V578.138H321.872V569.603C321.214 571.133 320.534 572.272 319.831 573.021L318.932 571.322C320.117 569.942 321.064 568.141 321.774 565.921H319.157V564.222H321.872V560.746H323.61V564.222H325.309V565.921H323.61V566.078C324.45 566.989 325.071 567.803 325.475 568.519ZM335.27 578.119H333.473V577.445H328.649V578.119H326.852V570.746H335.27V578.119ZM333.473 575.697V572.445H328.649V575.697H333.473ZM355.114 561.761L353.913 562.943C353.398 562.468 352.764 561.999 352.008 561.537L353.229 560.404C354.049 560.866 354.678 561.319 355.114 561.761ZM356.471 574.242C356.1 576.904 355.293 578.236 354.049 578.236C353.542 578.236 352.998 577.998 352.418 577.523C351.839 577.048 351.325 576.328 350.875 575.365C349.795 576.465 348.688 577.445 347.555 578.304L346.188 577.103C347.894 575.892 349.241 574.704 350.231 573.539C349.599 571.247 349.212 568.369 349.069 564.906H339.03V563.197H348.952C348.913 562.552 348.893 561.725 348.893 560.716H350.69C350.69 561.738 350.709 562.565 350.749 563.197H356.393V564.906H350.836C350.921 567.549 351.172 569.795 351.588 571.644C352.558 570.003 353.32 568.171 353.874 566.146L355.456 566.722C354.72 569.47 353.626 571.836 352.174 573.822C352.487 574.623 352.812 575.225 353.151 575.628C353.489 576.032 353.74 576.234 353.903 576.234C354.02 576.234 354.111 576.201 354.176 576.136C354.241 576.071 354.346 575.736 354.489 575.13C354.639 574.525 354.752 573.923 354.831 573.324L356.471 574.242ZM347.389 572.406H340.114V566.566H347.389V572.406ZM345.651 570.765V568.197H341.93V570.765H345.651ZM348.356 574.984C345.83 575.817 342.809 576.563 339.293 577.22L338.952 575.521C343.32 574.714 346.413 573.981 348.229 573.324L348.356 574.984ZM376.334 572.103H365.788V576.117C366.601 575.934 367.744 575.557 369.215 574.984V576.82C367.829 577.347 366.126 577.842 364.108 578.304L363.688 576.859C363.955 576.572 364.088 576.306 364.088 576.058V572.103H362.047C361.813 574.636 361.289 576.683 360.475 578.246L358.971 577.123C359.948 575.3 360.436 572.604 360.436 569.037V561.058H375.436V565.638H362.233V567.464H365.534V566.244H367.233V567.464H371.071V566.244H372.77V567.464H375.67V568.919H372.77V570.599H376.334V572.103ZM373.629 564.066V562.66H362.233V564.066H373.629ZM371.071 570.599V568.919H367.233V570.599H371.071ZM365.534 570.599V568.919H362.213C362.233 569.564 362.22 570.124 362.174 570.599H365.534ZM376.657 576.898L375.67 578.402C372.194 577.289 369.749 575.541 368.336 573.158L369.928 572.523C370.397 573.239 371.019 573.919 371.793 574.564C372.607 574.128 373.359 573.48 374.049 572.621L375.67 573.5C374.987 574.307 374.228 575.007 373.395 575.599C374.267 576.094 375.355 576.527 376.657 576.898ZM388.649 573.246H378.991V571.664H380.651V564.339H379.313V562.757H380.651V560.697H382.37V562.757H385.387V560.697H387.135V562.757H388.532V564.339H387.135V571.664H388.649V573.246ZM385.387 565.746V564.339H382.37V565.746H385.387ZM385.387 568.666V567.279H382.37V568.666H385.387ZM385.387 571.664V570.199H382.37V571.664H385.387ZM395.875 575.863C395.875 577.406 395.153 578.177 393.708 578.177C393.343 578.177 392.871 578.164 392.292 578.138L391.696 576.419C392.171 576.439 392.545 576.449 392.819 576.449C393.424 576.449 393.799 576.393 393.942 576.283C394.085 576.166 394.157 575.986 394.157 575.746V572.201H390.993C390.83 574.597 390.137 576.664 388.913 578.402L387.37 577.425C388.73 575.681 389.411 573.054 389.411 569.544V561.058H395.875V575.863ZM394.157 565.599V562.757H391.149V565.599H394.157ZM394.157 570.482V567.357H391.149V570.482H394.157ZM387.633 576.185L386.295 577.201C385.696 576.231 385.049 575.378 384.352 574.642L385.67 573.666C386.321 574.297 386.976 575.137 387.633 576.185ZM383.512 574.544C382.516 576.061 381.435 577.321 380.27 578.324L378.913 577.142C380.052 576.224 381.09 575.078 382.028 573.705L383.512 574.544Z" fill="#F8F8F8"/>
<path d="M110.918 423.519L109.834 424.964C108.994 424.476 108.109 423.809 107.178 422.962C106.377 423.776 105.635 424.414 104.951 424.876L103.73 423.558C104.661 422.92 105.41 422.276 105.977 421.625C104.759 419.821 103.971 417.953 103.613 416.019H103.398V424.876H101.592V407.757H110.332C110.332 408.812 110.244 409.834 110.068 410.824C109.893 411.807 109.691 412.425 109.463 412.679C109.242 412.927 108.965 413.122 108.633 413.265C108.307 413.408 107.448 413.48 106.055 413.48L105.352 411.8C106.992 411.839 107.887 411.742 108.037 411.507C108.187 411.266 108.32 410.583 108.438 409.457H103.398V414.32H110.176C109.922 417.438 109.261 419.831 108.193 421.498C108.779 422.097 109.688 422.77 110.918 423.519ZM108.271 416.019H105.43C105.671 417.334 106.198 418.675 107.012 420.042C107.539 419.144 107.959 417.803 108.271 416.019ZM100.176 423.421C100.176 423.825 100.023 424.173 99.7168 424.466C99.4173 424.759 98.5286 424.889 97.0508 424.857L96.4551 423.099C96.8913 423.151 97.2721 423.177 97.5977 423.177C97.9427 423.177 98.1641 423.145 98.2617 423.08C98.3659 423.014 98.418 422.907 98.418 422.757V418.48H96.2109C96.0221 421.11 95.5436 423.265 94.7754 424.945L93.2129 423.978C94.0397 422.097 94.4531 419.678 94.4531 416.722V407.845H100.176V423.421ZM98.418 412.201V409.583H96.2305V412.201H98.418ZM98.418 416.761V413.919H96.2305V416.761H98.418ZM130.938 415.501L130.137 417.025C128.379 416.608 126.891 415.954 125.674 415.062C124.502 415.856 123.314 416.475 122.109 416.917L121.172 415.404C122.266 415.091 123.32 414.603 124.336 413.939C123.952 413.581 123.483 413.041 122.93 412.318L124.277 411.4C124.896 412.149 125.348 412.65 125.635 412.904C126.318 412.181 126.859 411.413 127.256 410.599H123.799C123.037 411.53 122.301 412.324 121.592 412.982L120.391 411.82C121.732 410.654 122.985 409.102 124.15 407.162L125.732 407.738C125.57 408.063 125.316 408.477 124.971 408.978H130.479V410.599H128.975C128.415 412.018 127.734 413.119 126.934 413.9C127.962 414.649 129.297 415.182 130.938 415.501ZM121.172 413.558C120.944 415.479 120.586 417.018 120.098 418.177L118.691 417.777C119.036 416.891 119.284 416.026 119.434 415.179H118.35V423.119C118.35 423.522 118.239 423.861 118.018 424.134C117.796 424.414 117.552 424.603 117.285 424.701C117.025 424.805 116.579 424.857 115.947 424.857C115.648 424.857 115.309 424.844 114.932 424.818L114.355 423.099C114.733 423.125 115.339 423.138 116.172 423.138C116.491 423.138 116.65 422.94 116.65 422.542V417.943C115.941 419.746 115.088 421.218 114.092 422.357L113.115 420.677C114.274 419.395 115.306 417.562 116.211 415.179H113.291V413.558H117.178C116.598 412.888 115.69 412.136 114.453 411.302L115.654 410.16C116.09 410.394 116.605 410.749 117.197 411.224C117.666 410.729 118.145 410.134 118.633 409.437H113.916V407.796H120.752V409.32C120.251 410.192 119.505 411.192 118.516 412.318C118.652 412.442 118.805 412.617 118.975 412.845L118.154 413.558H121.172ZM129.893 418.06C129.671 421.322 129.469 423.145 129.287 423.529C129.111 423.906 128.844 424.222 128.486 424.476C128.135 424.73 127.493 424.857 126.562 424.857C126.296 424.857 125.98 424.844 125.615 424.818L125.029 423.177C125.381 423.203 125.781 423.216 126.23 423.216C126.842 423.216 127.233 423.161 127.402 423.05C127.572 422.94 127.712 422.656 127.822 422.201C127.939 421.738 128.024 420.912 128.076 419.72H125.449C125.215 420.82 124.616 421.852 123.652 422.816C122.695 423.773 121.576 424.489 120.293 424.964L119.189 423.539C121.644 422.614 123.132 421.341 123.652 419.72H121.074V418.06H124.014C124.118 417.37 124.176 416.849 124.189 416.498L125.898 416.585C125.898 416.813 125.856 417.305 125.771 418.06H129.893ZM150.234 423.304C150.234 423.734 150.098 424.098 149.824 424.398C149.551 424.697 149.232 424.86 148.867 424.886C148.503 424.912 148.011 424.925 147.393 424.925C147.008 424.925 146.494 424.916 145.85 424.896L145.332 423.099C146.029 423.145 146.641 423.167 147.168 423.167C147.78 423.167 148.145 423.145 148.262 423.099C148.379 423.047 148.438 422.956 148.438 422.826V407.425H150.234V423.304ZM144.258 414.876L142.793 415.804C142.344 414.925 142.064 414.404 141.953 414.242C141.25 414.359 140.518 414.473 139.756 414.583V417.22H143.35V418.958H139.756V422.005C140.856 421.875 142.188 421.585 143.75 421.136V422.845C141.53 423.464 138.158 424.076 133.633 424.681L133.135 422.982C134.593 422.858 136.198 422.65 137.949 422.357V418.958H133.955V417.22H137.949V414.876C136.296 415.091 135.003 415.241 134.072 415.326L133.574 413.666C134.98 412.735 136.126 411.393 137.012 409.642H133.438V407.904H143.838V409.642H139.131C138.337 411.048 137.357 412.295 136.191 413.382C137.682 413.252 139.277 413.044 140.977 412.757C140.71 412.295 140.264 411.696 139.639 410.96L141.172 410.101C142.63 411.807 143.659 413.399 144.258 414.876ZM146.514 421.263H144.756V408.822H146.514V421.263ZM162.871 419.925H153.213V418.343H154.873V411.019H153.535V409.437H154.873V407.376H156.592V409.437H159.609V407.376H161.357V409.437H162.754V411.019H161.357V418.343H162.871V419.925ZM159.609 412.425V411.019H156.592V412.425H159.609ZM159.609 415.345V413.958H156.592V415.345H159.609ZM159.609 418.343V416.878H156.592V418.343H159.609ZM170.098 422.542C170.098 424.085 169.375 424.857 167.93 424.857C167.565 424.857 167.093 424.844 166.514 424.818L165.918 423.099C166.393 423.119 166.768 423.128 167.041 423.128C167.646 423.128 168.021 423.073 168.164 422.962C168.307 422.845 168.379 422.666 168.379 422.425V418.88H165.215C165.052 421.276 164.359 423.343 163.135 425.082L161.592 424.105C162.952 422.36 163.633 419.733 163.633 416.224V407.738H170.098V422.542ZM168.379 412.279V409.437H165.371V412.279H168.379ZM168.379 417.162V414.037H165.371V417.162H168.379ZM161.855 422.865L160.518 423.88C159.919 422.91 159.271 422.057 158.574 421.322L159.893 420.345C160.544 420.977 161.198 421.817 161.855 422.865ZM157.734 421.224C156.738 422.741 155.658 424.001 154.492 425.003L153.135 423.822C154.274 422.904 155.312 421.758 156.25 420.384L157.734 421.224ZM187.773 408.001C186.699 408.639 185.752 409.092 184.932 409.359L183.096 408.519C184.137 408.076 185.078 407.604 185.918 407.103L187.773 408.001ZM180.791 408.519L178.955 409.359C178.161 408.89 177.188 408.444 176.035 408.021L177.891 407.123C178.971 407.494 179.938 407.959 180.791 408.519ZM190.752 411.263H173.35V409.603H190.752V411.263ZM189.336 422.679C189.336 423.513 189.144 424.066 188.76 424.339C188.376 424.619 187.663 424.759 186.621 424.759C186.211 424.759 185.775 424.746 185.312 424.72L184.756 423.001H187.256C187.347 423.001 187.432 422.949 187.51 422.845C187.594 422.741 187.637 422.634 187.637 422.523V412.357H189.336V422.679ZM181.934 422.904C181.934 423.418 181.823 423.809 181.602 424.076C181.387 424.349 181.123 424.528 180.811 424.613C180.505 424.704 179.961 424.75 179.18 424.75C178.789 424.75 178.441 424.74 178.135 424.72L177.51 423.001C177.796 423.034 178.105 423.05 178.438 423.05C179.199 423.05 179.697 423.024 179.932 422.972C180.173 422.92 180.293 422.783 180.293 422.562V420.541H176.455C176.156 422.376 175.557 423.809 174.658 424.837L173.193 423.9C174.378 422.708 174.971 420.622 174.971 417.64V412.523H181.934V422.904ZM180.293 415.765V414.125H176.65V415.765H180.293ZM180.293 419.017V417.318H176.65V419.017H180.293ZM185.693 421.439H183.955V412.796H185.693V421.439Z" fill="#F8F8F8"/>
<path d="M109.072 451.002H107.236V449.986H96.7383V451.002H94.9121V435.709H99.7363C100.114 435.11 100.446 434.355 100.732 433.443L102.676 433.766C102.467 434.488 102.174 435.136 101.797 435.709H109.072V451.002ZM107.236 439.781V437.447H96.7383V439.781H107.236ZM107.236 443.922V441.471H96.7383V443.922H107.236ZM107.236 448.268V445.602H96.7383V448.268H107.236ZM122.979 438.17H119.111V439.303H122.559V445.182H119.111V446.305H122.559V447.701H119.111V448.971C120.381 448.854 121.562 448.684 122.656 448.463L122.734 449.889C119.85 450.37 116.797 450.771 113.574 451.09L113.213 449.645L117.51 449.205V447.701H114.014V446.305H117.51V445.182H114.014V439.303H117.51V438.17H113.496V436.705H117.51V435.562C116.644 435.673 115.599 435.761 114.375 435.826L113.936 434.43C116.976 434.299 119.688 433.984 122.07 433.482L122.754 434.762C121.803 434.983 120.589 435.191 119.111 435.387V436.705H122.979V438.17ZM120.938 441.627V440.582H119.111V441.627H120.938ZM117.51 441.607V440.582H115.635V441.607H117.51ZM120.938 443.863V442.848H119.111V443.863H120.938ZM117.51 443.863V442.848H115.635V443.863H117.51ZM130.371 437.281C130.358 440.068 130.296 442.753 130.186 445.338C130.075 447.916 129.961 449.407 129.844 449.811C129.727 450.214 129.502 450.523 129.17 450.738C128.838 450.96 128.301 451.07 127.559 451.07C127.214 451.07 126.859 451.054 126.494 451.021L125.996 449.322C126.504 449.361 126.908 449.381 127.207 449.381C127.786 449.381 128.125 449.309 128.223 449.166C128.32 449.016 128.438 447.825 128.574 445.592C128.711 443.352 128.757 441.135 128.711 438.941H126.992C126.96 443.805 126.071 447.861 124.326 451.109L122.783 450.348C124.561 447.145 125.384 443.342 125.254 438.941H123.516V437.281H125.293C125.326 435.641 125.332 434.423 125.312 433.629H127.051C127.051 434.885 127.031 436.103 126.992 437.281H130.371ZM138.115 436.002L136.855 437.164C135.807 436.103 134.772 435.25 133.75 434.605L134.932 433.365C136.26 434.244 137.321 435.123 138.115 436.002ZM150.176 446.529C150.176 447.076 149.977 447.49 149.58 447.77C149.189 448.043 148.408 448.154 147.236 448.102L146.719 446.471C147.044 446.484 147.35 446.49 147.637 446.49C148.171 446.49 148.438 446.34 148.438 446.041V445.182H145.693V448.043H143.975V445.182H141.23V448.082H139.512V437.828H143.438C142.754 437.483 141.908 437.135 140.898 436.783L142.236 435.768C143.076 436.067 143.796 436.36 144.395 436.646C145.202 436.275 145.96 435.882 146.67 435.465H139.238V433.844H149.756V435.465C148.428 436.311 147.214 437.031 146.113 437.623L146.377 437.828H150.176V446.529ZM148.438 440.807V439.322H145.693V440.807H148.438ZM143.975 440.807V439.322H141.23V440.807H143.975ZM148.438 443.707V442.262H145.693V443.707H148.438ZM143.975 443.707V442.262H141.23V443.707H143.975ZM150.771 448.99L150.312 450.729C149.16 450.755 148.079 450.768 147.07 450.768C143.301 450.768 140.82 450.637 139.629 450.377C138.444 450.117 137.412 449.56 136.533 448.707C135.889 449.645 135.234 450.471 134.57 451.188L133.174 450.104C134.951 448.326 136.058 446.428 136.494 444.41H133.652V442.701C134.759 441.38 135.605 440.283 136.191 439.41H133.271V437.701H138.33V439.41C137.699 440.393 136.908 441.49 135.957 442.701H138.379V444.41C138.145 445.406 137.796 446.344 137.334 447.223C137.816 447.77 138.444 448.199 139.219 448.512C139.993 448.824 140.967 448.997 142.139 449.029C143.311 449.062 144.538 449.078 145.82 449.078C147.682 449.078 149.333 449.049 150.771 448.99ZM162.656 443.229H159.014C158.962 443.535 158.903 443.766 158.838 443.922C160.459 445.615 161.67 447.148 162.471 448.521L161.133 449.723C160.208 448.141 159.248 446.803 158.252 445.709C157.165 448.04 155.879 449.879 154.395 451.227L153.193 449.967C155.433 447.695 156.774 445.449 157.217 443.229H153.291V441.568H157.471C157.555 440.37 157.598 439.104 157.598 437.77H156.318C155.706 438.792 155.091 439.684 154.473 440.445L153.135 439.205C154.567 437.408 155.654 435.481 156.396 433.424L158.018 433.824C157.803 434.566 157.5 435.341 157.109 436.148H162.09V437.77H159.316C159.329 438.688 159.303 439.954 159.238 441.568H162.656V443.229ZM170.117 450.602H168.35V449.186H165.078V450.602H163.35V435.084H170.117V450.602ZM168.35 447.506V436.764H165.078V447.506H168.35ZM189.717 449.01C189.717 449.55 189.521 450.022 189.131 450.426C188.74 450.829 188.053 451.031 187.07 451.031C186.621 451.031 186.156 451.015 185.674 450.982L185.137 449.225L187.373 449.205C187.529 449.205 187.669 449.14 187.793 449.01C187.917 448.873 187.979 448.727 187.979 448.57V444.967H183.057V450.562H181.357V444.967H176.514C176.292 447.538 175.7 449.586 174.736 451.109L173.154 450.084C173.714 449.251 174.147 448.15 174.453 446.783C174.759 445.41 174.912 444.098 174.912 442.848V433.99H189.717V449.01ZM187.979 438.629V435.729H183.057V438.629H187.979ZM181.357 438.629V435.729H176.689V438.629H181.357ZM187.979 443.287V440.289H183.057V443.287H187.979ZM181.357 443.287V440.289H176.689V443.287H181.357ZM209.99 434.986C208.493 435.377 206.478 435.693 203.945 435.934C201.413 436.174 199.163 436.285 197.197 436.266V438.385H209.775V445.348H197.07C196.673 447.372 195.82 449.28 194.512 451.07L193.037 449.811C194.593 447.812 195.371 445.344 195.371 442.408V434.547C198.418 434.56 200.967 434.492 203.018 434.342C205.075 434.192 207.155 433.873 209.258 433.385L209.99 434.986ZM207.91 443.629V440.084H197.197V443.629H207.91Z" fill="#F8F8F8"/>
<path d="M120.442 170.973C118.437 172.601 115.624 173.903 112.004 174.879L110.979 173.356C114.195 172.666 116.848 171.553 118.938 170.016L120.442 170.973ZM126.575 181.676L125.081 182.741C124.618 182.083 124.25 181.595 123.977 181.276C122.102 181.51 120.461 181.676 119.055 181.774V185.856C119.081 186.396 118.918 186.823 118.567 187.135C118.222 187.454 117.167 187.614 115.403 187.614L114.7 185.836C115.422 185.889 116.103 185.915 116.741 185.915C117.099 185.915 117.278 185.742 117.278 185.397V181.94C114.543 182.077 112.512 182.155 111.184 182.174L110.764 180.641C112.45 180.172 114.417 179.346 116.663 178.161C114.325 178.278 112.665 178.336 111.682 178.336L111.399 177.038C114.146 176.178 116.594 174.792 118.743 172.877L120.383 173.815C119.068 174.987 117.447 175.98 115.52 176.793L117.102 176.715L119.514 176.53C119.625 176.517 120.071 176.234 120.852 175.68L122.239 174.655L123.801 175.739C120.67 177.965 117.724 179.557 114.963 180.514C117.294 180.417 119.872 180.192 122.698 179.84C122.359 179.482 121.965 179.101 121.516 178.698L123.098 177.799C124.583 179.186 125.741 180.478 126.575 181.676ZM127.004 185.514L125.803 186.862C124.456 185.722 122.701 184.622 120.54 183.561L121.78 182.321C123.915 183.382 125.657 184.446 127.004 185.514ZM115.901 183.62C114.228 184.935 112.395 185.973 110.403 186.735L109.338 185.299C111.272 184.596 113.014 183.655 114.563 182.477L115.901 183.62ZM136.721 181.637L135.159 182.174C135.159 182.096 135.087 181.751 134.944 181.139C133.193 181.66 131.431 182.054 129.661 182.321L129.358 180.954C130.51 180.023 131.711 178.659 132.961 176.862C131.9 177.025 130.872 177.142 129.875 177.213L129.661 176.042C131.145 174.388 132.336 172.386 133.235 170.036L134.895 170.622C134.049 172.568 133.085 174.212 132.004 175.553C132.688 175.495 133.326 175.417 133.918 175.319C134.316 174.713 134.635 174.127 134.875 173.561L136.418 174.362C135.032 176.862 133.625 178.854 132.2 180.338C133.04 180.169 133.808 179.961 134.504 179.713C134.368 179.329 134.26 179.043 134.182 178.854L135.559 178.258C136.106 179.391 136.493 180.517 136.721 181.637ZM147.004 182.917C146.881 185.013 146.76 186.165 146.643 186.374C146.526 186.575 146.324 186.813 146.038 187.086C145.758 187.36 145.074 187.497 143.987 187.497C143.075 187.497 142.476 187.36 142.19 187.086C141.903 186.813 141.76 186.263 141.76 185.436V178.698C141.103 178.802 140.595 178.877 140.237 178.922C140.237 180.368 140.168 181.582 140.032 182.565C139.895 183.548 139.563 184.502 139.036 185.426C138.515 186.344 137.815 187.155 136.936 187.858L135.657 186.637C136.236 186.234 136.77 185.687 137.258 184.997C137.753 184.306 138.101 183.548 138.303 182.721C138.505 181.894 138.59 180.693 138.557 179.118L136.799 179.313L136.477 177.995C137.61 176.608 138.538 175.15 139.26 173.62H136.301V171.979H139.944C140.107 171.601 140.325 170.986 140.598 170.133L142.424 170.417C142.196 171.061 142.001 171.582 141.838 171.979H146.799V173.62H141.116C140.536 174.883 139.771 176.181 138.821 177.516C140.52 177.412 142.086 177.22 143.518 176.94C143.277 176.556 142.932 176.116 142.483 175.622L143.899 174.694C145.279 176.341 146.259 177.728 146.838 178.854L145.364 179.84C145.012 179.189 144.703 178.662 144.436 178.258L143.42 178.434V185.456C143.42 185.781 143.717 185.944 144.309 185.944C144.784 185.944 145.074 185.768 145.178 185.417C145.282 185.065 145.364 184.046 145.422 182.36L147.004 182.917ZM136.799 185.241L135.461 185.778C135.253 184.632 134.993 183.691 134.68 182.956L135.999 182.458C136.35 183.18 136.617 184.108 136.799 185.241ZM134.475 186.94L132.961 187.282C132.994 185.986 132.828 184.551 132.463 182.975L133.84 182.614C134.211 184.202 134.423 185.644 134.475 186.94ZM131.858 182.956C131.604 184.941 131.178 186.543 130.579 187.76L129.075 187.077C129.667 185.937 130.103 184.472 130.383 182.682L131.858 182.956ZM165.198 187.614H163.362V186.598H152.864V187.614H151.038V172.321H155.862C156.239 171.722 156.571 170.967 156.858 170.055L158.801 170.377C158.593 171.1 158.3 171.748 157.922 172.321H165.198V187.614ZM163.362 176.393V174.059H152.864V176.393H163.362ZM163.362 180.534V178.083H152.864V180.534H163.362ZM163.362 184.879V182.213H152.864V184.879H163.362ZM179.104 174.782H175.237V175.915H178.684V181.793H175.237V182.917H178.684V184.313H175.237V185.583C176.506 185.465 177.688 185.296 178.782 185.075L178.86 186.5C175.976 186.982 172.922 187.383 169.7 187.702L169.338 186.256L173.635 185.817V184.313H170.139V182.917H173.635V181.793H170.139V175.915H173.635V174.782H169.622V173.317H173.635V172.174C172.769 172.285 171.724 172.373 170.5 172.438L170.061 171.042C173.101 170.911 175.813 170.596 178.196 170.094L178.879 171.374C177.929 171.595 176.715 171.803 175.237 171.999V173.317H179.104V174.782ZM177.063 178.239V177.194H175.237V178.239H177.063ZM173.635 178.219V177.194H171.76V178.219H173.635ZM177.063 180.475V179.459H175.237V180.475H177.063ZM173.635 180.475V179.459H171.76V180.475H173.635ZM186.497 173.893C186.484 176.68 186.422 179.365 186.311 181.95C186.2 184.528 186.086 186.019 185.969 186.422C185.852 186.826 185.627 187.135 185.295 187.35C184.963 187.571 184.426 187.682 183.684 187.682C183.339 187.682 182.984 187.666 182.62 187.633L182.122 185.934C182.629 185.973 183.033 185.993 183.333 185.993C183.912 185.993 184.25 185.921 184.348 185.778C184.446 185.628 184.563 184.437 184.7 182.204C184.836 179.964 184.882 177.747 184.836 175.553H183.118C183.085 180.417 182.196 184.472 180.452 187.721L178.909 186.959C180.686 183.756 181.51 179.954 181.379 175.553H179.641V173.893H181.418C181.451 172.252 181.458 171.035 181.438 170.241H183.176C183.176 171.497 183.157 172.715 183.118 173.893H186.497ZM207.161 179.42L206.301 181.002C204.7 180.332 203.186 179.512 201.76 178.542C200.478 179.492 199.01 180.296 197.356 180.954L196.575 179.401C197.942 178.9 199.205 178.258 200.364 177.477C199.589 176.735 199.006 176.048 198.616 175.417C198.297 175.827 197.851 176.308 197.278 176.862L196.243 175.475C198.105 173.62 199.43 171.8 200.217 170.016L201.838 170.514C201.591 171.1 201.35 171.588 201.116 171.979H205.959V173.62C205.107 175.084 204.146 176.351 203.079 177.418C204.381 178.258 205.741 178.926 207.161 179.42ZM203.997 173.62H200.061C199.924 173.815 199.817 173.955 199.739 174.04C200.325 175.036 200.992 175.82 201.741 176.393C202.515 175.651 203.267 174.726 203.997 173.62ZM196.682 181.618L195.198 182.116C195.133 181.79 195.048 181.452 194.944 181.1C193.505 181.543 191.858 181.95 190.002 182.321L189.417 180.915C190.673 179.951 191.881 178.558 193.04 176.735C192.083 176.969 191.051 177.152 189.944 177.282L189.602 175.875C190.748 174.632 191.861 172.679 192.942 170.016L194.543 170.739C194.042 172.054 193.241 173.555 192.141 175.241C192.792 175.143 193.466 174.984 194.163 174.762C194.547 174.144 194.846 173.548 195.061 172.975L196.663 173.756C195.302 176.432 193.902 178.538 192.463 180.075C193.036 179.971 193.681 179.792 194.397 179.538C194.345 179.264 194.267 179.03 194.163 178.834L195.657 178.356C196.086 179.346 196.428 180.433 196.682 181.618ZM205.256 182.399L204.602 183.961C202.831 183.148 200.989 182.513 199.075 182.057L199.758 180.514C201.562 180.95 203.394 181.579 205.256 182.399ZM197.043 185.954L195.598 186.54C195.442 185.498 195.136 184.365 194.68 183.141L196.096 182.594C196.441 183.519 196.757 184.639 197.043 185.954ZM194.563 186.901L192.942 187.36C192.89 186.208 192.688 184.853 192.336 183.297L193.879 182.838C194.224 184.251 194.452 185.605 194.563 186.901ZM191.917 183.297C191.669 184.971 191.298 186.432 190.803 187.682L189.241 186.999C189.762 185.729 190.136 184.342 190.364 182.838L191.917 183.297ZM205.696 186.159L204.875 187.741C203.014 186.732 200.748 185.905 198.079 185.26L198.782 183.678C201.464 184.342 203.769 185.169 205.696 186.159ZM226.819 187.301H209.377V185.534H211.682V173.141H213.538V185.534H217.62V170.221H219.543V175.797H225.901V177.555H219.543V185.534H226.819V187.301Z" fill="#F8F8F8"/>
<path d="M126.741 199.618C126.493 200.953 126.073 202.216 125.481 203.407L123.821 202.822C124.146 202.138 124.374 201.578 124.504 201.142H117.981V202.187L123.215 201.982L123.303 203.359L117.981 203.583V204.042C117.981 204.335 118.134 204.482 118.44 204.482H124.817V205.907H118.176C116.887 205.907 116.243 205.312 116.243 204.12V203.622L113.342 203.74L113.303 202.343L116.243 202.245V201.142H112.542V206.62C112.542 209.511 111.939 211.952 110.735 213.945L109.338 212.743C110.302 211.031 110.784 209.052 110.784 206.806V199.618H116.702V196.347H118.459V197.206H125.5V198.7H118.459V199.618H126.741ZM126.838 213.447H112.395V211.923H117.297V210.761H113.997V207.079H115.657V209.384H117.297V206.601H118.938V211.923H120.315V206.601H122.024V209.384H123.596V207.079H125.217V210.761H122.024V211.923H126.838V213.447ZM139.895 202.06H136.184C135.767 202.06 135.422 201.91 135.149 201.611C134.875 201.305 134.739 200.914 134.739 200.439V196.366H136.36V197.499H139.758V199.081H136.36V199.941C136.36 200.077 136.409 200.198 136.506 200.302C136.604 200.406 136.708 200.458 136.819 200.458H139.895V202.06ZM134.163 201.24H132.776V203.525C133.206 203.225 133.586 202.919 133.918 202.607L134.036 204.648C133.743 204.895 133.323 205.201 132.776 205.566V212.402C132.776 212.76 132.62 213.098 132.307 213.417C131.995 213.743 131.184 213.87 129.875 213.798L129.417 212.099C130.152 212.118 130.621 212.122 130.823 212.109C131.031 212.089 131.135 212.001 131.135 211.845V206.786C130.634 207.17 130.175 207.463 129.758 207.665L129.241 206.005C130.081 205.517 130.712 205.11 131.135 204.784V201.24H129.338V199.56H131.135V196.366H132.776V199.56H134.163V201.24ZM147.043 211.884L146.555 213.603C143.912 213.72 142.066 213.04 141.018 211.562C140.614 212.59 140.181 213.385 139.719 213.945L138.44 213.144C139.709 211.425 140.409 209.078 140.54 206.103L142.004 206.259C141.972 207.431 141.822 208.58 141.555 209.706C141.822 210.253 142.125 210.68 142.463 210.986V203.847H140.295V202.187H142.922C142.304 201.327 141.562 200.527 140.696 199.784L141.936 198.759C142.424 199.182 142.88 199.625 143.303 200.087C143.752 199.521 144.124 198.945 144.417 198.359H140.559V196.728H146.36V198.32C145.774 199.368 145.107 200.377 144.358 201.347C144.403 201.386 144.605 201.666 144.963 202.187H146.819C146.571 203.606 146.318 204.713 146.057 205.507L144.602 205.107C144.726 204.749 144.846 204.329 144.963 203.847H144.075V206.698H146.399V208.32H144.075V211.767C144.661 211.865 145.341 211.913 146.116 211.913C146.428 211.913 146.737 211.904 147.043 211.884ZM139.817 208.105H137.942C137.909 208.3 137.877 208.434 137.844 208.505C138.372 208.909 138.931 209.443 139.524 210.107L138.518 211.562C138.245 211.191 137.857 210.745 137.356 210.224C136.809 211.552 135.849 212.792 134.475 213.945L133.284 212.782C135.12 211.324 136.119 209.765 136.282 208.105H133.782V206.523H136.399C136.464 205.989 136.497 205.462 136.497 204.941H135.959C135.601 205.585 135.308 206.054 135.081 206.347L133.782 205.585C134.504 204.654 135.038 203.547 135.383 202.265L136.78 202.782C136.728 203.049 136.669 203.241 136.604 203.359H139.563V204.941H138.137C138.111 205.644 138.079 206.171 138.04 206.523H139.817V208.105ZM166.624 198.886C166.005 199.771 165.422 200.517 164.875 201.122L163.362 200.224C163.531 200.029 163.889 199.583 164.436 198.886H158.137C157.525 199.589 156.939 200.175 156.379 200.644L155.022 199.482C156.057 198.733 157.05 197.6 158 196.083L159.641 196.64C159.583 196.868 159.456 197.102 159.26 197.343H166.624V198.886ZM155.1 198.661H149.719V197.06H155.1V198.661ZM166.975 202.402L166.135 204.003C165.621 203.899 165.042 203.733 164.397 203.505V211.025H155.959L156.819 212.021C154.937 212.887 152.717 213.528 150.159 213.945L149.299 212.343C151.2 212.115 153.02 211.676 154.758 211.025H151.819V203.466H155.598L154.836 202.363C157.174 201.77 158.915 200.732 160.061 199.247L161.877 199.648C161.682 200.006 161.536 200.23 161.438 200.322C162.857 201.24 164.703 201.933 166.975 202.402ZM164.202 203.466C162.861 203.03 161.558 202.389 160.295 201.542C159.462 202.297 158.378 202.939 157.043 203.466H164.202ZM162.6 205.585V204.882H153.684V205.585H162.6ZM162.6 207.626V206.884H153.684V207.626H162.6ZM162.6 209.706V208.925H153.684V209.706H162.6ZM155.276 201.845H149.456V200.204H155.276V201.845ZM166.858 212.48L165.901 214.023C164.156 213.463 162.203 213.056 160.042 212.802L160.959 211.298C163.069 211.48 165.035 211.874 166.858 212.48ZM173.782 198.925L172.542 200.322C171.812 199.365 170.819 198.43 169.563 197.519L170.862 196.181C172.001 197.04 172.974 197.955 173.782 198.925ZM186.78 198.241H182.424C182.275 198.691 182.073 199.212 181.819 199.804H186.184V207.187H182.502V212.382C182.502 212.851 182.33 213.193 181.985 213.407C181.646 213.629 181.086 213.74 180.305 213.74C179.947 213.74 179.612 213.726 179.299 213.7L178.577 211.904C179.045 211.936 179.491 211.952 179.915 211.952C180.305 211.952 180.536 211.92 180.608 211.855C180.68 211.79 180.715 211.685 180.715 211.542V207.187H177.063V199.804H179.719C179.895 199.439 180.094 198.919 180.315 198.241H176.018V205.038C176.018 208.534 175.357 211.484 174.036 213.886L172.522 212.88C173.668 210.562 174.241 207.89 174.241 204.863V196.581H186.78V198.241ZM184.436 202.704V201.327H178.821V202.704H184.436ZM184.436 205.624V204.198H178.821V205.624H184.436ZM173.655 203.603L172.502 205.107C171.669 204.221 170.627 203.427 169.377 202.724L170.461 201.24C171.484 201.767 172.548 202.555 173.655 203.603ZM173.157 207.187C172.551 209.544 171.793 211.721 170.881 213.72L169.338 212.626C170.237 210.621 170.976 208.44 171.555 206.083L173.157 207.187ZM187.063 211.904L185.5 213.046C185.162 211.894 184.495 210.432 183.499 208.661L185.022 207.782C185.855 209.072 186.536 210.445 187.063 211.904ZM179.739 208.72C178.964 210.413 178.053 211.848 177.004 213.027L175.54 211.825C176.536 210.745 177.375 209.404 178.059 207.802L179.739 208.72Z" fill="#F8F8F8"/>
<path d="M312.896 43.5984C312.896 44.1388 312.701 44.6108 312.31 45.0144C311.919 45.4181 311.233 45.6199 310.25 45.6199C309.8 45.6199 309.335 45.6036 308.853 45.571L308.316 43.8132L310.552 43.7937C310.708 43.7937 310.848 43.7286 310.972 43.5984C311.096 43.4617 311.158 43.3152 311.158 43.1589V39.5554H306.236V45.1511H304.537V39.5554H299.693C299.472 42.127 298.879 44.1746 297.916 45.698L296.333 44.6726C296.893 43.8393 297.326 42.739 297.632 41.3718C297.938 39.9981 298.091 38.6863 298.091 37.4363V28.5789H312.896V43.5984ZM311.158 33.2175V30.3171H306.236V33.2175H311.158ZM304.537 33.2175V30.3171H299.869V33.2175H304.537ZM311.158 37.8757V34.8777H306.236V37.8757H311.158ZM304.537 37.8757V34.8777H299.869V37.8757H304.537ZM333.169 29.575C331.672 29.9656 329.657 30.2813 327.125 30.5222C324.592 30.7631 322.343 30.8738 320.376 30.8542V32.9734H332.955V39.9363H320.25C319.852 41.961 319 43.8686 317.691 45.6589L316.216 44.3992C317.772 42.4005 318.55 39.933 318.55 36.9968V29.1355C321.597 29.1485 324.146 29.0802 326.197 28.9304C328.254 28.7807 330.334 28.4617 332.437 27.9734L333.169 29.575ZM331.089 38.2175V34.6726H320.376V38.2175H331.089ZM352.896 40.991H346.109V45.571H344.312V40.991H337.457V31.0105H344.312V28.1785H346.109V31.0105H352.896V40.991ZM351.07 35.1316V32.6707H346.109V35.1316H351.07ZM344.312 35.1316V32.6707H339.292V35.1316H344.312ZM351.07 39.3308V36.7527H346.109V39.3308H351.07ZM344.312 39.3308V36.7527H339.292V39.3308H344.312ZM362.671 31.4792H356.49V29.8582H358.794C358.58 29.3503 358.339 28.8816 358.072 28.4519L359.917 27.9148C360.308 28.6309 360.614 29.2787 360.835 29.8582H362.671V31.4792ZM373.892 35.4929H362.935V33.9988H367.515V33.0515H363.736V31.6746H367.515V30.7957H363.277V29.3503H367.515V28.1101H369.253V29.3503H373.492V30.7957H369.253V31.6746H373.013V33.0515H369.253V33.9988H373.892V35.4929ZM362.115 34.4382H356.929V32.7781H362.115V34.4382ZM362.115 37.3972H356.929V35.7175H362.115V37.3972ZM372.974 43.95C372.974 45.0828 372.291 45.6492 370.923 45.6492C370.637 45.6492 370.272 45.6361 369.83 45.6101L369.234 43.9792H370.816C371.083 43.9792 371.216 43.8393 371.216 43.5593V42.5535H365.63C365.389 43.9011 364.904 44.9819 364.175 45.7957L362.73 44.7507C363.628 43.7221 364.078 42.2638 364.078 40.3757V36.4109H372.974V43.95ZM371.216 38.7937V37.8562H365.816V38.7937H371.216ZM371.216 41.1765V40.1707H365.796C365.796 40.6915 365.783 41.0268 365.757 41.1765H371.216ZM362.115 45.1902H360.416V44.2917H358.697V45.6101H356.929V38.6765H362.115V45.1902ZM360.416 42.6316V40.3171H358.697V42.6316H360.416ZM393.794 31.45C393.547 32.7846 393.127 34.0476 392.535 35.239L390.875 34.6531C391.2 33.9695 391.428 33.4096 391.558 32.9734H385.035V34.0183L390.269 33.8132L390.357 35.1902L385.035 35.4148V35.8738C385.035 36.1667 385.188 36.3132 385.494 36.3132H391.871V37.739H385.23C383.941 37.739 383.296 37.1433 383.296 35.9519V35.4539L380.396 35.571L380.357 34.1746L383.296 34.0769V32.9734H379.595V38.4519C379.595 41.3425 378.993 43.7839 377.789 45.7761L376.392 44.575C377.356 42.8627 377.837 40.8835 377.837 38.6375V31.45H383.755V28.1785H385.513V29.0378H392.554V30.532H385.513V31.45H393.794ZM393.892 45.2781H379.449V43.7546H384.351V42.5925H381.05V38.9109H382.71V41.2156H384.351V38.4324H385.992V43.7546H387.369V38.4324H389.078V41.2156H390.65V38.9109H392.271V42.5925H389.078V43.7546H393.892V45.2781ZM406.949 33.8914H403.238C402.821 33.8914 402.476 33.7416 402.203 33.4421C401.929 33.1361 401.792 32.7455 401.792 32.2703V28.198H403.414V29.3308H406.812V30.9128H403.414V31.7722C403.414 31.9089 403.462 32.0294 403.56 32.1335C403.658 32.2377 403.762 32.2898 403.873 32.2898H406.949V33.8914ZM401.216 33.071H399.83V35.3562C400.259 35.0567 400.64 34.7507 400.972 34.4382L401.089 36.4792C400.796 36.7266 400.376 37.0326 399.83 37.3972V44.2332C399.83 44.5912 399.673 44.9298 399.361 45.2488C399.048 45.5743 398.238 45.7013 396.929 45.6296L396.47 43.9304C397.206 43.95 397.675 43.9532 397.876 43.9402C398.085 43.9207 398.189 43.8328 398.189 43.6765V38.6179C397.688 39.002 397.229 39.295 396.812 39.4968L396.294 37.8367C397.134 37.3484 397.766 36.9415 398.189 36.616V33.071H396.392V31.3914H398.189V28.198H399.83V31.3914H401.216V33.071ZM414.097 43.7156L413.609 45.4343C410.966 45.5515 409.12 44.8712 408.072 43.3933C407.668 44.422 407.235 45.2162 406.773 45.7761L405.494 44.9753C406.763 43.2566 407.463 40.9096 407.593 37.9343L409.058 38.0906C409.026 39.2625 408.876 40.4115 408.609 41.5378C408.876 42.0847 409.179 42.5111 409.517 42.8171V35.6785H407.349V34.0183H409.976C409.358 33.1589 408.615 32.3582 407.75 31.616L408.99 30.5906C409.478 31.0138 409.934 31.4565 410.357 31.9187C410.806 31.3523 411.177 30.7761 411.47 30.1902H407.613V28.5593H413.414V30.1511C412.828 31.1993 412.16 32.2084 411.412 33.1785C411.457 33.2175 411.659 33.4975 412.017 34.0183H413.873C413.625 35.4376 413.371 36.5444 413.111 37.3386L411.656 36.9382C411.779 36.5802 411.9 36.1602 412.017 35.6785H411.128V38.53H413.453V40.1511H411.128V43.5984C411.714 43.696 412.395 43.7449 413.169 43.7449C413.482 43.7449 413.791 43.7351 414.097 43.7156ZM406.871 39.9363H404.996C404.963 40.1316 404.931 40.2651 404.898 40.3367C405.425 40.7403 405.985 41.2742 406.578 41.9382L405.572 43.3933C405.298 43.0222 404.911 42.5763 404.41 42.0554C403.863 43.3835 402.903 44.6238 401.529 45.7761L400.337 44.614C402.173 43.1557 403.173 41.5964 403.335 39.9363H400.835V38.3542H403.453C403.518 37.8204 403.55 37.2931 403.55 36.7722H403.013C402.655 37.4167 402.362 37.8855 402.134 38.1785L400.835 37.4167C401.558 36.4858 402.092 35.379 402.437 34.0964L403.833 34.614C403.781 34.8809 403.723 35.073 403.658 35.1902H406.617V36.7722H405.191C405.165 37.4753 405.132 38.0027 405.093 38.3542H406.871V39.9363ZM426.734 36.7527L425.474 37.075C425.429 36.6127 425.367 36.2579 425.289 36.0105C424.188 36.1993 423.176 36.3393 422.251 36.4304L421.832 35.0144C422.242 34.5847 422.789 33.8718 423.472 32.8757C422.867 32.9278 422.382 32.9539 422.017 32.9539L421.695 31.6746C422.417 30.685 422.964 29.4968 423.335 28.1101L424.869 28.5984C424.283 29.9591 423.804 30.8901 423.433 31.3914C423.713 31.4109 424.032 31.3848 424.39 31.3132C424.52 31.0984 424.742 30.6589 425.054 29.9949L426.412 30.7175C425.578 32.3061 424.625 33.6993 423.55 34.8972C423.98 34.8777 424.449 34.8223 424.957 34.7312C424.917 34.4643 424.83 34.1843 424.693 33.8914L425.894 33.4714C426.35 34.8321 426.63 35.9259 426.734 36.7527ZM434.058 42.3191C433.7 44.6433 432.971 45.8054 431.871 45.8054C431.102 45.8054 430.223 45.1088 429.234 43.7156C427.606 44.7377 426.291 45.4246 425.289 45.7761L424.312 44.2722C426.128 43.5886 427.489 42.9018 428.394 42.2117C428.016 41.3979 427.704 40.392 427.457 39.1941H424.595L424.576 39.6726C425.819 40.5255 426.659 41.1667 427.095 41.5964L426.011 42.9929C425.66 42.5893 425.113 42.1042 424.371 41.5378C423.947 43.2957 423.195 44.7345 422.115 45.8542L420.669 44.8777C422.089 43.5235 422.824 41.629 422.876 39.1941H421.177V37.5535H427.154C426.874 35.2553 426.688 32.1075 426.597 28.1101H428.257C428.296 31.7299 428.482 34.8777 428.814 37.5535H429.996C429.957 37.3647 429.849 37.1596 429.673 36.9382L431.529 36.5574C431.672 36.7852 431.854 37.1173 432.076 37.5535H433.814V39.1941H429.156C429.247 39.7931 429.432 40.4278 429.712 41.0984C430.22 40.6231 430.686 40.0632 431.109 39.4187L432.632 40.1902C431.975 41.1733 431.268 41.9936 430.513 42.6511C431.112 43.4779 431.509 43.8914 431.705 43.8914C432.069 43.8914 432.32 43.058 432.457 41.3914L434.058 42.3191ZM421.91 36.5183L420.875 37.4949C420.562 36.7917 420.308 36.2839 420.113 35.9714V45.6785H418.433V36.8503C418.049 38.3738 417.57 39.6498 416.998 40.6785L416.216 38.5789C417.024 37.0294 417.655 35.2358 418.111 33.198H416.412V31.5183H418.433V28.1101H420.113V31.5183H421.431V33.198H420.113V33.5105C420.953 34.6824 421.552 35.685 421.91 36.5183ZM433.853 36.655L432.632 37.0554L432.437 35.9324C431.272 36.0951 430.23 36.2286 429.312 36.3328L428.853 34.9363C429.257 34.5717 429.804 33.8979 430.494 32.9148C429.986 32.9929 429.485 33.058 428.99 33.1101L428.736 31.6746C429.452 30.6915 430.064 29.5098 430.572 28.1296L432.056 28.6765C431.711 29.5229 431.158 30.5027 430.396 31.616C430.787 31.5899 431.132 31.5444 431.431 31.4792C431.757 30.9324 432.011 30.4766 432.193 30.1121L433.609 30.6589C432.932 31.9871 431.981 33.3738 430.757 34.8191C431.037 34.8061 431.47 34.7572 432.056 34.6726C431.998 34.4122 431.916 34.1713 431.812 33.95L433.033 33.5593C433.43 34.5945 433.703 35.6264 433.853 36.655Z" fill="#F8F8F8"/>
<path d="M230.287 125.454C226.429 120.911 219.394 120.002 214.401 120.002C213.947 120.002 213.493 120.002 213.039 120.002C213.039 118.64 212.585 117.504 212.131 115.687C212.131 115.232 211.678 114.324 211.678 113.642C209.635 105.692 199.649 96.834 186.94 96.834C174.004 96.834 166.969 103.875 164.018 108.191C162.43 107.282 160.16 106.828 157.437 106.828C154.94 106.828 152.444 107.282 150.401 108.191C142.912 111.144 139.962 117.958 139.054 122.047C137.692 121.592 136.558 121.592 135.196 121.592C131.111 121.592 127.253 123.182 124.302 125.908C117.267 132.268 117.721 140.218 117.721 141.808C117.721 154.074 125.664 158.162 132.699 158.162C133.153 158.162 133.607 158.162 133.607 158.162H221.89C227.791 158.162 232.784 151.802 234.372 143.398C235.28 140.672 236.642 132.722 230.287 125.454ZM228.699 143.171C227.337 149.076 224.16 152.484 222.344 152.484H133.834C133.38 152.484 133.38 152.484 133.38 152.484H132.926C129.522 152.484 124.075 150.894 124.075 142.035V141.581C124.075 141.127 123.621 135.675 128.614 131.132C130.203 129.542 132.472 128.634 134.969 128.634C137.919 128.634 139.962 129.542 139.962 129.542C141.323 129.997 142.004 129.997 142.912 129.088C144.274 128.634 144.501 127.725 144.501 126.589C144.501 126.589 144.955 117.731 152.444 114.324C154.033 113.87 155.848 113.415 157.437 113.415C160.841 113.415 162.884 115.005 162.884 115.005C163.791 115.914 164.926 115.914 165.834 115.914C166.742 115.914 167.423 115.005 168.33 114.551C168.33 114.551 173.323 104.103 187.167 104.103C197.153 104.103 204.642 111.144 206.004 116.368C206.004 117.277 206.458 117.731 206.458 118.412C207.366 120.911 207.366 122.274 207.366 123.864C206.912 124.772 207.366 125.454 208.273 126.362C208.727 127.271 209.862 127.271 210.77 127.271C210.77 126.817 212.358 126.817 214.628 126.817C217.578 126.817 223.479 127.271 225.975 130.224C230.06 134.767 229.607 139.309 228.699 143.171Z" fill="#F8F8F8"/>
<path d="M214.855 136.811C212.358 133.858 206.458 134.766 206.458 134.766C206.458 133.404 206.004 132.722 205.55 130.451C204.642 127.952 200.557 124.091 195.564 124.091C188.075 124.091 185.578 129.996 185.578 129.996C185.578 129.996 183.082 127.952 179.224 129.542C174.685 130.905 174.231 136.356 174.231 136.356C174.231 136.356 170.146 134.766 167.195 137.265C164.245 139.764 164.699 143.625 164.699 143.625C164.699 150.439 170.6 149.985 170.6 149.985H211.904C213.493 149.985 215.762 147.941 215.989 144.534C216.67 142.262 216.897 139.309 214.855 136.811ZM181.039 136.129C179.451 137.038 177.181 136.129 176.954 134.766C176.5 133.404 177.862 131.814 179.451 130.905C181.039 129.996 183.309 130.905 183.536 132.268C183.99 133.404 183.082 135.221 181.039 136.129ZM195.564 125.908C198.514 125.908 201.011 127.271 201.011 128.861C201.011 129.088 201.011 129.315 200.784 129.542C198.968 128.406 196.926 127.725 195.11 127.725C193.068 127.725 191.252 128.179 190.117 129.315C190.117 129.315 190.117 129.315 190.117 129.542C189.89 129.315 189.89 128.861 189.89 128.634C189.89 126.817 192.387 125.908 195.564 125.908Z" fill="#F8F8F8"/>
</g>
<defs>
<clipPath id="clip0_363_25636">
<rect width="700" height="606.826" fill="white"/>
</clipPath>
</defs>
</svg>
