<svg width="332" height="318" viewBox="0 0 332 318" fill="none" xmlns="http://www.w3.org/2000/svg">
<g opacity="0.1">
<path d="M0.743164 12.2856H331.5" stroke="#2D313E" stroke-linecap="round"/>
<path d="M0.743164 34.8569H331.5" stroke="#2D313E" stroke-linecap="round"/>
<path d="M0.743164 57.4282H331.5" stroke="#2D313E" stroke-linecap="round"/>
<path d="M0.743164 80H331.5" stroke="#2D313E" stroke-linecap="round"/>
<path d="M0.743164 102.571H331.5" stroke="#2D313E" stroke-linecap="round"/>
<path d="M0.743164 125.143H331.5" stroke="#2D313E" stroke-linecap="round"/>
<path d="M0.743164 147.714H331.5" stroke="#2D313E" stroke-linecap="round"/>
<path d="M0.743164 170.286H331.5" stroke="#2D313E" stroke-linecap="round"/>
<path d="M0.743164 192.857H331.5" stroke="#2D313E" stroke-linecap="round"/>
<path d="M0.743164 215.429H331.5" stroke="#2D313E" stroke-linecap="round"/>
<path d="M0.743164 238H331.5" stroke="#2D313E" stroke-linecap="round"/>
<path d="M0.743164 260.571H331.5" stroke="#2D313E" stroke-linecap="round"/>
<path d="M0.743164 283.143H331.5" stroke="#2D313E" stroke-linecap="round"/>
<path d="M0.743164 305.714H331.5" stroke="#2D313E" stroke-linecap="round"/>
<path d="M319.687 1L319.687 317" stroke="#2D313E" stroke-linecap="round"/>
<path d="M296.062 1L296.062 317" stroke="#2D313E" stroke-linecap="round"/>
<path d="M272.437 1L272.437 317" stroke="#2D313E" stroke-linecap="round"/>
<path d="M248.811 1L248.811 317" stroke="#2D313E" stroke-linecap="round"/>
<path d="M225.185 1L225.185 317" stroke="#2D313E" stroke-linecap="round"/>
<path d="M201.56 1L201.56 317" stroke="#2D313E" stroke-linecap="round"/>
<path d="M177.934 1L177.934 317" stroke="#2D313E" stroke-linecap="round"/>
<path d="M154.309 1L154.309 317" stroke="#2D313E" stroke-linecap="round"/>
<path d="M130.683 1L130.683 317" stroke="#2D313E" stroke-linecap="round"/>
<path d="M107.058 1L107.058 317" stroke="#2D313E" stroke-linecap="round"/>
<path d="M83.4321 1L83.4321 317" stroke="#2D313E" stroke-linecap="round"/>
<path d="M59.8066 1L59.8066 317" stroke="#2D313E" stroke-linecap="round"/>
<path d="M36.1812 1L36.1811 317" stroke="#2D313E" stroke-linecap="round"/>
<path d="M12.5557 1L12.5557 317" stroke="#2D313E" stroke-linecap="round"/>
</g>
</svg>
