<svg width="100" height="100" viewBox="0 0 100 100" fill="none" xmlns="http://www.w3.org/2000/svg">
<path d="M50.0726 57.5428C61.4092 57.5428 70.7014 48.2426 70.7014 36.8964C70.7014 25.5502 61.4092 16.25 50.0726 16.25C38.7361 16.25 29.4438 25.5502 29.4438 36.8964C29.4438 48.2426 38.7361 57.5428 50.0726 57.5428ZM50.0726 21.6441C58.4357 21.6441 65.1261 28.5262 65.1261 36.7104C65.1261 44.8946 58.2498 51.7767 50.0726 51.7767C41.7096 51.7767 35.0192 44.8946 35.0192 36.7104C35.0192 28.5262 41.7096 21.6441 50.0726 21.6441Z" fill="#F96441"/>
<path d="M69.2158 55.8686H62.5254V61.4487H69.2158C74.2336 61.4487 78.1364 65.5408 78.1364 70.3769V79.1191H21.8253V70.1909C21.8253 65.1688 25.914 61.2627 30.7459 61.2627H37.4363V55.6826H30.7459C22.7546 55.6826 16.25 62.1927 16.25 70.1909V84.5132H83.7117V70.1909C83.7117 62.3788 77.2071 55.8686 69.2158 55.8686Z" fill="#365D96"/>
</svg>
