<svg width="499" height="510" viewBox="0 0 499 510" fill="none" xmlns="http://www.w3.org/2000/svg">
<path d="M309.893 262.259L205.747 366.9L138.32 299.153L242.473 194.505L243.175 193.8L242.473 193.094L195.915 146.315H357.858V309.027L311.311 262.259L310.602 261.547L309.893 262.259Z" stroke="#84D5BD" stroke-width="2"/>
<path d="M180.182 239.653H109.05L129.817 260.519L84.7134 305.814L114.311 335.575L159.415 290.257L180.182 311.1V239.653Z" fill="#84D5BD"/>
<path d="M449.946 153.116H411.332L422.597 164.434L398.121 189.026L414.183 205.164L438.682 180.573L449.946 191.89V153.116Z" fill="#84D5BD"/>
<path d="M374.966 385.504H358.695L363.447 390.278L353.133 400.641L359.901 407.441L370.215 397.078L374.966 401.852V385.504Z" fill="#84D5BD"/>
<path d="M359.321 120.141H343.074L347.802 124.915L337.488 135.278L344.256 142.078L354.593 131.715L359.321 136.489V120.141Z" fill="#84D5BD"/>
<path d="M262.485 261.38H239.956L246.539 267.994L232.238 282.339L241.625 291.771L255.926 277.402L262.485 284.016V261.38Z" fill="#9FCBEC"/>
<path d="M449.946 279.824H399.303L414.09 294.682L381.989 326.935L403.058 348.104L435.159 315.85L449.946 330.685V279.824Z" fill="#84D5BD"/>
<path d="M126.248 361.657H109.421L114.335 366.571L103.673 377.306L110.672 384.339L121.334 373.627L126.248 378.541V361.657Z" fill="#EA9575"/>
<path d="M53.053 305.86H15.1809L26.2366 316.968L2.22461 341.117L17.9854 356.953L41.9973 332.827L53.053 343.912V305.86Z" fill="#52BD9D"/>
<path d="M318.622 244.567H305.921L309.629 248.293L301.586 256.374L306.871 261.684L314.914 253.603L318.622 257.329V244.567Z" fill="white"/>
<path d="M247.884 397.66H235.206L238.914 401.386L230.849 409.467L236.133 414.776L244.199 406.695L247.884 410.421V397.66Z" fill="white"/>
<path d="M494.261 224.726H465.984L474.236 233.016L456.319 251.041L468.094 262.848L486.01 244.847L494.261 253.137V224.726Z" fill="white"/>
<path d="M143.028 145.757H115.169L123.304 153.931L105.62 171.676L117.232 183.343L134.893 165.575L143.028 173.749V145.757Z" fill="#F8F8F8"/>
<path d="M238.914 439.042L322.492 355.066" stroke="white" stroke-width="0.5" stroke-miterlimit="10" stroke-linecap="round"/>
<path d="M395.71 256.816L455.254 196.967" stroke="white" stroke-width="0.36" stroke-miterlimit="10" stroke-linecap="round"/>
<path d="M25.2866 274.375L84.853 214.549" stroke="white" stroke-width="0.36" stroke-miterlimit="10" stroke-linecap="round"/>
<path d="M78.4097 231.922L107.15 203.045" stroke="white" stroke-width="0.36" stroke-miterlimit="10" stroke-linecap="round"/>
<path d="M448.092 218.997L476.832 190.12" stroke="white" stroke-width="0.36" stroke-miterlimit="10" stroke-linecap="round"/>
<path d="M259.982 118.65L319.526 58.8242" stroke="white" stroke-width="0.36" stroke-miterlimit="10" stroke-linecap="round"/>
<path d="M312.364 80.8545L341.104 51.9778" stroke="white" stroke-width="0.36" stroke-miterlimit="10" stroke-linecap="round"/>
<path d="M174.086 66.137L202.826 37.2603" stroke="white" stroke-width="0.36" stroke-miterlimit="10" stroke-linecap="round"/>
<path d="M369.729 149.297L398.469 120.42" stroke="white" stroke-width="0.36" stroke-miterlimit="10" stroke-linecap="round"/>
<path d="M284.48 409.466L313.221 380.59" stroke="white" stroke-width="0.36" stroke-miterlimit="10" stroke-linecap="round"/>
<path d="M169.126 157.517L197.866 128.641" stroke="white" stroke-width="0.36" stroke-miterlimit="10" stroke-linecap="round"/>
<path d="M173.391 147.434L202.131 118.557" stroke="white" stroke-width="0.36" stroke-miterlimit="10" stroke-linecap="round"/>
<path d="M233.653 85.3257C233.653 87.0257 232.285 88.3997 230.593 88.3997C228.901 88.3997 227.534 87.0257 227.534 85.3257C227.534 83.6257 228.901 82.2517 230.593 82.2517C232.285 82.2517 233.653 83.6257 233.653 85.3257Z" stroke="white" stroke-width="0.36" stroke-miterlimit="10" stroke-linecap="round"/>
<path d="M52.8674 134.23C52.8674 135.93 51.4999 137.304 49.808 137.304C48.116 137.304 46.7485 135.93 46.7485 134.23C46.7485 132.53 48.116 131.156 49.808 131.156C51.4999 131.156 52.8674 132.53 52.8674 134.23Z" stroke="white" stroke-width="0.36" stroke-miterlimit="10" stroke-linecap="round"/>
<path d="M63.6681 414.45C63.6681 416.57 61.953 418.293 59.8438 418.293C57.7347 418.293 56.0195 416.57 56.0195 414.45C56.0195 412.331 57.7347 410.608 59.8438 410.608C61.953 410.608 63.6681 412.331 63.6681 414.45Z" stroke="white" stroke-width="0.36" stroke-miterlimit="10" stroke-linecap="round"/>
<path d="M492.477 127.988C492.477 129.269 491.457 130.294 490.182 130.294C488.908 130.294 487.888 129.269 487.888 127.988C487.888 126.708 488.908 125.683 490.182 125.683C491.457 125.683 492.477 126.708 492.477 127.988Z" stroke="white" stroke-width="0.36" stroke-miterlimit="10" stroke-linecap="round"/>
<path d="M490.182 386.132C490.182 387.832 488.815 389.206 487.123 389.206C485.431 389.206 484.063 387.832 484.063 386.132C484.063 384.432 485.431 383.058 487.123 383.058C488.815 383.058 490.182 384.432 490.182 386.132Z" stroke="white" stroke-width="0.36" stroke-miterlimit="10" stroke-linecap="round"/>
</svg>
