<svg width="141" height="128" viewBox="0 0 141 128" fill="none" xmlns="http://www.w3.org/2000/svg">
<path d="M140.087 104.097C140.087 107.921 137.723 110.779 135.065 110.779H6.10892C3.44345 110.779 1.08691 107.921 1.08691 104.097V7.18131C1.08691 3.35797 3.45125 0.5 6.10892 0.5H135.065C137.73 0.5 140.087 3.35745 140.087 7.18131V104.097Z" stroke="#2D313E"/>
<path d="M136.261 90.3243H136.252V90.8243C136.252 93.7867 134.087 96.1052 131.517 96.1052H9.65615C7.08585 96.1052 4.9209 93.7867 4.9209 90.8243V12.925C4.9209 9.96267 7.08585 7.64417 9.65615 7.64417H131.525C134.096 7.64417 136.261 9.96267 136.261 12.925V90.3243Z" fill="#F8DB83" stroke="#2D313E"/>
<path d="M61.5475 120.791C62.0827 120.291 62.6915 119.582 63.1145 118.665C63.589 117.636 63.8231 116.357 63.4715 114.851C63.1751 113.582 62.4687 112.177 61.1827 110.64H83.6675C80.6844 114.523 80.6339 117.274 81.5913 119.127C81.9607 119.842 82.4644 120.388 82.9455 120.791H61.5475Z" stroke="#2D313E"/>
<path d="M49.9375 125.937V121.356H94.7685V125.937H49.9375Z" stroke="#2D313E"/>
<path d="M1.08691 104.097V91.2667H140.087V104.097C140.087 107.921 137.73 110.779 135.065 110.779H6.10892C3.45125 110.779 1.08691 107.921 1.08691 104.097Z" fill="#F3F3F3" stroke="#2D313E"/>
<path d="M85.1324 43.6589L76.9906 51.7953H83.097C83.097 58.5282 77.6216 64 70.8842 64C68.8284 64 66.8744 63.4915 65.1849 62.5761L62.2131 65.5459C64.7168 67.1325 67.6885 68.0682 70.8842 68.0682C79.881 68.0682 87.1679 60.7861 87.1679 51.7953H93.2743L85.1324 43.6589ZM58.6714 51.7953C58.6714 45.0624 64.1468 39.5907 70.8842 39.5907C72.94 39.5907 74.8941 40.0992 76.5835 41.0146L79.5553 38.0448C77.0517 36.4582 74.0799 35.5225 70.8842 35.5225C61.8875 35.5225 54.6005 42.8046 54.6005 51.7953H48.4941L56.636 59.9318L64.7778 51.7953H58.6714Z" fill="#886F0D"/>
</svg>
