<svg width="85" height="85" viewBox="0 0 85 85" fill="none" xmlns="http://www.w3.org/2000/svg">
<g clip-path="url(#clip0_445_126088)">
<path d="M15.0093 53.799V56.8626C15.0093 58.8584 16.3265 60.8542 18.951 62.381C24.2299 65.4545 32.8218 65.4545 38.1406 62.381C40.815 60.8342 42.1522 58.8085 42.1422 56.7827V53.7192C42.1422 55.7449 40.815 57.7707 38.1406 59.3174C32.8218 62.3909 24.2299 62.3909 18.951 59.3174C16.3265 57.7906 15.0093 55.7948 15.0093 53.799Z" fill="#F1F1F1"/>
<mask id="mask0_445_126088" style="mask-type:luminance" maskUnits="userSpaceOnUse" x="15" y="53" width="28" height="12">
<path d="M15.0093 53.799V56.8626C15.0093 58.8584 16.3265 60.8542 18.951 62.381C24.2299 65.4545 32.8218 65.4545 38.1406 62.381C40.815 60.8342 42.1522 58.8085 42.1422 56.7827V53.7192C42.1422 55.7449 40.815 57.7707 38.1406 59.3174C32.8218 62.3909 24.2299 62.3909 18.951 59.3174C16.3265 57.7906 15.0093 55.7948 15.0093 53.799Z" fill="white"/>
</mask>
<g mask="url(#mask0_445_126088)">
<path d="M15.0093 53.799V56.8626C15.0093 58.8584 16.3265 60.8542 18.951 62.381C19.9888 62.9897 21.1563 63.4687 22.4037 63.8379V60.7743C21.1563 60.4051 19.9888 59.9261 18.951 59.3174C16.3265 57.7906 15.0093 55.7948 15.0093 53.799Z" fill="#E1E1E1"/>
<path d="M22.4038 60.7744V63.8379C24.23 64.3768 26.2258 64.6562 28.2216 64.6861V61.6226C26.2158 61.5926 24.23 61.3132 22.4038 60.7744Z" fill="#E1E1E1"/>
<path d="M28.2314 61.6225V64.6861C31.8039 64.736 35.4063 63.9676 38.1406 62.3809C38.2703 62.3011 38.4 62.2213 38.5298 62.1414V59.0779C38.4 59.1577 38.2703 59.2375 38.1406 59.3174C35.4063 60.8941 31.8039 61.6624 28.2314 61.6225Z" fill="#F1F1F1"/>
<path d="M38.5298 59.0879V62.1514C39.9468 61.2633 40.9547 60.2255 41.5335 59.1378V56.0742C40.9547 57.1619 39.9468 58.1997 38.5298 59.0879Z" fill="#E1E1E1"/>
<path d="M41.5435 56.0742V59.1378C41.9526 58.3694 42.1522 57.5811 42.1522 56.7827V53.7192C42.1522 54.5075 41.9526 55.3058 41.5435 56.0742Z" fill="#E1E1E1"/>
</g>
<path d="M19.011 48.2008C13.6922 51.2743 13.6722 56.2439 18.9511 59.3174C24.23 62.391 32.8219 62.391 38.1407 59.3174C43.4595 56.2439 43.4895 51.2743 38.2006 48.2008C32.9217 45.1272 24.3298 45.1272 19.011 48.2008Z" fill="#F1F1F1"/>
<path d="M15.3887 48.4902V52.9209C15.4086 54.8668 16.6859 56.8027 19.2406 58.2896C24.3798 61.2733 32.7322 61.2733 37.9013 58.2896C40.5058 56.7827 41.8031 54.8169 41.7931 52.851V48.4303C41.7931 50.3962 40.4859 52.372 37.8813 53.8689C32.7122 56.8526 24.3598 56.8526 19.2206 53.8689C16.666 52.382 15.3887 50.4461 15.3887 48.5002V48.4902Z" fill="#68B29C"/>
<mask id="mask1_445_126088" style="mask-type:luminance" maskUnits="userSpaceOnUse" x="15" y="48" width="27" height="13">
<path d="M15.3887 48.4902V52.9209C15.4086 54.8668 16.6859 56.8027 19.2406 58.2896C24.3798 61.2733 32.7322 61.2733 37.9013 58.2896C40.5058 56.7827 41.8031 54.8169 41.7931 52.851V48.4303C41.7931 50.3962 40.4859 52.372 37.8813 53.8689C32.7122 56.8526 24.3598 56.8526 19.2206 53.8689C16.666 52.382 15.3887 50.4461 15.3887 48.5002V48.4902Z" fill="white"/>
</mask>
<g mask="url(#mask1_445_126088)">
<path d="M15.3887 48.4902V52.9209C15.4086 54.8668 16.6859 56.8027 19.2406 58.2896C20.2484 58.8783 21.3861 59.3474 22.6035 59.7066V55.2859C21.3761 54.9266 20.2385 54.4576 19.2306 53.8689C16.676 52.382 15.3987 50.4461 15.3987 48.5002H15.3887V48.4902Z" fill="#68B29C"/>
<path d="M22.5835 55.2759V59.6966C24.3697 60.2156 26.3057 60.495 28.2516 60.5149V56.0942C26.2957 56.0643 24.3498 55.7948 22.5835 55.2759Z" fill="#97FDDF"/>
<path d="M28.2417 56.0942V60.5149C31.7244 60.5648 35.237 59.8164 37.8914 58.2797C38.0211 58.1998 38.1508 58.13 38.2706 58.0501V53.6194C38.1309 53.6993 38.0111 53.7691 37.8814 53.849C35.217 55.3857 31.7144 56.1342 28.2417 56.0843V56.0942Z" fill="#96E1CB"/>
<path d="M38.2605 53.6294V58.0601C39.6576 57.1919 40.6255 56.194 41.1943 55.1362V50.7155C40.6155 51.7733 39.6376 52.7812 38.2605 53.6394V53.6294Z" fill="#97FDDF"/>
<path d="M41.1843 50.7055V55.1263C41.5935 54.3878 41.793 53.6094 41.793 52.8411V48.4203C41.7831 49.1887 41.5835 49.9671 41.1843 50.7055Z" fill="#97FDDF"/>
</g>
<path d="M19.2804 43.0516C14.1113 46.0353 14.0813 50.8751 19.2205 53.8589C24.3597 56.8426 32.7121 56.8426 37.8813 53.8589C43.0504 50.8751 43.0803 46.0353 37.9411 43.0516C32.8019 40.0679 24.4495 40.0679 19.2804 43.0516Z" fill="#96E1CB"/>
<path d="M15.0093 45.2071V48.2706C15.0093 50.2665 16.3265 52.2623 18.951 53.789C24.2299 56.8626 32.8218 56.8626 38.1406 53.789C40.815 52.2423 42.1522 50.2166 42.1422 48.1908V45.1273C42.1422 47.153 40.815 49.1787 38.1406 50.7255C32.8218 53.799 24.2299 53.799 18.951 50.7255C16.3265 49.1987 15.0093 47.2029 15.0093 45.2071Z" fill="#F1F1F1"/>
<mask id="mask2_445_126088" style="mask-type:luminance" maskUnits="userSpaceOnUse" x="15" y="45" width="28" height="12">
<path d="M15.0093 45.2071V48.2706C15.0093 50.2665 16.3265 52.2623 18.951 53.789C24.2299 56.8626 32.8218 56.8626 38.1406 53.789C40.815 52.2423 42.1522 50.2166 42.1422 48.1908V45.1273C42.1422 47.153 40.815 49.1787 38.1406 50.7255C32.8218 53.799 24.2299 53.799 18.951 50.7255C16.3265 49.1987 15.0093 47.2029 15.0093 45.2071Z" fill="white"/>
</mask>
<g mask="url(#mask2_445_126088)">
<path d="M15.0093 45.2071V48.2707C15.0093 50.2665 16.3265 52.2623 18.951 53.7891C19.9888 54.3978 21.1563 54.8768 22.4037 55.246V52.1824C21.1563 51.8132 19.9888 51.3342 18.951 50.7255C16.3265 49.1987 15.0093 47.2029 15.0093 45.2071Z" fill="#E1E1E1"/>
<path d="M22.4038 52.1824V55.246C24.23 55.7849 26.2258 56.0643 28.2216 56.0942V53.0306C26.2158 53.0007 24.23 52.7213 22.4038 52.1824Z" fill="#E1E1E1"/>
<path d="M28.2314 53.0306V56.0942C31.8039 56.1441 35.4063 55.3757 38.1406 53.789C38.2703 53.7092 38.4 53.6294 38.5298 53.5495V50.486C38.4 50.5658 38.2703 50.6456 38.1406 50.7255C35.4063 52.3021 31.8039 53.0705 28.2314 53.0306Z" fill="#F1F1F1"/>
<path d="M38.5298 50.496V53.5595C39.9468 52.6714 40.9547 51.6336 41.5335 50.5459V47.4823C40.9547 48.57 39.9468 49.6078 38.5298 50.496Z" fill="#E1E1E1"/>
<path d="M41.5435 47.4823V50.5459C41.9526 49.7775 42.1522 48.9891 42.1522 48.1908V45.1273C42.1522 45.9156 41.9526 46.7139 41.5435 47.4823Z" fill="#E1E1E1"/>
</g>
<path d="M19.011 39.6089C13.6922 42.6824 13.6722 47.652 18.9511 50.7255C24.23 53.799 32.8219 53.799 38.1407 50.7255C43.4595 47.652 43.4895 42.6824 38.2006 39.6089C32.9217 36.5353 24.3298 36.5353 19.011 39.6089Z" fill="#F1F1F1"/>
<path d="M15.3887 39.9282V44.3489C15.4086 46.2948 16.6859 48.2307 19.2406 49.7176C24.3798 52.7013 32.7322 52.7013 37.9013 49.7176C40.5058 48.2108 41.8031 46.2449 41.7931 44.279V39.8583C41.7931 41.8242 40.4859 43.8001 37.8813 45.2969C32.7122 48.2806 24.3598 48.2806 19.2206 45.2969C16.666 43.81 15.3887 41.8741 15.3887 39.9282Z" fill="#68B29C"/>
<mask id="mask3_445_126088" style="mask-type:luminance" maskUnits="userSpaceOnUse" x="15" y="39" width="27" height="13">
<path d="M15.3887 39.9282V44.3489C15.4086 46.2948 16.6859 48.2307 19.2406 49.7176C24.3798 52.7013 32.7322 52.7013 37.9013 49.7176C40.5058 48.2108 41.8031 46.2449 41.7931 44.279V39.8583C41.7931 41.8242 40.4859 43.8001 37.8813 45.2969C32.7122 48.2806 24.3598 48.2806 19.2206 45.2969C16.666 43.81 15.3887 41.8741 15.3887 39.9282Z" fill="white"/>
</mask>
<g mask="url(#mask3_445_126088)">
<path d="M15.3887 39.9282V44.3489C15.4086 46.2948 16.6859 48.2307 19.2406 49.7176C20.2484 50.3064 21.3861 50.7754 22.6035 51.1346V46.7039C21.3761 46.3447 20.2385 45.8757 19.2306 45.2869C16.676 43.8001 15.3987 41.8641 15.3987 39.9182H15.3887V39.9282Z" fill="#68B29C"/>
<path d="M22.5835 46.7139V51.1446C24.3697 51.6635 26.3057 51.9429 28.2516 51.9629V47.5422C26.2957 47.5122 24.3498 47.2428 22.5835 46.7239V46.7139Z" fill="#97FDDF"/>
<path d="M28.2417 47.5322V51.9529C31.7244 52.0028 35.237 51.2544 37.8914 49.7176C38.0211 49.6378 38.1508 49.5679 38.2706 49.4881V45.0674C38.1309 45.1472 38.0111 45.2171 37.8814 45.2969C35.217 46.8337 31.7144 47.5821 28.2417 47.5322Z" fill="#96E1CB"/>
<path d="M38.2605 45.0674V49.4881C39.6576 48.6199 40.6255 47.622 41.1943 46.5643V42.1436C40.6155 43.2013 39.6376 44.2092 38.2605 45.0674Z" fill="#97FDDF"/>
<path d="M41.1843 42.1435V46.5642C41.5935 45.8258 41.793 45.0474 41.793 44.279V39.8583C41.7831 40.6267 41.5835 41.3951 41.1843 42.1435Z" fill="#97FDDF"/>
</g>
<path d="M19.2804 34.4896C14.1113 37.4734 14.0813 42.3132 19.2205 45.2969C24.3597 48.2806 32.7121 48.2806 37.8813 45.2969C43.0504 42.3132 43.0803 37.4734 37.9411 34.4896C32.8019 31.5059 24.4495 31.5059 19.2804 34.4896Z" fill="#96E1CB"/>
<path d="M15.0093 36.6451V39.7086C15.0093 41.7044 16.3265 43.7002 18.951 45.227C24.2299 48.3006 32.8218 48.3006 38.1406 45.227C40.815 43.6803 42.1522 41.6545 42.1422 39.6288V36.5652C42.1422 38.591 40.815 40.6167 38.1406 42.1635C32.8218 45.237 24.2299 45.237 18.951 42.1635C16.3265 40.6367 15.0093 38.6409 15.0093 36.6451Z" fill="#F1F1F1"/>
<mask id="mask4_445_126088" style="mask-type:luminance" maskUnits="userSpaceOnUse" x="15" y="36" width="28" height="12">
<path d="M15.0093 36.6451V39.7086C15.0093 41.7044 16.3265 43.7002 18.951 45.227C24.2299 48.3006 32.8218 48.3006 38.1406 45.227C40.815 43.6803 42.1522 41.6545 42.1422 39.6288V36.5652C42.1422 38.591 40.815 40.6167 38.1406 42.1635C32.8218 45.237 24.2299 45.237 18.951 42.1635C16.3265 40.6367 15.0093 38.6409 15.0093 36.6451Z" fill="white"/>
</mask>
<g mask="url(#mask4_445_126088)">
<path d="M15.0093 36.6451V39.7086C15.0093 41.7044 16.3265 43.7002 18.951 45.227C19.9888 45.8358 21.1563 46.3148 22.4037 46.684V43.6204C21.1563 43.2512 19.9888 42.7722 18.951 42.1635C16.3265 40.6367 15.0093 38.6409 15.0093 36.6451Z" fill="#E1E1E1"/>
<path d="M22.4038 43.6204V46.684C24.23 47.2228 26.2258 47.5023 28.2216 47.5322V44.4686C26.2158 44.4387 24.23 44.1593 22.4038 43.6204Z" fill="#E1E1E1"/>
<path d="M28.2314 44.4686V47.5322C31.8039 47.5821 35.4063 46.8137 38.1406 45.227C38.2703 45.1472 38.4 45.0673 38.5298 44.9875V41.924C38.4 42.0038 38.2703 42.0836 38.1406 42.1634C35.4063 43.7401 31.8039 44.5085 28.2314 44.4686Z" fill="#F1F1F1"/>
<path d="M38.5298 41.934V44.9975C39.9468 44.1094 40.9547 43.0716 41.5335 41.9838V38.9203C40.9547 40.008 39.9468 41.0458 38.5298 41.934Z" fill="#E1E1E1"/>
<path d="M41.5435 38.9203V41.9839C41.9526 41.2155 42.1522 40.4271 42.1522 39.6288V36.5652C42.1522 37.3536 41.9526 38.1519 41.5435 38.9203Z" fill="#E1E1E1"/>
</g>
<path d="M19.011 31.0469C13.6922 34.1204 13.6722 39.0899 18.9511 42.1635C24.23 45.237 32.8219 45.237 38.1407 42.1635C43.4595 39.0899 43.4895 34.1204 38.2006 31.0469C32.9217 27.9733 24.3298 27.9733 19.011 31.0469Z" fill="#F1F1F1"/>
<path d="M15.3887 31.1865V35.6172C15.4086 37.5631 16.6859 39.499 19.2406 40.9859C24.3798 43.9696 32.7322 43.9696 37.9013 40.9859C40.5058 39.4791 41.8031 37.5132 41.7931 35.5474V31.1266C41.7931 33.0925 40.4859 35.0684 37.8813 36.5652C32.7122 39.5489 24.3598 39.5489 19.2206 36.5652C16.666 35.0684 15.3887 33.1225 15.3887 31.1865Z" fill="#68B29C"/>
<mask id="mask5_445_126088" style="mask-type:luminance" maskUnits="userSpaceOnUse" x="15" y="31" width="27" height="13">
<path d="M15.3887 31.1865V35.6172C15.4086 37.5631 16.6859 39.499 19.2406 40.9859C24.3798 43.9696 32.7322 43.9696 37.9013 40.9859C40.5058 39.4791 41.8031 37.5132 41.7931 35.5474V31.1266C41.7931 33.0925 40.4859 35.0684 37.8813 36.5652C32.7122 39.5489 24.3598 39.5489 19.2206 36.5652C16.666 35.0684 15.3887 33.1225 15.3887 31.1865Z" fill="white"/>
</mask>
<g mask="url(#mask5_445_126088)">
<path d="M15.3887 31.1865V35.6172C15.4086 37.5631 16.6859 39.499 19.2406 40.9859C20.2484 41.5747 21.3861 42.0437 22.6035 42.4029V37.9822C21.3761 37.623 20.2385 37.154 19.2306 36.5652C16.666 35.0684 15.3887 33.1225 15.3887 31.1865Z" fill="#68B29C"/>
<path d="M22.5835 37.9622V42.383C24.3697 42.9019 26.3057 43.1813 28.2516 43.2012V38.7705C26.2957 38.7406 24.3498 38.4712 22.5835 37.9523V37.9622Z" fill="#97FDDF"/>
<path d="M28.2417 38.7906V43.2212C31.7244 43.2711 35.237 42.5227 37.8914 40.9859C38.0211 40.9061 38.1508 40.8363 38.2706 40.7564V36.3257C38.1309 36.4056 38.0111 36.4754 37.8814 36.5553C35.217 38.092 31.7144 38.8405 28.2417 38.7906Z" fill="#96E1CB"/>
<path d="M38.2605 36.3257V40.7564C39.6576 39.8882 40.6255 38.8903 41.1943 37.8326V33.4119C40.6155 34.4696 39.6376 35.4775 38.2605 36.3357V36.3257Z" fill="#97FDDF"/>
<path d="M41.1843 33.3919V37.8126C41.5935 37.0741 41.793 36.2958 41.793 35.5274V31.1067C41.7831 31.8751 41.5835 32.6534 41.1843 33.3919Z" fill="#97FDDF"/>
</g>
<path d="M19.2804 25.738C14.1113 28.7217 14.0813 33.5615 19.2205 36.5453C24.3597 39.529 32.7121 39.529 37.8813 36.5453C43.0504 33.5615 43.0803 28.7217 37.9411 25.738C32.8019 22.7543 24.4495 22.7543 19.2804 25.738Z" fill="#96E1CB"/>
<path d="M15.0093 27.8935V30.9571C15.0093 32.9529 16.3265 34.9487 18.951 36.4755C24.2299 39.549 32.8218 39.549 38.1406 36.4755C40.815 34.9287 42.1522 32.903 42.1422 30.8772V27.8137C42.1422 29.8394 40.815 31.8651 38.1406 33.4119C32.8218 36.4854 24.2299 36.4854 18.951 33.4119C16.3265 31.8951 15.0093 29.8993 15.0093 27.8935Z" fill="#F1F1F1"/>
<mask id="mask6_445_126088" style="mask-type:luminance" maskUnits="userSpaceOnUse" x="15" y="27" width="28" height="12">
<path d="M15.0093 27.8935V30.9571C15.0093 32.9529 16.3265 34.9487 18.951 36.4755C24.2299 39.549 32.8218 39.549 38.1406 36.4755C40.815 34.9287 42.1522 32.903 42.1422 30.8772V27.8137C42.1422 29.8394 40.815 31.8651 38.1406 33.4119C32.8218 36.4854 24.2299 36.4854 18.951 33.4119C16.3265 31.8951 15.0093 29.8993 15.0093 27.8935Z" fill="white"/>
</mask>
<g mask="url(#mask6_445_126088)">
<path d="M15.0093 27.8935V30.9571C15.0093 32.9529 16.3265 34.9487 18.951 36.4755C19.9888 37.0842 21.1563 37.5632 22.4037 37.9324V34.8688C21.1563 34.4996 19.9888 34.0206 18.951 33.4119C16.3265 31.8951 15.0093 29.8993 15.0093 27.8935Z" fill="#E1E1E1"/>
<path d="M22.4038 34.8788V37.9423C24.23 38.4812 26.2258 38.7606 28.2216 38.7906V35.727C26.2158 35.6971 24.23 35.4177 22.4038 34.8788Z" fill="#E1E1E1"/>
<path d="M28.2314 35.7171V38.7806C31.8039 38.8305 35.4063 38.0621 38.1406 36.4755C38.2703 36.3956 38.4 36.3158 38.5298 36.236V33.1724C38.4 33.2523 38.2703 33.3321 38.1406 33.4119C35.4063 34.9886 31.8039 35.757 28.2314 35.7171Z" fill="#F1F1F1"/>
<path d="M38.5298 33.1824V36.2459C39.9468 35.3578 40.9547 34.32 41.5335 33.2323V30.1687C40.9547 31.2564 39.9468 32.2942 38.5298 33.1824Z" fill="#E1E1E1"/>
<path d="M41.5435 30.1687V33.2323C41.9526 32.4639 42.1522 31.6755 42.1522 30.8772V27.8137C42.1522 28.602 41.9526 29.4003 41.5435 30.1687Z" fill="#E1E1E1"/>
</g>
<path d="M19.011 22.3052C13.6922 25.3788 13.6722 30.3483 18.9511 33.4218C24.23 36.4954 32.8219 36.4954 38.1407 33.4218C43.4595 30.3483 43.4895 25.3788 38.2006 22.3052C32.9217 19.2317 24.3298 19.2317 19.011 22.3052Z" fill="#F1F1F1"/>
<path d="M20.2185 23.5925C15.5683 25.9476 15.5483 29.7695 20.1686 32.1246C24.7889 34.4796 32.2931 34.4796 36.9433 32.1246C41.5935 29.7695 41.6135 25.9476 37.0032 23.5925C32.3829 21.2375 24.8687 21.2375 20.2285 23.5925H20.2185Z" fill="#F1F1F1"/>
<path d="M16.3765 27.8835C16.3765 27.9633 16.3765 28.0332 16.3864 28.113C16.4962 29.5999 17.6638 31.0967 19.6396 32.2343C21.9547 33.5815 25.1979 34.3499 28.5309 34.3499C31.8639 34.3499 35.0871 33.6015 37.4521 32.2343C39.4579 31.0768 40.6554 29.5699 40.7651 28.0631C40.7651 27.9833 40.7751 27.9134 40.7751 27.8336C40.7751 26.2769 39.5876 24.6902 37.512 23.4827C35.1969 22.1356 31.9537 21.3672 28.6207 21.3672C25.2877 21.3672 22.0645 22.1156 19.6995 23.4827C17.5939 24.7002 16.3765 26.2968 16.3765 27.8735V27.8835ZM17.4442 28.123C17.4442 28.0432 17.4342 27.9633 17.4342 27.8935C17.4342 26.706 18.4521 25.4386 20.2284 24.4108C22.4337 23.1335 25.4174 22.4349 28.6307 22.4349C31.8439 22.4349 34.8376 23.1534 36.9931 24.4108C38.7294 25.4187 39.7273 26.676 39.7273 27.8536C39.7273 27.9234 39.7273 28.0032 39.7174 28.0731C39.7174 28.1529 39.7273 28.2328 39.7273 28.3026C39.7273 29.4901 38.7095 30.7574 36.9332 31.7853C34.7278 33.0626 31.7441 33.7611 28.5409 33.7611C25.3376 33.7611 22.3339 33.0426 20.1785 31.7853C18.4321 30.7674 17.4342 29.52 17.4442 28.3425C17.4442 28.2727 17.4442 28.1928 17.4542 28.123H17.4442Z" fill="#B3B3B3"/>
<path d="M16.3865 28.113C16.4962 29.5999 17.6638 31.0967 19.6396 32.2344C21.9548 33.5815 25.1979 34.3499 28.5309 34.3499C31.8639 34.3499 35.0871 33.6015 37.4522 32.2344C39.4579 31.0768 40.6554 29.57 40.7652 28.0631C40.6554 26.5762 39.4879 25.0894 37.512 23.9418C35.1969 22.5946 31.9537 21.8262 28.6207 21.8262C25.2877 21.8262 22.0645 22.5747 19.6995 23.9418C17.6937 25.0994 16.4962 26.6062 16.3865 28.103V28.113ZM17.4343 28.3425C17.4343 28.2727 17.4343 28.1928 17.4442 28.123C17.4442 28.0432 17.4343 27.9633 17.4343 27.8935C17.4343 26.706 18.4521 25.4386 20.2284 24.4108C22.4338 23.1335 25.4175 22.435 28.6307 22.435C31.844 22.435 34.8377 23.1534 36.9931 24.4108C38.7295 25.4187 39.7274 26.676 39.7274 27.8536C39.7274 27.9234 39.7274 28.0032 39.7174 28.0731C39.7174 28.1529 39.7274 28.2328 39.7274 28.3026C39.7274 29.4901 38.7095 30.7575 36.9332 31.7853C34.7279 33.0626 31.7442 33.7611 28.5409 33.7611C25.3376 33.7611 22.334 33.0427 20.1785 31.7853C18.4322 30.7674 17.4343 29.5201 17.4442 28.3425H17.4343Z" fill="#97FDDF"/>
</g>
<g clip-path="url(#clip1_445_126088)">
<path d="M41.8479 53.7989V56.8625C41.8479 58.8583 43.1651 60.8541 45.7896 62.3809C51.0685 65.4544 59.6604 65.4544 64.9792 62.3809C67.6536 60.8342 68.9908 58.8084 68.9808 56.7827V53.7191C68.9808 55.7449 67.6536 57.7706 64.9792 59.3173C59.6604 62.3909 51.0685 62.3909 45.7896 59.3173C43.1651 57.7906 41.8479 55.7948 41.8479 53.7989Z" fill="#F1F1F1"/>
<mask id="mask7_445_126088" style="mask-type:luminance" maskUnits="userSpaceOnUse" x="41" y="53" width="28" height="12">
<path d="M41.8479 53.7989V56.8625C41.8479 58.8583 43.1651 60.8541 45.7896 62.3809C51.0685 65.4544 59.6604 65.4544 64.9792 62.3809C67.6536 60.8342 68.9908 58.8084 68.9808 56.7827V53.7191C68.9808 55.7449 67.6536 57.7706 64.9792 59.3173C59.6604 62.3909 51.0685 62.3909 45.7896 59.3173C43.1651 57.7906 41.8479 55.7948 41.8479 53.7989Z" fill="white"/>
</mask>
<g mask="url(#mask7_445_126088)">
<path d="M41.8479 53.799V56.8625C41.8479 58.8583 43.1651 60.8541 45.7896 62.3809C46.8274 62.9896 47.995 63.4686 49.2423 63.8378V60.7743C47.995 60.4051 46.8274 59.9261 45.7896 59.3174C43.1651 57.7906 41.8479 55.7948 41.8479 53.799Z" fill="#E1E1E1"/>
<path d="M49.2424 60.7743V63.8379C51.0686 64.3767 53.0644 64.6561 55.0602 64.6861V61.6225C53.0544 61.5926 51.0686 61.3132 49.2424 60.7743Z" fill="#E1E1E1"/>
<path d="M55.0701 61.6225V64.686C58.6426 64.7359 62.245 63.9675 64.9792 62.3809C65.1089 62.301 65.2387 62.2212 65.3684 62.1414V59.0778C65.2387 59.1577 65.1089 59.2375 64.9792 59.3173C62.245 60.894 58.6426 61.6624 55.0701 61.6225Z" fill="#F1F1F1"/>
<path d="M65.3684 59.0878V62.1514C66.7854 61.2632 67.7933 60.2254 68.3721 59.1377V56.0742C67.7933 57.1619 66.7854 58.1997 65.3684 59.0878Z" fill="#E1E1E1"/>
<path d="M68.3821 56.0742V59.1377C68.7912 58.3693 68.9908 57.581 68.9908 56.7827V53.7191C68.9908 54.5075 68.7912 55.3058 68.3821 56.0742Z" fill="#E1E1E1"/>
</g>
<path d="M45.8496 48.2007C40.5308 51.2743 40.5108 56.2438 45.7897 59.3174C51.0686 62.3909 59.6605 62.3909 64.9793 59.3174C70.2982 56.2438 70.3281 51.2743 65.0392 48.2007C59.7603 45.1272 51.1684 45.1272 45.8496 48.2007Z" fill="#F1F1F1"/>
<path d="M42.2273 48.4901V52.9208C42.2473 54.8667 43.5246 56.8026 46.0792 58.2895C51.2184 61.2732 59.5708 61.2732 64.7399 58.2895C67.3444 56.7827 68.6417 54.8168 68.6317 52.8509V48.4302C68.6317 50.3961 67.3245 52.3719 64.72 53.8688C59.5508 56.8525 51.1984 56.8525 46.0592 53.8688C43.5046 52.3819 42.2273 50.446 42.2273 48.5001V48.4901Z" fill="#68B29C"/>
<mask id="mask8_445_126088" style="mask-type:luminance" maskUnits="userSpaceOnUse" x="42" y="48" width="27" height="13">
<path d="M42.2273 48.4901V52.9208C42.2473 54.8667 43.5246 56.8026 46.0792 58.2895C51.2184 61.2732 59.5708 61.2732 64.7399 58.2895C67.3444 56.7827 68.6417 54.8168 68.6317 52.8509V48.4302C68.6317 50.3961 67.3245 52.3719 64.72 53.8688C59.5508 56.8525 51.1984 56.8525 46.0592 53.8688C43.5046 52.3819 42.2273 50.446 42.2273 48.5001V48.4901Z" fill="white"/>
</mask>
<g mask="url(#mask8_445_126088)">
<path d="M42.2273 48.4901V52.9208C42.2473 54.8667 43.5246 56.8026 46.0792 58.2895C47.0871 58.8783 48.2247 59.3473 49.4421 59.7065V55.2858C48.2147 54.9266 47.0771 54.4576 46.0692 53.8688C43.5146 52.3819 42.2373 50.446 42.2373 48.5001H42.2273V48.4901Z" fill="#68B29C"/>
<path d="M49.4221 55.2759V59.6966C51.2084 60.2155 53.1443 60.4949 55.0902 60.5149V56.0942C53.1343 56.0642 51.1884 55.7948 49.4221 55.2759Z" fill="#97FDDF"/>
<path d="M55.0803 56.0942V60.5149C58.563 60.5648 62.0756 59.8164 64.73 58.2796C64.8597 58.1998 64.9895 58.1299 65.1092 58.0501V53.6194C64.9695 53.6992 64.8498 53.7691 64.72 53.8489C62.0556 55.3857 58.553 56.1341 55.0803 56.0842V56.0942Z" fill="#96E1CB"/>
<path d="M65.0991 53.6293V58.06C66.4962 57.1918 67.4641 56.1939 68.0329 55.1362V50.7155C67.4542 51.7732 66.4762 52.7811 65.0991 53.6393V53.6293Z" fill="#97FDDF"/>
<path d="M68.0229 50.7055V55.1262C68.4321 54.3877 68.6317 53.6094 68.6317 52.841V48.4203C68.6217 49.1887 68.4221 49.967 68.0229 50.7055Z" fill="#97FDDF"/>
</g>
<path d="M46.119 43.0515C40.9499 46.0352 40.92 50.8751 46.0591 53.8588C51.1983 56.8425 59.5508 56.8425 64.7199 53.8588C69.889 50.8751 69.9189 46.0352 64.7798 43.0515C59.6406 40.0678 51.2881 40.0678 46.119 43.0515Z" fill="#96E1CB"/>
<path d="M41.8479 45.207V48.2706C41.8479 50.2664 43.1651 52.2622 45.7896 53.789C51.0685 56.8625 59.6604 56.8625 64.9792 53.789C67.6536 52.2422 68.9908 50.2165 68.9808 48.1908V45.1272C68.9808 47.1529 67.6536 49.1787 64.9792 50.7254C59.6604 53.799 51.0685 53.799 45.7896 50.7254C43.1651 49.1986 41.8479 47.2028 41.8479 45.207Z" fill="#F1F1F1"/>
<mask id="mask9_445_126088" style="mask-type:luminance" maskUnits="userSpaceOnUse" x="41" y="45" width="28" height="12">
<path d="M41.8479 45.207V48.2706C41.8479 50.2664 43.1651 52.2622 45.7896 53.789C51.0685 56.8625 59.6604 56.8625 64.9792 53.789C67.6536 52.2422 68.9908 50.2165 68.9808 48.1908V45.1272C68.9808 47.1529 67.6536 49.1787 64.9792 50.7254C59.6604 53.799 51.0685 53.799 45.7896 50.7254C43.1651 49.1986 41.8479 47.2028 41.8479 45.207Z" fill="white"/>
</mask>
<g mask="url(#mask9_445_126088)">
<path d="M41.8479 45.207V48.2706C41.8479 50.2664 43.1651 52.2622 45.7896 53.789C46.8274 54.3977 47.995 54.8767 49.2423 55.2459V52.1824C47.995 51.8131 46.8274 51.3342 45.7896 50.7254C43.1651 49.1986 41.8479 47.2028 41.8479 45.207Z" fill="#E1E1E1"/>
<path d="M49.2424 52.1824V55.2459C51.0686 55.7848 53.0644 56.0642 55.0602 56.0941V53.0306C53.0544 53.0007 51.0686 52.7212 49.2424 52.1824Z" fill="#E1E1E1"/>
<path d="M55.0701 53.0306V56.0941C58.6426 56.144 62.245 55.3756 64.9792 53.789C65.1089 53.7091 65.2387 53.6293 65.3684 53.5495V50.4859C65.2387 50.5657 65.1089 50.6456 64.9792 50.7254C62.245 52.3021 58.6426 53.0705 55.0701 53.0306Z" fill="#F1F1F1"/>
<path d="M65.3684 50.4959V53.5595C66.7854 52.6713 67.7933 51.6335 68.3721 50.5458V47.4822C67.7933 48.57 66.7854 49.6078 65.3684 50.4959Z" fill="#E1E1E1"/>
<path d="M68.3821 47.4822V50.5458C68.7912 49.7774 68.9908 48.9891 68.9908 48.1908V45.1272C68.9908 45.9155 68.7912 46.7139 68.3821 47.4822Z" fill="#E1E1E1"/>
</g>
<path d="M45.8496 39.6088C40.5308 42.6823 40.5108 47.6519 45.7897 50.7254C51.0686 53.799 59.6605 53.799 64.9793 50.7254C70.2982 47.6519 70.3281 42.6823 65.0392 39.6088C59.7603 36.5353 51.1684 36.5353 45.8496 39.6088Z" fill="#F1F1F1"/>
<path d="M42.2273 39.9281V44.3488C42.2473 46.2947 43.5246 48.2307 46.0792 49.7176C51.2184 52.7013 59.5708 52.7013 64.7399 49.7176C67.3444 48.2107 68.6417 46.2449 68.6317 44.279V39.8583C68.6317 41.8241 67.3245 43.8 64.72 45.2968C59.5508 48.2806 51.1984 48.2806 46.0592 45.2968C43.5046 43.81 42.2273 41.874 42.2273 39.9281Z" fill="#68B29C"/>
<mask id="mask10_445_126088" style="mask-type:luminance" maskUnits="userSpaceOnUse" x="42" y="39" width="27" height="13">
<path d="M42.2273 39.9281V44.3488C42.2473 46.2947 43.5246 48.2307 46.0792 49.7176C51.2184 52.7013 59.5708 52.7013 64.7399 49.7176C67.3444 48.2107 68.6417 46.2449 68.6317 44.279V39.8583C68.6317 41.8241 67.3245 43.8 64.72 45.2968C59.5508 48.2806 51.1984 48.2806 46.0592 45.2968C43.5046 43.81 42.2273 41.874 42.2273 39.9281Z" fill="white"/>
</mask>
<g mask="url(#mask10_445_126088)">
<path d="M42.2273 39.9281V44.3488C42.2473 46.2947 43.5246 48.2307 46.0792 49.7176C47.0871 50.3063 48.2247 50.7753 49.4421 51.1346V46.7039C48.2147 46.3446 47.0771 45.8756 46.0692 45.2869C43.5146 43.8 42.2373 41.8641 42.2373 39.9182H42.2273V39.9281Z" fill="#68B29C"/>
<path d="M49.4221 46.7139V51.1446C51.2084 51.6635 53.1443 51.9429 55.0902 51.9628V47.5421C53.1343 47.5122 51.1884 47.2428 49.4221 46.7238V46.7139Z" fill="#97FDDF"/>
<path d="M55.0803 47.5321V51.9528C58.563 52.0027 62.0756 51.2543 64.73 49.7175C64.8597 49.6377 64.9895 49.5679 65.1092 49.488V45.0673C64.9695 45.1472 64.8498 45.217 64.72 45.2968C62.0556 46.8336 58.553 47.582 55.0803 47.5321Z" fill="#96E1CB"/>
<path d="M65.0991 45.0673V49.4881C66.4962 48.6199 67.4641 47.622 68.0329 46.5642V42.1435C67.4542 43.2013 66.4762 44.2092 65.0991 45.0673Z" fill="#97FDDF"/>
<path d="M68.0229 42.1435V46.5642C68.4321 45.8257 68.6317 45.0474 68.6317 44.279V39.8583C68.6217 40.6267 68.4221 41.395 68.0229 42.1435Z" fill="#97FDDF"/>
</g>
<path d="M46.119 34.4896C40.9499 37.4733 40.92 42.3131 46.0591 45.2968C51.1983 48.2806 59.5508 48.2806 64.7199 45.2968C69.889 42.3131 69.9189 37.4733 64.7798 34.4896C59.6406 31.5058 51.2881 31.5058 46.119 34.4896Z" fill="#96E1CB"/>
<path d="M41.8479 36.645V39.7086C41.8479 41.7044 43.1651 43.7002 45.7896 45.227C51.0685 48.3005 59.6604 48.3005 64.9792 45.227C67.6536 43.6802 68.9908 41.6545 68.9808 39.6287V36.5652C68.9808 38.5909 67.6536 40.6167 64.9792 42.1634C59.6604 45.237 51.0685 45.237 45.7896 42.1634C43.1651 40.6366 41.8479 38.6408 41.8479 36.645Z" fill="#F1F1F1"/>
<mask id="mask11_445_126088" style="mask-type:luminance" maskUnits="userSpaceOnUse" x="41" y="36" width="28" height="12">
<path d="M41.8479 36.645V39.7086C41.8479 41.7044 43.1651 43.7002 45.7896 45.227C51.0685 48.3005 59.6604 48.3005 64.9792 45.227C67.6536 43.6802 68.9908 41.6545 68.9808 39.6287V36.5652C68.9808 38.5909 67.6536 40.6167 64.9792 42.1634C59.6604 45.237 51.0685 45.237 45.7896 42.1634C43.1651 40.6366 41.8479 38.6408 41.8479 36.645Z" fill="white"/>
</mask>
<g mask="url(#mask11_445_126088)">
<path d="M41.8479 36.645V39.7086C41.8479 41.7044 43.1651 43.7002 45.7896 45.227C46.8274 45.8357 47.995 46.3147 49.2423 46.6839V43.6204C47.995 43.2511 46.8274 42.7721 45.7896 42.1634C43.1651 40.6366 41.8479 38.6408 41.8479 36.645Z" fill="#E1E1E1"/>
<path d="M49.2424 43.6204V46.6839C51.0686 47.2228 53.0644 47.5022 55.0602 47.5321V44.4686C53.0544 44.4386 51.0686 44.1592 49.2424 43.6204Z" fill="#E1E1E1"/>
<path d="M55.0701 44.4685V47.5321C58.6426 47.582 62.245 46.8136 64.9792 45.2269C65.1089 45.1471 65.2387 45.0673 65.3684 44.9875V41.9239C65.2387 42.0037 65.1089 42.0836 64.9792 42.1634C62.245 43.7401 58.6426 44.5085 55.0701 44.4685Z" fill="#F1F1F1"/>
<path d="M65.3684 41.9339V44.9975C66.7854 44.1093 67.7933 43.0715 68.3721 41.9838V38.9202C67.7933 40.0079 66.7854 41.0458 65.3684 41.9339Z" fill="#E1E1E1"/>
<path d="M68.3821 38.9202V41.9838C68.7912 41.2154 68.9908 40.4271 68.9908 39.6287V36.5652C68.9908 37.3535 68.7912 38.1518 68.3821 38.9202Z" fill="#E1E1E1"/>
</g>
<path d="M45.8496 31.0468C40.5308 34.1203 40.5108 39.0899 45.7897 42.1634C51.0686 45.237 59.6605 45.237 64.9793 42.1634C70.2982 39.0899 70.3281 34.1203 65.0392 31.0468C59.7603 27.9733 51.1684 27.9733 45.8496 31.0468Z" fill="#F1F1F1"/>
<path d="M42.2273 31.1865V35.6171C42.2473 37.5631 43.5246 39.499 46.0792 40.9859C51.2184 43.9696 59.5708 43.9696 64.7399 40.9859C67.3444 39.479 68.6417 37.5132 68.6317 35.5473V31.1266C68.6317 33.0925 67.3245 35.0683 64.72 36.5652C59.5508 39.5489 51.1984 39.5489 46.0592 36.5652C43.5046 35.0683 42.2273 33.1224 42.2273 31.1865Z" fill="#68B29C"/>
<mask id="mask12_445_126088" style="mask-type:luminance" maskUnits="userSpaceOnUse" x="42" y="31" width="27" height="13">
<path d="M42.2273 31.1865V35.6171C42.2473 37.5631 43.5246 39.499 46.0792 40.9859C51.2184 43.9696 59.5708 43.9696 64.7399 40.9859C67.3444 39.479 68.6417 37.5132 68.6317 35.5473V31.1266C68.6317 33.0925 67.3245 35.0683 64.72 36.5652C59.5508 39.5489 51.1984 39.5489 46.0592 36.5652C43.5046 35.0683 42.2273 33.1224 42.2273 31.1865Z" fill="white"/>
</mask>
<g mask="url(#mask12_445_126088)">
<path d="M42.2273 31.1865V35.6171C42.2473 37.5631 43.5246 39.499 46.0792 40.9859C47.0871 41.5746 48.2247 42.0436 49.4421 42.4029V37.9822C48.2147 37.6229 47.0771 37.1539 46.0692 36.5652C43.5046 35.0683 42.2273 33.1224 42.2273 31.1865Z" fill="#68B29C"/>
<path d="M49.4221 37.9622V42.3829C51.2084 42.9018 53.1443 43.1812 55.0902 43.2012V38.7705C53.1343 38.7406 51.1884 38.4711 49.4221 37.9522V37.9622Z" fill="#97FDDF"/>
<path d="M55.0803 38.7905V43.2212C58.563 43.2711 62.0756 42.5227 64.73 40.9859C64.8597 40.9061 64.9895 40.8362 65.1092 40.7564V36.3257C64.9695 36.4055 64.8498 36.4754 64.72 36.5552C62.0556 38.092 58.553 38.8404 55.0803 38.7905Z" fill="#96E1CB"/>
<path d="M65.0991 36.3257V40.7564C66.4962 39.8882 67.4641 38.8903 68.0329 37.8325V33.4118C67.4542 34.4696 66.4762 35.4775 65.0991 36.3357V36.3257Z" fill="#97FDDF"/>
<path d="M68.0229 33.3918V37.8125C68.4321 37.0741 68.6317 36.2957 68.6317 35.5273V31.1066C68.6217 31.875 68.4221 32.6534 68.0229 33.3918Z" fill="#97FDDF"/>
</g>
<path d="M46.119 25.7379C40.9499 28.7216 40.92 33.5615 46.0591 36.5452C51.1983 39.5289 59.5508 39.5289 64.7199 36.5452C69.889 33.5615 69.9189 28.7216 64.7798 25.7379C59.6406 22.7542 51.2881 22.7542 46.119 25.7379Z" fill="#96E1CB"/>
<path d="M41.8479 27.8934V30.957C41.8479 32.9528 43.1651 34.9486 45.7896 36.4754C51.0685 39.5489 59.6604 39.5489 64.9792 36.4754C67.6536 34.9286 68.9908 32.9029 68.9808 30.8772V27.8136C68.9808 29.8393 67.6536 31.8651 64.9792 33.4118C59.6604 36.4854 51.0685 36.4854 45.7896 33.4118C43.1651 31.895 41.8479 29.8992 41.8479 27.8934Z" fill="#F1F1F1"/>
<mask id="mask13_445_126088" style="mask-type:luminance" maskUnits="userSpaceOnUse" x="41" y="27" width="28" height="12">
<path d="M41.8479 27.8934V30.957C41.8479 32.9528 43.1651 34.9486 45.7896 36.4754C51.0685 39.5489 59.6604 39.5489 64.9792 36.4754C67.6536 34.9286 68.9908 32.9029 68.9808 30.8772V27.8136C68.9808 29.8393 67.6536 31.8651 64.9792 33.4118C59.6604 36.4854 51.0685 36.4854 45.7896 33.4118C43.1651 31.895 41.8479 29.8992 41.8479 27.8934Z" fill="white"/>
</mask>
<g mask="url(#mask13_445_126088)">
<path d="M41.8479 27.8934V30.957C41.8479 32.9528 43.1651 34.9486 45.7896 36.4754C46.8274 37.0841 47.995 37.5631 49.2423 37.9323V34.8688C47.995 34.4995 46.8274 34.0206 45.7896 33.4118C43.1651 31.895 41.8479 29.8992 41.8479 27.8934Z" fill="#E1E1E1"/>
<path d="M49.2424 34.8787V37.9423C51.0686 38.4811 53.0644 38.7606 55.0602 38.7905V35.7269C53.0544 35.697 51.0686 35.4176 49.2424 34.8787Z" fill="#E1E1E1"/>
<path d="M55.0701 35.717V38.7806C58.6426 38.8305 62.245 38.0621 64.9792 36.4754C65.1089 36.3956 65.2387 36.3158 65.3684 36.2359V33.1724C65.2387 33.2522 65.1089 33.332 64.9792 33.4119C62.245 34.9885 58.6426 35.7569 55.0701 35.717Z" fill="#F1F1F1"/>
<path d="M65.3684 33.1823V36.2459C66.7854 35.3577 67.7933 34.3199 68.3721 33.2322V30.1686C67.7933 31.2564 66.7854 32.2942 65.3684 33.1823Z" fill="#E1E1E1"/>
<path d="M68.3821 30.1686V33.2322C68.7912 32.4638 68.9908 31.6755 68.9908 30.8772V27.8136C68.9908 28.6019 68.7912 29.4003 68.3821 30.1686Z" fill="#E1E1E1"/>
</g>
<path d="M45.8496 22.3052C40.5308 25.3787 40.5108 30.3482 45.7897 33.4218C51.0686 36.4953 59.6605 36.4953 64.9793 33.4218C70.2982 30.3482 70.3281 25.3787 65.0392 22.3052C59.7603 19.2316 51.1684 19.2316 45.8496 22.3052Z" fill="#F1F1F1"/>
<path d="M47.0571 23.5925C42.4069 25.9475 42.3869 29.7695 47.0072 32.1245C51.6275 34.4796 59.1317 34.4796 63.7819 32.1245C68.4321 29.7695 68.4521 25.9475 63.8418 23.5925C59.2215 21.2374 51.7073 21.2374 47.0671 23.5925H47.0571Z" fill="#F1F1F1"/>
<path d="M43.2151 27.8834C43.2151 27.9633 43.2151 28.0331 43.2251 28.1129C43.3348 29.5998 44.5024 31.0967 46.4782 32.2343C48.7934 33.5814 52.0365 34.3498 55.3695 34.3498C58.7025 34.3498 61.9257 33.6014 64.2907 32.2343C66.2965 31.0767 67.494 29.5699 67.6038 28.063C67.6038 27.9832 67.6137 27.9134 67.6137 27.8335C67.6137 26.2768 66.4262 24.6901 64.3506 23.4827C62.0355 22.1355 58.7923 21.3671 55.4593 21.3671C52.1263 21.3671 48.9031 22.1156 46.5381 23.4827C44.4325 24.7001 43.2151 26.2968 43.2151 27.8734V27.8834ZM44.2828 28.1229C44.2828 28.0431 44.2729 27.9633 44.2729 27.8934C44.2729 26.7059 45.2907 25.4386 47.067 24.4107C49.2723 23.1334 52.2561 22.4349 55.4693 22.4349C58.6825 22.4349 61.6762 23.1534 63.8317 24.4107C65.5681 25.4186 66.566 26.676 66.566 27.8535C66.566 27.9233 66.566 28.0032 66.556 28.073C66.556 28.1529 66.566 28.2327 66.566 28.3025C66.566 29.4901 65.5481 30.7574 63.7718 31.7852C61.5665 33.0625 58.5828 33.7611 55.3795 33.7611C52.1762 33.7611 49.1726 33.0426 47.0171 31.7852C45.2708 30.7674 44.2729 29.52 44.2828 28.3425C44.2828 28.2726 44.2828 28.1928 44.2928 28.1229H44.2828Z" fill="#B3B3B3"/>
<path d="M43.2251 28.113C43.3349 29.5998 44.5024 31.0967 46.4783 32.2343C48.7934 33.5815 52.0366 34.3498 55.3695 34.3498C58.7025 34.3498 61.9258 33.6014 64.2908 32.2343C66.2966 31.0767 67.494 29.5699 67.6038 28.0631C67.494 26.5762 66.3265 25.0893 64.3506 23.9417C62.0355 22.5946 58.7923 21.8262 55.4594 21.8262C52.1264 21.8262 48.9032 22.5746 46.5381 23.9417C44.5323 25.0993 43.3349 26.6061 43.2251 28.103V28.113ZM44.2729 28.3425C44.2729 28.2726 44.2729 28.1928 44.2829 28.1229C44.2829 28.0431 44.2729 27.9633 44.2729 27.8934C44.2729 26.7059 45.2908 25.4386 47.067 24.4107C49.2724 23.1334 52.2561 22.4349 55.4693 22.4349C58.6826 22.4349 61.6763 23.1534 63.8317 24.4107C65.5681 25.4186 66.566 26.676 66.566 27.8535C66.566 27.9234 66.566 28.0032 66.556 28.073C66.556 28.1529 66.566 28.2327 66.566 28.3026C66.566 29.4901 65.5481 30.7574 63.7719 31.7852C61.5665 33.0625 58.5828 33.7611 55.3795 33.7611C52.1763 33.7611 49.1726 33.0426 47.0171 31.7852C45.2708 30.7674 44.2729 29.52 44.2829 28.3425H44.2729Z" fill="#97FDDF"/>
</g>
<g clip-path="url(#clip2_445_126088)">
<path d="M25.78 62.3916V65.7235C25.78 67.8941 27.2126 70.0647 30.067 71.7252C35.8082 75.068 45.1527 75.068 50.9374 71.7252C53.846 70.043 55.3003 67.8398 55.2895 65.6366V62.3047C55.2895 64.5079 53.846 66.7111 50.9374 68.3933C45.1527 71.7361 35.8082 71.7361 30.067 68.3933C27.2126 66.7328 25.78 64.5622 25.78 62.3916Z" fill="#F1F1F1"/>
<mask id="mask14_445_126088" style="mask-type:luminance" maskUnits="userSpaceOnUse" x="25" y="62" width="31" height="13">
<path d="M25.78 62.3916V65.7235C25.78 67.8941 27.2126 70.0647 30.067 71.7252C35.8082 75.068 45.1527 75.068 50.9374 71.7252C53.846 70.043 55.3003 67.8398 55.2895 65.6366V62.3047C55.2895 64.5079 53.846 66.7111 50.9374 68.3933C45.1527 71.7361 35.8082 71.7361 30.067 68.3933C27.2126 66.7328 25.78 64.5622 25.78 62.3916Z" fill="white"/>
</mask>
<g mask="url(#mask14_445_126088)">
<path d="M25.78 62.3915V65.7234C25.78 67.894 27.2126 70.0647 30.067 71.7252C31.1957 72.3872 32.4655 72.9082 33.8221 73.3097V69.9778C32.4655 69.5763 31.1957 69.0553 30.067 68.3933C27.2126 66.7328 25.78 64.5622 25.78 62.3915Z" fill="#E1E1E1"/>
<path d="M33.822 69.9778V73.3097C35.8081 73.8958 37.9787 74.1997 40.1493 74.2322V70.9004C37.9679 70.8678 35.8081 70.5639 33.822 69.9778Z" fill="#E1E1E1"/>
<path d="M40.1604 70.9004V74.2323C44.0458 74.2866 47.9637 73.4509 50.9375 71.7252C51.0786 71.6384 51.2197 71.5516 51.3607 71.4648V68.1329C51.2197 68.2197 51.0786 68.3065 50.9375 68.3933C47.9637 70.1081 44.0458 70.9438 40.1604 70.9004Z" fill="#F1F1F1"/>
<path d="M51.3606 68.1437V71.4756C52.9017 70.5097 53.9979 69.381 54.6274 68.198V64.8661C53.9979 66.0491 52.9017 67.1778 51.3606 68.1437Z" fill="#E1E1E1"/>
<path d="M54.6382 64.8661V68.198C55.0832 67.3623 55.3002 66.5049 55.3002 65.6366V62.3047C55.3002 63.1621 55.0832 64.0304 54.6382 64.8661Z" fill="#E1E1E1"/>
</g>
<path d="M30.1322 56.303C24.3475 59.6458 24.3258 65.0506 30.0671 68.3933C35.8083 71.7361 45.1528 71.7361 50.9375 68.3933C56.7222 65.0506 56.7547 59.6458 51.0026 56.303C45.2613 52.9603 35.9169 52.9603 30.1322 56.303Z" fill="#F1F1F1"/>
<path d="M26.1924 56.6178V61.4366C26.2141 63.5529 27.6033 65.6584 30.3817 67.2755C35.971 70.5206 45.055 70.5206 50.6769 67.2755C53.5095 65.6367 54.9204 63.4986 54.9095 61.3606V56.5527C54.9095 58.6907 53.4878 60.8396 50.6552 62.4676C45.0333 65.7127 35.9493 65.7127 30.36 62.4676C27.5816 60.8505 26.1924 58.745 26.1924 56.6286V56.6178Z" fill="#68B29C"/>
<mask id="mask15_445_126088" style="mask-type:luminance" maskUnits="userSpaceOnUse" x="26" y="56" width="29" height="14">
<path d="M26.1924 56.6178V61.4366C26.2141 63.5529 27.6033 65.6584 30.3817 67.2755C35.971 70.5206 45.055 70.5206 50.6769 67.2755C53.5095 65.6367 54.9204 63.4986 54.9095 61.3606V56.5527C54.9095 58.6907 53.4878 60.8396 50.6552 62.4676C45.0333 65.7127 35.9493 65.7127 30.36 62.4676C27.5816 60.8505 26.1924 58.745 26.1924 56.6286V56.6178Z" fill="white"/>
</mask>
<g mask="url(#mask15_445_126088)">
<path d="M26.1924 56.6178V61.4366C26.2141 63.5529 27.6033 65.6584 30.3817 67.2755C31.4778 67.9158 32.7151 68.4259 34.0391 68.8166V64.0087C32.7042 63.618 31.467 63.1079 30.3708 62.4676C27.5924 60.8505 26.2032 58.745 26.2032 56.6287H26.1924V56.6178Z" fill="#68B29C"/>
<path d="M34.0173 63.9979V68.8058C35.96 69.3701 38.0655 69.674 40.1819 69.6957V64.8878C38.0547 64.8553 35.9383 64.5622 34.0173 63.9979Z" fill="#97FDDF"/>
<path d="M40.1711 64.8878V69.6957C43.9589 69.75 47.7791 68.936 50.666 67.2646C50.8071 67.1778 50.9482 67.1018 51.0785 67.015V62.1962C50.9265 62.2831 50.7963 62.359 50.6552 62.4458C47.7574 64.1172 43.948 64.9312 40.1711 64.8769V64.8878Z" fill="#96E1CB"/>
<path d="M51.0676 62.2071V67.0259C52.5871 66.0817 53.6398 64.9964 54.2584 63.8459V59.038C53.6289 60.1884 52.5653 61.2846 51.0676 62.218V62.2071Z" fill="#97FDDF"/>
<path d="M54.2476 59.0272V63.8351C54.6925 63.0319 54.9096 62.1854 54.9096 61.3497V56.5418C54.8987 57.3775 54.6817 58.224 54.2476 59.0272Z" fill="#97FDDF"/>
</g>
<path d="M30.4251 50.7028C24.8032 53.9479 24.7706 59.2116 30.36 62.4567C35.9493 65.7018 45.0333 65.7018 50.6552 62.4567C56.277 59.2116 56.3096 53.9479 50.7203 50.7028C45.131 47.4578 36.047 47.4578 30.4251 50.7028Z" fill="#96E1CB"/>
<path d="M25.78 53.0471V56.379C25.78 58.5496 27.2126 60.7202 30.067 62.3807C35.8082 65.7235 45.1527 65.7235 50.9374 62.3807C53.846 60.6985 55.3003 58.4953 55.2895 56.2922V52.9603C55.2895 55.1634 53.846 57.3666 50.9374 59.0488C45.1527 62.3916 35.8082 62.3916 30.067 59.0488C27.2126 57.3883 25.78 55.2177 25.78 53.0471Z" fill="#F1F1F1"/>
<mask id="mask16_445_126088" style="mask-type:luminance" maskUnits="userSpaceOnUse" x="25" y="52" width="31" height="13">
<path d="M25.78 53.0471V56.379C25.78 58.5496 27.2126 60.7202 30.067 62.3807C35.8082 65.7235 45.1527 65.7235 50.9374 62.3807C53.846 60.6985 55.3003 58.4953 55.2895 56.2922V52.9603C55.2895 55.1634 53.846 57.3666 50.9374 59.0488C45.1527 62.3916 35.8082 62.3916 30.067 59.0488C27.2126 57.3883 25.78 55.2177 25.78 53.0471Z" fill="white"/>
</mask>
<g mask="url(#mask16_445_126088)">
<path d="M25.78 53.0471V56.379C25.78 58.5496 27.2126 60.7202 30.067 62.3808C31.1957 63.0428 32.4655 63.5637 33.8221 63.9653V60.6334C32.4655 60.2318 31.1957 59.7109 30.067 59.0489C27.2126 57.3883 25.78 55.2177 25.78 53.0471Z" fill="#E1E1E1"/>
<path d="M33.822 60.6334V63.9653C35.8081 64.5513 37.9787 64.8552 40.1493 64.8878V61.5559C37.9679 61.5233 35.8081 61.2194 33.822 60.6334Z" fill="#E1E1E1"/>
<path d="M40.1604 61.5559V64.8878C44.0458 64.9421 47.9637 64.1064 50.9375 62.3808C51.0786 62.2939 51.2197 62.2071 51.3607 62.1203V58.7884C51.2197 58.8752 51.0786 58.962 50.9375 59.0489C47.9637 60.7637 44.0458 61.5993 40.1604 61.5559Z" fill="#F1F1F1"/>
<path d="M51.3606 58.7992V62.1311C52.9017 61.1652 53.9979 60.0365 54.6274 58.8535V55.5216C53.9979 56.7046 52.9017 57.8333 51.3606 58.7992Z" fill="#E1E1E1"/>
<path d="M54.6382 55.5216V58.8535C55.0832 58.0178 55.3002 57.1604 55.3002 56.2922V52.9603C55.3002 53.8177 55.0832 54.6859 54.6382 55.5216Z" fill="#E1E1E1"/>
</g>
<path d="M30.1322 46.9585C24.3475 50.3013 24.3258 55.7061 30.0671 59.0489C35.8083 62.3916 45.1528 62.3916 50.9375 59.0489C56.7222 55.7061 56.7547 50.3013 51.0026 46.9585C45.2613 43.6158 35.9169 43.6158 30.1322 46.9585Z" fill="#F1F1F1"/>
<path d="M26.1924 47.3058V52.1137C26.2141 54.2301 27.6033 56.3356 30.3817 57.9527C35.971 61.1978 45.055 61.1978 50.6769 57.9527C53.5095 56.3139 54.9204 54.1758 54.9095 52.0378V47.2299C54.9095 49.3679 53.4878 51.5168 50.6552 53.1448C45.0333 56.3898 35.9493 56.3898 30.36 53.1448C27.5816 51.5277 26.1924 49.4222 26.1924 47.3058Z" fill="#68B29C"/>
<mask id="mask17_445_126088" style="mask-type:luminance" maskUnits="userSpaceOnUse" x="26" y="47" width="29" height="14">
<path d="M26.1924 47.3058V52.1137C26.2141 54.2301 27.6033 56.3356 30.3817 57.9527C35.971 61.1978 45.055 61.1978 50.6769 57.9527C53.5095 56.3139 54.9204 54.1758 54.9095 52.0378V47.2299C54.9095 49.3679 53.4878 51.5168 50.6552 53.1448C45.0333 56.3898 35.9493 56.3898 30.36 53.1448C27.5816 51.5277 26.1924 49.4222 26.1924 47.3058Z" fill="white"/>
</mask>
<g mask="url(#mask17_445_126088)">
<path d="M26.1924 47.3058V52.1137C26.2141 54.2301 27.6033 56.3356 30.3817 57.9527C31.4778 58.593 32.7151 59.1031 34.0391 59.4938V54.6751C32.7042 54.2844 31.467 53.7743 30.3708 53.1339C27.5924 51.5168 26.2032 49.4113 26.2032 47.295H26.1924V47.3058Z" fill="#68B29C"/>
<path d="M34.0173 54.6859V59.5047C35.96 60.069 38.0655 60.3729 40.1819 60.3946V55.5867C38.0547 55.5542 35.9383 55.2611 34.0173 54.6968V54.6859Z" fill="#97FDDF"/>
<path d="M40.1711 55.5758V60.3838C43.9589 60.438 47.7791 59.624 50.666 57.9527C50.8071 57.8658 50.9482 57.7899 51.0785 57.703V52.8951C50.9265 52.982 50.7963 53.0579 50.6552 53.1448C47.7574 54.8161 43.948 55.6301 40.1711 55.5758Z" fill="#96E1CB"/>
<path d="M51.0676 52.8952V57.7031C52.5871 56.7588 53.6398 55.6735 54.2584 54.5231V49.7152C53.6289 50.8656 52.5653 51.9618 51.0676 52.8952Z" fill="#97FDDF"/>
<path d="M54.2476 49.7152V54.5231C54.6925 53.72 54.9096 52.8735 54.9096 52.0378V47.2299C54.8987 48.0655 54.6817 48.9012 54.2476 49.7152Z" fill="#97FDDF"/>
</g>
<path d="M30.4251 41.3909C24.8032 44.636 24.7706 49.8997 30.36 53.1448C35.9493 56.3898 45.0333 56.3898 50.6552 53.1448C56.277 49.8997 56.3096 44.636 50.7203 41.3909C45.131 38.1458 36.047 38.1458 30.4251 41.3909Z" fill="#96E1CB"/>
<path d="M25.78 43.7351V47.067C25.78 49.2376 27.2126 51.4083 30.067 53.0688C35.8082 56.4115 45.1527 56.4115 50.9374 53.0688C53.846 51.3866 55.3003 49.1834 55.2895 46.9802V43.6483C55.2895 45.8515 53.846 48.0547 50.9374 49.7369C45.1527 53.0796 35.8082 53.0796 30.067 49.7369C27.2126 48.0764 25.78 45.9058 25.78 43.7351Z" fill="#F1F1F1"/>
<mask id="mask18_445_126088" style="mask-type:luminance" maskUnits="userSpaceOnUse" x="25" y="43" width="31" height="13">
<path d="M25.78 43.7351V47.067C25.78 49.2376 27.2126 51.4083 30.067 53.0688C35.8082 56.4115 45.1527 56.4115 50.9374 53.0688C53.846 51.3866 55.3003 49.1834 55.2895 46.9802V43.6483C55.2895 45.8515 53.846 48.0547 50.9374 49.7369C45.1527 53.0796 35.8082 53.0796 30.067 49.7369C27.2126 48.0764 25.78 45.9058 25.78 43.7351Z" fill="white"/>
</mask>
<g mask="url(#mask18_445_126088)">
<path d="M25.78 43.7352V47.0671C25.78 49.2377 27.2126 51.4083 30.067 53.0688C31.1957 53.7308 32.4655 54.2518 33.8221 54.6534V51.3215C32.4655 50.9199 31.1957 50.399 30.067 49.7369C27.2126 48.0764 25.78 45.9058 25.78 43.7352Z" fill="#E1E1E1"/>
<path d="M33.822 51.3214V54.6533C35.8081 55.2394 37.9787 55.5433 40.1493 55.5758V52.2439C37.9679 52.2114 35.8081 51.9075 33.822 51.3214Z" fill="#E1E1E1"/>
<path d="M40.1604 52.244V55.5759C44.0458 55.6301 47.9637 54.7944 50.9375 53.0688C51.0786 52.982 51.2197 52.8952 51.3607 52.8083V49.4764C51.2197 49.5633 51.0786 49.6501 50.9375 49.7369C47.9637 51.4517 44.0458 52.2874 40.1604 52.244Z" fill="#F1F1F1"/>
<path d="M51.3606 49.4873V52.8192C52.9017 51.8533 53.9979 50.7245 54.6274 49.5415V46.2097C53.9979 47.3926 52.9017 48.5214 51.3606 49.4873Z" fill="#E1E1E1"/>
<path d="M54.6382 46.2096V49.5415C55.0832 48.7058 55.3002 47.8485 55.3002 46.9802V43.6483C55.3002 44.5057 55.0832 45.374 54.6382 46.2096Z" fill="#E1E1E1"/>
</g>
<path d="M30.1322 37.6466C24.3475 40.9893 24.3258 46.3942 30.0671 49.7369C35.8083 53.0796 45.1528 53.0796 50.9375 49.7369C56.7222 46.3942 56.7547 40.9893 51.0026 37.6466C45.2613 34.3038 35.9169 34.3038 30.1322 37.6466Z" fill="#F1F1F1"/>
<path d="M26.1924 37.7985V42.6173C26.2141 44.7336 27.6033 46.8391 30.3817 48.4562C35.971 51.7013 45.055 51.7013 50.6769 48.4562C53.5095 46.8174 54.9204 44.6794 54.9095 42.5413V37.7334C54.9095 39.8715 53.4878 42.0204 50.6552 43.6483C45.0333 46.8934 35.9493 46.8934 30.36 43.6483C27.5816 42.0204 26.1924 39.904 26.1924 37.7985Z" fill="#68B29C"/>
<mask id="mask19_445_126088" style="mask-type:luminance" maskUnits="userSpaceOnUse" x="26" y="37" width="29" height="14">
<path d="M26.1924 37.7985V42.6173C26.2141 44.7336 27.6033 46.8391 30.3817 48.4562C35.971 51.7013 45.055 51.7013 50.6769 48.4562C53.5095 46.8174 54.9204 44.6794 54.9095 42.5413V37.7334C54.9095 39.8715 53.4878 42.0204 50.6552 43.6483C45.0333 46.8934 35.9493 46.8934 30.36 43.6483C27.5816 42.0204 26.1924 39.904 26.1924 37.7985Z" fill="white"/>
</mask>
<g mask="url(#mask19_445_126088)">
<path d="M26.1924 37.7985V42.6173C26.2141 44.7336 27.6033 46.8391 30.3817 48.4562C31.4778 49.0966 32.7151 49.6067 34.0391 49.9974V45.1895C32.7042 44.7988 31.467 44.2887 30.3708 43.6483C27.5816 42.0204 26.1924 39.904 26.1924 37.7985Z" fill="#68B29C"/>
<path d="M34.0173 45.1677V49.9756C35.96 50.54 38.0655 50.8439 40.1819 50.8656V46.0468C38.0547 46.0143 35.9383 45.7212 34.0173 45.1569V45.1677Z" fill="#97FDDF"/>
<path d="M40.1711 46.0685V50.8873C43.9589 50.9416 47.7791 50.1276 50.666 48.4562C50.8071 48.3694 50.9482 48.2934 51.0785 48.2066V43.3878C50.9265 43.4746 50.7963 43.5506 50.6552 43.6374C47.7574 45.3088 43.948 46.1228 40.1711 46.0685Z" fill="#96E1CB"/>
<path d="M51.0676 43.3878V48.2066C52.5871 47.2624 53.6398 46.1771 54.2584 45.0267V40.2188C53.6289 41.3692 52.5653 42.4653 51.0676 43.3987V43.3878Z" fill="#97FDDF"/>
<path d="M54.2476 40.197V45.0049C54.6925 44.2018 54.9096 43.3553 54.9096 42.5196V37.7117C54.8987 38.5474 54.6817 39.3939 54.2476 40.197Z" fill="#97FDDF"/>
</g>
<path d="M30.4251 31.8728C24.8032 35.1178 24.7706 40.3816 30.36 43.6266C35.9493 46.8717 45.0333 46.8717 50.6552 43.6266C56.277 40.3816 56.3096 35.1178 50.7203 31.8728C45.131 28.6277 36.047 28.6277 30.4251 31.8728Z" fill="#96E1CB"/>
<path d="M25.78 34.217V37.5489C25.78 39.7195 27.2126 41.8901 30.067 43.5507C35.8082 46.8934 45.1527 46.8934 50.9374 43.5507C53.846 41.8684 55.3003 39.6653 55.2895 37.4621V34.1302C55.2895 36.3334 53.846 38.5365 50.9374 40.2188C45.1527 43.5615 35.8082 43.5615 30.067 40.2188C27.2126 38.5691 25.78 36.3985 25.78 34.217Z" fill="#E1E1E1"/>
<mask id="mask20_445_126088" style="mask-type:luminance" maskUnits="userSpaceOnUse" x="25" y="34" width="31" height="13">
<path d="M25.78 34.217V37.5489C25.78 39.7195 27.2126 41.8901 30.067 43.5507C35.8082 46.8934 45.1527 46.8934 50.9374 43.5507C53.846 41.8684 55.3003 39.6653 55.2895 37.4621V34.1302C55.2895 36.3334 53.846 38.5365 50.9374 40.2188C45.1527 43.5615 35.8082 43.5615 30.067 40.2188C27.2126 38.5691 25.78 36.3985 25.78 34.217Z" fill="white"/>
</mask>
<g mask="url(#mask20_445_126088)">
<path d="M25.78 34.217V37.5489C25.78 39.7195 27.2126 41.8902 30.067 43.5507C31.1957 44.2127 32.4655 44.7337 33.8221 45.1352V41.8033C32.4655 41.4018 31.1957 40.8808 30.067 40.2188C27.2126 38.5691 25.78 36.3985 25.78 34.217Z" fill="#E1E1E1"/>
<path d="M33.822 41.8141V45.146C35.8081 45.7321 37.9787 46.036 40.1493 46.0686V42.7367C37.9679 42.7041 35.8081 42.4002 33.822 41.8141Z" fill="#E1E1E1"/>
<path d="M40.1604 42.7258V46.0577C44.0458 46.112 47.9637 45.2763 50.9375 43.5507C51.0786 43.4639 51.2197 43.377 51.3607 43.2902V39.9583C51.2197 40.0451 51.0786 40.132 50.9375 40.2188C47.9637 41.9336 44.0458 42.7693 40.1604 42.7258Z" fill="#E1E1E1"/>
<path d="M51.3606 39.9692V43.301C52.9017 42.3351 53.9979 41.2064 54.6274 40.0234V36.6915C53.9979 37.8745 52.9017 39.0032 51.3606 39.9692Z" fill="#E1E1E1"/>
<path d="M54.6382 36.6915V40.0234C55.0832 39.1877 55.3002 38.3303 55.3002 37.4621V34.1302C55.3002 34.9876 55.0832 35.8558 54.6382 36.6915Z" fill="#E1E1E1"/>
</g>
<path d="M30.1322 28.1393C24.3475 31.4821 24.3258 36.8869 30.0671 40.2296C35.8083 43.5724 45.1528 43.5724 50.9375 40.2296C56.7222 36.8869 56.7547 31.4821 51.0026 28.1393C45.2613 24.7966 35.9169 24.7966 30.1322 28.1393Z" fill="#F1F1F1"/>
<path d="M31.4453 29.5393C26.3878 32.1007 26.3661 36.2574 31.3911 38.8187C36.416 41.38 44.5775 41.38 49.635 38.8187C54.6926 36.2574 54.7143 32.1007 49.7002 29.5393C44.6752 26.978 36.5028 26.978 31.4562 29.5393H31.4453Z" fill="#F1F1F1"/>
<path d="M27.2671 34.2062C27.2671 34.293 27.2671 34.369 27.2779 34.4558C27.3973 36.0729 28.6671 37.7009 30.816 38.9381C33.3339 40.4033 36.8612 41.239 40.4861 41.239C44.111 41.239 47.6166 40.425 50.1887 38.9381C52.3702 37.6792 53.6726 36.0404 53.7919 34.4015C53.7919 34.3147 53.8028 34.2388 53.8028 34.1519C53.8028 32.4589 52.5113 30.7332 50.2538 29.42C47.7359 27.9548 44.2087 27.1191 40.5838 27.1191C36.9589 27.1191 33.4533 27.9331 30.8812 29.42C28.5912 30.7441 27.2671 32.4806 27.2671 34.1953V34.2062ZM28.4284 34.4667C28.4284 34.3798 28.4175 34.293 28.4175 34.217C28.4175 32.9255 29.5245 31.5472 31.4564 30.4293C33.8549 29.0401 37.1 28.2804 40.5946 28.2804C44.0893 28.2804 47.3452 29.0618 49.6895 30.4293C51.5779 31.5255 52.6632 32.893 52.6632 34.1736C52.6632 34.2496 52.6632 34.3364 52.6524 34.4124C52.6524 34.4992 52.6632 34.5861 52.6632 34.662C52.6632 35.9535 51.5562 37.3319 49.6244 38.4497C47.2258 39.8389 43.9808 40.5987 40.497 40.5987C37.0131 40.5987 33.7464 39.8172 31.4021 38.4497C29.5028 37.3427 28.4175 35.9861 28.4284 34.7054C28.4284 34.6295 28.4284 34.5426 28.4392 34.4667H28.4284Z" fill="#B3B3B3"/>
<path d="M27.2778 34.4558C27.3972 36.0729 28.667 37.7008 30.8159 38.9381C33.3338 40.4033 36.8611 41.2389 40.486 41.2389C44.1109 41.2389 47.6164 40.425 50.1886 38.9381C52.3701 37.6791 53.6724 36.0403 53.7918 34.4015C53.6724 32.7844 52.4026 31.1673 50.2537 29.9192C47.7358 28.454 44.2086 27.6183 40.5837 27.6183C36.9588 27.6183 33.4532 28.4323 30.881 29.9192C28.6996 31.1782 27.3972 32.817 27.2778 34.4449V34.4558ZM28.4174 34.7054C28.4174 34.6294 28.4174 34.5426 28.4283 34.4666C28.4283 34.3798 28.4174 34.293 28.4174 34.217C28.4174 32.9255 29.5244 31.5472 31.4563 30.4293C33.8548 29.0401 37.0998 28.2804 40.5945 28.2804C44.0892 28.2804 47.3451 29.0618 49.6894 30.4293C51.5778 31.5255 52.6631 32.8929 52.6631 34.1736C52.6631 34.2496 52.6631 34.3364 52.6523 34.4124C52.6523 34.4992 52.6631 34.586 52.6631 34.662C52.6631 35.9535 51.5561 37.3318 49.6243 38.4497C47.2257 39.8389 43.9807 40.5986 40.4968 40.5986C37.013 40.5986 33.7462 39.8172 31.402 38.4497C29.5027 37.3427 28.4174 35.9861 28.4283 34.7054H28.4174Z" fill="#97FDDF"/>
</g>
<defs>
<clipPath id="clip0_445_126088">
<rect width="27.1429" height="44.6861" fill="white" transform="translate(15.0093 20.0001)"/>
</clipPath>
<clipPath id="clip1_445_126088">
<rect width="27.1429" height="44.6861" fill="white" transform="translate(41.8479 20)"/>
</clipPath>
<clipPath id="clip2_445_126088">
<rect width="29.5203" height="48.6" fill="white" transform="translate(25.78 25.6323)"/>
</clipPath>
</defs>
</svg>
