<svg width="350" height="443" viewBox="0 0 350 443" fill="none" xmlns="http://www.w3.org/2000/svg">
<path d="M150.701 129.852H151.821V133.596H150.701V129.852ZM154.829 129.852H155.965V133.596H154.829V129.852ZM153.757 136.732H154.733V144.364H153.757V136.732ZM148.093 131.228H158.477V132.284H148.093V131.228ZM151.069 138.716H157.437V139.564H151.069V138.716ZM151.069 140.94H157.437V141.788H151.069V140.94ZM148.909 134.156H158.557V135.212H148.909V134.156ZM148.381 134.156H149.485V137.612C149.485 138.113 149.469 138.663 149.437 139.26C149.405 139.847 149.336 140.449 149.229 141.068C149.122 141.676 148.968 142.268 148.765 142.844C148.573 143.42 148.322 143.953 148.013 144.444C147.949 144.369 147.858 144.284 147.741 144.188C147.634 144.092 147.522 143.996 147.405 143.9C147.298 143.815 147.202 143.751 147.117 143.708C147.501 143.1 147.778 142.439 147.949 141.724C148.13 141.009 148.248 140.295 148.301 139.58C148.354 138.865 148.381 138.204 148.381 137.596V134.156ZM150.461 136.396H157.581V137.324H151.501V144.444H150.461V136.396ZM157.101 136.396H158.141V143.276C158.141 143.543 158.109 143.751 158.045 143.9C157.981 144.06 157.858 144.183 157.677 144.268C157.485 144.353 157.229 144.407 156.909 144.428C156.6 144.449 156.205 144.455 155.725 144.444C155.714 144.316 155.677 144.161 155.613 143.98C155.56 143.799 155.496 143.639 155.421 143.5C155.762 143.511 156.066 143.516 156.333 143.516C156.6 143.516 156.776 143.511 156.861 143.5C157.021 143.5 157.101 143.42 157.101 143.26V136.396ZM146.893 129.804L147.997 130.108C147.698 131.036 147.341 131.953 146.925 132.86C146.52 133.767 146.077 134.625 145.597 135.436C145.117 136.236 144.61 136.945 144.077 137.564C144.045 137.468 143.992 137.345 143.917 137.196C143.842 137.036 143.762 136.881 143.677 136.732C143.592 136.572 143.517 136.444 143.453 136.348C143.922 135.804 144.37 135.185 144.797 134.492C145.224 133.788 145.613 133.036 145.965 132.236C146.328 131.436 146.637 130.625 146.893 129.804ZM145.597 133.724L146.717 132.62L146.749 132.652V144.444H145.597V133.724ZM165.133 134.044H173.917V135.036H165.133V134.044ZM164.765 136.3H174.397V137.324H164.765V136.3ZM166.957 138.412H172.461V139.34H166.957V138.412ZM165.597 132.012L166.541 131.756C166.701 132.065 166.856 132.407 167.005 132.78C167.154 133.153 167.266 133.463 167.341 133.708L166.349 134.044C166.285 133.777 166.178 133.452 166.029 133.068C165.89 132.673 165.746 132.321 165.597 132.012ZM168.461 131.676L169.437 131.516C169.544 131.857 169.64 132.225 169.725 132.62C169.821 133.015 169.89 133.345 169.933 133.612L168.909 133.852C168.877 133.575 168.818 133.228 168.733 132.812C168.648 132.396 168.557 132.017 168.461 131.676ZM172.957 129.836L173.661 130.732C173.117 130.849 172.498 130.956 171.805 131.052C171.122 131.148 170.402 131.233 169.645 131.308C168.898 131.372 168.141 131.425 167.373 131.468C166.616 131.5 165.88 131.527 165.165 131.548C165.154 131.409 165.117 131.255 165.053 131.084C165 130.903 164.941 130.748 164.877 130.62C165.57 130.599 166.29 130.567 167.037 130.524C167.784 130.471 168.52 130.412 169.245 130.348C169.97 130.273 170.653 130.199 171.293 130.124C171.933 130.039 172.488 129.943 172.957 129.836ZM167.885 139.036C168.269 139.793 168.786 140.471 169.437 141.068C170.088 141.665 170.856 142.167 171.741 142.572C172.637 142.977 173.618 143.276 174.685 143.468C174.557 143.585 174.418 143.745 174.269 143.948C174.13 144.151 174.018 144.332 173.933 144.492C172.29 144.129 170.866 143.516 169.661 142.652C168.456 141.777 167.528 140.673 166.877 139.34L167.885 139.036ZM172.317 131.34L173.469 131.708C173.181 132.199 172.872 132.705 172.541 133.228C172.21 133.751 171.901 134.199 171.613 134.572L170.717 134.236C170.898 133.969 171.09 133.671 171.293 133.34C171.496 132.999 171.688 132.652 171.869 132.3C172.05 131.948 172.2 131.628 172.317 131.34ZM172.173 138.412H172.413L172.621 138.364L173.293 138.668C172.952 139.788 172.456 140.732 171.805 141.5C171.154 142.268 170.392 142.887 169.517 143.356C168.653 143.836 167.704 144.209 166.669 144.476C166.637 144.391 166.578 144.289 166.493 144.172C166.418 144.065 166.338 143.953 166.253 143.836C166.168 143.719 166.082 143.628 165.997 143.564C166.989 143.351 167.896 143.041 168.717 142.636C169.549 142.22 170.258 141.681 170.845 141.02C171.442 140.359 171.885 139.548 172.173 138.588V138.412ZM167.277 134.684H168.429C168.376 135.324 168.301 136.001 168.205 136.716C168.12 137.42 167.986 138.135 167.805 138.86C167.624 139.575 167.378 140.279 167.069 140.972C166.77 141.655 166.386 142.289 165.917 142.876C165.458 143.463 164.888 143.98 164.205 144.428C164.12 144.289 163.997 144.135 163.837 143.964C163.688 143.804 163.538 143.676 163.389 143.58C164.029 143.185 164.568 142.716 165.005 142.172C165.442 141.617 165.8 141.025 166.077 140.396C166.365 139.756 166.584 139.105 166.733 138.444C166.893 137.772 167.01 137.116 167.085 136.476C167.16 135.836 167.224 135.239 167.277 134.684ZM159.693 138.588C160.322 138.417 161.074 138.199 161.949 137.932C162.834 137.655 163.73 137.367 164.637 137.068L164.797 138.188C163.944 138.465 163.09 138.743 162.237 139.02C161.384 139.297 160.61 139.548 159.917 139.772L159.693 138.588ZM159.837 132.956H164.685V134.076H159.837V132.956ZM161.837 129.74H162.957V143.052C162.957 143.372 162.914 143.623 162.829 143.804C162.754 143.985 162.616 144.124 162.413 144.22C162.221 144.316 161.965 144.38 161.645 144.412C161.325 144.444 160.909 144.455 160.397 144.444C160.386 144.305 160.344 144.124 160.269 143.9C160.205 143.687 160.136 143.495 160.061 143.324C160.402 143.335 160.712 143.34 160.989 143.34C161.277 143.351 161.469 143.351 161.565 143.34C161.661 143.34 161.73 143.319 161.773 143.276C161.816 143.244 161.837 143.169 161.837 143.052V129.74ZM176.813 132.924H189.517V134.092H176.813V132.924ZM177.549 137.612H188.861V138.78H177.549V137.612ZM176.061 142.732H190.333V143.9H176.061V142.732ZM182.509 133.868H183.805V143.34H182.509V133.868ZM181.149 130.444L182.125 129.788C182.466 130.023 182.824 130.295 183.197 130.604C183.581 130.913 183.938 131.223 184.269 131.532C184.6 131.831 184.872 132.108 185.085 132.364L184.045 133.116C183.853 132.871 183.592 132.593 183.261 132.284C182.941 131.964 182.594 131.644 182.221 131.324C181.858 130.993 181.501 130.7 181.149 130.444ZM196.749 137.9H206.461V138.892H196.749V137.9ZM198.013 140.428L198.653 139.708C198.93 139.857 199.224 140.033 199.533 140.236C199.842 140.439 200.13 140.641 200.397 140.844C200.674 141.047 200.904 141.228 201.085 141.388L200.413 142.22C200.242 142.049 200.018 141.857 199.741 141.644C199.474 141.431 199.186 141.217 198.877 141.004C198.578 140.791 198.29 140.599 198.013 140.428ZM203.197 136.972L203.773 136.396C204.072 136.556 204.381 136.743 204.701 136.956C205.032 137.169 205.288 137.367 205.469 137.548L204.861 138.172C204.68 137.991 204.429 137.788 204.109 137.564C203.789 137.34 203.485 137.143 203.197 136.972ZM197.917 138.364H199.021C198.957 139.185 198.845 139.975 198.685 140.732C198.536 141.489 198.296 142.183 197.965 142.812C197.634 143.431 197.165 143.964 196.557 144.412C196.482 144.284 196.37 144.14 196.221 143.98C196.082 143.831 195.949 143.708 195.821 143.612C196.365 143.239 196.776 142.775 197.053 142.22C197.341 141.665 197.549 141.057 197.677 140.396C197.805 139.735 197.885 139.057 197.917 138.364ZM200.797 129.74H201.869C201.858 131.329 201.896 132.823 201.981 134.22C202.066 135.607 202.194 136.865 202.365 137.996C202.536 139.116 202.754 140.087 203.021 140.908C203.298 141.719 203.613 142.343 203.965 142.78C204.317 143.207 204.706 143.42 205.133 143.42C205.368 143.42 205.533 143.297 205.629 143.052C205.725 142.807 205.794 142.321 205.837 141.596C205.954 141.713 206.093 141.82 206.253 141.916C206.413 142.012 206.557 142.087 206.685 142.14C206.621 142.737 206.53 143.201 206.413 143.532C206.296 143.873 206.13 144.113 205.917 144.252C205.704 144.401 205.416 144.476 205.053 144.476C204.413 144.476 203.853 144.225 203.373 143.724C202.904 143.233 202.504 142.54 202.173 141.644C201.853 140.737 201.592 139.671 201.389 138.444C201.186 137.217 201.037 135.868 200.941 134.396C200.856 132.913 200.808 131.361 200.797 129.74ZM204.381 139.132L205.421 139.516C204.898 140.625 204.162 141.596 203.213 142.428C202.264 143.249 201.17 143.916 199.933 144.428C199.858 144.321 199.757 144.193 199.629 144.044C199.501 143.895 199.384 143.767 199.277 143.66C200.472 143.191 201.512 142.567 202.397 141.788C203.282 141.009 203.944 140.124 204.381 139.132ZM201.949 132.508L202.445 131.852C202.797 132.097 203.149 132.385 203.501 132.716C203.864 133.036 204.141 133.329 204.333 133.596L203.805 134.348C203.624 134.081 203.357 133.777 203.005 133.436C202.653 133.084 202.301 132.775 201.949 132.508ZM204.941 134.46L205.677 134.156C205.912 134.529 206.12 134.935 206.301 135.372C206.493 135.799 206.621 136.167 206.685 136.476L205.901 136.844C205.826 136.524 205.698 136.14 205.517 135.692C205.346 135.233 205.154 134.823 204.941 134.46ZM202.157 135.564C202.658 135.543 203.229 135.511 203.869 135.468C204.509 135.425 205.181 135.383 205.885 135.34L205.901 136.156C205.261 136.22 204.642 136.284 204.045 136.348C203.448 136.401 202.877 136.455 202.333 136.508L202.157 135.564ZM203.805 129.884L204.749 130.252C204.514 130.689 204.269 131.148 204.013 131.628C203.757 132.097 203.517 132.497 203.293 132.828L202.621 132.508C202.76 132.273 202.898 132.001 203.037 131.692C203.186 131.383 203.33 131.068 203.469 130.748C203.608 130.428 203.72 130.14 203.805 129.884ZM205.133 131.484L206.013 131.9C205.746 132.359 205.453 132.844 205.133 133.356C204.813 133.857 204.493 134.348 204.173 134.828C203.853 135.297 203.544 135.713 203.245 136.076L202.573 135.692C202.861 135.329 203.16 134.903 203.469 134.412C203.789 133.911 204.093 133.404 204.381 132.892C204.68 132.38 204.93 131.911 205.133 131.484ZM196.541 132.508L197.037 131.852C197.389 132.097 197.741 132.385 198.093 132.716C198.456 133.036 198.728 133.329 198.909 133.596L198.397 134.348C198.216 134.081 197.944 133.777 197.581 133.436C197.229 133.084 196.882 132.775 196.541 132.508ZM199.309 134.556L200.045 134.284C200.258 134.647 200.45 135.047 200.621 135.484C200.792 135.921 200.904 136.295 200.957 136.604L200.157 136.94C200.114 136.62 200.013 136.236 199.853 135.788C199.693 135.34 199.512 134.929 199.309 134.556ZM196.589 135.756C197.09 135.724 197.661 135.687 198.301 135.644C198.952 135.591 199.629 135.543 200.333 135.5L200.349 136.348C199.709 136.423 199.085 136.487 198.477 136.54C197.869 136.593 197.298 136.647 196.765 136.7L196.589 135.756ZM198.397 129.884L199.325 130.252C199.09 130.689 198.845 131.153 198.589 131.644C198.333 132.124 198.098 132.529 197.885 132.86L197.197 132.54C197.336 132.295 197.48 132.017 197.629 131.708C197.778 131.399 197.922 131.084 198.061 130.764C198.2 130.433 198.312 130.14 198.397 129.884ZM199.725 131.484L200.589 131.9C200.312 132.369 200.008 132.871 199.677 133.404C199.357 133.927 199.026 134.433 198.685 134.924C198.354 135.415 198.034 135.847 197.725 136.22L197.053 135.852C197.352 135.468 197.666 135.02 197.997 134.508C198.328 133.996 198.642 133.473 198.941 132.94C199.25 132.407 199.512 131.921 199.725 131.484ZM191.997 133.196H196.845V134.316H191.997V133.196ZM194.013 129.724H195.101V144.428H194.013V129.724ZM193.981 133.868L194.685 134.092C194.578 134.711 194.44 135.367 194.269 136.06C194.098 136.743 193.906 137.415 193.693 138.076C193.48 138.737 193.25 139.351 193.005 139.916C192.77 140.481 192.52 140.967 192.253 141.372C192.189 141.223 192.093 141.052 191.965 140.86C191.848 140.668 191.746 140.503 191.661 140.364C191.906 140.001 192.141 139.569 192.365 139.068C192.6 138.567 192.818 138.023 193.021 137.436C193.234 136.849 193.421 136.252 193.581 135.644C193.752 135.025 193.885 134.433 193.981 133.868ZM195.037 134.924C195.122 135.031 195.245 135.217 195.405 135.484C195.576 135.74 195.762 136.028 195.965 136.348C196.168 136.657 196.349 136.951 196.509 137.228C196.68 137.495 196.797 137.687 196.861 137.804L196.237 138.684C196.162 138.492 196.05 138.241 195.901 137.932C195.752 137.623 195.586 137.303 195.405 136.972C195.234 136.631 195.069 136.321 194.909 136.044C194.749 135.756 194.626 135.532 194.541 135.372L195.037 134.924Z" fill="#2D313E"/>
<g opacity="0.7">
<rect x="176.704" y="277.689" width="26.0043" height="3.71489" transform="rotate(90 176.704 277.689)" fill="#3B93CA"/>
<path d="M174.848 313.909L169.217 300.675L180.478 300.675L174.848 313.909Z" fill="#3B93CA"/>
<path d="M174.848 267.473L169.217 280.707L180.478 280.707L174.848 267.473Z" fill="#3B93CA"/>
</g>
<g opacity="0.7">
<rect x="176.704" y="163.216" width="26.0043" height="3.71489" transform="rotate(90 176.704 163.216)" fill="#3B93CA"/>
<path d="M174.848 199.436L169.217 186.202L180.478 186.202L174.848 199.436Z" fill="#3B93CA"/>
<path d="M174.848 153L169.217 166.234L180.478 166.234L174.848 153Z" fill="#3B93CA"/>
</g>
<path d="M239.561 96.7541C239.561 98.4985 239.018 100.058 238.163 101.171C237.309 102.283 236.164 102.929 234.937 102.929H115.267C112.822 102.929 110.643 100.299 110.643 96.7541V6.67472C110.643 4.93039 111.186 3.37108 112.041 2.25832C112.895 1.14606 114.04 0.5 115.267 0.5H234.937C237.382 0.5 239.561 3.13009 239.561 6.67472V96.7541Z" stroke="#2D313E"/>
<path d="M236.011 83.9173H236.004V84.4173C236.004 87.1554 234.007 89.2904 231.645 89.2904H118.559C116.198 89.2904 114.201 87.1554 114.201 84.4173V12.0132C114.201 9.27513 116.198 7.14014 118.559 7.14014H231.653C234.014 7.14014 236.011 9.27513 236.011 12.0132V83.9173Z" fill="#84D5BD" stroke="#2D313E"/>
<path d="M166.802 112.235C167.285 111.772 167.822 111.13 168.2 110.309C168.644 109.346 168.862 108.149 168.534 106.741C168.261 105.571 167.616 104.28 166.451 102.87H187.169C184.438 106.456 184.389 109.009 185.282 110.74C185.608 111.373 186.047 111.865 186.474 112.235H166.802Z" stroke="#2D313E"/>
<path d="M155.976 112.83H197.506V117.017H155.976V112.83Z" stroke="#2D313E"/>
<path d="M110.643 96.7541V84.8638H239.561V96.7541C239.561 100.299 237.382 102.929 234.937 102.929H115.267C114.04 102.929 112.895 102.283 112.041 101.171C111.186 100.058 110.643 98.4984 110.643 96.7541Z" fill="#F3F3F3" stroke="#2D313E"/>
<path d="M154.601 65.1571H162.156V42.4697H154.601V65.1571ZM196.156 44.3603C196.156 42.2806 194.456 40.5791 192.378 40.5791H180.459L182.254 31.9389L182.311 31.3339C182.311 30.5588 181.989 29.8403 181.479 29.3299L179.477 27.3447L167.048 39.8039C166.349 40.4845 165.934 41.4298 165.934 42.4697V61.3758C165.934 63.4555 167.634 65.1571 169.712 65.1571H186.712C188.279 65.1571 189.621 64.2118 190.187 62.8505L195.892 49.5217C196.062 49.0868 196.156 48.6331 196.156 48.1415V44.3603Z" fill="#1C7057"/>
<path d="M137.328 245.986H138.368V248.018H137.328V245.986ZM139.232 242.562L140.208 242.882C140.027 243.266 139.84 243.671 139.648 244.098C139.467 244.525 139.291 244.887 139.12 245.186L138.384 244.914C138.491 244.69 138.597 244.439 138.704 244.162C138.811 243.885 138.912 243.607 139.008 243.33C139.104 243.042 139.179 242.786 139.232 242.562ZM135.664 242.946L136.432 242.674C136.624 243.005 136.789 243.383 136.928 243.81C137.067 244.226 137.163 244.578 137.216 244.866L136.368 245.17C136.336 244.871 136.251 244.514 136.112 244.098C135.984 243.671 135.835 243.287 135.664 242.946ZM133.792 241.01H141.456V242.066H134.88V254.994H133.792V241.01ZM141.008 241.01H142.096V253.602C142.096 253.933 142.059 254.183 141.984 254.354C141.909 254.535 141.765 254.674 141.552 254.77C141.339 254.855 141.056 254.909 140.704 254.93C140.352 254.962 139.92 254.973 139.408 254.962C139.387 254.823 139.339 254.647 139.264 254.434C139.2 254.221 139.131 254.039 139.056 253.89C139.429 253.901 139.771 253.906 140.08 253.906C140.4 253.917 140.613 253.922 140.72 253.922C140.827 253.911 140.901 253.879 140.944 253.826C140.987 253.783 141.008 253.709 141.008 253.602V241.01ZM135.472 245.138H140.368V246.082H135.472V245.138ZM135.344 247.746H140.464V248.706H135.344V247.746ZM136.032 248.274H137.072V250.978C137.072 251.181 137.088 251.325 137.12 251.41C137.163 251.485 137.264 251.522 137.424 251.522C137.488 251.522 137.605 251.522 137.776 251.522C137.957 251.522 138.149 251.522 138.352 251.522C138.555 251.522 138.741 251.522 138.912 251.522C139.083 251.522 139.205 251.522 139.28 251.522C139.397 251.522 139.547 251.517 139.728 251.506C139.909 251.485 140.053 251.463 140.16 251.442C140.171 251.581 140.181 251.751 140.192 251.954C140.213 252.146 140.235 252.301 140.256 252.418C140.149 252.45 140.011 252.471 139.84 252.482C139.669 252.493 139.488 252.498 139.296 252.498C139.221 252.498 139.093 252.498 138.912 252.498C138.731 252.498 138.533 252.498 138.32 252.498C138.107 252.498 137.915 252.498 137.744 252.498C137.573 252.498 137.467 252.498 137.424 252.498C137.04 252.498 136.747 252.45 136.544 252.354C136.352 252.258 136.219 252.098 136.144 251.874C136.069 251.639 136.032 251.335 136.032 250.962V248.274ZM130.304 240.242L131.36 240.642C131.168 241.037 130.955 241.447 130.72 241.874C130.496 242.301 130.267 242.717 130.032 243.122C129.808 243.517 129.595 243.863 129.392 244.162L128.56 243.794C128.763 243.485 128.971 243.122 129.184 242.706C129.408 242.29 129.616 241.863 129.808 241.426C130.011 240.989 130.176 240.594 130.304 240.242ZM132.096 242.066L133.104 242.546C132.741 243.133 132.336 243.762 131.888 244.434C131.44 245.095 130.987 245.735 130.528 246.354C130.08 246.973 129.653 247.511 129.248 247.97L128.512 247.554C128.811 247.202 129.125 246.802 129.456 246.354C129.787 245.895 130.112 245.421 130.432 244.93C130.752 244.429 131.056 243.933 131.344 243.442C131.632 242.951 131.883 242.493 132.096 242.066ZM127.76 243.586L128.384 242.818C128.672 243.074 128.96 243.357 129.248 243.666C129.547 243.975 129.819 244.279 130.064 244.578C130.309 244.877 130.501 245.149 130.64 245.394L129.968 246.29C129.829 246.034 129.637 245.746 129.392 245.426C129.157 245.106 128.896 244.786 128.608 244.466C128.32 244.146 128.037 243.853 127.76 243.586ZM131.472 245.73L132.352 245.378C132.576 245.719 132.789 246.093 132.992 246.498C133.195 246.903 133.376 247.298 133.536 247.682C133.707 248.055 133.829 248.386 133.904 248.674L132.944 249.122C132.88 248.813 132.768 248.466 132.608 248.082C132.459 247.687 132.288 247.287 132.096 246.882C131.904 246.466 131.696 246.082 131.472 245.73ZM127.616 247.314C128.309 247.282 129.131 247.245 130.08 247.202C131.04 247.149 132.021 247.095 133.024 247.042V248.05C132.085 248.114 131.152 248.178 130.224 248.242C129.307 248.295 128.485 248.343 127.76 248.386L127.616 247.314ZM131.904 249.602L132.784 249.346C132.987 249.805 133.168 250.306 133.328 250.85C133.488 251.383 133.595 251.847 133.648 252.242L132.704 252.546C132.672 252.141 132.576 251.666 132.416 251.122C132.267 250.567 132.096 250.061 131.904 249.602ZM128.592 249.394L129.6 249.554C129.493 250.311 129.344 251.058 129.152 251.794C128.971 252.519 128.757 253.138 128.512 253.65C128.448 253.607 128.357 253.559 128.24 253.506C128.123 253.442 128.005 253.383 127.888 253.33C127.771 253.277 127.669 253.234 127.584 253.202C127.851 252.711 128.064 252.13 128.224 251.458C128.384 250.775 128.507 250.087 128.592 249.394ZM130.288 247.794H131.344V254.962H130.288V247.794ZM151.648 253.282H156.928V254.338H151.648V253.282ZM152.432 241.874H156.656V242.93H152.432V241.874ZM151.184 249.154H157.472V254.882H156.336V250.194H152.304V254.93H151.184V249.154ZM156.224 241.874H156.448L156.672 241.826L157.424 242.162C157.125 243.143 156.725 244.045 156.224 244.866C155.723 245.677 155.152 246.413 154.512 247.074C153.872 247.725 153.184 248.295 152.448 248.786C151.723 249.277 150.981 249.687 150.224 250.018C150.149 249.879 150.043 249.719 149.904 249.538C149.776 249.346 149.648 249.197 149.52 249.09C150.235 248.823 150.933 248.466 151.616 248.018C152.299 247.57 152.944 247.047 153.552 246.45C154.16 245.842 154.693 245.175 155.152 244.45C155.611 243.714 155.968 242.925 156.224 242.082V241.874ZM152.72 240.226L153.856 240.514C153.621 241.229 153.333 241.927 152.992 242.61C152.661 243.293 152.293 243.927 151.888 244.514C151.493 245.09 151.077 245.602 150.64 246.05C150.576 245.975 150.485 245.89 150.368 245.794C150.251 245.698 150.128 245.602 150 245.506C149.883 245.399 149.781 245.319 149.696 245.266C150.357 244.679 150.949 243.943 151.472 243.058C151.995 242.162 152.411 241.218 152.72 240.226ZM152.4 242.546C152.624 243.122 152.928 243.714 153.312 244.322C153.707 244.919 154.165 245.506 154.688 246.082C155.221 246.647 155.824 247.17 156.496 247.65C157.179 248.119 157.925 248.509 158.736 248.818C158.661 248.893 158.576 248.989 158.48 249.106C158.384 249.223 158.293 249.346 158.208 249.474C158.123 249.602 158.048 249.719 157.984 249.826C157.163 249.463 156.411 249.026 155.728 248.514C155.056 248.002 154.459 247.447 153.936 246.85C153.413 246.242 152.955 245.629 152.56 245.01C152.176 244.381 151.861 243.778 151.616 243.202L152.4 242.546ZM144.592 247.346H145.616V253.138H144.592V247.346ZM145.664 241.97V244.786H148.688V241.97H145.664ZM144.592 240.914H149.792V245.842H144.592V240.914ZM146.864 245.314H147.952V252.626H146.864V245.314ZM143.776 253.01C144.299 252.914 144.901 252.791 145.584 252.642C146.267 252.482 146.992 252.311 147.76 252.13C148.528 251.949 149.296 251.767 150.064 251.586L150.176 252.658C149.077 252.935 147.984 253.207 146.896 253.474C145.808 253.741 144.837 253.975 143.984 254.178L143.776 253.01ZM147.248 248.146H149.952V249.218H147.248V248.146ZM160.64 241.794H173.744V242.802H160.64V241.794ZM161.152 253.506H173.28V254.53H161.152V253.506ZM163.792 243.874H170.528V244.77H163.792V243.874ZM163.792 245.89H170.528V246.802H163.792V245.89ZM159.904 247.938H174.448V248.962H159.904V247.938ZM163.248 250.818H171.104V251.81H163.248V250.818ZM163.088 240.242H164.288V248.514H163.088V240.242ZM170.112 240.258H171.328V248.514H170.112V240.258ZM166.528 249.474H167.744V254.066H166.528V249.474ZM163.936 248.226L164.928 248.594C164.608 249.149 164.208 249.677 163.728 250.178C163.259 250.679 162.747 251.138 162.192 251.554C161.648 251.959 161.093 252.295 160.528 252.562C160.475 252.466 160.4 252.365 160.304 252.258C160.208 252.141 160.112 252.029 160.016 251.922C159.92 251.805 159.829 251.709 159.744 251.634C160.277 251.421 160.811 251.138 161.344 250.786C161.877 250.434 162.368 250.034 162.816 249.586C163.264 249.138 163.637 248.685 163.936 248.226ZM170.48 248.226C170.757 248.674 171.115 249.106 171.552 249.522C171.989 249.938 172.475 250.311 173.008 250.642C173.552 250.962 174.096 251.223 174.64 251.426C174.565 251.501 174.475 251.597 174.368 251.714C174.261 251.821 174.165 251.933 174.08 252.05C173.995 252.167 173.915 252.274 173.84 252.37C173.285 252.125 172.731 251.805 172.176 251.41C171.632 251.015 171.131 250.578 170.672 250.098C170.224 249.607 169.84 249.101 169.52 248.578L170.48 248.226ZM175.904 241.202H181.44V242.306H175.904V241.202ZM177.504 246.018H180.944V252.834H177.504V251.778H179.904V247.09H177.504V246.018ZM177.776 241.746L178.896 241.906C178.757 243.005 178.571 244.077 178.336 245.122C178.112 246.157 177.835 247.127 177.504 248.034C177.184 248.93 176.795 249.73 176.336 250.434C176.293 250.338 176.229 250.226 176.144 250.098C176.059 249.959 175.968 249.826 175.872 249.698C175.776 249.559 175.691 249.453 175.616 249.378C176.021 248.759 176.357 248.05 176.624 247.25C176.901 246.439 177.136 245.565 177.328 244.626C177.52 243.687 177.669 242.727 177.776 241.746ZM177.008 246.018H178.032V254.162H177.008V246.018ZM181.392 242.034H185.584V243.01H181.392V242.034ZM181.376 247.442H189.6V248.45H181.376V247.442ZM185.776 250.354H189.504V251.346H185.776V250.354ZM183.136 240.242H184.144V246.946H183.136V240.242ZM183.04 242.578L183.76 242.978C183.611 243.405 183.413 243.837 183.168 244.274C182.933 244.711 182.672 245.127 182.384 245.522C182.107 245.917 181.819 246.258 181.52 246.546C181.456 246.429 181.365 246.29 181.248 246.13C181.141 245.959 181.04 245.826 180.944 245.73C181.211 245.506 181.477 245.223 181.744 244.882C182.011 244.53 182.256 244.157 182.48 243.762C182.715 243.357 182.901 242.962 183.04 242.578ZM188.672 242.594C188.811 242.999 188.981 243.405 189.184 243.81C189.397 244.215 189.632 244.589 189.888 244.93C190.155 245.271 190.432 245.549 190.72 245.762C190.603 245.837 190.48 245.949 190.352 246.098C190.224 246.237 190.117 246.359 190.032 246.466C189.755 246.21 189.483 245.885 189.216 245.49C188.96 245.095 188.725 244.669 188.512 244.21C188.309 243.741 188.139 243.282 188 242.834L188.672 242.594ZM184.112 243.346C184.197 243.41 184.309 243.501 184.448 243.618C184.597 243.735 184.752 243.869 184.912 244.018C185.083 244.157 185.237 244.29 185.376 244.418C185.525 244.535 185.632 244.626 185.696 244.69L185.088 245.394C184.992 245.255 184.848 245.079 184.656 244.866C184.464 244.653 184.267 244.439 184.064 244.226C183.872 244.013 183.712 243.858 183.584 243.762L184.112 243.346ZM185.904 242.034H190.464V243.01H185.904V242.034ZM187.504 240.242H188.528V246.946H187.504V240.242ZM187.36 242.578L188.048 242.962C187.909 243.399 187.712 243.842 187.456 244.29C187.211 244.738 186.939 245.159 186.64 245.554C186.341 245.938 186.032 246.258 185.712 246.514C185.659 246.397 185.573 246.263 185.456 246.114C185.349 245.954 185.253 245.826 185.168 245.73C185.467 245.527 185.755 245.255 186.032 244.914C186.309 244.573 186.56 244.199 186.784 243.794C187.019 243.389 187.211 242.983 187.36 242.578ZM189.28 247.442H189.456L189.648 247.378L190.416 247.634C190.277 248.029 190.123 248.434 189.952 248.85C189.792 249.266 189.632 249.623 189.472 249.922L188.56 249.586C188.677 249.319 188.8 249.005 188.928 248.642C189.067 248.279 189.184 247.927 189.28 247.586V247.442ZM183.424 250.578C183.648 251.442 183.947 252.093 184.32 252.53C184.704 252.967 185.168 253.266 185.712 253.426C186.256 253.575 186.869 253.655 187.552 253.666C187.627 253.666 187.76 253.666 187.952 253.666C188.155 253.666 188.384 253.666 188.64 253.666C188.907 253.655 189.173 253.65 189.44 253.65C189.717 253.65 189.968 253.65 190.192 253.65C190.416 253.65 190.576 253.65 190.672 253.65C190.629 253.735 190.581 253.837 190.528 253.954C190.485 254.082 190.443 254.21 190.4 254.338C190.368 254.477 190.341 254.594 190.32 254.69H189.648H187.488C186.635 254.69 185.893 254.589 185.264 254.386C184.645 254.183 184.117 253.81 183.68 253.266C183.243 252.711 182.885 251.917 182.608 250.882L183.424 250.578ZM182.64 249.234H183.728C183.664 250.013 183.547 250.759 183.376 251.474C183.205 252.189 182.944 252.845 182.592 253.442C182.24 254.039 181.749 254.546 181.12 254.962C181.045 254.845 180.933 254.706 180.784 254.546C180.645 254.386 180.517 254.258 180.4 254.162C180.955 253.81 181.381 253.378 181.68 252.866C181.989 252.343 182.213 251.767 182.352 251.138C182.491 250.509 182.587 249.874 182.64 249.234ZM185.264 247.746H186.368V254.114L185.264 253.634V247.746ZM196.192 243.618H206.544V244.594H196.192V243.618ZM197.12 247.938H205.488V248.866H197.12V247.938ZM196.416 250.13H206.192V251.122H196.416V250.13ZM200.608 240.37H201.776V252.818H200.608V240.37ZM197.344 241.522H205.328V246.754H197.232V245.778H204.16V242.482H197.344V241.522ZM191.824 241.25H195.296V242.338H191.824V241.25ZM194.864 241.25H195.024L195.216 241.202L196.032 241.442C195.797 242.007 195.515 242.642 195.184 243.346C194.853 244.05 194.512 244.765 194.16 245.49C193.808 246.205 193.467 246.882 193.136 247.522L192.032 247.218C192.288 246.738 192.549 246.237 192.816 245.714C193.083 245.181 193.344 244.647 193.6 244.114C193.856 243.581 194.091 243.079 194.304 242.61C194.528 242.141 194.715 241.741 194.864 241.41V241.25ZM193.296 245.81H195.904V246.898H193.136L193.296 245.81ZM195.424 245.81H195.664L195.872 245.794L196.576 245.954C196.341 248.29 195.883 250.194 195.2 251.666C194.517 253.127 193.653 254.237 192.608 254.994C192.555 254.909 192.469 254.813 192.352 254.706C192.245 254.599 192.133 254.493 192.016 254.386C191.909 254.29 191.808 254.215 191.712 254.162C192.736 253.479 193.557 252.477 194.176 251.154C194.805 249.821 195.221 248.125 195.424 246.066V245.81ZM193.344 248.178C193.664 249.277 194.085 250.173 194.608 250.866C195.141 251.549 195.76 252.071 196.464 252.434C197.179 252.797 197.968 253.047 198.832 253.186C199.707 253.325 200.651 253.394 201.664 253.394C201.803 253.394 202.032 253.394 202.352 253.394C202.672 253.394 203.04 253.394 203.456 253.394C203.872 253.394 204.293 253.394 204.72 253.394C205.147 253.383 205.531 253.378 205.872 253.378C206.213 253.367 206.469 253.362 206.64 253.362C206.576 253.447 206.512 253.559 206.448 253.698C206.384 253.847 206.325 253.991 206.272 254.13C206.219 254.279 206.181 254.413 206.16 254.53H205.312H201.648C200.485 254.53 199.419 254.45 198.448 254.29C197.488 254.13 196.624 253.837 195.856 253.41C195.088 252.983 194.411 252.381 193.824 251.602C193.248 250.813 192.768 249.789 192.384 248.53L193.344 248.178ZM215.12 240.754H216.256V242.706C216.256 243.154 216.203 243.634 216.096 244.146C215.989 244.658 215.792 245.154 215.504 245.634C215.216 246.114 214.784 246.546 214.208 246.93C214.155 246.845 214.069 246.754 213.952 246.658C213.845 246.551 213.733 246.45 213.616 246.354C213.509 246.247 213.413 246.173 213.328 246.13C213.84 245.789 214.224 245.426 214.48 245.042C214.736 244.647 214.907 244.247 214.992 243.842C215.077 243.437 215.12 243.047 215.12 242.674V240.754ZM219.008 240.754H220.16V244.674C220.16 244.855 220.176 244.973 220.208 245.026C220.251 245.069 220.336 245.09 220.464 245.09C220.507 245.09 220.581 245.09 220.688 245.09C220.795 245.09 220.907 245.09 221.024 245.09C221.141 245.09 221.227 245.09 221.28 245.09C221.365 245.09 221.429 245.053 221.472 244.978C221.525 244.903 221.563 244.743 221.584 244.498C221.616 244.242 221.632 243.858 221.632 243.346C221.749 243.442 221.909 243.527 222.112 243.602C222.315 243.677 222.496 243.735 222.656 243.778C222.624 244.407 222.56 244.893 222.464 245.234C222.379 245.575 222.251 245.815 222.08 245.954C221.92 246.082 221.696 246.146 221.408 246.146C221.333 246.146 221.221 246.146 221.072 246.146C220.923 246.146 220.768 246.146 220.608 246.146C220.459 246.146 220.352 246.146 220.288 246.146C219.957 246.146 219.696 246.103 219.504 246.018C219.323 245.933 219.195 245.789 219.12 245.586C219.045 245.373 219.008 245.074 219.008 244.69V240.754ZM215.984 248.29C216.528 249.677 217.376 250.861 218.528 251.842C219.691 252.823 221.077 253.517 222.688 253.922C222.603 253.997 222.507 254.098 222.4 254.226C222.304 254.354 222.208 254.482 222.112 254.61C222.027 254.738 221.952 254.85 221.888 254.946C220.235 254.466 218.816 253.687 217.632 252.61C216.459 251.522 215.552 250.199 214.912 248.642L215.984 248.29ZM220.464 247.17H220.688L220.896 247.122L221.68 247.426C221.403 248.482 221.008 249.421 220.496 250.242C219.995 251.053 219.408 251.767 218.736 252.386C218.064 253.005 217.328 253.522 216.528 253.938C215.739 254.365 214.901 254.706 214.016 254.962C213.984 254.855 213.931 254.733 213.856 254.594C213.781 254.466 213.701 254.338 213.616 254.21C213.531 254.082 213.445 253.981 213.36 253.906C214.171 253.693 214.949 253.399 215.696 253.026C216.443 252.653 217.131 252.199 217.76 251.666C218.4 251.122 218.949 250.493 219.408 249.778C219.867 249.063 220.219 248.263 220.464 247.378V247.17ZM214.08 247.17H220.928V248.274H214.08V247.17ZM215.6 240.754H219.6V241.826H215.6V240.754ZM208.544 245.09H213.312V246.034H208.544V245.09ZM208.608 240.802H213.28V241.762H208.608V240.802ZM208.544 247.218H213.312V248.178H208.544V247.218ZM207.776 242.898H213.872V243.906H207.776V242.898ZM209.104 249.378H213.296V254.05H209.104V253.058H212.24V250.386H209.104V249.378ZM208.512 249.378H209.568V254.786H208.512V249.378Z" fill="#2D313E"/>
<rect x="112.644" y="206.677" width="123.449" height="22.2181" rx="1.5" fill="#F8F8F8" stroke="#2D313E"/>
<rect x="117.716" y="211.749" width="12.0734" height="13.0021" fill="#52BD9D"/>
<rect x="152.078" y="212.678" width="11.1447" height="11.1447" fill="#929292"/>
<rect x="185.513" y="212.678" width="11.1447" height="11.1447" fill="#929292"/>
<rect x="135.362" y="212.678" width="11.1447" height="11.1447" fill="#929292"/>
<rect x="168.795" y="212.678" width="11.1447" height="11.1447" fill="#929292"/>
<rect x="202.229" y="212.678" width="11.1447" height="11.1447" fill="#929292"/>
<rect x="218.945" y="212.678" width="11.1447" height="11.1447" fill="#929292"/>
<path d="M239.256 419.874C239.256 421.616 238.713 423.174 237.859 424.286C237.005 425.398 235.861 426.043 234.635 426.043H115.06C112.617 426.043 110.439 423.415 110.439 419.874V329.865C110.439 328.122 110.982 326.564 111.836 325.453C112.69 324.341 113.834 323.696 115.06 323.696H234.635C237.078 323.696 239.256 326.324 239.256 329.865V419.874Z" stroke="#2D313E"/>
<path d="M235.708 407.047H235.701V407.547C235.701 410.282 233.705 412.415 231.346 412.415H118.35C115.99 412.415 113.995 410.282 113.995 407.547V335.2C113.995 332.464 115.99 330.331 118.35 330.331H231.354C233.713 330.331 235.708 332.464 235.708 335.2V407.047Z" stroke="#2D313E"/>
<path d="M166.555 435.341C167.038 434.879 167.574 434.237 167.951 433.417C168.394 432.455 168.613 431.26 168.285 429.853C168.012 428.684 167.368 427.394 166.203 425.985H186.903C184.176 429.568 184.127 432.119 185.019 433.848C185.345 434.481 185.783 434.972 186.209 435.341H166.555Z" stroke="#2D313E"/>
<path d="M155.737 435.938H197.235V440.121H155.737V435.938Z" stroke="#2D313E"/>
<path d="M110.439 419.873V407.993H239.256V419.873C239.256 423.415 237.078 426.043 234.635 426.043H115.06C113.834 426.043 112.69 425.397 111.836 424.286C110.982 423.174 110.439 421.616 110.439 419.873Z" fill="#F3F3F3" stroke="#2D313E"/>
<path d="M156.659 364.392L157.955 364.632C157.411 365.411 156.723 366.168 155.891 366.904C155.069 367.629 154.072 368.285 152.899 368.872C152.835 368.776 152.755 368.675 152.659 368.568C152.573 368.451 152.477 368.344 152.371 368.248C152.264 368.152 152.168 368.072 152.083 368.008C153.192 367.517 154.131 366.947 154.899 366.296C155.677 365.645 156.264 365.011 156.659 364.392ZM156.483 365.592H162.067V366.536H155.619L156.483 365.592ZM161.715 365.592H161.955L162.163 365.528L162.979 366.024C162.445 366.867 161.763 367.629 160.931 368.312C160.109 368.984 159.197 369.581 158.195 370.104C157.192 370.616 156.147 371.059 155.059 371.432C153.971 371.805 152.888 372.109 151.811 372.344C151.757 372.184 151.672 372.003 151.555 371.8C151.437 371.587 151.325 371.416 151.219 371.288C152.243 371.096 153.277 370.835 154.323 370.504C155.368 370.163 156.365 369.763 157.315 369.304C158.275 368.835 159.133 368.307 159.891 367.72C160.659 367.133 161.267 366.488 161.715 365.784V365.592ZM156.019 366.328C156.648 367.128 157.475 367.832 158.499 368.44C159.523 369.048 160.68 369.555 161.971 369.96C163.272 370.355 164.632 370.643 166.051 370.824C165.965 370.92 165.875 371.037 165.779 371.176C165.683 371.304 165.592 371.437 165.507 371.576C165.421 371.715 165.347 371.843 165.283 371.96C163.853 371.736 162.488 371.4 161.187 370.952C159.885 370.493 158.701 369.923 157.635 369.24C156.579 368.547 155.693 367.736 154.979 366.808L156.019 366.328ZM154.243 371.352H163.123V376.248H161.907V372.36H155.411V376.264H154.243V371.352ZM154.819 374.712H162.515V375.72H154.819V374.712ZM157.987 361.56H159.219V363.656H157.987V361.56ZM151.875 363.016H165.411V366.024H164.179V364.104H153.043V366.024H151.875V363.016ZM170.115 370.056H179.331V371.176H170.115V370.056ZM170.211 365.72H180.051V372.04H178.851V366.84H170.211V365.72ZM178.579 361.592L179.571 362.488C178.76 362.755 177.827 363.005 176.771 363.24C175.725 363.475 174.632 363.688 173.491 363.88C172.36 364.061 171.261 364.221 170.195 364.36C170.173 364.221 170.125 364.056 170.051 363.864C169.987 363.672 169.917 363.512 169.843 363.384C170.632 363.277 171.432 363.16 172.243 363.032C173.053 362.904 173.848 362.765 174.627 362.616C175.416 362.456 176.147 362.291 176.819 362.12C177.491 361.949 178.077 361.773 178.579 361.592ZM169.475 363.064L171.027 363.512C171.016 363.629 170.904 363.704 170.691 363.736V368.248C170.691 368.835 170.664 369.48 170.611 370.184C170.557 370.877 170.44 371.581 170.259 372.296C170.088 373.011 169.837 373.709 169.507 374.392C169.176 375.075 168.739 375.704 168.195 376.28C168.131 376.184 168.045 376.083 167.939 375.976C167.832 375.869 167.715 375.763 167.587 375.656C167.469 375.56 167.357 375.491 167.251 375.448C167.752 374.925 168.152 374.365 168.451 373.768C168.749 373.16 168.968 372.541 169.107 371.912C169.256 371.272 169.352 370.637 169.395 370.008C169.448 369.379 169.475 368.781 169.475 368.216V363.064ZM188.675 367.352H197.987V368.44H188.675V367.352ZM191.667 370.344H192.643V376.104H191.667V370.344ZM194.115 370.344H195.075V376.056H194.115V370.344ZM192.707 361.592H193.859V365.72H192.707V361.592ZM189.187 369.944H197.139V370.984H190.275V376.264H189.187V369.944ZM196.547 369.944H197.635V375.16C197.635 375.405 197.608 375.603 197.555 375.752C197.512 375.912 197.405 376.029 197.235 376.104C197.064 376.189 196.856 376.243 196.611 376.264C196.376 376.285 196.077 376.296 195.715 376.296C195.704 376.157 195.661 375.992 195.587 375.8C195.523 375.619 195.459 375.459 195.395 375.32C195.619 375.331 195.821 375.336 196.003 375.336C196.184 375.336 196.307 375.331 196.371 375.32C196.488 375.32 196.547 375.261 196.547 375.144V369.944ZM192.691 367.704L194.083 367.992C193.923 368.451 193.773 368.92 193.635 369.4C193.496 369.869 193.357 370.269 193.219 370.6L192.195 370.312C192.291 369.949 192.387 369.523 192.483 369.032C192.579 368.531 192.648 368.088 192.691 367.704ZM189.379 362.36H190.483V365.112H196.275V362.36H197.427V366.168H189.379V362.36ZM183.475 364.776H188.531V365.864H183.475V364.776ZM185.491 361.768H186.579V365.304H185.491V361.768ZM183.171 373.016C183.896 372.867 184.76 372.685 185.763 372.472C186.765 372.259 187.779 372.035 188.803 371.8L188.931 372.84C187.971 373.085 187.011 373.325 186.051 373.56C185.091 373.795 184.221 374.003 183.443 374.184L183.171 373.016ZM183.811 366.648L184.739 366.488C184.867 367.032 184.979 367.619 185.075 368.248C185.171 368.867 185.245 369.475 185.299 370.072C185.363 370.659 185.395 371.187 185.395 371.656L184.419 371.816C184.408 371.347 184.376 370.819 184.323 370.232C184.28 369.635 184.211 369.027 184.115 368.408C184.029 367.779 183.928 367.192 183.811 366.648ZM187.027 366.36L188.147 366.6C188.051 367.219 187.939 367.885 187.811 368.6C187.683 369.315 187.555 370.008 187.427 370.68C187.299 371.352 187.171 371.933 187.043 372.424L186.147 372.184C186.232 371.811 186.317 371.384 186.403 370.904C186.499 370.413 186.584 369.907 186.659 369.384C186.744 368.851 186.819 368.323 186.883 367.8C186.947 367.277 186.995 366.797 187.027 366.36Z" fill="#2D313E"/>
</svg>
