<svg width="350" height="443" viewBox="0 0 350 443" fill="none" xmlns="http://www.w3.org/2000/svg">
<path d="M129.521 143.164V131.528H133.59C134.4 131.528 135.069 131.668 135.595 131.948C136.122 132.225 136.514 132.598 136.771 133.067C137.029 133.533 137.158 134.05 137.158 134.619C137.158 135.119 137.069 135.531 136.891 135.857C136.716 136.183 136.485 136.441 136.198 136.63C135.913 136.819 135.605 136.96 135.271 137.05V137.164C135.627 137.187 135.985 137.312 136.345 137.539C136.705 137.766 137.006 138.092 137.249 138.516C137.491 138.941 137.612 139.46 137.612 140.073C137.612 140.656 137.48 141.181 137.215 141.647C136.949 142.113 136.531 142.482 135.959 142.755C135.387 143.028 134.643 143.164 133.726 143.164H129.521ZM130.93 141.914H133.726C134.646 141.914 135.3 141.736 135.686 141.38C136.076 141.02 136.271 140.585 136.271 140.073C136.271 139.679 136.171 139.316 135.97 138.982C135.77 138.645 135.484 138.376 135.112 138.175C134.741 137.971 134.302 137.869 133.794 137.869H130.93V141.914ZM130.93 136.641H133.544C133.968 136.641 134.351 136.558 134.692 136.391C135.037 136.225 135.309 135.99 135.51 135.687C135.715 135.384 135.817 135.028 135.817 134.619C135.817 134.107 135.639 133.674 135.283 133.317C134.927 132.958 134.362 132.778 133.59 132.778H130.93V136.641ZM142.314 143.369C141.761 143.369 141.259 143.264 140.808 143.056C140.358 142.844 140 142.539 139.734 142.141C139.469 141.74 139.337 141.255 139.337 140.687C139.337 140.187 139.435 139.781 139.632 139.471C139.829 139.156 140.092 138.91 140.422 138.732C140.752 138.554 141.115 138.422 141.513 138.335C141.914 138.244 142.318 138.172 142.723 138.119C143.253 138.05 143.683 137.999 144.013 137.965C144.346 137.927 144.589 137.865 144.74 137.778C144.895 137.691 144.973 137.539 144.973 137.323V137.278C144.973 136.717 144.82 136.281 144.513 135.971C144.21 135.66 143.75 135.505 143.132 135.505C142.492 135.505 141.99 135.645 141.627 135.925C141.263 136.206 141.007 136.505 140.859 136.823L139.587 136.369C139.814 135.838 140.117 135.425 140.496 135.13C140.878 134.831 141.295 134.622 141.746 134.505C142.2 134.384 142.647 134.323 143.087 134.323C143.367 134.323 143.689 134.357 144.053 134.425C144.42 134.49 144.774 134.624 145.115 134.829C145.46 135.033 145.746 135.342 145.973 135.755C146.2 136.168 146.314 136.721 146.314 137.414V143.164H144.973V141.982H144.905C144.814 142.172 144.662 142.374 144.45 142.59C144.238 142.806 143.956 142.99 143.604 143.141C143.252 143.293 142.822 143.369 142.314 143.369ZM142.519 142.164C143.049 142.164 143.496 142.06 143.859 141.852C144.227 141.643 144.503 141.374 144.689 141.045C144.878 140.715 144.973 140.369 144.973 140.005V138.778C144.916 138.846 144.791 138.908 144.598 138.965C144.409 139.018 144.189 139.066 143.939 139.107C143.693 139.145 143.452 139.179 143.217 139.21C142.986 139.236 142.799 139.259 142.655 139.278C142.306 139.323 141.981 139.397 141.678 139.499C141.378 139.598 141.136 139.747 140.95 139.948C140.769 140.145 140.678 140.414 140.678 140.755C140.678 141.221 140.85 141.573 141.195 141.812C141.543 142.047 141.984 142.164 142.519 142.164ZM152.307 143.346C151.489 143.346 150.784 143.153 150.193 142.766C149.602 142.38 149.148 141.848 148.83 141.17C148.511 140.492 148.352 139.717 148.352 138.846C148.352 137.96 148.515 137.177 148.841 136.499C149.171 135.817 149.629 135.285 150.216 134.903C150.807 134.516 151.496 134.323 152.284 134.323C152.898 134.323 153.451 134.437 153.943 134.664C154.436 134.891 154.839 135.21 155.153 135.619C155.468 136.028 155.663 136.505 155.739 137.05H154.398C154.296 136.653 154.068 136.3 153.716 135.994C153.368 135.683 152.898 135.528 152.307 135.528C151.784 135.528 151.326 135.664 150.932 135.937C150.542 136.206 150.237 136.586 150.017 137.079C149.801 137.567 149.693 138.141 149.693 138.8C149.693 139.475 149.799 140.062 150.011 140.562C150.227 141.062 150.53 141.45 150.921 141.727C151.314 142.003 151.777 142.141 152.307 142.141C152.655 142.141 152.972 142.081 153.256 141.96C153.54 141.838 153.78 141.664 153.977 141.437C154.174 141.21 154.314 140.937 154.398 140.619H155.739C155.663 141.134 155.475 141.598 155.176 142.011C154.881 142.42 154.489 142.746 154 142.988C153.515 143.227 152.951 143.346 152.307 143.346ZM158.949 139.982L158.926 138.323H159.199L163.017 134.437H164.676L160.608 138.55H160.494L158.949 139.982ZM157.699 143.164V131.528H159.04V143.164H157.699ZM163.244 143.164L159.835 138.846L160.79 137.914L164.949 143.164H163.244ZM171.902 139.596V134.437H173.243V143.164H171.902V141.687H171.811C171.607 142.13 171.288 142.507 170.857 142.817C170.425 143.124 169.879 143.278 169.22 143.278C168.675 143.278 168.19 143.158 167.766 142.92C167.341 142.677 167.008 142.314 166.766 141.829C166.523 141.34 166.402 140.725 166.402 139.982V134.437H167.743V139.891C167.743 140.528 167.921 141.035 168.277 141.414C168.637 141.793 169.095 141.982 169.652 141.982C169.985 141.982 170.324 141.897 170.669 141.727C171.018 141.556 171.309 141.295 171.544 140.942C171.783 140.59 171.902 140.141 171.902 139.596ZM175.699 146.437V134.437H176.994V135.823H177.153C177.252 135.672 177.388 135.478 177.563 135.244C177.741 135.005 177.994 134.793 178.324 134.607C178.657 134.418 179.108 134.323 179.676 134.323C180.411 134.323 181.059 134.507 181.619 134.874C182.18 135.242 182.618 135.763 182.932 136.437C183.246 137.111 183.403 137.906 183.403 138.823C183.403 139.747 183.246 140.549 182.932 141.227C182.618 141.901 182.182 142.424 181.625 142.795C181.068 143.162 180.426 143.346 179.699 143.346C179.138 143.346 178.689 143.253 178.352 143.067C178.015 142.878 177.756 142.664 177.574 142.425C177.392 142.183 177.252 141.982 177.153 141.823H177.04V146.437H175.699ZM177.017 138.8C177.017 139.46 177.114 140.041 177.307 140.545C177.5 141.045 177.782 141.437 178.153 141.721C178.525 142.001 178.979 142.141 179.517 142.141C180.078 142.141 180.546 141.994 180.921 141.698C181.299 141.399 181.583 140.997 181.773 140.494C181.966 139.986 182.063 139.422 182.063 138.8C182.063 138.187 181.968 137.634 181.778 137.141C181.593 136.645 181.311 136.253 180.932 135.965C180.557 135.674 180.085 135.528 179.517 135.528C178.972 135.528 178.513 135.666 178.142 135.942C177.771 136.215 177.491 136.598 177.301 137.09C177.112 137.579 177.017 138.149 177.017 138.8ZM191.29 137.914V143.164H189.949V131.528H191.29V135.8H191.403C191.608 135.35 191.915 134.992 192.324 134.727C192.737 134.458 193.286 134.323 193.972 134.323C194.566 134.323 195.087 134.442 195.534 134.681C195.981 134.916 196.328 135.278 196.574 135.766C196.824 136.251 196.949 136.869 196.949 137.619V143.164H195.608V137.71C195.608 137.016 195.428 136.48 195.068 136.102C194.712 135.719 194.218 135.528 193.585 135.528C193.146 135.528 192.752 135.621 192.403 135.806C192.059 135.992 191.786 136.263 191.585 136.619C191.388 136.975 191.29 137.406 191.29 137.914ZM202.948 143.346C202.16 143.346 201.468 143.158 200.874 142.783C200.283 142.408 199.821 141.884 199.487 141.21C199.158 140.535 198.993 139.747 198.993 138.846C198.993 137.937 199.158 137.143 199.487 136.465C199.821 135.787 200.283 135.261 200.874 134.886C201.468 134.511 202.16 134.323 202.948 134.323C203.735 134.323 204.425 134.511 205.016 134.886C205.61 135.261 206.073 135.787 206.402 136.465C206.735 137.143 206.902 137.937 206.902 138.846C206.902 139.747 206.735 140.535 206.402 141.21C206.073 141.884 205.61 142.408 205.016 142.783C204.425 143.158 203.735 143.346 202.948 143.346ZM202.948 142.141C203.546 142.141 204.038 141.988 204.425 141.681C204.811 141.374 205.097 140.971 205.283 140.471C205.468 139.971 205.561 139.429 205.561 138.846C205.561 138.263 205.468 137.719 205.283 137.215C205.097 136.711 204.811 136.304 204.425 135.994C204.038 135.683 203.546 135.528 202.948 135.528C202.349 135.528 201.857 135.683 201.47 135.994C201.084 136.304 200.798 136.711 200.612 137.215C200.427 137.719 200.334 138.263 200.334 138.846C200.334 139.429 200.427 139.971 200.612 140.471C200.798 140.971 201.084 141.374 201.47 141.681C201.857 141.988 202.349 142.141 202.948 142.141ZM215.131 136.391L213.926 136.732C213.85 136.531 213.739 136.336 213.591 136.147C213.447 135.954 213.25 135.795 213 135.67C212.75 135.545 212.43 135.482 212.04 135.482C211.506 135.482 211.061 135.605 210.705 135.852C210.352 136.094 210.176 136.403 210.176 136.778C210.176 137.111 210.297 137.374 210.54 137.567C210.782 137.761 211.161 137.922 211.676 138.05L212.972 138.369C213.752 138.558 214.333 138.848 214.716 139.238C215.099 139.624 215.29 140.122 215.29 140.732C215.29 141.232 215.146 141.679 214.858 142.073C214.574 142.467 214.176 142.778 213.665 143.005C213.153 143.232 212.559 143.346 211.881 143.346C210.991 143.346 210.254 143.153 209.671 142.766C209.087 142.38 208.718 141.816 208.563 141.073L209.835 140.755C209.957 141.225 210.186 141.577 210.523 141.812C210.864 142.047 211.309 142.164 211.858 142.164C212.483 142.164 212.979 142.031 213.347 141.766C213.718 141.497 213.903 141.175 213.903 140.8C213.903 140.497 213.797 140.244 213.585 140.039C213.373 139.831 213.047 139.675 212.608 139.573L211.153 139.232C210.354 139.043 209.767 138.749 209.392 138.352C209.021 137.95 208.835 137.448 208.835 136.846C208.835 136.353 208.974 135.918 209.25 135.539C209.53 135.16 209.911 134.863 210.392 134.647C210.877 134.431 211.426 134.323 212.04 134.323C212.903 134.323 213.582 134.513 214.074 134.891C214.57 135.27 214.922 135.77 215.131 136.391ZM221.104 134.437V135.573H216.581V134.437H221.104ZM217.899 132.346H219.24V140.664C219.24 141.043 219.295 141.327 219.405 141.516C219.519 141.702 219.662 141.827 219.837 141.891C220.015 141.952 220.202 141.982 220.399 141.982C220.547 141.982 220.668 141.975 220.763 141.96C220.858 141.941 220.933 141.925 220.99 141.914L221.263 143.119C221.172 143.153 221.045 143.187 220.882 143.221C220.719 143.259 220.513 143.278 220.263 143.278C219.884 143.278 219.513 143.196 219.149 143.033C218.789 142.871 218.49 142.622 218.252 142.289C218.017 141.956 217.899 141.535 217.899 141.028V132.346Z" fill="#2D313E"/>
<g opacity="0.7">
<rect x="176.554" y="277.689" width="26.0043" height="3.71489" transform="rotate(90 176.554 277.689)" fill="#3B93CA"/>
<path d="M174.697 313.909L169.067 300.675L180.327 300.675L174.697 313.909Z" fill="#3B93CA"/>
<path d="M174.697 267.473L169.067 280.707L180.327 280.707L174.697 267.473Z" fill="#3B93CA"/>
</g>
<g opacity="0.7">
<rect x="176.554" y="163.216" width="26.0043" height="3.71489" transform="rotate(90 176.554 163.216)" fill="#3B93CA"/>
<path d="M174.697 199.436L169.067 186.202L180.327 186.202L174.697 199.436Z" fill="#3B93CA"/>
<path d="M174.697 153L169.067 166.234L180.327 166.234L174.697 153Z" fill="#3B93CA"/>
</g>
<path d="M239.411 96.7541C239.411 98.4985 238.868 100.058 238.013 101.171C237.158 102.283 236.013 102.929 234.787 102.929H115.117C112.672 102.929 110.492 100.299 110.492 96.7541V6.67472C110.492 4.93039 111.035 3.37108 111.89 2.25832C112.745 1.14606 113.89 0.5 115.117 0.5H234.787C237.231 0.5 239.411 3.13009 239.411 6.67472V96.7541Z" stroke="#2D313E"/>
<path d="M235.861 83.9173H235.853V84.4173C235.853 87.1554 233.856 89.2904 231.495 89.2904H118.409C116.048 89.2904 114.051 87.1554 114.051 84.4173V12.0132C114.051 9.27513 116.048 7.14014 118.409 7.14014H231.503C233.864 7.14014 235.861 9.27513 235.861 12.0132V83.9173Z" fill="#84D5BD" stroke="#2D313E"/>
<path d="M166.652 112.235C167.135 111.772 167.672 111.13 168.05 110.309C168.493 109.346 168.712 108.149 168.384 106.741C168.111 105.571 167.466 104.28 166.3 102.87H187.018C184.288 106.456 184.239 109.009 185.131 110.74C185.458 111.373 185.897 111.865 186.324 112.235H166.652Z" stroke="#2D313E"/>
<path d="M155.825 112.83H197.356V117.017H155.825V112.83Z" stroke="#2D313E"/>
<path d="M110.492 96.7541V84.8638H239.411V96.7541C239.411 100.299 237.231 102.929 234.787 102.929H115.117C113.89 102.929 112.745 102.283 111.89 101.171C111.035 100.058 110.492 98.4984 110.492 96.7541Z" fill="#F3F3F3" stroke="#2D313E"/>
<path d="M154.45 65.1571H162.006V42.4697H154.45V65.1571ZM196.006 44.3603C196.006 42.2806 194.306 40.5791 192.228 40.5791H180.309L182.104 31.9389L182.16 31.3339C182.16 30.5588 181.839 29.8403 181.329 29.3299L179.327 27.3447L166.898 39.8039C166.199 40.4845 165.784 41.4298 165.784 42.4697V61.3758C165.784 63.4555 167.484 65.1571 169.561 65.1571H186.561C188.129 65.1571 189.47 64.2118 190.037 62.8505L195.741 49.5217C195.911 49.0868 196.006 48.6331 196.006 48.1415V44.3603Z" fill="#1C7057"/>
<path d="M99.9489 242.046V253.682H98.5852L92.2443 244.546H92.1307V253.682H90.7216V242.046H92.0852L98.4489 251.205H98.5625V242.046H99.9489ZM106.246 253.864C105.405 253.864 104.679 253.678 104.07 253.307C103.464 252.932 102.996 252.409 102.666 251.739C102.34 251.065 102.178 250.281 102.178 249.387C102.178 248.493 102.34 247.705 102.666 247.023C102.996 246.337 103.454 245.803 104.041 245.421C104.632 245.034 105.321 244.841 106.109 244.841C106.564 244.841 107.013 244.917 107.456 245.068C107.899 245.22 108.303 245.466 108.666 245.807C109.03 246.144 109.32 246.591 109.536 247.148C109.751 247.705 109.859 248.39 109.859 249.205V249.773H103.132V248.614H108.496C108.496 248.122 108.397 247.682 108.2 247.296C108.007 246.909 107.731 246.604 107.371 246.381C107.015 246.158 106.594 246.046 106.109 246.046C105.575 246.046 105.113 246.178 104.723 246.443C104.337 246.705 104.039 247.046 103.831 247.466C103.623 247.887 103.518 248.337 103.518 248.818V249.591C103.518 250.25 103.632 250.809 103.859 251.267C104.09 251.722 104.411 252.068 104.82 252.307C105.229 252.542 105.704 252.659 106.246 252.659C106.598 252.659 106.916 252.61 107.2 252.512C107.488 252.409 107.736 252.258 107.945 252.057C108.153 251.853 108.314 251.599 108.428 251.296L109.723 251.659C109.587 252.099 109.357 252.485 109.036 252.818C108.714 253.148 108.316 253.406 107.842 253.591C107.369 253.773 106.837 253.864 106.246 253.864ZM115.695 244.955V246.091H111.172V244.955H115.695ZM112.49 242.864H113.831V251.182C113.831 251.561 113.886 251.845 113.996 252.034C114.109 252.22 114.253 252.345 114.428 252.409C114.606 252.47 114.793 252.5 114.99 252.5C115.138 252.5 115.259 252.493 115.354 252.478C115.448 252.459 115.524 252.443 115.581 252.432L115.854 253.637C115.763 253.671 115.636 253.705 115.473 253.739C115.31 253.777 115.104 253.796 114.854 253.796C114.475 253.796 114.104 253.714 113.74 253.551C113.38 253.389 113.081 253.14 112.842 252.807C112.607 252.474 112.49 252.053 112.49 251.546V242.864ZM119.689 253.682L117.03 244.955H118.439L120.325 251.637H120.416L122.28 244.955H123.712L125.553 251.614H125.643L127.53 244.955H128.939L126.28 253.682H124.962L123.053 246.978H122.916L121.007 253.682H119.689ZM133.96 253.864C133.172 253.864 132.481 253.676 131.886 253.301C131.295 252.926 130.833 252.402 130.5 251.728C130.17 251.053 130.006 250.265 130.006 249.364C130.006 248.455 130.17 247.661 130.5 246.983C130.833 246.305 131.295 245.779 131.886 245.404C132.481 245.029 133.172 244.841 133.96 244.841C134.748 244.841 135.438 245.029 136.028 245.404C136.623 245.779 137.085 246.305 137.415 246.983C137.748 247.661 137.915 248.455 137.915 249.364C137.915 250.265 137.748 251.053 137.415 251.728C137.085 252.402 136.623 252.926 136.028 253.301C135.438 253.676 134.748 253.864 133.96 253.864ZM133.96 252.659C134.559 252.659 135.051 252.506 135.438 252.199C135.824 251.892 136.11 251.489 136.295 250.989C136.481 250.489 136.574 249.947 136.574 249.364C136.574 248.781 136.481 248.237 136.295 247.733C136.11 247.229 135.824 246.822 135.438 246.512C135.051 246.201 134.559 246.046 133.96 246.046C133.362 246.046 132.869 246.201 132.483 246.512C132.097 246.822 131.811 247.229 131.625 247.733C131.439 248.237 131.347 248.781 131.347 249.364C131.347 249.947 131.439 250.489 131.625 250.989C131.811 251.489 132.097 251.892 132.483 252.199C132.869 252.506 133.362 252.659 133.96 252.659ZM139.962 253.682V244.955H141.257V246.273H141.348C141.507 245.841 141.795 245.491 142.212 245.222C142.628 244.953 143.098 244.818 143.621 244.818C143.719 244.818 143.842 244.82 143.99 244.824C144.138 244.828 144.25 244.834 144.325 244.841V246.205C144.28 246.193 144.176 246.176 144.013 246.154C143.854 246.127 143.685 246.114 143.507 246.114C143.083 246.114 142.704 246.203 142.371 246.381C142.041 246.555 141.78 246.798 141.587 247.108C141.397 247.415 141.303 247.765 141.303 248.159V253.682H139.962ZM147.165 250.5L147.142 248.841H147.415L151.233 244.955H152.892L148.824 249.068H148.71L147.165 250.5ZM145.915 253.682V242.046H147.256V253.682H145.915ZM151.46 253.682L148.051 249.364L149.006 248.432L153.165 253.682H151.46ZM160.709 242.046V253.682H159.3V242.046H160.709ZM164.693 248.432V253.682H163.352V244.955H164.648V246.318H164.761C164.966 245.875 165.277 245.519 165.693 245.25C166.11 244.978 166.648 244.841 167.307 244.841C167.898 244.841 168.415 244.962 168.858 245.205C169.301 245.443 169.646 245.807 169.892 246.296C170.138 246.781 170.261 247.394 170.261 248.137V253.682H168.92V248.228C168.92 247.542 168.742 247.008 168.386 246.625C168.03 246.239 167.542 246.046 166.92 246.046C166.492 246.046 166.11 246.139 165.773 246.324C165.439 246.51 165.176 246.781 164.983 247.137C164.79 247.493 164.693 247.925 164.693 248.432ZM176.598 244.955V246.091H171.893V244.955H176.598ZM173.303 253.682V243.75C173.303 243.25 173.42 242.834 173.655 242.5C173.89 242.167 174.195 241.917 174.57 241.75C174.945 241.584 175.34 241.5 175.757 241.5C176.087 241.5 176.356 241.527 176.564 241.58C176.772 241.633 176.928 241.682 177.03 241.728L176.643 242.887C176.575 242.864 176.481 242.836 176.359 242.801C176.242 242.767 176.087 242.75 175.893 242.75C175.45 242.75 175.13 242.862 174.933 243.086C174.74 243.309 174.643 243.637 174.643 244.068V253.682H173.303ZM178.477 253.682V244.955H179.773V246.273H179.864C180.023 245.841 180.311 245.491 180.727 245.222C181.144 244.953 181.614 244.818 182.136 244.818C182.235 244.818 182.358 244.82 182.506 244.824C182.653 244.828 182.765 244.834 182.841 244.841V246.205C182.795 246.193 182.691 246.176 182.528 246.154C182.369 246.127 182.201 246.114 182.023 246.114C181.598 246.114 181.22 246.203 180.886 246.381C180.557 246.555 180.295 246.798 180.102 247.108C179.913 247.415 179.818 247.765 179.818 248.159V253.682H178.477ZM186.999 253.887C186.446 253.887 185.944 253.783 185.493 253.574C185.042 253.362 184.684 253.057 184.419 252.659C184.154 252.258 184.021 251.773 184.021 251.205C184.021 250.705 184.12 250.3 184.317 249.989C184.514 249.675 184.777 249.428 185.107 249.25C185.436 249.072 185.8 248.94 186.197 248.853C186.599 248.762 187.002 248.69 187.408 248.637C187.938 248.568 188.368 248.517 188.697 248.483C189.031 248.445 189.273 248.383 189.425 248.296C189.58 248.209 189.658 248.057 189.658 247.841V247.796C189.658 247.235 189.504 246.8 189.197 246.489C188.894 246.178 188.434 246.023 187.817 246.023C187.177 246.023 186.675 246.163 186.311 246.443C185.947 246.724 185.692 247.023 185.544 247.341L184.271 246.887C184.499 246.356 184.802 245.943 185.18 245.648C185.563 245.349 185.98 245.14 186.43 245.023C186.885 244.902 187.332 244.841 187.771 244.841C188.052 244.841 188.374 244.875 188.737 244.943C189.105 245.008 189.459 245.142 189.8 245.347C190.144 245.551 190.43 245.86 190.658 246.273C190.885 246.686 190.999 247.239 190.999 247.932V253.682H189.658V252.5H189.589C189.499 252.69 189.347 252.892 189.135 253.108C188.923 253.324 188.641 253.508 188.288 253.659C187.936 253.811 187.506 253.887 186.999 253.887ZM187.203 252.682C187.733 252.682 188.18 252.578 188.544 252.37C188.911 252.161 189.188 251.892 189.374 251.563C189.563 251.233 189.658 250.887 189.658 250.523V249.296C189.601 249.364 189.476 249.426 189.283 249.483C189.093 249.536 188.874 249.584 188.624 249.625C188.377 249.663 188.137 249.697 187.902 249.728C187.671 249.754 187.483 249.777 187.339 249.796C186.991 249.841 186.665 249.915 186.362 250.017C186.063 250.116 185.821 250.265 185.635 250.466C185.453 250.663 185.362 250.932 185.362 251.273C185.362 251.739 185.535 252.091 185.879 252.33C186.228 252.565 186.669 252.682 187.203 252.682ZM199.628 246.909L198.423 247.25C198.348 247.05 198.236 246.854 198.088 246.665C197.944 246.472 197.747 246.313 197.497 246.188C197.247 246.063 196.927 246 196.537 246C196.003 246 195.558 246.123 195.202 246.37C194.849 246.612 194.673 246.921 194.673 247.296C194.673 247.629 194.795 247.892 195.037 248.086C195.279 248.279 195.658 248.44 196.173 248.568L197.469 248.887C198.249 249.076 198.83 249.366 199.213 249.756C199.596 250.142 199.787 250.64 199.787 251.25C199.787 251.75 199.643 252.197 199.355 252.591C199.071 252.985 198.673 253.296 198.162 253.523C197.651 253.75 197.056 253.864 196.378 253.864C195.488 253.864 194.751 253.671 194.168 253.284C193.584 252.898 193.215 252.334 193.06 251.591L194.332 251.273C194.454 251.743 194.683 252.095 195.02 252.33C195.361 252.565 195.806 252.682 196.355 252.682C196.98 252.682 197.476 252.55 197.844 252.284C198.215 252.015 198.401 251.693 198.401 251.318C198.401 251.015 198.295 250.762 198.082 250.557C197.87 250.349 197.545 250.193 197.105 250.091L195.651 249.75C194.851 249.561 194.264 249.267 193.889 248.87C193.518 248.468 193.332 247.966 193.332 247.364C193.332 246.872 193.471 246.436 193.747 246.057C194.027 245.678 194.408 245.381 194.889 245.165C195.374 244.949 195.923 244.841 196.537 244.841C197.401 244.841 198.079 245.031 198.571 245.409C199.067 245.788 199.42 246.288 199.628 246.909ZM205.601 244.955V246.091H201.078V244.955H205.601ZM202.396 242.864H203.737V251.182C203.737 251.561 203.792 251.845 203.902 252.034C204.016 252.22 204.16 252.345 204.334 252.409C204.512 252.47 204.699 252.5 204.896 252.5C205.044 252.5 205.165 252.493 205.26 252.478C205.355 252.459 205.43 252.443 205.487 252.432L205.76 253.637C205.669 253.671 205.542 253.705 205.379 253.739C205.216 253.777 205.01 253.796 204.76 253.796C204.381 253.796 204.01 253.714 203.646 253.551C203.286 253.389 202.987 253.14 202.749 252.807C202.514 252.474 202.396 252.053 202.396 251.546V242.864ZM207.618 253.682V244.955H208.913V246.273H209.004C209.163 245.841 209.451 245.491 209.868 245.222C210.285 244.953 210.754 244.818 211.277 244.818C211.375 244.818 211.499 244.82 211.646 244.824C211.794 244.828 211.906 244.834 211.982 244.841V246.205C211.936 246.193 211.832 246.176 211.669 246.154C211.51 246.127 211.341 246.114 211.163 246.114C210.739 246.114 210.36 246.203 210.027 246.381C209.697 246.555 209.436 246.798 209.243 247.108C209.054 247.415 208.959 247.765 208.959 248.159V253.682H207.618ZM219.071 250.114V244.955H220.412V253.682H219.071V252.205H218.98C218.776 252.648 218.457 253.025 218.026 253.336C217.594 253.642 217.048 253.796 216.389 253.796C215.844 253.796 215.359 253.676 214.935 253.438C214.51 253.195 214.177 252.832 213.935 252.347C213.692 251.858 213.571 251.243 213.571 250.5V244.955H214.912V250.409C214.912 251.046 215.09 251.553 215.446 251.932C215.806 252.311 216.264 252.5 216.821 252.5C217.154 252.5 217.493 252.415 217.838 252.245C218.187 252.074 218.478 251.813 218.713 251.461C218.952 251.108 219.071 250.659 219.071 250.114ZM226.413 253.864C225.595 253.864 224.891 253.671 224.3 253.284C223.709 252.898 223.254 252.366 222.936 251.688C222.618 251.01 222.459 250.235 222.459 249.364C222.459 248.478 222.622 247.695 222.947 247.017C223.277 246.336 223.735 245.803 224.322 245.421C224.913 245.034 225.603 244.841 226.391 244.841C227.004 244.841 227.557 244.955 228.05 245.182C228.542 245.409 228.946 245.728 229.26 246.137C229.574 246.546 229.769 247.023 229.845 247.568H228.504C228.402 247.171 228.175 246.818 227.822 246.512C227.474 246.201 227.004 246.046 226.413 246.046C225.891 246.046 225.432 246.182 225.038 246.455C224.648 246.724 224.343 247.104 224.124 247.597C223.908 248.086 223.8 248.659 223.8 249.318C223.8 249.993 223.906 250.58 224.118 251.08C224.334 251.58 224.637 251.968 225.027 252.245C225.421 252.521 225.883 252.659 226.413 252.659C226.762 252.659 227.078 252.599 227.362 252.478C227.646 252.356 227.887 252.182 228.084 251.955C228.281 251.728 228.421 251.455 228.504 251.137H229.845C229.769 251.652 229.582 252.116 229.283 252.529C228.987 252.938 228.595 253.264 228.107 253.506C227.622 253.745 227.057 253.864 226.413 253.864ZM235.601 244.955V246.091H231.078V244.955H235.601ZM232.396 242.864H233.737V251.182C233.737 251.561 233.792 251.845 233.902 252.034C234.016 252.22 234.16 252.345 234.334 252.409C234.512 252.47 234.699 252.5 234.896 252.5C235.044 252.5 235.165 252.493 235.26 252.478C235.355 252.459 235.43 252.443 235.487 252.432L235.76 253.637C235.669 253.671 235.542 253.705 235.379 253.739C235.216 253.777 235.01 253.796 234.76 253.796C234.381 253.796 234.01 253.714 233.646 253.551C233.286 253.389 232.987 253.14 232.749 252.807C232.514 252.474 232.396 252.053 232.396 251.546V242.864ZM243.118 250.114V244.955H244.459V253.682H243.118V252.205H243.027C242.822 252.648 242.504 253.025 242.072 253.336C241.641 253.642 241.095 253.796 240.436 253.796C239.891 253.796 239.406 253.676 238.982 253.438C238.557 253.195 238.224 252.832 237.982 252.347C237.739 251.858 237.618 251.243 237.618 250.5V244.955H238.959V250.409C238.959 251.046 239.137 251.553 239.493 251.932C239.853 252.311 240.311 252.5 240.868 252.5C241.201 252.5 241.54 252.415 241.885 252.245C242.233 252.074 242.525 251.813 242.76 251.461C242.999 251.108 243.118 250.659 243.118 250.114ZM246.915 253.682V244.955H248.21V246.273H248.301C248.46 245.841 248.748 245.491 249.165 245.222C249.581 244.953 250.051 244.818 250.574 244.818C250.672 244.818 250.795 244.82 250.943 244.824C251.091 244.828 251.203 244.834 251.278 244.841V246.205C251.233 246.193 251.129 246.176 250.966 246.154C250.807 246.127 250.638 246.114 250.46 246.114C250.036 246.114 249.657 246.203 249.324 246.381C248.994 246.555 248.733 246.798 248.54 247.108C248.35 247.415 248.256 247.765 248.256 248.159V253.682H246.915ZM256.261 253.864C255.42 253.864 254.695 253.678 254.085 253.307C253.479 252.932 253.011 252.409 252.682 251.739C252.356 251.065 252.193 250.281 252.193 249.387C252.193 248.493 252.356 247.705 252.682 247.023C253.011 246.337 253.47 245.803 254.057 245.421C254.648 245.034 255.337 244.841 256.125 244.841C256.58 244.841 257.028 244.917 257.472 245.068C257.915 245.22 258.318 245.466 258.682 245.807C259.045 246.144 259.335 246.591 259.551 247.148C259.767 247.705 259.875 248.39 259.875 249.205V249.773H253.148V248.614H258.511C258.511 248.122 258.413 247.682 258.216 247.296C258.023 246.909 257.746 246.604 257.386 246.381C257.03 246.158 256.61 246.046 256.125 246.046C255.591 246.046 255.129 246.178 254.739 246.443C254.352 246.705 254.055 247.046 253.847 247.466C253.638 247.887 253.534 248.337 253.534 248.818V249.591C253.534 250.25 253.648 250.809 253.875 251.267C254.106 251.722 254.426 252.068 254.835 252.307C255.244 252.542 255.72 252.659 256.261 252.659C256.614 252.659 256.932 252.61 257.216 252.512C257.504 252.409 257.752 252.258 257.96 252.057C258.169 251.853 258.33 251.599 258.443 251.296L259.739 251.659C259.602 252.099 259.373 252.485 259.051 252.818C258.729 253.148 258.331 253.406 257.858 253.591C257.384 253.773 256.852 253.864 256.261 253.864Z" fill="#2D313E"/>
<rect x="112.493" y="206.677" width="123.449" height="22.2181" rx="1.5" fill="#F8F8F8" stroke="#2D313E"/>
<rect x="117.565" y="211.749" width="12.0734" height="13.0021" fill="#52BD9D"/>
<rect x="151.928" y="212.678" width="11.1447" height="11.1447" fill="#929292"/>
<rect x="185.362" y="212.678" width="11.1447" height="11.1447" fill="#929292"/>
<rect x="135.212" y="212.678" width="11.1447" height="11.1447" fill="#929292"/>
<rect x="168.645" y="212.678" width="11.1447" height="11.1447" fill="#929292"/>
<rect x="202.079" y="212.678" width="11.1447" height="11.1447" fill="#929292"/>
<rect x="218.795" y="212.678" width="11.1447" height="11.1447" fill="#929292"/>
<path d="M239.105 419.874C239.105 421.616 238.562 423.174 237.708 424.286C236.855 425.398 235.71 426.043 234.485 426.043H114.909C112.467 426.043 110.289 423.415 110.289 419.874V329.865C110.289 328.122 110.832 326.564 111.686 325.453C112.54 324.341 113.684 323.696 114.909 323.696H234.485C236.928 323.696 239.105 326.324 239.105 329.865V419.874Z" stroke="#2D313E"/>
<path d="M235.558 407.047H235.55V407.547C235.55 410.282 233.555 412.415 231.196 412.415H118.199C115.84 412.415 113.845 410.282 113.845 407.547V335.2C113.845 332.464 115.84 330.331 118.199 330.331H231.203C233.563 330.331 235.558 332.464 235.558 335.2V407.047Z" stroke="#2D313E"/>
<path d="M166.405 435.341C166.887 434.879 167.423 434.237 167.801 433.417C168.244 432.455 168.462 431.26 168.134 429.853C167.862 428.684 167.218 427.394 166.053 425.985H186.753C184.025 429.568 183.977 432.119 184.868 433.848C185.195 434.481 185.633 434.972 186.059 435.341H166.405Z" stroke="#2D313E"/>
<path d="M155.587 435.938H197.084V440.121H155.587V435.938Z" stroke="#2D313E"/>
<path d="M110.289 419.873V407.993H239.105V419.873C239.105 423.415 236.928 426.043 234.485 426.043H114.909C113.684 426.043 112.54 425.397 111.686 424.286C110.832 423.174 110.289 421.616 110.289 419.873Z" fill="#F3F3F3" stroke="#2D313E"/>
<path d="M144.179 367H142.77C142.687 366.595 142.541 366.239 142.332 365.932C142.128 365.625 141.878 365.367 141.582 365.159C141.291 364.947 140.967 364.788 140.611 364.682C140.255 364.576 139.884 364.523 139.497 364.523C138.793 364.523 138.154 364.701 137.582 365.057C137.014 365.413 136.562 365.938 136.224 366.631C135.891 367.324 135.724 368.174 135.724 369.182C135.724 370.189 135.891 371.04 136.224 371.733C136.562 372.426 137.014 372.951 137.582 373.307C138.154 373.663 138.793 373.841 139.497 373.841C139.884 373.841 140.255 373.788 140.611 373.682C140.967 373.576 141.291 373.419 141.582 373.21C141.878 372.998 142.128 372.739 142.332 372.432C142.541 372.121 142.687 371.765 142.77 371.364H144.179C144.073 371.958 143.88 372.491 143.599 372.96C143.319 373.43 142.971 373.83 142.554 374.159C142.137 374.485 141.67 374.733 141.151 374.903C140.635 375.074 140.084 375.159 139.497 375.159C138.505 375.159 137.622 374.917 136.849 374.432C136.077 373.947 135.469 373.258 135.026 372.364C134.582 371.47 134.361 370.409 134.361 369.182C134.361 367.955 134.582 366.894 135.026 366C135.469 365.106 136.077 364.417 136.849 363.932C137.622 363.447 138.505 363.205 139.497 363.205C140.084 363.205 140.635 363.29 141.151 363.46C141.67 363.631 142.137 363.881 142.554 364.21C142.971 364.536 143.319 364.934 143.599 365.403C143.88 365.869 144.073 366.402 144.179 367ZM147.615 363.364V375H146.274V363.364H147.615ZM150.071 375V366.273H151.412V375H150.071ZM150.753 364.818C150.491 364.818 150.266 364.729 150.077 364.551C149.891 364.373 149.798 364.159 149.798 363.909C149.798 363.659 149.891 363.445 150.077 363.267C150.266 363.089 150.491 363 150.753 363C151.014 363 151.238 363.089 151.423 363.267C151.613 363.445 151.707 363.659 151.707 363.909C151.707 364.159 151.613 364.373 151.423 364.551C151.238 364.729 151.014 364.818 150.753 364.818ZM157.527 375.182C156.686 375.182 155.961 374.996 155.351 374.625C154.745 374.25 154.277 373.727 153.947 373.057C153.622 372.383 153.459 371.598 153.459 370.705C153.459 369.811 153.622 369.023 153.947 368.341C154.277 367.655 154.735 367.121 155.322 366.739C155.913 366.352 156.603 366.159 157.391 366.159C157.845 366.159 158.294 366.235 158.737 366.386C159.18 366.538 159.584 366.784 159.947 367.125C160.311 367.462 160.601 367.909 160.817 368.466C161.033 369.023 161.141 369.708 161.141 370.523V371.091H154.413V369.932H159.777C159.777 369.439 159.679 369 159.482 368.614C159.288 368.227 159.012 367.922 158.652 367.699C158.296 367.475 157.875 367.364 157.391 367.364C156.857 367.364 156.394 367.496 156.004 367.761C155.618 368.023 155.321 368.364 155.112 368.784C154.904 369.205 154.8 369.655 154.8 370.136V370.909C154.8 371.568 154.913 372.127 155.141 372.585C155.372 373.04 155.692 373.386 156.101 373.625C156.51 373.86 156.985 373.977 157.527 373.977C157.879 373.977 158.197 373.928 158.482 373.83C158.769 373.727 159.018 373.576 159.226 373.375C159.434 373.17 159.595 372.917 159.709 372.614L161.004 372.977C160.868 373.417 160.639 373.803 160.317 374.136C159.995 374.466 159.597 374.723 159.124 374.909C158.65 375.091 158.118 375.182 157.527 375.182ZM164.521 369.75V375H163.18V366.273H164.476V367.636H164.589C164.794 367.193 165.105 366.837 165.521 366.568C165.938 366.295 166.476 366.159 167.135 366.159C167.726 366.159 168.243 366.28 168.686 366.523C169.129 366.761 169.474 367.125 169.72 367.614C169.966 368.098 170.089 368.712 170.089 369.455V375H168.749V369.545C168.749 368.86 168.571 368.326 168.214 367.943C167.858 367.557 167.37 367.364 166.749 367.364C166.321 367.364 165.938 367.456 165.601 367.642C165.268 367.828 165.004 368.098 164.811 368.455C164.618 368.811 164.521 369.242 164.521 369.75ZM176.335 366.273V367.409H171.812V366.273H176.335ZM173.131 364.182H174.472V372.5C174.472 372.879 174.527 373.163 174.636 373.352C174.75 373.538 174.894 373.663 175.068 373.727C175.246 373.788 175.434 373.818 175.631 373.818C175.778 373.818 175.9 373.811 175.994 373.795C176.089 373.777 176.165 373.761 176.222 373.75L176.494 374.955C176.403 374.989 176.277 375.023 176.114 375.057C175.951 375.095 175.744 375.114 175.494 375.114C175.116 375.114 174.744 375.032 174.381 374.869C174.021 374.706 173.722 374.458 173.483 374.125C173.248 373.792 173.131 373.371 173.131 372.864V364.182ZM183.04 369.386V370.636H177.949V369.386H183.04ZM191.581 368.227L190.376 368.568C190.301 368.367 190.189 368.172 190.041 367.983C189.897 367.79 189.7 367.631 189.45 367.506C189.2 367.381 188.88 367.318 188.49 367.318C187.956 367.318 187.511 367.441 187.155 367.688C186.803 367.93 186.626 368.239 186.626 368.614C186.626 368.947 186.748 369.21 186.99 369.403C187.232 369.597 187.611 369.758 188.126 369.886L189.422 370.205C190.202 370.394 190.784 370.684 191.166 371.074C191.549 371.46 191.74 371.958 191.74 372.568C191.74 373.068 191.596 373.515 191.308 373.909C191.024 374.303 190.626 374.614 190.115 374.841C189.604 375.068 189.009 375.182 188.331 375.182C187.441 375.182 186.704 374.989 186.121 374.602C185.537 374.216 185.168 373.652 185.013 372.909L186.286 372.591C186.407 373.061 186.636 373.413 186.973 373.648C187.314 373.883 187.759 374 188.308 374C188.933 374 189.429 373.867 189.797 373.602C190.168 373.333 190.354 373.011 190.354 372.636C190.354 372.333 190.248 372.08 190.036 371.875C189.823 371.667 189.498 371.511 189.058 371.409L187.604 371.068C186.804 370.879 186.217 370.585 185.842 370.188C185.471 369.786 185.286 369.284 185.286 368.682C185.286 368.189 185.424 367.754 185.7 367.375C185.981 366.996 186.361 366.699 186.842 366.483C187.327 366.267 187.876 366.159 188.49 366.159C189.354 366.159 190.032 366.348 190.524 366.727C191.02 367.106 191.373 367.606 191.581 368.227ZM193.759 375V366.273H195.099V375H193.759ZM194.44 364.818C194.179 364.818 193.954 364.729 193.764 364.551C193.579 364.373 193.486 364.159 193.486 363.909C193.486 363.659 193.579 363.445 193.764 363.267C193.954 363.089 194.179 363 194.44 363C194.702 363 194.925 363.089 195.111 363.267C195.3 363.445 195.395 363.659 195.395 363.909C195.395 364.159 195.3 364.373 195.111 364.551C194.925 364.729 194.702 364.818 194.44 364.818ZM200.851 375.182C200.124 375.182 199.482 374.998 198.925 374.631C198.368 374.259 197.932 373.737 197.618 373.062C197.304 372.384 197.146 371.583 197.146 370.659C197.146 369.742 197.304 368.947 197.618 368.273C197.932 367.598 198.37 367.078 198.93 366.71C199.491 366.343 200.139 366.159 200.874 366.159C201.442 366.159 201.891 366.254 202.22 366.443C202.554 366.629 202.807 366.841 202.982 367.08C203.16 367.314 203.298 367.508 203.396 367.659H203.51V363.364H204.851V375H203.555V373.659H203.396C203.298 373.818 203.158 374.019 202.976 374.261C202.794 374.5 202.535 374.714 202.197 374.903C201.86 375.089 201.411 375.182 200.851 375.182ZM201.033 373.977C201.571 373.977 202.025 373.837 202.396 373.557C202.768 373.273 203.05 372.881 203.243 372.381C203.436 371.877 203.533 371.295 203.533 370.636C203.533 369.985 203.438 369.415 203.249 368.926C203.059 368.434 202.779 368.051 202.408 367.778C202.036 367.502 201.578 367.364 201.033 367.364C200.464 367.364 199.991 367.509 199.612 367.801C199.237 368.089 198.955 368.481 198.766 368.977C198.58 369.47 198.487 370.023 198.487 370.636C198.487 371.258 198.582 371.822 198.771 372.33C198.964 372.833 199.249 373.235 199.624 373.534C200.002 373.83 200.472 373.977 201.033 373.977ZM211.152 375.182C210.311 375.182 209.586 374.996 208.976 374.625C208.37 374.25 207.902 373.727 207.572 373.057C207.247 372.383 207.084 371.598 207.084 370.705C207.084 369.811 207.247 369.023 207.572 368.341C207.902 367.655 208.36 367.121 208.947 366.739C209.538 366.352 210.228 366.159 211.016 366.159C211.47 366.159 211.919 366.235 212.362 366.386C212.805 366.538 213.209 366.784 213.572 367.125C213.936 367.462 214.226 367.909 214.442 368.466C214.658 369.023 214.766 369.708 214.766 370.523V371.091H208.038V369.932H213.402C213.402 369.439 213.304 369 213.107 368.614C212.913 368.227 212.637 367.922 212.277 367.699C211.921 367.475 211.5 367.364 211.016 367.364C210.482 367.364 210.019 367.496 209.629 367.761C209.243 368.023 208.946 368.364 208.737 368.784C208.529 369.205 208.425 369.655 208.425 370.136V370.909C208.425 371.568 208.538 372.127 208.766 372.585C208.997 373.04 209.317 373.386 209.726 373.625C210.135 373.86 210.61 373.977 211.152 373.977C211.504 373.977 211.822 373.928 212.107 373.83C212.394 373.727 212.643 373.576 212.851 373.375C213.059 373.17 213.22 372.917 213.334 372.614L214.629 372.977C214.493 373.417 214.264 373.803 213.942 374.136C213.62 374.466 213.222 374.723 212.749 374.909C212.275 375.091 211.743 375.182 211.152 375.182Z" fill="#2D313E"/>
</svg>
