<?xml version="1.0" encoding="UTF-8"?>
<svg xmlns="http://www.w3.org/2000/svg" version="1.1" viewBox="0 0 290.46 54.42">
  <!-- Generator: Adobe Illustrator 29.6.1, SVG Export Plug-In . SVG Version: 2.1.1 Build 9)  -->
  <defs>
    <style>
      .st0 {
        fill: #07192d;
      }

      .st0, .st1, .st2 {
        opacity: .2;
      }

      .st3 {
        fill: #b7cfd8;
      }

      .st4 {
        isolation: isolate;
      }

      .st1, .st5 {
        fill: #538a78;
      }

      .st2 {
        mix-blend-mode: multiply;
      }

      .st6 {
        fill: #efefef;
      }

      .st7 {
        fill: #040000;
      }

      .st8 {
        fill: #81c8b3;
      }

      .st9 {
        fill: #7dc1ad;
      }
    </style>
  </defs>
  <g class="st4">
    <g id="_圖層_1">
      <g>
        <g>
          <polygon class="st1" points="6.29 20.48 6.29 33.94 26.35 51.12 35.26 43.49 35.26 30.04 31.95 27.21 35.26 24.38 35.26 10.93 26.35 3.3 6.29 20.48"/>
          <polygon class="st5" points="35.26 24.38 26.35 16.76 6.29 33.94 15.19 41.56 15.19 41.56 26.35 51.12 35.26 43.49 24.1 33.94 35.26 24.38"/>
          <polygon class="st0" points="35.26 11.25 35.26 10.93 26.35 3.63 6.29 20.48 6.29 20.81 15.19 28.44 15.19 28.44 26.35 37.99 35.26 30.37 35.26 30.04 24.1 20.81 35.26 11.25"/>
          <polygon class="st8" points="35.26 10.93 26.35 3.3 6.29 20.48 15.19 28.11 15.19 28.11 26.35 37.66 35.26 30.04 24.1 20.48 35.26 10.93"/>
          <path class="st3" d="M35.26,24.38"/>
          <path class="st3" d="M35.26,43.49"/>
        </g>
        <g>
          <g class="st2">
            <g>
              <path class="st7" d="M49,18.06l-.12-.47h5.45l.93,6.43c.65,4.26,1.01,6.4,1.09,6.4.11,0,.47-.82,1.09-2.46l.97-2.42h6.66l.97,2.42c.62,1.64.98,2.46,1.09,2.46.08,0,.44-2.13,1.09-6.4l.97-6.43h5.41l-.08.39c-.19,1.09-.75,4.78-1.69,11.08-.94,6.29-1.51,9.98-1.69,11.08-.05.16-.14.25-.26.29-.12.04-.46.06-1.03.06h-1.49l-2.66-.04-1.82-4.56c-.67-1.66-1.33-3.28-1.98-4.84l-.04-.04c-.16,0-.85,1.52-2.06,4.56l-1.98,4.88-2.66.04h-1.49c-.56,0-.91-.02-1.03-.06-.12-.04-.21-.14-.26-.29l-3.35-22.07Z"/>
              <path class="st7" d="M79.18,20.52v-3.08h5.33v3.08h-5.33ZM79.18,40.17v-18.14h5.33v18.14h-5.33Z"/>
              <path class="st7" d="M88.98,40.06v-16.38h14.81v16.38h-5.29v-11.27h-4.24v11.27h-5.29Z"/>
              <path class="st7" d="M108.27,40.37v-22.62h17.43v5.11h-12.14v12.4h12.14v5.11h-17.43Z"/>
              <path class="st7" d="M130.13,40.21v-22.66h5.29v22.66h-5.29Z"/>
              <path class="st7" d="M139.9,40.06v-16.38h14.81v16.38h-14.81ZM149.42,34.95v-6.16h-4.24v6.16h4.24Z"/>
              <path class="st7" d="M159.22,40.21v-16.54h5.45v11.43h4.24v-11.43h5.29v16.54h-14.97Z"/>
              <path class="st7" d="M188.27,23.75v-6.16h5.29v22.74h-14.85v-16.58h9.56ZM188.27,35.22v-6.32h-4.24v6.32h4.24Z"/>
              <path class="st7" d="M208.64,22.74v-5.15h17.51v5.15h-6.17v17.59h-5.12v-17.59h-6.21Z"/>
              <path class="st7" d="M228.37,40.33v-16.42h15.05v10.45h-9.72v1.52h9.72v4.45h-15.05ZM237.93,29.92v-1.56h-4.24v1.56h4.24Z"/>
              <path class="st7" d="M247.94,40.33v-16.42h14.85v5.15h-9.52v6.16h9.52v5.11h-14.85Z"/>
              <path class="st7" d="M267.26,40.17v-22.74h5.33v6.32h9.52v16.42h-5.29v-11.27h-4.24v11.27h-5.33Z"/>
            </g>
          </g>
          <g>
            <path class="st6" d="M47.5,16.56l-.12-.47h5.45l.93,6.43c.65,4.26,1.01,6.4,1.09,6.4.11,0,.47-.82,1.09-2.46l.97-2.42h6.66l.97,2.42c.62,1.64.98,2.46,1.09,2.46.08,0,.44-2.13,1.09-6.4l.97-6.43h5.41l-.08.39c-.19,1.09-.75,4.78-1.69,11.08-.94,6.29-1.51,9.98-1.69,11.08-.05.16-.14.25-.26.29-.12.04-.46.06-1.03.06h-1.49l-2.66-.04-1.82-4.56c-.67-1.66-1.33-3.28-1.98-4.84l-.04-.04c-.16,0-.85,1.52-2.06,4.56l-1.98,4.88-2.66.04h-1.49c-.56,0-.91-.02-1.03-.06-.12-.04-.21-.14-.26-.29l-3.35-22.07Z"/>
            <path class="st6" d="M77.68,19.02v-3.08h5.33v3.08h-5.33ZM77.68,38.67v-18.14h5.33v18.14h-5.33Z"/>
            <path class="st6" d="M87.48,38.56v-16.38h14.81v16.38h-5.29v-11.27h-4.24v11.27h-5.29Z"/>
            <path class="st9" d="M106.77,38.87v-22.62h17.43v5.11h-12.14v12.4h12.14v5.11h-17.43Z"/>
            <path class="st9" d="M128.63,38.71v-22.66h5.29v22.66h-5.29Z"/>
            <path class="st9" d="M138.4,38.56v-16.38h14.81v16.38h-14.81ZM147.92,33.45v-6.16h-4.24v6.16h4.24Z"/>
            <path class="st9" d="M157.72,38.71v-16.54h5.45v11.43h4.24v-11.43h5.29v16.54h-14.97Z"/>
            <path class="st9" d="M186.77,22.25v-6.16h5.29v22.74h-14.85v-16.58h9.56ZM186.77,33.72v-6.32h-4.24v6.32h4.24Z"/>
            <path class="st6" d="M207.14,21.24v-5.15h17.51v5.15h-6.17v17.59h-5.12v-17.59h-6.21Z"/>
            <path class="st6" d="M226.87,38.83v-16.42h15.05v10.45h-9.72v1.52h9.72v4.45h-15.05ZM236.43,28.42v-1.56h-4.24v1.56h4.24Z"/>
            <path class="st6" d="M246.44,38.83v-16.42h14.85v5.15h-9.52v6.16h9.52v5.11h-14.85Z"/>
            <path class="st6" d="M265.76,38.67V15.94h5.33v6.32h9.52v16.42h-5.29v-11.27h-4.24v11.27h-5.33Z"/>
          </g>
        </g>
      </g>
    </g>
  </g>
</svg>