<svg width="93" height="84" viewBox="0 0 93 84" fill="none" xmlns="http://www.w3.org/2000/svg">
<path d="M93 30H0V82H93V30Z" fill="#38705F"/>
<path d="M46.5003 0L0 30H93L46.5003 0Z" fill="#6FB8A2"/>
<path d="M86 13H7V80H86V13Z" fill="#F4F4F4"/>
<path d="M81.33 17.3887H11.6309V18.6396H81.33V17.3887Z" fill="#DCDCDC"/>
<path d="M81.33 23.002H11.6309V24.2529H81.33V23.002Z" fill="#DCDCDC"/>
<path d="M81.33 28.6162H11.6309V29.8671H81.33V28.6162Z" fill="#DCDCDC"/>
<path d="M81.33 34.2295H11.6309V35.4804H81.33V34.2295Z" fill="#DCDCDC"/>
<path d="M81.33 39.8428H11.6309V41.0937H81.33V39.8428Z" fill="#DCDCDC"/>
<path d="M81.33 45.4561H11.6309V46.707H81.33V45.4561Z" fill="#DCDCDC"/>
<path d="M81.33 51.0693H11.6309V52.3203H81.33V51.0693Z" fill="#DCDCDC"/>
<path d="M81.33 56.6836H11.6309V57.9345H81.33V56.6836Z" fill="#DCDCDC"/>
<path d="M81.33 62.2969H11.6309V63.5478H81.33V62.2969Z" fill="#DCDCDC"/>
<path d="M81.33 67.9102H11.6309V69.1611H81.33V67.9102Z" fill="#DCDCDC"/>
<path d="M81.33 73.5234H11.6309V74.7744H81.33V73.5234Z" fill="#DCDCDC"/>
<path d="M0 30L36 57L0 84V30Z" fill="#84D5BD"/>
<path d="M93 30L57 57L93 84V30Z" fill="#84D5BD"/>
<path d="M0 84L35.8675 57H57.1331L93 84H0Z" fill="#60A691"/>
</svg>
