<svg width="528" height="356" viewBox="0 0 528 356" fill="none" xmlns="http://www.w3.org/2000/svg"><g clip-path="url(#clip0_464_6241)"><path d="M258.253 202.601C258.127 202.601 258.002 202.565 257.876 202.493L180.358 157.733C180.124 157.607 179.98 157.355 179.98 157.085C179.98 156.815 180.124 156.582 180.358 156.438L216.275 135.775C216.509 135.649 216.779 135.649 217.013 135.775L294.548 180.536C294.782 180.661 294.926 180.913 294.926 181.183C294.926 181.453 294.782 181.687 294.548 181.83L258.631 202.493C258.523 202.565 258.397 202.583 258.253 202.583V202.601ZM182.211 157.103L258.271 201.001L292.714 181.201L216.653 137.303L182.211 157.103Z" fill="#84D5BD" fill-opacity="0.4"/><path d="M216.635 0V89.5215L294.17 134.282V44.7608L216.635 0ZM225.879 16.0232L284.908 50.1018V118.259L225.879 84.1804V16.0232Z" fill="url(#paint0_linear_464_6241)"/><path d="M206.023 6.07837V95.5999L283.559 140.361V50.8391L206.023 6.07837ZM215.286 22.1016L274.314 56.1802V124.337L215.286 90.2588V22.1016Z" fill="url(#paint1_linear_464_6241)"/><path d="M206.023 6.0784L216.635 0L294.17 44.7608L283.559 50.8392L206.023 6.0784Z" fill="url(#paint2_linear_464_6241)"/><path d="M294.17 44.7607L283.559 50.8391V140.361L294.17 134.282V44.7607Z" fill="url(#paint3_linear_464_6241)"/><path d="M225.898 84.1806L215.269 90.259V22.1018L225.88 28.2341L225.898 84.1806Z" fill="url(#paint4_linear_464_6241)"/><path d="M225.898 84.1807L215.269 90.2591L274.297 124.32L274.315 112.127L225.898 84.1807Z" fill="url(#paint5_linear_464_6241)"/><path opacity="0.5" d="M220.951 87.0039V25.4106L274.296 56.1803V117.288L220.951 87.0039Z" fill="#7BFFCF"/><path d="M191.33 14.5845V104.106L268.865 148.867V59.3452L191.33 14.5845ZM200.592 30.6077L259.621 64.6863V132.844L200.592 98.7649V30.6077Z" fill="url(#paint6_linear_464_6241)"/><path d="M180.719 20.6628V110.184L258.254 154.945V65.4236L180.719 20.6628ZM189.981 36.6861L249.009 70.7647V138.922L189.981 104.843V36.6861Z" fill="url(#paint7_linear_464_6241)"/><path d="M180.719 20.6629L191.33 14.5845L268.865 59.3452L258.254 65.4236L180.719 20.6629Z" fill="url(#paint8_linear_464_6241)"/><path d="M268.865 59.3452L258.254 65.4236V154.945L268.865 148.867V59.3452Z" fill="url(#paint9_linear_464_6241)"/><path d="M200.593 98.7651L189.981 104.843V36.6863L200.593 42.8186V98.7651Z" fill="url(#paint10_linear_464_6241)"/><path d="M200.593 98.7649L189.981 104.843L249.009 138.922V126.711L200.593 98.7649Z" fill="url(#paint11_linear_464_6241)"/><path opacity="0.5" d="M195.664 101.588V40.0132L249.009 70.7648V131.873L195.664 101.588Z" fill="#7BFFCF"/><path d="M258.254 65.4236L180.719 20.6628L182.553 19.6558L260.088 64.4165V153.938L258.254 154.945V65.4236Z" fill="#A9FFF4"/><path d="M283.559 50.8391L206.024 6.07836L207.841 5.07129L285.394 49.832V139.354L283.559 140.361V50.8391Z" fill="#A9FFF4"/><path d="M189.981 36.6863L191.798 37.7473V103.836L249.009 136.854V138.922L189.981 104.843V36.6863Z" fill="#A9FFF4"/><path opacity="0.5" d="M191.329 14.5845L206.023 6.07837L283.559 50.8391V140.361L268.865 148.867V59.3453L191.329 14.5845Z" fill="#F8F8F8"/><path opacity="0.5" d="M283.559 50.8391L268.865 59.3453L191.329 14.5845L206.023 6.07837L283.559 50.8391Z" fill="#F8F8F8"/><path d="M149.225 268.852C149.1 268.852 148.974 268.816 148.848 268.744L71.762 224.235C71.5282 224.109 71.3843 223.858 71.3843 223.588C71.3843 223.318 71.5282 223.084 71.762 222.941L148.866 178.432C149.1 178.306 149.387 178.306 149.603 178.432L226.689 222.941C226.923 223.066 227.067 223.318 227.067 223.588C227.067 223.858 226.923 224.092 226.689 224.235L149.603 268.744C149.495 268.816 149.351 268.852 149.225 268.852ZM73.6145 223.606L149.225 267.252L224.836 223.606L149.225 179.96L73.6145 223.606Z" fill="#84D5BD" fill-opacity="0.4"/><path d="M149.225 218.013L226.761 173.252V138.868L149.225 183.629V218.013Z" fill="url(#paint12_linear_464_6241)"/><path d="M149.226 183.629L226.761 138.868L149.226 94.1072L71.6901 138.868L149.226 183.629Z" fill="url(#paint13_linear_464_6241)"/><path d="M149.226 172.946L208.254 138.868L149.226 104.789L90.1971 138.868L149.226 172.946Z" fill="#F8F8F8"/><path d="M71.6901 173.252L149.226 218.013V183.629L71.6901 138.868V173.252Z" fill="url(#paint14_linear_464_6241)"/><path d="M149.225 162.732L226.761 117.971V83.5869L149.225 128.348V162.732Z" fill="url(#paint15_linear_464_6241)"/><path d="M149.226 128.348L226.761 83.5869L149.226 38.8262L71.6901 83.5869L149.226 128.348Z" fill="url(#paint16_linear_464_6241)"/><path d="M149.226 126.639L225.268 82.7236L226.761 83.5868L149.226 128.348L71.6901 83.5868L73.1829 82.7416L149.226 126.639Z" fill="#F0C4B1"/><path d="M149.226 181.92L225.268 138.005L226.761 138.868L149.226 183.629L71.6901 138.868L73.1829 138.023L149.226 181.92Z" fill="#F0C4B1"/><path d="M149.226 55.9463L203.56 87.3274L149.226 118.69L94.8914 87.3274L149.226 55.9463Z" fill="#F8F8F8"/><path d="M149.226 55.9464L94.8914 87.3274L88.4346 83.5869L149.226 48.5012L210.034 83.5869L203.578 87.3274L149.226 55.9464Z" fill="#D46740"/><path d="M71.6901 117.971L149.226 162.732V128.348L71.6901 83.5869V117.971Z" fill="url(#paint17_linear_464_6241)"/><path d="M122.175 129.93C122.175 132.754 124.154 136.188 126.6 137.609C129.046 139.03 131.024 137.879 131.024 135.056C131.024 132.232 129.046 128.797 126.6 127.377C124.154 125.974 122.175 127.107 122.175 129.93Z" fill="#F8F8F8"/><path d="M106.024 120.597C106.024 123.42 108.003 126.855 110.449 128.276C112.895 129.696 114.873 128.546 114.873 125.722C114.873 122.899 112.895 119.464 110.449 118.043C108.003 116.623 106.024 117.773 106.024 120.597Z" fill="#F8F8F8"/><path d="M97.4351 119.254C99.1642 118.256 99.1648 115.02 97.4364 112.027C95.708 109.034 92.9052 107.416 91.1762 108.414C89.4471 109.413 89.4465 112.648 91.1749 115.641C92.9032 118.635 95.706 120.252 97.4351 119.254Z" fill="#F8F8F8"/><path d="M124.423 126.801C124.208 127.269 124.1 127.862 124.1 128.546C124.1 131.369 126.078 134.804 128.524 136.225C129.316 136.692 130.053 136.854 130.7 136.8C130.035 138.275 128.452 138.688 126.6 137.609C124.154 136.189 122.175 132.754 122.175 129.93C122.175 128.024 123.093 126.909 124.423 126.801Z" fill="#B36E51"/><path d="M108.272 117.468C108.057 117.935 107.949 118.529 107.949 119.212C107.949 122.036 109.927 125.47 112.373 126.891C113.165 127.359 113.902 127.521 114.549 127.467C113.884 128.941 112.301 129.355 110.449 128.276C108.003 126.855 106.024 123.42 106.024 120.597C106.024 118.691 106.942 117.576 108.272 117.468Z" fill="#B36E51"/><path d="M92.1395 108.152C91.9237 108.62 91.8158 109.213 91.8158 109.897C91.8158 112.72 93.7942 116.155 96.2402 117.576C97.0316 118.043 97.769 118.205 98.4165 118.151C97.751 119.626 96.1683 120.039 94.3158 118.96C91.8698 117.54 89.8914 114.105 89.8914 111.281C89.8914 109.375 90.8086 108.26 92.1395 108.152Z" fill="#B36E51"/><path d="M122.175 185.211C122.175 188.035 124.154 191.47 126.6 192.89C129.046 194.311 131.024 193.16 131.024 190.337C131.024 187.513 129.046 184.078 126.6 182.658C124.154 181.237 122.175 182.388 122.175 185.211Z" fill="#F8F8F8"/><path d="M106.024 175.896C106.024 178.719 108.003 182.154 110.449 183.575C112.895 184.996 114.873 183.845 114.873 181.021C114.873 178.198 112.895 174.763 110.449 173.342C108.003 171.922 106.024 173.073 106.024 175.896Z" fill="#F8F8F8"/><path d="M97.4351 174.538C99.1642 173.54 99.1648 170.304 97.4364 167.311C95.708 164.317 92.9052 162.7 91.1762 163.698C89.4471 164.696 89.4465 167.932 91.1749 170.925C92.9032 173.919 95.706 175.536 97.4351 174.538Z" fill="#F8F8F8"/><path d="M124.423 182.082C124.208 182.55 124.1 183.143 124.1 183.827C124.1 186.65 126.078 190.085 128.524 191.506C129.316 191.973 130.053 192.135 130.7 192.081C130.035 193.556 128.452 193.969 126.6 192.89C124.154 191.47 122.175 188.035 122.175 185.211C122.175 183.305 123.093 182.19 124.423 182.082Z" fill="#B36E51"/><path d="M108.272 172.749C108.057 173.216 107.949 173.81 107.949 174.493C107.949 177.317 109.927 180.751 112.373 182.172C113.165 182.64 113.902 182.802 114.549 182.748C113.884 184.222 112.301 184.636 110.449 183.557C108.003 182.136 106.024 178.701 106.024 175.878C106.024 173.972 106.942 172.857 108.272 172.749Z" fill="#B36E51"/><path d="M92.1395 163.433C91.9237 163.901 91.8158 164.494 91.8158 165.178C91.8158 168.001 93.7942 171.436 96.2402 172.857C97.0316 173.324 97.769 173.486 98.4165 173.432C97.751 174.907 96.1683 175.32 94.3158 174.241C91.8698 172.821 89.8914 169.386 89.8914 166.562C89.8914 164.656 90.8086 163.541 92.1395 163.433Z" fill="#B36E51"/><path d="M149.225 105.545L226.761 60.7839V46.7568L149.225 91.5176V105.545Z" fill="url(#paint18_linear_464_6241)"/><path d="M149.226 91.5176L226.761 46.7569L149.226 1.99609L71.6901 46.7569L149.226 91.5176Z" fill="url(#paint19_linear_464_6241)"/><path d="M149.226 89.7911L225.268 45.8936L226.761 46.7568L149.226 91.5175L71.6901 46.7568L73.1829 45.8936L149.226 89.7911Z" fill="#F0C4B1"/><path d="M71.6901 60.7839L149.226 105.545V91.5176L71.6901 46.7568V60.7839Z" fill="url(#paint20_linear_464_6241)"/><path opacity="0.5" d="M226.761 117.971V138.868L149.225 183.629V162.732L226.761 117.971Z" fill="#F8F8F8"/><path opacity="0.5" d="M71.6901 117.971V138.868L149.226 183.629V162.732L71.6901 117.971Z" fill="#F8F8F8"/><path d="M171.528 194.994L204.459 175.986C207.373 174.295 209.747 169.781 209.747 165.897C209.747 162.013 207.391 160.214 204.459 161.905L171.51 180.913C168.596 182.604 166.222 187.117 166.222 191.002C166.222 194.886 168.596 196.667 171.51 194.994H171.528Z" fill="#F8F8F8"/><path d="M198.847 172.389C201.761 170.699 204.135 166.185 204.135 162.3C204.135 162.229 204.135 162.157 204.135 162.085L204.477 161.887C207.391 160.196 209.765 161.995 209.765 165.879C209.765 169.764 207.408 174.277 204.477 175.968L171.527 194.976C168.668 196.631 166.348 194.94 166.258 191.2L198.847 172.389Z" fill="url(#paint21_linear_464_6241)"/><path d="M78.2729 305.125C78.1469 305.125 78.0211 305.089 77.8952 305.017L0.377695 260.256C0.143884 260.13 0 259.879 0 259.609C0 259.339 0.143884 259.105 0.377695 258.961L36.2947 238.299C36.5285 238.173 36.7983 238.173 37.0321 238.299L114.568 283.059C114.801 283.185 114.945 283.437 114.945 283.707C114.945 283.976 114.801 284.21 114.568 284.354L78.6505 305.017C78.5426 305.089 78.4167 305.107 78.2729 305.107V305.125ZM2.2302 259.627L78.2908 303.524L112.733 283.725L36.6724 239.827L2.2302 259.627Z" fill="#84D5BD" fill-opacity="0.4"/><path d="M36.6544 102.524V192.045L114.19 236.806V147.284L36.6544 102.524ZM45.899 118.547L104.927 152.626V220.783L45.899 186.704V118.547Z" fill="url(#paint22_linear_464_6241)"/><path d="M26.043 108.602V198.124L103.578 242.884V153.363L26.043 108.602ZM35.3055 124.625L94.3339 158.704V226.861L35.3055 192.782V124.625Z" fill="url(#paint23_linear_464_6241)"/><path d="M26.043 108.602L36.6544 102.524L114.19 147.284L103.578 153.363L26.043 108.602Z" fill="url(#paint24_linear_464_6241)"/><path d="M114.19 147.284L103.578 153.363V242.884L114.19 236.806V147.284Z" fill="url(#paint25_linear_464_6241)"/><path d="M45.9169 186.704L35.2875 192.782V124.625L45.8989 130.758L45.9169 186.704Z" fill="url(#paint26_linear_464_6241)"/><path d="M45.9169 186.704L35.2875 192.782L94.3158 226.843L94.3338 214.65L45.9169 186.704Z" fill="url(#paint27_linear_464_6241)"/><path opacity="0.5" d="M40.9709 189.528V127.934L94.3159 158.704V219.812L40.9709 189.528Z" fill="#7BFFCF"/><path d="M11.3489 117.108V206.63L88.8843 251.39V161.869L11.3489 117.108ZM20.6114 133.131L79.6398 167.21V235.367L20.6114 201.289V133.131Z" fill="url(#paint28_linear_464_6241)"/><path d="M0.737427 123.187V212.708L78.2729 257.469V167.947L0.737427 123.187ZM9.99995 139.21L69.0283 173.288V241.446L9.99995 207.367V139.21Z" fill="url(#paint29_linear_464_6241)"/><path d="M0.737427 123.187L11.3489 117.108L88.8843 161.869L78.2729 167.947L0.737427 123.187Z" fill="url(#paint30_linear_464_6241)"/><path d="M88.8843 161.869L78.2728 167.947V257.469L88.8843 251.39V161.869Z" fill="url(#paint31_linear_464_6241)"/><path d="M20.6114 201.289L10 207.367V139.21L20.6114 145.342V201.289Z" fill="url(#paint32_linear_464_6241)"/><path d="M20.6114 201.289L10 207.367L69.0284 241.446V229.235L20.6114 201.289Z" fill="url(#paint33_linear_464_6241)"/><path opacity="0.5" d="M15.6833 204.112V142.537L69.0283 173.289V234.396L15.6833 204.112Z" fill="#7BFFCF"/><path d="M78.2729 167.947L0.737427 123.187L2.57195 122.179L80.1074 166.94V256.462L78.2729 257.469V167.947Z" fill="#A9FFF4"/><path d="M103.578 153.363L26.043 108.602L27.8595 107.595L105.413 152.356V241.877L103.578 242.884V153.363Z" fill="#A9FFF4"/><path d="M10 139.21L11.8165 140.271V206.36L69.0284 239.378V241.446L10 207.367V139.21Z" fill="#A9FFF4"/><path opacity="0.5" d="M11.3489 117.108L26.043 108.602L103.578 153.363V242.884L88.8843 251.39V161.869L11.3489 117.108Z" fill="#F8F8F8"/><path opacity="0.5" d="M103.578 153.363L88.8843 161.869L11.3489 117.108L26.043 108.602L103.578 153.363Z" fill="#F8F8F8"/><path d="M200.43 210.532C200.43 207.547 202.247 204.094 204.477 202.799L229.729 188.233C230.79 187.621 231.743 187.621 232.48 188.089L260.358 204.202L229.621 229.864L201.797 213.787C200.97 213.265 200.43 212.132 200.43 210.532Z" fill="url(#paint34_linear_464_6241)"/><path d="M232.265 229.648L257.516 215.082C259.746 213.787 261.563 210.334 261.563 207.349C261.563 204.364 259.746 202.997 257.516 204.292L232.265 218.858C230.034 220.153 228.218 223.606 228.218 226.591C228.218 229.576 230.034 230.943 232.265 229.648Z" fill="url(#paint35_linear_464_6241)"/><path d="M254.441 256.012L295.609 232.256V214.003L254.441 237.759V256.012Z" fill="url(#paint36_linear_464_6241)"/><path d="M254.441 237.759L295.61 214.003L254.441 190.247L213.29 214.003L254.441 237.759Z" fill="#84D5BD"/><path d="M213.29 232.256L254.441 256.012V237.759L213.29 214.003V232.256Z" fill="url(#paint37_linear_464_6241)"/><path d="M254.441 236.842L294.818 213.535L295.61 214.003L254.441 237.759L213.29 214.003L214.081 213.535L254.441 236.842Z" fill="#A9FFF4"/><path d="M262.372 240.996L286.257 227.059L306.383 243.154L308.091 257.073V269.751L402.317 326.489L422.173 338.232L419.152 347.314L405.339 352.799L386.22 347.116L337.893 316.868L295.609 293.4L283.775 284.318L283.002 265.022L281.491 253.279L262.372 240.996Z" fill="#BEE6DA"/><path d="M404.332 356C408.253 356 412.173 354.975 415.753 352.907C422.911 348.771 427.191 341.379 427.191 333.107V102.595C427.191 100.869 425.788 99.4663 424.062 99.4663C422.335 99.4663 420.932 100.869 420.932 102.595V333.107C420.932 339.113 417.821 344.491 412.623 347.494C407.425 350.497 401.202 350.497 396.005 347.494L292.336 287.573C288.703 285.469 286.455 281.567 286.455 277.376V263.08C286.455 256.659 283.002 250.689 277.444 247.47L265.826 240.762C264.333 239.899 262.426 240.402 261.563 241.913C260.7 243.406 261.203 245.312 262.714 246.175L274.333 252.883C277.966 254.987 280.214 258.889 280.214 263.08V277.376C280.214 283.796 283.667 289.767 289.225 292.986L392.893 352.907C396.472 354.975 400.393 356 404.332 356Z" fill="#F8F8F8"/><path d="M285.106 228.192C285.969 226.699 287.876 226.195 289.369 227.041L300.987 233.748C306.545 236.95 309.998 242.938 309.998 249.358V263.655C309.998 267.845 312.264 271.765 315.879 273.852L424.026 336.362C426.166 337.603 428.468 338.304 430.806 338.538C430.591 340.606 430.663 342.71 430.501 344.796C427.191 344.526 423.918 343.519 420.896 341.775L312.75 279.265C307.192 276.063 303.739 270.075 303.739 263.655V249.358C303.739 245.168 301.491 241.248 297.858 239.162L286.239 232.454C284.746 231.59 284.225 229.684 285.088 228.192H285.106Z" fill="#BEE6DA"/><path d="M413.324 354.13L422.821 342.26L424.17 328.215V294.155L424.08 115.256L448.954 119.482V107.918C448.954 106.192 450.357 104.789 452.083 104.789C453.81 104.789 455.213 106.192 455.213 107.918V322.011C455.213 330.284 450.932 337.675 443.774 341.811C442.479 342.548 441.148 343.16 439.799 343.627L413.36 354.148L413.324 354.13Z" fill="url(#paint38_linear_464_6241)"/><path d="M404.332 356C408.253 356 412.173 354.975 415.753 352.907C422.911 348.771 427.191 341.379 427.191 333.107V102.595C427.191 100.869 425.788 99.4663 424.062 99.4663C422.335 99.4663 420.932 100.869 420.932 102.595V333.107C420.932 339.113 417.821 344.491 412.623 347.494C407.425 350.497 401.202 350.497 396.005 347.494L292.336 287.573C288.703 285.469 286.455 281.567 286.455 277.376V263.08C286.455 256.659 283.002 250.689 277.444 247.47L265.826 240.762C264.333 239.899 262.426 240.402 261.563 241.913C260.7 243.406 261.203 245.312 262.714 246.175L274.333 252.883C277.966 254.987 280.214 258.889 280.214 263.08V277.376C280.214 283.796 283.667 289.767 289.225 292.986L392.893 352.907C396.472 354.975 400.393 356 404.332 356Z" fill="url(#paint39_linear_464_6241)"/><path opacity="0.2" d="M245.754 247.254L249.962 249.682V241.248L245.754 238.82V247.254Z" fill="#F8F8F8"/><path opacity="0.2" d="M238.757 243.226L242.966 245.654V237.201L238.757 234.774V243.226Z" fill="#F8F8F8"/><path opacity="0.2" d="M231.761 239.18L235.97 241.607V233.173L231.761 230.745V239.18Z" fill="#F8F8F8"/><path d="M224.765 235.151L228.973 237.561V229.127L224.765 226.699V235.151Z" fill="#F8F8F8"/><path d="M217.768 231.105L221.977 233.533V225.099L217.768 222.671V231.105Z" fill="#F8F8F8"/><path d="M435.159 123.043H433.36V172.713H435.159V123.043Z" fill="#59EFD6"/><path d="M442.479 123.043H439.332V275.65H442.479V123.043Z" fill="#59EFD6"/><path d="M449.367 118.529H447.263V186.92H449.367V118.529Z" fill="#59EFD6"/><path d="M449.745 191.452H446.885V316.688H449.745V191.452Z" fill="#59EFD6"/><path d="M441.562 279.678H440.249V305.736H441.562V279.678Z" fill="#59EFD6"/><path d="M434.889 179.762H433.63V204.148H434.889V179.762Z" fill="#59EFD6"/><path d="M435.357 210.478H433.145V285.721H435.357V210.478Z" fill="#59EFD6"/><path d="M520.266 24.979L486.166 5.16128C481.076 2.14006 473.99 2.51772 466.166 7.03156C463.612 8.5062 461.13 10.3405 458.774 12.4446L445.033 4.51388C437.479 -0.791235 426.562 -0.557451 414.404 6.45609C399.026 15.3399 385.609 32.8018 378.523 51.3068C376.167 51.3787 373.559 52.152 370.789 53.7525C360.753 59.5432 352.606 73.6422 352.606 85.2235C352.606 85.4753 352.624 85.7091 352.642 85.9429C349.782 86.1407 346.616 87.1477 343.289 89.072C330.447 96.4811 320.034 114.519 320.034 129.337C320.034 136.692 322.588 141.853 326.742 144.317L326.85 144.389C326.85 144.389 326.85 144.389 326.868 144.389L360.519 163.919L367.875 128.564L466.184 71.8259C478.738 64.5785 489.385 48.897 492.964 33.701L520.284 24.961L520.266 24.979Z" fill="url(#paint40_linear_464_6241)"/><path d="M320.969 130.164C320.969 115.346 331.383 97.3084 344.224 89.8992C347.552 87.975 350.717 86.9679 353.577 86.7701C353.577 86.5363 353.541 86.3025 353.541 86.0508C353.541 74.4514 361.67 60.3704 371.724 54.5797C374.494 52.9792 377.12 52.2059 379.458 52.134C386.544 33.629 399.961 16.1671 415.339 7.28333C427.497 0.23382 438.414 3.56436e-05 445.968 5.32313L459.709 13.2538C462.065 11.1498 464.529 9.31545 467.101 7.84081C474.925 3.32697 482.011 2.93133 487.101 5.97053L519.979 25.0689L520.266 24.979L486.166 5.16128C481.076 2.14006 473.99 2.51772 466.166 7.03156C463.612 8.5062 461.13 10.3405 458.774 12.4446L445.033 4.51388C437.479 -0.791235 426.562 -0.557451 414.404 6.45609C399.026 15.3399 385.609 32.8018 378.523 51.3068C376.167 51.3787 373.559 52.152 370.789 53.7525C360.753 59.5432 352.606 73.6422 352.606 85.2235C352.606 85.4753 352.624 85.7091 352.642 85.9429C349.782 86.1407 346.616 87.1477 343.289 89.072C330.447 96.4811 320.034 114.519 320.034 129.337C320.034 136.009 322.156 140.864 325.645 143.544C322.714 140.738 320.951 136.189 320.951 130.146L320.969 130.164Z" fill="#F8F8F8"/><path d="M499.943 26.6336C495.536 29.1873 491.364 32.766 487.659 36.9921C482.515 20.4473 466.795 15.304 448.198 26.0402C432.821 34.924 419.404 52.3859 412.317 70.8908C409.961 70.9628 407.353 71.7361 404.584 73.3366C394.548 79.1272 386.4 93.2262 386.4 104.808C386.4 105.059 386.418 105.293 386.436 105.527C383.577 105.725 380.411 106.732 377.084 108.656C364.242 116.065 353.829 134.103 353.829 148.921C353.829 163.739 364.242 169.746 377.084 162.337L499.961 91.3919C515.464 82.4362 528.018 60.6942 528.018 42.8007C528.018 24.9072 515.446 17.6599 499.961 26.5976L499.943 26.6336Z" fill="url(#paint41_linear_464_6241)"/><path opacity="0.7" d="M499.943 26.6336C495.536 29.1873 491.364 32.766 487.659 36.9921C482.515 20.4473 466.795 15.304 448.198 26.0402C432.821 34.924 419.404 52.3859 412.317 70.8908C409.961 70.9628 407.353 71.7361 404.584 73.3366C394.548 79.1272 386.4 93.2262 386.4 104.808C386.4 105.059 386.418 105.293 386.436 105.527C383.577 105.725 380.411 106.732 377.084 108.656C364.242 116.065 353.829 134.103 353.829 148.921C353.829 163.739 364.242 169.746 377.084 162.337L499.961 91.3919C515.464 82.4362 528.018 60.6942 528.018 42.8007C528.018 24.9072 515.446 17.6599 499.961 26.5976L499.943 26.6336Z" fill="url(#paint42_linear_464_6241)"/><path d="M499.943 26.6336C495.536 29.1873 491.364 32.766 487.659 36.9921C482.515 20.4473 466.795 15.304 448.198 26.0402C432.821 34.924 419.404 52.3859 412.317 70.8908C409.961 70.9628 407.353 71.7361 404.584 73.3366C394.548 79.1272 386.4 93.2262 386.4 104.808C386.4 105.059 386.418 105.293 386.436 105.527C383.577 105.725 380.411 106.732 377.084 108.656C364.242 116.065 353.829 134.103 353.829 148.921C353.829 163.739 364.242 169.746 377.084 162.337L499.961 91.3919C515.464 82.4362 528.018 60.6942 528.018 42.8007C528.018 24.9072 515.446 17.6599 499.961 26.5976L499.943 26.6336Z" fill="#F8F8F8"/><path opacity="0.7" d="M489.133 38.8801C492.838 34.636 497.011 31.0573 501.417 28.5217C510.932 23.0367 519.331 23.6661 524.403 29.0971C519.601 21.9937 510.446 20.591 499.925 26.6514C495.734 29.0612 491.777 32.442 488.216 36.3984C488.54 37.2077 488.864 38.0169 489.133 38.8801Z" fill="url(#paint43_linear_464_6241)"/></g><defs><linearGradient id="paint0_linear_464_6241" x1="314.998" y1="49.1847" x2="187.95" y2="87.4794" gradientUnits="userSpaceOnUse"><stop stop-color="#84D5BD"/><stop offset="1" stop-color="#84D5BD"/></linearGradient><linearGradient id="paint1_linear_464_6241" x1="305.681" y1="63.2297" x2="174.747" y2="84.7067" gradientUnits="userSpaceOnUse"><stop stop-color="#25BAB0"/><stop offset="1" stop-color="#00AD8D"/></linearGradient><linearGradient id="paint2_linear_464_6241" x1="289.026" y1="8.88381" x2="207.897" y2="43.3647" gradientUnits="userSpaceOnUse"><stop stop-color="#7BFFD1"/><stop offset="1" stop-color="#59EFD4"/></linearGradient><linearGradient id="paint3_linear_464_6241" x1="311.364" y1="82.7957" x2="240.306" y2="113.625" gradientUnits="userSpaceOnUse"><stop stop-color="#3AD5CD"/><stop offset="1" stop-color="#25BA90"/></linearGradient><linearGradient id="paint4_linear_464_6241" x1="235.952" y1="45.0487" x2="205.756" y2="61.3086" gradientUnits="userSpaceOnUse"><stop stop-color="#7BFFF4"/><stop offset="1" stop-color="#59D6EF"/></linearGradient><linearGradient id="paint5_linear_464_6241" x1="274.315" y1="104.25" x2="215.287" y2="104.25" gradientUnits="userSpaceOnUse"><stop stop-color="#7BDAFF"/><stop offset="1" stop-color="#59BDEF"/></linearGradient><linearGradient id="paint6_linear_464_6241" x1="289.693" y1="63.7691" x2="162.646" y2="102.064" gradientUnits="userSpaceOnUse"><stop stop-color="#84D5BD"/><stop offset="1" stop-color="#84D5BD"/></linearGradient><linearGradient id="paint7_linear_464_6241" x1="280.394" y1="77.8142" x2="149.443" y2="99.2912" gradientUnits="userSpaceOnUse"><stop stop-color="#84D5BD"/><stop offset="1" stop-color="#84D5BD"/></linearGradient><linearGradient id="paint8_linear_464_6241" x1="263.722" y1="23.4683" x2="182.592" y2="57.9492" gradientUnits="userSpaceOnUse"><stop stop-color="#7BFFD1"/><stop offset="1" stop-color="#59EFD4"/></linearGradient><linearGradient id="paint9_linear_464_6241" x1="286.077" y1="97.3802" x2="215.019" y2="128.21" gradientUnits="userSpaceOnUse"><stop stop-color="#3AD5C6"/><stop offset="1" stop-color="#25B5BA"/></linearGradient><linearGradient id="paint10_linear_464_6241" x1="210.646" y1="59.6331" x2="180.45" y2="75.8931" gradientUnits="userSpaceOnUse"><stop stop-color="#7BFFDA"/><stop offset="1" stop-color="#59EFCA"/></linearGradient><linearGradient id="paint11_linear_464_6241" x1="249.009" y1="118.834" x2="189.981" y2="118.834" gradientUnits="userSpaceOnUse"><stop stop-color="#7BFFE2"/><stop offset="1" stop-color="#59EFC2"/></linearGradient><linearGradient id="paint12_linear_464_6241" x1="233.613" y1="147.014" x2="136.319" y2="214.085" gradientUnits="userSpaceOnUse"><stop stop-color="#E66C42"/><stop offset="1" stop-color="#E4A283"/></linearGradient><linearGradient id="paint13_linear_464_6241" x1="207.373" y1="113.907" x2="97.8988" y2="160.943" gradientUnits="userSpaceOnUse"><stop stop-color="#E59B7B"/><stop offset="1" stop-color="#E67047"/></linearGradient><linearGradient id="paint14_linear_464_6241" x1="159.171" y1="163.757" x2="55.3252" y2="195.073" gradientUnits="userSpaceOnUse"><stop stop-color="#E56F45"/><stop offset="1" stop-color="#E5906D"/></linearGradient><linearGradient id="paint15_linear_464_6241" x1="233.613" y1="91.7334" x2="136.319" y2="158.804" gradientUnits="userSpaceOnUse"><stop stop-color="#E5663A"/><stop offset="1" stop-color="#E4AE91"/></linearGradient><linearGradient id="paint16_linear_464_6241" x1="207.373" y1="58.6259" x2="97.8988" y2="105.662" gradientUnits="userSpaceOnUse"><stop stop-color="#E59B7B"/><stop offset="1" stop-color="#E67047"/></linearGradient><linearGradient id="paint17_linear_464_6241" x1="159.171" y1="108.476" x2="55.3253" y2="139.792" gradientUnits="userSpaceOnUse"><stop stop-color="#E5663A"/><stop offset="1" stop-color="#E59D7D"/></linearGradient><linearGradient id="paint18_linear_464_6241" x1="228.757" y1="48.0516" x2="141.822" y2="108" gradientUnits="userSpaceOnUse"><stop stop-color="#E5754D"/><stop offset="1" stop-color="#E59D7C"/></linearGradient><linearGradient id="paint19_linear_464_6241" x1="207.373" y1="21.7779" x2="97.8988" y2="68.8136" gradientUnits="userSpaceOnUse"><stop stop-color="#E59877"/><stop offset="1" stop-color="#F29170"/></linearGradient><linearGradient id="paint20_linear_464_6241" x1="155.161" y1="62.6722" x2="59.8754" y2="91.4157" gradientUnits="userSpaceOnUse"><stop stop-color="#E56F45"/><stop offset="1" stop-color="#E58D6A"/></linearGradient><linearGradient id="paint21_linear_464_6241" x1="210.862" y1="164.53" x2="163.941" y2="196.87" gradientUnits="userSpaceOnUse"><stop stop-color="#BA6325"/><stop offset="1" stop-color="#AD3D00"/></linearGradient><linearGradient id="paint22_linear_464_6241" x1="135.017" y1="151.708" x2="7.96999" y2="190.003" gradientUnits="userSpaceOnUse"><stop stop-color="#84D5BD"/><stop offset="1" stop-color="#84D5BD"/></linearGradient><linearGradient id="paint23_linear_464_6241" x1="125.701" y1="165.753" x2="-5.23301" y2="187.23" gradientUnits="userSpaceOnUse"><stop stop-color="#25BAB0"/><stop offset="1" stop-color="#00AD8D"/></linearGradient><linearGradient id="paint24_linear_464_6241" x1="109.046" y1="111.407" x2="27.9163" y2="145.888" gradientUnits="userSpaceOnUse"><stop stop-color="#7BFFD1"/><stop offset="1" stop-color="#59EFD4"/></linearGradient><linearGradient id="paint25_linear_464_6241" x1="131.384" y1="185.319" x2="60.3258" y2="216.149" gradientUnits="userSpaceOnUse"><stop stop-color="#3AD5CD"/><stop offset="1" stop-color="#25BA90"/></linearGradient><linearGradient id="paint26_linear_464_6241" x1="55.9708" y1="147.572" x2="25.7747" y2="163.832" gradientUnits="userSpaceOnUse"><stop stop-color="#7BFFF4"/><stop offset="1" stop-color="#59D6EF"/></linearGradient><linearGradient id="paint27_linear_464_6241" x1="94.3338" y1="206.774" x2="35.3055" y2="206.774" gradientUnits="userSpaceOnUse"><stop stop-color="#7BDAFF"/><stop offset="1" stop-color="#59BDEF"/></linearGradient><linearGradient id="paint28_linear_464_6241" x1="109.712" y1="166.293" x2="-17.3356" y2="204.588" gradientUnits="userSpaceOnUse"><stop stop-color="#84D5BD"/><stop offset="1" stop-color="#84D5BD"/></linearGradient><linearGradient id="paint29_linear_464_6241" x1="100.413" y1="180.338" x2="-30.5386" y2="201.815" gradientUnits="userSpaceOnUse"><stop stop-color="#84D5BD"/><stop offset="1" stop-color="#84D5BD"/></linearGradient><linearGradient id="paint30_linear_464_6241" x1="83.7405" y1="125.992" x2="2.61076" y2="160.473" gradientUnits="userSpaceOnUse"><stop stop-color="#7BFFD1"/><stop offset="1" stop-color="#59EFD4"/></linearGradient><linearGradient id="paint31_linear_464_6241" x1="106.096" y1="199.904" x2="35.0383" y2="230.733" gradientUnits="userSpaceOnUse"><stop stop-color="#3AD5C6"/><stop offset="1" stop-color="#25B5BA"/></linearGradient><linearGradient id="paint32_linear_464_6241" x1="30.6653" y1="162.157" x2="0.469248" y2="178.417" gradientUnits="userSpaceOnUse"><stop stop-color="#7BFFDA"/><stop offset="1" stop-color="#59EFCA"/></linearGradient><linearGradient id="paint33_linear_464_6241" x1="69.0284" y1="221.358" x2="10" y2="221.358" gradientUnits="userSpaceOnUse"><stop stop-color="#7BFFE2"/><stop offset="1" stop-color="#59EFC2"/></linearGradient><linearGradient id="paint34_linear_464_6241" x1="245.178" y1="197.224" x2="212.321" y2="219.545" gradientUnits="userSpaceOnUse"><stop stop-color="#35B6A0"/><stop offset="0.24" stop-color="#3CA895"/><stop offset="0.54" stop-color="#1EA88E"/><stop offset="0.87" stop-color="#0C9D8C"/><stop offset="1" stop-color="#028A6A"/></linearGradient><linearGradient id="paint35_linear_464_6241" x1="1408.44" y1="-465.779" x2="1392.89" y2="-433.044" gradientUnits="userSpaceOnUse"><stop stop-color="#25BABA"/><stop offset="1" stop-color="#00ADA1"/></linearGradient><linearGradient id="paint36_linear_464_6241" x1="299.243" y1="218.319" x2="247.592" y2="253.931" gradientUnits="userSpaceOnUse"><stop stop-color="#34B189"/><stop offset="1" stop-color="#32A192"/></linearGradient><linearGradient id="paint37_linear_464_6241" x1="259.728" y1="227.221" x2="204.604" y2="243.841" gradientUnits="userSpaceOnUse"><stop stop-color="#40CAAC"/><stop offset="1" stop-color="#298F84"/></linearGradient><linearGradient id="paint38_linear_464_6241" x1="477.155" y1="229.45" x2="407.227" y2="229.45" gradientUnits="userSpaceOnUse"><stop stop-color="#5872AC"/><stop offset="1" stop-color="#7390CF"/></linearGradient><linearGradient id="paint39_linear_464_6241" x1="427.191" y1="227.742" x2="261.167" y2="227.742" gradientUnits="userSpaceOnUse"><stop stop-color="#71DBCA"/><stop offset="1" stop-color="#46AAA2"/></linearGradient><linearGradient id="paint40_linear_464_6241" x1="320.034" y1="82.3821" x2="520.266" y2="82.3821" gradientUnits="userSpaceOnUse"><stop stop-color="#AADAF4"/><stop offset="1" stop-color="#7390CF"/></linearGradient><linearGradient id="paint41_linear_464_6241" x1="339.854" y1="136.223" x2="514.045" y2="35.6428" gradientUnits="userSpaceOnUse"><stop stop-color="#71FAD1"/><stop offset="1" stop-color="#0D5B55"/></linearGradient><linearGradient id="paint42_linear_464_6241" x1="663.339" y1="136.951" x2="348.472" y2="84.1626" gradientUnits="userSpaceOnUse"><stop stop-color="#0D5B55"/><stop offset="0.1" stop-color="#165E60"/><stop offset="0.25" stop-color="#1E6E69"/><stop offset="0.44" stop-color="#258573"/><stop offset="0.66" stop-color="#2FA59F"/><stop offset="0.9" stop-color="#3CCACE"/><stop offset="1" stop-color="#42E8E0"/></linearGradient><linearGradient id="paint43_linear_464_6241" x1="531.597" y1="54.0581" x2="496.367" y2="24.993" gradientUnits="userSpaceOnUse"><stop stop-color="#0D5B53"/><stop offset="0.1" stop-color="#16605E"/><stop offset="0.25" stop-color="#1E6E6B"/><stop offset="0.44" stop-color="#258585"/><stop offset="0.66" stop-color="#2FA5A1"/><stop offset="0.9" stop-color="#3CCEB8"/><stop offset="1" stop-color="#42E8D2"/></linearGradient><clipPath id="clip0_464_6241"><rect width="528" height="356" fill="white"/></clipPath></defs></svg>