<svg width="141" height="128" viewBox="0 0 141 128" fill="none" xmlns="http://www.w3.org/2000/svg">
<path d="M140.087 104.097C140.087 107.921 137.723 110.779 135.065 110.779H6.10892C3.44346 110.779 1.08691 107.921 1.08691 104.097V7.18131C1.08691 3.35797 3.45125 0.5 6.10892 0.5H135.065C137.73 0.5 140.087 3.35745 140.087 7.18131V104.097Z" stroke="#2D313E"/>
<path d="M136.261 90.3243H136.252V90.8243C136.252 93.7867 134.087 96.1052 131.517 96.1052H9.65615C7.08585 96.1052 4.9209 93.7867 4.9209 90.8243V12.925C4.9209 9.96267 7.08585 7.64417 9.65615 7.64417H131.525C134.096 7.64417 136.261 9.96267 136.261 12.925V90.3243Z" fill="#84D5BD" stroke="#2D313E"/>
<path d="M61.5475 120.791C62.0827 120.291 62.6915 119.582 63.1145 118.665C63.589 117.636 63.8231 116.357 63.4715 114.851C63.1751 113.582 62.4687 112.177 61.1827 110.64H83.6675C80.6844 114.523 80.6339 117.274 81.5913 119.127C81.9607 119.842 82.4644 120.388 82.9455 120.791H61.5475Z" stroke="#2D313E"/>
<path d="M49.9375 121.356H94.7685V125.937H49.9375V121.356Z" stroke="#2D313E"/>
<path d="M1.08691 104.097V91.2667H140.087V104.097C140.087 107.921 137.73 110.779 135.065 110.779H6.10892C3.45125 110.779 1.08691 107.921 1.08691 104.097Z" fill="#F3F3F3" stroke="#2D313E"/>
<path d="M48.4941 70.1023H56.636V45.693H48.4941V70.1023ZM93.2743 47.7271C93.2743 45.4896 91.4424 43.6589 89.2034 43.6589H76.3596L78.2933 34.3631L78.3544 33.7121C78.3544 32.8782 78.0083 32.1052 77.4588 31.556L75.3012 29.4202L61.9078 42.8249C61.1547 43.5572 60.7069 44.5743 60.7069 45.693V66.0341C60.7069 68.2716 62.5388 70.1023 64.7778 70.1023H83.097C84.7864 70.1023 86.2316 69.0853 86.8422 67.6207L92.9893 53.2803C93.1725 52.8124 93.2743 52.3242 93.2743 51.7954V47.7271Z" fill="#1C7057"/>
</svg>
