<svg width="141" height="128" viewBox="0 0 141 128" fill="none" xmlns="http://www.w3.org/2000/svg">
<path d="M139.912 104.097C139.912 107.921 137.548 110.779 134.89 110.779H5.93411C3.26865 110.779 0.912109 107.921 0.912109 104.097V7.18131C0.912109 3.35797 3.27644 0.5 5.93411 0.5H134.89C137.556 0.5 139.912 3.35745 139.912 7.18131V104.097Z" stroke="#2D313E"/>
<path d="M136.086 90.3243H136.078V90.8243C136.078 93.7867 133.913 96.1052 131.342 96.1052H9.48135C6.91104 96.1052 4.74609 93.7867 4.74609 90.8243V12.925C4.74609 9.96267 6.91104 7.64417 9.48135 7.64417H131.351C133.921 7.64417 136.086 9.96267 136.086 12.925V90.3243Z" fill="#DB9292" stroke="#2D313E"/>
<path fill-rule="evenodd" clip-rule="evenodd" d="M83.3627 120.856H95.0937V126.437H49.2627V120.856H60.8017C62.3316 119.553 65.0858 116.126 60.5139 110.735C60.3477 110.539 60.172 110.341 59.9861 110.14H84.4116C84.246 110.341 84.088 110.54 83.9376 110.735C79.3241 116.722 81.7552 119.7 83.3627 120.856ZM49.8584 121.451V125.841H94.4979V121.451H49.8584ZM82.4213 120.856C81.9906 120.459 81.5563 119.943 81.2275 119.292C80.2714 117.398 80.3233 114.619 83.1917 110.735H61.2854C62.4959 112.249 63.17 113.639 63.4582 114.902C63.8108 116.447 63.5763 117.761 63.0994 118.82C62.7138 119.675 62.1748 120.354 61.6771 120.856H82.4213Z" fill="#2D313E"/>
<path d="M0.912109 104.097V91.2667H139.912V104.097C139.912 107.921 137.556 110.779 134.89 110.779H5.93411C3.27644 110.779 0.912109 107.921 0.912109 104.097Z" fill="#F3F3F3" stroke="#2D313E"/>
<path d="M68.6746 57.8977H72.7455V61.9659H68.6746V57.8977ZM68.6746 41.6248H72.7455V53.8295H68.6746V41.6248ZM70.6897 31.4543C59.454 31.4543 50.3555 40.5671 50.3555 51.7954C50.3555 63.0236 59.454 72.1365 70.6897 72.1365C81.9458 72.1365 91.0647 63.0236 91.0647 51.7954C91.0647 40.5671 81.9458 31.4543 70.6897 31.4543ZM70.7101 68.0682C61.7133 68.0682 54.4264 60.7861 54.4264 51.7954C54.4264 42.8046 61.7133 35.5225 70.7101 35.5225C79.7068 35.5225 86.9938 42.8046 86.9938 51.7954C86.9938 60.7861 79.7068 68.0682 70.7101 68.0682Z" fill="#792323"/>
</svg>
