<svg width="352" height="443" viewBox="0 0 352 443" fill="none" xmlns="http://www.w3.org/2000/svg">
<path d="M1.70401 131.528H3.38583L7.34038 141.187H7.47674L11.4313 131.528H13.1131V143.164H11.7949V134.323H11.6813L8.04492 143.164H6.77219L3.13583 134.323H3.02219V143.164H1.70401V131.528ZM18.3248 143.369C17.7717 143.369 17.2698 143.264 16.8191 143.056C16.3683 142.844 16.0104 142.539 15.7452 142.141C15.4801 141.74 15.3475 141.255 15.3475 140.687C15.3475 140.187 15.446 139.781 15.6429 139.471C15.8399 139.156 16.1032 138.91 16.4327 138.732C16.7623 138.554 17.1259 138.422 17.5236 138.335C17.9251 138.244 18.3285 138.172 18.7338 138.119C19.2641 138.05 19.6941 137.999 20.0236 137.965C20.3569 137.927 20.5994 137.865 20.7509 137.778C20.9062 137.691 20.9838 137.539 20.9838 137.323V137.278C20.9838 136.717 20.8304 136.281 20.5236 135.971C20.2206 135.66 19.7604 135.505 19.1429 135.505C18.5028 135.505 18.0009 135.645 17.6373 135.925C17.2736 136.206 17.0179 136.505 16.8702 136.823L15.5975 136.369C15.8248 135.838 16.1278 135.425 16.5066 135.13C16.8891 134.831 17.3058 134.622 17.7566 134.505C18.2111 134.384 18.6581 134.323 19.0975 134.323C19.3778 134.323 19.6998 134.357 20.0634 134.425C20.4308 134.49 20.785 134.624 21.1259 134.829C21.4706 135.033 21.7566 135.342 21.9838 135.755C22.2111 136.168 22.3248 136.721 22.3248 137.414V143.164H20.9838V141.982H20.9157C20.8248 142.172 20.6732 142.374 20.4611 142.59C20.249 142.806 19.9668 142.99 19.6145 143.141C19.2623 143.293 18.8323 143.369 18.3248 143.369ZM18.5293 142.164C19.0596 142.164 19.5066 142.06 19.8702 141.852C20.2376 141.643 20.5141 141.374 20.6998 141.045C20.8891 140.715 20.9838 140.369 20.9838 140.005V138.778C20.927 138.846 20.802 138.908 20.6088 138.965C20.4194 139.018 20.1998 139.066 19.9498 139.107C19.7035 139.145 19.463 139.179 19.2282 139.21C18.9971 139.236 18.8096 139.259 18.6657 139.278C18.3172 139.323 17.9914 139.397 17.6884 139.499C17.3891 139.598 17.1467 139.747 16.9611 139.948C16.7793 140.145 16.6884 140.414 16.6884 140.755C16.6884 141.221 16.8607 141.573 17.2054 141.812C17.5539 142.047 17.9952 142.164 18.5293 142.164ZM24.7722 143.164V134.437H26.1131V143.164H24.7722ZM25.454 132.982C25.1926 132.982 24.9673 132.893 24.7779 132.715C24.5923 132.537 24.4995 132.323 24.4995 132.073C24.4995 131.823 24.5923 131.609 24.7779 131.431C24.9673 131.253 25.1926 131.164 25.454 131.164C25.7154 131.164 25.9389 131.253 26.1245 131.431C26.3139 131.609 26.4086 131.823 26.4086 132.073C26.4086 132.323 26.3139 132.537 26.1245 132.715C25.9389 132.893 25.7154 132.982 25.454 132.982ZM29.91 137.914V143.164H28.5691V134.437H29.8645V135.8H29.9782C30.1827 135.357 30.4933 135.001 30.91 134.732C31.3266 134.46 31.8645 134.323 32.5236 134.323C33.1145 134.323 33.6316 134.444 34.0748 134.687C34.5179 134.925 34.8626 135.289 35.1088 135.778C35.3551 136.263 35.4782 136.876 35.4782 137.619V143.164H34.1373V137.71C34.1373 137.024 33.9592 136.49 33.6032 136.107C33.2471 135.721 32.7585 135.528 32.1373 135.528C31.7092 135.528 31.3266 135.621 30.9895 135.806C30.6562 135.992 30.3929 136.263 30.1998 136.619C30.0066 136.975 29.91 137.406 29.91 137.914ZM48.6103 136.391L47.4057 136.732C47.33 136.531 47.2182 136.336 47.0705 136.147C46.9266 135.954 46.7296 135.795 46.4796 135.67C46.2296 135.545 45.9095 135.482 45.5194 135.482C44.9853 135.482 44.5402 135.605 44.1841 135.852C43.8319 136.094 43.6557 136.403 43.6557 136.778C43.6557 137.111 43.7769 137.374 44.0194 137.567C44.2618 137.761 44.6406 137.922 45.1557 138.05L46.4512 138.369C47.2315 138.558 47.8129 138.848 48.1955 139.238C48.5781 139.624 48.7694 140.122 48.7694 140.732C48.7694 141.232 48.6254 141.679 48.3375 142.073C48.0534 142.467 47.6557 142.778 47.1444 143.005C46.633 143.232 46.0383 143.346 45.3603 143.346C44.4701 143.346 43.7334 143.153 43.15 142.766C42.5667 142.38 42.1974 141.816 42.0421 141.073L43.3148 140.755C43.436 141.225 43.6652 141.577 44.0023 141.812C44.3432 142.047 44.7883 142.164 45.3375 142.164C45.9625 142.164 46.4587 142.031 46.8262 141.766C47.1974 141.497 47.383 141.175 47.383 140.8C47.383 140.497 47.2769 140.244 47.0648 140.039C46.8527 139.831 46.5269 139.675 46.0875 139.573L44.633 139.232C43.8337 139.043 43.2466 138.749 42.8716 138.352C42.5004 137.95 42.3148 137.448 42.3148 136.846C42.3148 136.353 42.4531 135.918 42.7296 135.539C43.0099 135.16 43.3906 134.863 43.8716 134.647C44.3565 134.431 44.9057 134.323 45.5194 134.323C46.383 134.323 47.061 134.513 47.5534 134.891C48.0497 135.27 48.4019 135.77 48.6103 136.391ZM54.4469 143.346C53.606 143.346 52.8806 143.16 52.2708 142.789C51.6647 142.414 51.1969 141.891 50.8674 141.221C50.5416 140.547 50.3787 139.763 50.3787 138.869C50.3787 137.975 50.5416 137.187 50.8674 136.505C51.1969 135.819 51.6552 135.285 52.2424 134.903C52.8333 134.516 53.5227 134.323 54.3105 134.323C54.7651 134.323 55.214 134.399 55.6571 134.55C56.1003 134.702 56.5037 134.948 56.8674 135.289C57.231 135.626 57.5208 136.073 57.7367 136.63C57.9526 137.187 58.0605 137.872 58.0605 138.687V139.255H51.3333V138.096H56.6969C56.6969 137.603 56.5984 137.164 56.4015 136.778C56.2083 136.391 55.9318 136.086 55.5719 135.863C55.2159 135.639 54.7954 135.528 54.3105 135.528C53.7765 135.528 53.3143 135.66 52.9242 135.925C52.5378 136.187 52.2405 136.528 52.0321 136.948C51.8238 137.369 51.7196 137.819 51.7196 138.3V139.073C51.7196 139.732 51.8333 140.291 52.0605 140.749C52.2916 141.204 52.6117 141.55 53.0208 141.789C53.4299 142.024 53.9052 142.141 54.4469 142.141C54.7992 142.141 55.1174 142.092 55.4015 141.994C55.6893 141.891 55.9374 141.74 56.1458 141.539C56.3541 141.335 56.5151 141.081 56.6287 140.778L57.9242 141.141C57.7878 141.581 57.5587 141.967 57.2367 142.3C56.9147 142.63 56.517 142.888 56.0435 143.073C55.57 143.255 55.0378 143.346 54.4469 143.346ZM60.1003 143.164V134.437H61.3958V135.755H61.4867C61.6458 135.323 61.9337 134.973 62.3503 134.704C62.767 134.435 63.2367 134.3 63.7594 134.3C63.8579 134.3 63.981 134.302 64.1287 134.306C64.2765 134.31 64.3882 134.316 64.464 134.323V135.687C64.4185 135.675 64.3143 135.658 64.1515 135.636C63.9924 135.609 63.8238 135.596 63.6458 135.596C63.2215 135.596 62.8427 135.685 62.5094 135.863C62.1799 136.037 61.9185 136.28 61.7253 136.59C61.5359 136.897 61.4412 137.247 61.4412 137.641V143.164H60.1003ZM73.4554 134.437L70.2282 143.164H68.8645L65.6373 134.437H67.0918L69.5009 141.391H69.5918L72.0009 134.437H73.4554ZM75.2253 143.164V134.437H76.5662V143.164H75.2253ZM75.9071 132.982C75.6458 132.982 75.4204 132.893 75.231 132.715C75.0454 132.537 74.9526 132.323 74.9526 132.073C74.9526 131.823 75.0454 131.609 75.231 131.431C75.4204 131.253 75.6458 131.164 75.9071 131.164C76.1685 131.164 76.392 131.253 76.5776 131.431C76.767 131.609 76.8617 131.823 76.8617 132.073C76.8617 132.323 76.767 132.537 76.5776 132.715C76.392 132.893 76.1685 132.982 75.9071 132.982ZM82.5676 143.346C81.7495 143.346 81.0449 143.153 80.454 142.766C79.8631 142.38 79.4086 141.848 79.0904 141.17C78.7722 140.492 78.6131 139.717 78.6131 138.846C78.6131 137.96 78.776 137.177 79.1017 136.499C79.4313 135.817 79.8896 135.285 80.4767 134.903C81.0676 134.516 81.757 134.323 82.5449 134.323C83.1586 134.323 83.7116 134.437 84.204 134.664C84.6964 134.891 85.0998 135.21 85.4142 135.619C85.7286 136.028 85.9237 136.505 85.9995 137.05H84.6586C84.5563 136.653 84.329 136.3 83.9767 135.994C83.6283 135.683 83.1586 135.528 82.5676 135.528C82.0449 135.528 81.5866 135.664 81.1926 135.937C80.8025 136.206 80.4976 136.586 80.2779 137.079C80.062 137.567 79.954 138.141 79.954 138.8C79.954 139.475 80.0601 140.062 80.2722 140.562C80.4881 141.062 80.7911 141.45 81.1813 141.727C81.5752 142.003 82.0373 142.141 82.5676 142.141C82.9161 142.141 83.2324 142.081 83.5165 141.96C83.8006 141.838 84.0411 141.664 84.2381 141.437C84.4351 141.21 84.5752 140.937 84.6586 140.619H85.9995C85.9237 141.134 85.7362 141.598 85.437 142.011C85.1415 142.42 84.7495 142.746 84.2608 142.988C83.776 143.227 83.2116 143.346 82.5676 143.346ZM91.6188 143.346C90.7779 143.346 90.0525 143.16 89.4426 142.789C88.8366 142.414 88.3688 141.891 88.0392 141.221C87.7135 140.547 87.5506 139.763 87.5506 138.869C87.5506 137.975 87.7135 137.187 88.0392 136.505C88.3688 135.819 88.8271 135.285 89.4142 134.903C90.0051 134.516 90.6945 134.323 91.4824 134.323C91.937 134.323 92.3858 134.399 92.829 134.55C93.2722 134.702 93.6756 134.948 94.0392 135.289C94.4029 135.626 94.6926 136.073 94.9086 136.63C95.1245 137.187 95.2324 137.872 95.2324 138.687V139.255H88.5051V138.096H93.8688C93.8688 137.603 93.7703 137.164 93.5733 136.778C93.3801 136.391 93.1036 136.086 92.7438 135.863C92.3877 135.639 91.9673 135.528 91.4824 135.528C90.9483 135.528 90.4862 135.66 90.0961 135.925C89.7097 136.187 89.4123 136.528 89.204 136.948C88.9957 137.369 88.8915 137.819 88.8915 138.3V139.073C88.8915 139.732 89.0051 140.291 89.2324 140.749C89.4635 141.204 89.7836 141.55 90.1926 141.789C90.6017 142.024 91.0771 142.141 91.6188 142.141C91.9711 142.141 92.2892 142.092 92.5733 141.994C92.8612 141.891 93.1093 141.74 93.3176 141.539C93.526 141.335 93.687 141.081 93.8006 140.778L95.0961 141.141C94.9597 141.581 94.7305 141.967 94.4086 142.3C94.0866 142.63 93.6889 142.888 93.2154 143.073C92.7419 143.255 92.2097 143.346 91.6188 143.346ZM103.113 137.914V143.164H101.772V131.528H103.113V135.8H103.227C103.431 135.35 103.738 134.992 104.147 134.727C104.56 134.458 105.109 134.323 105.795 134.323C106.39 134.323 106.91 134.442 107.357 134.681C107.804 134.916 108.151 135.278 108.397 135.766C108.647 136.251 108.772 136.869 108.772 137.619V143.164H107.431V137.71C107.431 137.016 107.251 136.48 106.892 136.102C106.535 135.719 106.041 135.528 105.409 135.528C104.969 135.528 104.575 135.621 104.227 135.806C103.882 135.992 103.609 136.263 103.409 136.619C103.212 136.975 103.113 137.406 103.113 137.914ZM114.771 143.346C113.983 143.346 113.292 143.158 112.697 142.783C112.106 142.408 111.644 141.884 111.311 141.21C110.981 140.535 110.816 139.747 110.816 138.846C110.816 137.937 110.981 137.143 111.311 136.465C111.644 135.787 112.106 135.261 112.697 134.886C113.292 134.511 113.983 134.323 114.771 134.323C115.559 134.323 116.248 134.511 116.839 134.886C117.434 135.261 117.896 135.787 118.225 136.465C118.559 137.143 118.725 137.937 118.725 138.846C118.725 139.747 118.559 140.535 118.225 141.21C117.896 141.884 117.434 142.408 116.839 142.783C116.248 143.158 115.559 143.346 114.771 143.346ZM114.771 142.141C115.369 142.141 115.862 141.988 116.248 141.681C116.634 141.374 116.92 140.971 117.106 140.471C117.292 139.971 117.384 139.429 117.384 138.846C117.384 138.263 117.292 137.719 117.106 137.215C116.92 136.711 116.634 136.304 116.248 135.994C115.862 135.683 115.369 135.528 114.771 135.528C114.172 135.528 113.68 135.683 113.294 135.994C112.907 136.304 112.621 136.711 112.436 137.215C112.25 137.719 112.157 138.263 112.157 138.846C112.157 139.429 112.25 139.971 112.436 140.471C112.621 140.971 112.907 141.374 113.294 141.681C113.68 141.988 114.172 142.141 114.771 142.141ZM126.954 136.391L125.749 136.732C125.674 136.531 125.562 136.336 125.414 136.147C125.27 135.954 125.073 135.795 124.823 135.67C124.573 135.545 124.253 135.482 123.863 135.482C123.329 135.482 122.884 135.605 122.528 135.852C122.176 136.094 121.999 136.403 121.999 136.778C121.999 137.111 122.121 137.374 122.363 137.567C122.606 137.761 122.984 137.922 123.499 138.05L124.795 138.369C125.575 138.558 126.157 138.848 126.539 139.238C126.922 139.624 127.113 140.122 127.113 140.732C127.113 141.232 126.969 141.679 126.681 142.073C126.397 142.467 125.999 142.778 125.488 143.005C124.977 143.232 124.382 143.346 123.704 143.346C122.814 143.346 122.077 143.153 121.494 142.766C120.91 142.38 120.541 141.816 120.386 141.073L121.659 140.755C121.78 141.225 122.009 141.577 122.346 141.812C122.687 142.047 123.132 142.164 123.681 142.164C124.306 142.164 124.802 142.031 125.17 141.766C125.541 141.497 125.727 141.175 125.727 140.8C125.727 140.497 125.621 140.244 125.409 140.039C125.196 139.831 124.871 139.675 124.431 139.573L122.977 139.232C122.177 139.043 121.59 138.749 121.215 138.352C120.844 137.95 120.659 137.448 120.659 136.846C120.659 136.353 120.797 135.918 121.073 135.539C121.354 135.16 121.734 134.863 122.215 134.647C122.7 134.431 123.249 134.323 123.863 134.323C124.727 134.323 125.405 134.513 125.897 134.891C126.393 135.27 126.746 135.77 126.954 136.391ZM132.927 134.437V135.573H128.404V134.437H132.927ZM129.722 132.346H131.063V140.664C131.063 141.043 131.118 141.327 131.228 141.516C131.342 141.702 131.486 141.827 131.66 141.891C131.838 141.952 132.026 141.982 132.222 141.982C132.37 141.982 132.491 141.975 132.586 141.96C132.681 141.941 132.757 141.925 132.813 141.914L133.086 143.119C132.995 143.153 132.868 143.187 132.705 143.221C132.543 143.259 132.336 143.278 132.086 143.278C131.707 143.278 131.336 143.196 130.972 143.033C130.613 142.871 130.313 142.622 130.075 142.289C129.84 141.956 129.722 141.535 129.722 141.028V132.346Z" fill="#2D313E"/>
<path d="M241.611 143.164V131.528H245.679C246.49 131.528 247.159 131.668 247.685 131.948C248.212 132.225 248.604 132.598 248.861 133.067C249.119 133.533 249.248 134.05 249.248 134.619C249.248 135.119 249.159 135.531 248.981 135.857C248.806 136.183 248.575 136.441 248.287 136.63C248.003 136.819 247.695 136.96 247.361 137.05V137.164C247.717 137.187 248.075 137.312 248.435 137.539C248.795 137.766 249.096 138.092 249.339 138.516C249.581 138.941 249.702 139.46 249.702 140.073C249.702 140.656 249.57 141.181 249.304 141.647C249.039 142.113 248.621 142.482 248.049 142.755C247.477 143.028 246.732 143.164 245.816 143.164H241.611ZM243.02 141.914H245.816C246.736 141.914 247.39 141.736 247.776 141.38C248.166 141.02 248.361 140.585 248.361 140.073C248.361 139.679 248.261 139.316 248.06 138.982C247.859 138.645 247.573 138.376 247.202 138.175C246.831 137.971 246.392 137.869 245.884 137.869H243.02V141.914ZM243.02 136.641H245.634C246.058 136.641 246.441 136.558 246.782 136.391C247.126 136.225 247.399 135.99 247.6 135.687C247.804 135.384 247.907 135.028 247.907 134.619C247.907 134.107 247.729 133.674 247.373 133.317C247.017 132.958 246.452 132.778 245.679 132.778H243.02V136.641ZM254.404 143.369C253.851 143.369 253.349 143.264 252.898 143.056C252.447 142.844 252.089 142.539 251.824 142.141C251.559 141.74 251.427 141.255 251.427 140.687C251.427 140.187 251.525 139.781 251.722 139.471C251.919 139.156 252.182 138.91 252.512 138.732C252.841 138.554 253.205 138.422 253.603 138.335C254.004 138.244 254.408 138.172 254.813 138.119C255.343 138.05 255.773 137.999 256.103 137.965C256.436 137.927 256.678 137.865 256.83 137.778C256.985 137.691 257.063 137.539 257.063 137.323V137.278C257.063 136.717 256.91 136.281 256.603 135.971C256.3 135.66 255.839 135.505 255.222 135.505C254.582 135.505 254.08 135.645 253.716 135.925C253.353 136.206 253.097 136.505 252.949 136.823L251.677 136.369C251.904 135.838 252.207 135.425 252.586 135.13C252.968 134.831 253.385 134.622 253.836 134.505C254.29 134.384 254.737 134.323 255.177 134.323C255.457 134.323 255.779 134.357 256.142 134.425C256.51 134.49 256.864 134.624 257.205 134.829C257.55 135.033 257.836 135.342 258.063 135.755C258.29 136.168 258.404 136.721 258.404 137.414V143.164H257.063V141.982H256.995C256.904 142.172 256.752 142.374 256.54 142.59C256.328 142.806 256.046 142.99 255.694 143.141C255.341 143.293 254.911 143.369 254.404 143.369ZM254.608 142.164C255.139 142.164 255.586 142.06 255.949 141.852C256.317 141.643 256.593 141.374 256.779 141.045C256.968 140.715 257.063 140.369 257.063 140.005V138.778C257.006 138.846 256.881 138.908 256.688 138.965C256.499 139.018 256.279 139.066 256.029 139.107C255.783 139.145 255.542 139.179 255.307 139.21C255.076 139.236 254.889 139.259 254.745 139.278C254.396 139.323 254.071 139.397 253.767 139.499C253.468 139.598 253.226 139.747 253.04 139.948C252.858 140.145 252.767 140.414 252.767 140.755C252.767 141.221 252.94 141.573 253.285 141.812C253.633 142.047 254.074 142.164 254.608 142.164ZM264.397 143.346C263.579 143.346 262.874 143.153 262.283 142.766C261.692 142.38 261.238 141.848 260.919 141.17C260.601 140.492 260.442 139.717 260.442 138.846C260.442 137.96 260.605 137.177 260.931 136.499C261.26 135.817 261.719 135.285 262.306 134.903C262.897 134.516 263.586 134.323 264.374 134.323C264.988 134.323 265.541 134.437 266.033 134.664C266.526 134.891 266.929 135.21 267.243 135.619C267.558 136.028 267.753 136.505 267.829 137.05H266.488C266.385 136.653 266.158 136.3 265.806 135.994C265.457 135.683 264.988 135.528 264.397 135.528C263.874 135.528 263.416 135.664 263.022 135.937C262.632 136.206 262.327 136.586 262.107 137.079C261.891 137.567 261.783 138.141 261.783 138.8C261.783 139.475 261.889 140.062 262.101 140.562C262.317 141.062 262.62 141.45 263.01 141.727C263.404 142.003 263.866 142.141 264.397 142.141C264.745 142.141 265.062 142.081 265.346 141.96C265.63 141.838 265.87 141.664 266.067 141.437C266.264 141.21 266.404 140.937 266.488 140.619H267.829C267.753 141.134 267.565 141.598 267.266 142.011C266.971 142.42 266.579 142.746 266.09 142.988C265.605 143.227 265.041 143.346 264.397 143.346ZM271.039 139.982L271.016 138.323H271.289L275.107 134.437H276.766L272.698 138.55H272.584L271.039 139.982ZM269.789 143.164V131.528H271.13V143.164H269.789ZM275.334 143.164L271.925 138.846L272.88 137.914L277.039 143.164H275.334ZM283.992 139.596V134.437H285.333V143.164H283.992V141.687H283.901C283.696 142.13 283.378 142.507 282.946 142.817C282.515 143.124 281.969 143.278 281.31 143.278C280.765 143.278 280.28 143.158 279.856 142.92C279.431 142.677 279.098 142.314 278.856 141.829C278.613 141.34 278.492 140.725 278.492 139.982V134.437H279.833V139.891C279.833 140.528 280.011 141.035 280.367 141.414C280.727 141.793 281.185 141.982 281.742 141.982C282.075 141.982 282.414 141.897 282.759 141.727C283.107 141.556 283.399 141.295 283.634 140.942C283.873 140.59 283.992 140.141 283.992 139.596ZM287.789 146.437V134.437H289.084V135.823H289.243C289.342 135.672 289.478 135.478 289.652 135.244C289.83 135.005 290.084 134.793 290.414 134.607C290.747 134.418 291.198 134.323 291.766 134.323C292.501 134.323 293.149 134.507 293.709 134.874C294.27 135.242 294.707 135.763 295.022 136.437C295.336 137.111 295.493 137.906 295.493 138.823C295.493 139.747 295.336 140.549 295.022 141.227C294.707 141.901 294.272 142.424 293.715 142.795C293.158 143.162 292.516 143.346 291.789 143.346C291.228 143.346 290.779 143.253 290.442 143.067C290.105 142.878 289.846 142.664 289.664 142.425C289.482 142.183 289.342 141.982 289.243 141.823H289.13V146.437H287.789ZM289.107 138.8C289.107 139.46 289.204 140.041 289.397 140.545C289.59 141.045 289.872 141.437 290.243 141.721C290.615 142.001 291.069 142.141 291.607 142.141C292.168 142.141 292.635 141.994 293.01 141.698C293.389 141.399 293.673 140.997 293.863 140.494C294.056 139.986 294.152 139.422 294.152 138.8C294.152 138.187 294.058 137.634 293.868 137.141C293.683 136.645 293.401 136.253 293.022 135.965C292.647 135.674 292.175 135.528 291.607 135.528C291.062 135.528 290.603 135.666 290.232 135.942C289.861 136.215 289.58 136.598 289.391 137.09C289.202 137.579 289.107 138.149 289.107 138.8ZM303.38 137.914V143.164H302.039V131.528H303.38V135.8H303.493C303.698 135.35 304.005 134.992 304.414 134.727C304.827 134.458 305.376 134.323 306.062 134.323C306.656 134.323 307.177 134.442 307.624 134.681C308.071 134.916 308.418 135.278 308.664 135.766C308.914 136.251 309.039 136.869 309.039 137.619V143.164H307.698V137.71C307.698 137.016 307.518 136.48 307.158 136.102C306.802 135.719 306.308 135.528 305.675 135.528C305.236 135.528 304.842 135.621 304.493 135.806C304.149 135.992 303.876 136.263 303.675 136.619C303.478 136.975 303.38 137.406 303.38 137.914ZM315.037 143.346C314.249 143.346 313.558 143.158 312.964 142.783C312.373 142.408 311.91 141.884 311.577 141.21C311.248 140.535 311.083 139.747 311.083 138.846C311.083 137.937 311.248 137.143 311.577 136.465C311.91 135.787 312.373 135.261 312.964 134.886C313.558 134.511 314.249 134.323 315.037 134.323C315.825 134.323 316.515 134.511 317.106 134.886C317.7 135.261 318.162 135.787 318.492 136.465C318.825 137.143 318.992 137.937 318.992 138.846C318.992 139.747 318.825 140.535 318.492 141.21C318.162 141.884 317.7 142.408 317.106 142.783C316.515 143.158 315.825 143.346 315.037 143.346ZM315.037 142.141C315.636 142.141 316.128 141.988 316.515 141.681C316.901 141.374 317.187 140.971 317.373 140.471C317.558 139.971 317.651 139.429 317.651 138.846C317.651 138.263 317.558 137.719 317.373 137.215C317.187 136.711 316.901 136.304 316.515 135.994C316.128 135.683 315.636 135.528 315.037 135.528C314.439 135.528 313.946 135.683 313.56 135.994C313.174 136.304 312.888 136.711 312.702 137.215C312.517 137.719 312.424 138.263 312.424 138.846C312.424 139.429 312.517 139.971 312.702 140.471C312.888 140.971 313.174 141.374 313.56 141.681C313.946 141.988 314.439 142.141 315.037 142.141ZM327.221 136.391L326.016 136.732C325.94 136.531 325.829 136.336 325.681 136.147C325.537 135.954 325.34 135.795 325.09 135.67C324.84 135.545 324.52 135.482 324.13 135.482C323.596 135.482 323.151 135.605 322.794 135.852C322.442 136.094 322.266 136.403 322.266 136.778C322.266 137.111 322.387 137.374 322.63 137.567C322.872 137.761 323.251 137.922 323.766 138.05L325.062 138.369C325.842 138.558 326.423 138.848 326.806 139.238C327.188 139.624 327.38 140.122 327.38 140.732C327.38 141.232 327.236 141.679 326.948 142.073C326.664 142.467 326.266 142.778 325.755 143.005C325.243 143.232 324.649 143.346 323.971 143.346C323.08 143.346 322.344 143.153 321.76 142.766C321.177 142.38 320.808 141.816 320.652 141.073L321.925 140.755C322.046 141.225 322.276 141.577 322.613 141.812C322.954 142.047 323.399 142.164 323.948 142.164C324.573 142.164 325.069 142.031 325.437 141.766C325.808 141.497 325.993 141.175 325.993 140.8C325.993 140.497 325.887 140.244 325.675 140.039C325.463 139.831 325.137 139.675 324.698 139.573L323.243 139.232C322.444 139.043 321.857 138.749 321.482 138.352C321.111 137.95 320.925 137.448 320.925 136.846C320.925 136.353 321.063 135.918 321.34 135.539C321.62 135.16 322.001 134.863 322.482 134.647C322.967 134.431 323.516 134.323 324.13 134.323C324.993 134.323 325.671 134.513 326.164 134.891C326.66 135.27 327.012 135.77 327.221 136.391ZM333.194 134.437V135.573H328.671V134.437H333.194ZM329.989 132.346H331.33V140.664C331.33 141.043 331.385 141.327 331.495 141.516C331.608 141.702 331.752 141.827 331.927 141.891C332.105 141.952 332.292 141.982 332.489 141.982C332.637 141.982 332.758 141.975 332.853 141.96C332.947 141.941 333.023 141.925 333.08 141.914L333.353 143.119C333.262 143.153 333.135 143.187 332.972 143.221C332.809 143.259 332.603 143.278 332.353 143.278C331.974 143.278 331.603 143.196 331.239 143.033C330.879 142.871 330.58 142.622 330.341 142.289C330.107 141.956 329.989 141.535 329.989 141.028V132.346Z" fill="#2D313E"/>
<g opacity="0.5">
<rect x="132.021" y="30.6479" width="64.0819" height="3.7149" fill="#792323"/>
<path d="M205.391 32.5055L192.156 38.1356L192.156 26.8754L205.391 32.5055Z" fill="#792323"/>
</g>
<g opacity="0.5">
<rect x="132.021" y="62.2249" width="64.0819" height="3.7149" fill="#792323"/>
<path d="M205.391 64.0821L192.156 69.7122L192.156 58.452L205.391 64.0821Z" fill="#792323"/>
</g>
<g opacity="0.7">
<rect x="176.599" y="277.689" width="26.0043" height="3.71489" transform="rotate(90 176.599 277.689)" fill="#3B93CA"/>
<path d="M174.742 313.909L169.112 300.675L180.372 300.675L174.742 313.909Z" fill="#3B93CA"/>
<path d="M174.742 267.473L169.112 280.707L180.372 280.707L174.742 267.473Z" fill="#3B93CA"/>
</g>
<path d="M131.419 96.7541C131.419 98.4985 130.875 100.058 130.021 101.171C129.166 102.283 128.021 102.929 126.794 102.929H7.12437C4.67958 102.929 2.5 100.299 2.5 96.7541V6.67472C2.5 4.93039 3.04329 3.37108 3.89809 2.25832C4.75251 1.14606 5.89776 0.5 7.12437 0.5H126.794C129.239 0.5 131.419 3.13009 131.419 6.67472V96.7541Z" stroke="#2D313E"/>
<path d="M127.869 83.9173H127.861V84.4173C127.861 87.1554 125.864 89.2904 123.503 89.2904H10.4169C8.05552 89.2904 6.05859 87.1554 6.05859 84.4173V12.0132C6.05859 9.27513 8.05552 7.14014 10.4169 7.14014H123.51C125.872 7.14014 127.869 9.27513 127.869 12.0132V83.9173Z" fill="#DB9292" stroke="#2D313E"/>
<path fill-rule="evenodd" clip-rule="evenodd" d="M78.9775 112.33H89.8638V117.518H47.333V112.33H58.0411C59.4608 111.119 62.0167 107.934 57.774 102.923C57.6198 102.741 57.4567 102.557 57.2842 102.37H79.9509C79.7972 102.558 79.6506 102.742 79.511 102.923C75.2297 108.489 77.4857 111.256 78.9775 112.33ZM47.8859 112.884V116.964H89.3109V112.884H47.8859ZM78.1039 112.33C77.7042 111.961 77.3012 111.482 76.996 110.877C76.1088 109.116 76.157 106.533 78.8188 102.923H58.49C59.6133 104.331 60.2389 105.623 60.5063 106.797C60.8335 108.233 60.6159 109.454 60.1733 110.438C59.8155 111.233 59.3153 111.864 58.8534 112.33H78.1039Z" fill="#2D313E"/>
<path d="M2.5 96.7541V84.8638H131.419V96.7541C131.419 100.299 129.239 102.929 126.794 102.929H7.12437C5.89776 102.929 4.75251 102.283 3.89809 101.171C3.04329 100.058 2.5 98.4984 2.5 96.7541Z" fill="#F3F3F3" stroke="#2D313E"/>
<path d="M78.5694 42.4697V49.3232C78.5694 49.8273 78.4831 50.3076 78.3106 50.7638C78.1368 51.2214 77.8768 51.6234 77.5305 51.97L76.9638 52.49L59.6805 35.1908V33.0166C59.6805 32.4809 59.8618 32.0316 60.2245 31.6686C60.5859 31.3068 61.0342 31.126 61.5694 31.126C62.1046 31.126 62.5535 31.3068 62.9162 31.6686C63.2776 32.0316 63.4583 32.4809 63.4583 33.0166V38.6884H71.0138V33.0166C71.0138 32.4809 71.1952 32.0316 71.5578 31.6686C71.9192 31.3068 72.3675 31.126 72.9027 31.126C73.4379 31.126 73.8868 31.3068 74.2495 31.6686C74.6109 32.0316 74.7916 32.4809 74.7916 33.0166V40.5791L72.9027 38.6884H74.7916C75.8305 38.6884 76.7202 39.0584 77.4606 39.7982C78.1998 40.5394 78.5694 41.4298 78.5694 42.4697ZM64.4027 65.1571C63.8675 65.1571 63.4192 64.9756 63.0578 64.6126C62.6952 64.2509 62.5138 63.8022 62.5138 63.2665V59.4852L56.9888 53.9552C56.6425 53.6086 56.3749 53.2071 56.186 52.7509C55.9972 52.2933 55.9027 51.8125 55.9027 51.3083V42.4697C55.9027 41.7134 56.0759 41.0045 56.4222 40.3427C56.7685 39.681 57.2722 39.1769 57.9333 38.8302V44.124L48.536 34.7182C48.1897 34.3715 48.0166 33.9304 48.0166 33.3947C48.0166 32.859 48.1897 32.4179 48.536 32.0713C48.8823 31.7247 49.3231 31.5514 49.8583 31.5514C50.3935 31.5514 50.8342 31.7247 51.1805 32.0713L83.2916 64.2118C83.6379 64.5584 83.8111 64.9995 83.8111 65.5352C83.8111 66.0709 83.6379 66.512 83.2916 66.8587C82.9453 67.2053 82.5046 67.3786 81.9694 67.3786C81.4342 67.3786 80.9935 67.2053 80.6472 66.8587L72.6194 58.8235L71.9583 59.4852V63.2665C71.9583 63.8022 71.7776 64.2509 71.4162 64.6126C71.0535 64.9756 70.6046 65.1571 70.0694 65.1571H64.4027Z" fill="#792323"/>
<path d="M351.501 96.7541C351.501 98.4985 350.958 100.058 350.103 101.171C349.248 102.283 348.103 102.929 346.876 102.929H227.206C224.762 102.929 222.582 100.299 222.582 96.7541V6.67472C222.582 4.93039 223.125 3.37108 223.98 2.25832C224.835 1.14606 225.98 0.5 227.206 0.5H346.876C349.321 0.5 351.501 3.13009 351.501 6.67472V96.7541Z" stroke="#2D313E"/>
<path d="M347.951 83.9173H347.943V84.4173C347.943 87.1554 345.946 89.2904 343.585 89.2904H230.499C228.138 89.2904 226.141 87.1554 226.141 84.4173V12.0132C226.141 9.27513 228.138 7.14014 230.499 7.14014H343.592C345.954 7.14014 347.951 9.27513 347.951 12.0132V83.9173Z" fill="#F8DB83" stroke="#2D313E"/>
<path d="M278.742 112.235C279.225 111.772 279.762 111.13 280.14 110.309C280.583 109.346 280.802 108.149 280.473 106.741C280.201 105.571 279.556 104.28 278.39 102.87H299.108C296.378 106.456 296.329 109.009 297.221 110.74C297.548 111.373 297.987 111.865 298.414 112.235H278.742Z" stroke="#2D313E"/>
<path d="M267.915 112.83H309.446V117.017H267.915V112.83Z" stroke="#2D313E"/>
<path d="M222.582 96.7541V84.8638H351.501V96.7541C351.501 100.299 349.321 102.929 346.876 102.929H227.206C225.98 102.929 224.835 102.283 223.98 101.171C223.125 100.058 222.582 98.4984 222.582 96.7541Z" fill="#F3F3F3" stroke="#2D313E"/>
<path d="M300.54 40.5791L292.984 48.1415H298.651C298.651 54.3995 293.57 59.4852 287.318 59.4852C285.41 59.4852 283.597 59.0126 282.029 58.1618L279.271 60.9221C281.594 62.3968 284.352 63.2665 287.318 63.2665C295.667 63.2665 302.429 56.4981 302.429 48.1415H308.096L300.54 40.5791ZM275.984 48.1415C275.984 41.8836 281.066 36.7978 287.318 36.7978C289.226 36.7978 291.039 37.2705 292.607 38.1213L295.365 35.361C293.041 33.8863 290.283 33.0166 287.318 33.0166C278.969 33.0166 272.207 39.785 272.207 48.1415H266.54L274.096 55.704L281.651 48.1415H275.984Z" fill="#886F0D"/>
<path d="M99.9938 242.046V253.682H98.6301L92.2892 244.546H92.1756V253.682H90.7665V242.046H92.1301L98.4938 251.205H98.6074V242.046H99.9938ZM106.291 253.864C105.45 253.864 104.724 253.678 104.115 253.307C103.508 252.932 103.041 252.409 102.711 251.739C102.385 251.065 102.222 250.281 102.222 249.387C102.222 248.493 102.385 247.705 102.711 247.023C103.041 246.337 103.499 245.803 104.086 245.421C104.677 245.034 105.366 244.841 106.154 244.841C106.609 244.841 107.058 244.917 107.501 245.068C107.944 245.22 108.347 245.466 108.711 245.807C109.075 246.144 109.365 246.591 109.58 247.148C109.796 247.705 109.904 248.39 109.904 249.205V249.773H103.177V248.614H108.541C108.541 248.122 108.442 247.682 108.245 247.296C108.052 246.909 107.776 246.604 107.416 246.381C107.06 246.158 106.639 246.046 106.154 246.046C105.62 246.046 105.158 246.178 104.768 246.443C104.382 246.705 104.084 247.046 103.876 247.466C103.668 247.887 103.563 248.337 103.563 248.818V249.591C103.563 250.25 103.677 250.809 103.904 251.267C104.135 251.722 104.455 252.068 104.865 252.307C105.274 252.542 105.749 252.659 106.291 252.659C106.643 252.659 106.961 252.61 107.245 252.512C107.533 252.409 107.781 252.258 107.99 252.057C108.198 251.853 108.359 251.599 108.472 251.296L109.768 251.659C109.632 252.099 109.402 252.485 109.08 252.818C108.758 253.148 108.361 253.406 107.887 253.591C107.414 253.773 106.882 253.864 106.291 253.864ZM115.74 244.955V246.091H111.217V244.955H115.74ZM112.535 242.864H113.876V251.182C113.876 251.561 113.931 251.845 114.041 252.034C114.154 252.22 114.298 252.345 114.472 252.409C114.651 252.47 114.838 252.5 115.035 252.5C115.183 252.5 115.304 252.493 115.399 252.478C115.493 252.459 115.569 252.443 115.626 252.432L115.899 253.637C115.808 253.671 115.681 253.705 115.518 253.739C115.355 253.777 115.149 253.796 114.899 253.796C114.52 253.796 114.149 253.714 113.785 253.551C113.425 253.389 113.126 253.14 112.887 252.807C112.652 252.474 112.535 252.053 112.535 251.546V242.864ZM119.734 253.682L117.075 244.955H118.484L120.37 251.637H120.461L122.325 244.955H123.757L125.597 251.614H125.688L127.575 244.955H128.984L126.325 253.682H125.007L123.097 246.978H122.961L121.052 253.682H119.734ZM134.005 253.864C133.217 253.864 132.526 253.676 131.931 253.301C131.34 252.926 130.878 252.402 130.545 251.728C130.215 251.053 130.051 250.265 130.051 249.364C130.051 248.455 130.215 247.661 130.545 246.983C130.878 246.305 131.34 245.779 131.931 245.404C132.526 245.029 133.217 244.841 134.005 244.841C134.793 244.841 135.482 245.029 136.073 245.404C136.668 245.779 137.13 246.305 137.46 246.983C137.793 247.661 137.96 248.455 137.96 249.364C137.96 250.265 137.793 251.053 137.46 251.728C137.13 252.402 136.668 252.926 136.073 253.301C135.482 253.676 134.793 253.864 134.005 253.864ZM134.005 252.659C134.604 252.659 135.096 252.506 135.482 252.199C135.869 251.892 136.155 251.489 136.34 250.989C136.526 250.489 136.619 249.947 136.619 249.364C136.619 248.781 136.526 248.237 136.34 247.733C136.155 247.229 135.869 246.822 135.482 246.512C135.096 246.201 134.604 246.046 134.005 246.046C133.407 246.046 132.914 246.201 132.528 246.512C132.142 246.822 131.856 247.229 131.67 247.733C131.484 248.237 131.392 248.781 131.392 249.364C131.392 249.947 131.484 250.489 131.67 250.989C131.856 251.489 132.142 251.892 132.528 252.199C132.914 252.506 133.407 252.659 134.005 252.659ZM140.007 253.682V244.955H141.302V246.273H141.393C141.552 245.841 141.84 245.491 142.257 245.222C142.673 244.953 143.143 244.818 143.666 244.818C143.764 244.818 143.887 244.82 144.035 244.824C144.183 244.828 144.294 244.834 144.37 244.841V246.205C144.325 246.193 144.221 246.176 144.058 246.154C143.899 246.127 143.73 246.114 143.552 246.114C143.128 246.114 142.749 246.203 142.416 246.381C142.086 246.555 141.825 246.798 141.632 247.108C141.442 247.415 141.347 247.765 141.347 248.159V253.682H140.007ZM147.21 250.5L147.187 248.841H147.46L151.278 244.955H152.937L148.869 249.068H148.755L147.21 250.5ZM145.96 253.682V242.046H147.301V253.682H145.96ZM151.505 253.682L148.096 249.364L149.051 248.432L153.21 253.682H151.505ZM160.754 242.046V253.682H159.345V242.046H160.754ZM164.738 248.432V253.682H163.397V244.955H164.693V246.318H164.806C165.011 245.875 165.321 245.519 165.738 245.25C166.155 244.978 166.693 244.841 167.352 244.841C167.943 244.841 168.46 244.962 168.903 245.205C169.346 245.443 169.691 245.807 169.937 246.296C170.183 246.781 170.306 247.394 170.306 248.137V253.682H168.965V248.228C168.965 247.542 168.787 247.008 168.431 246.625C168.075 246.239 167.587 246.046 166.965 246.046C166.537 246.046 166.155 246.139 165.818 246.324C165.484 246.51 165.221 246.781 165.028 247.137C164.835 247.493 164.738 247.925 164.738 248.432ZM176.643 244.955V246.091H171.938V244.955H176.643ZM173.347 253.682V243.75C173.347 243.25 173.465 242.834 173.7 242.5C173.935 242.167 174.24 241.917 174.615 241.75C174.99 241.584 175.385 241.5 175.802 241.5C176.132 241.5 176.401 241.527 176.609 241.58C176.817 241.633 176.972 241.682 177.075 241.728L176.688 242.887C176.62 242.864 176.526 242.836 176.404 242.801C176.287 242.767 176.132 242.75 175.938 242.75C175.495 242.75 175.175 242.862 174.978 243.086C174.785 243.309 174.688 243.637 174.688 244.068V253.682H173.347ZM178.522 253.682V244.955H179.818V246.273H179.909C180.068 245.841 180.356 245.491 180.772 245.222C181.189 244.953 181.659 244.818 182.181 244.818C182.28 244.818 182.403 244.82 182.551 244.824C182.698 244.828 182.81 244.834 182.886 244.841V246.205C182.84 246.193 182.736 246.176 182.573 246.154C182.414 246.127 182.246 246.114 182.068 246.114C181.643 246.114 181.265 246.203 180.931 246.381C180.602 246.555 180.34 246.798 180.147 247.108C179.958 247.415 179.863 247.765 179.863 248.159V253.682H178.522ZM187.044 253.887C186.49 253.887 185.989 253.783 185.538 253.574C185.087 253.362 184.729 253.057 184.464 252.659C184.199 252.258 184.066 251.773 184.066 251.205C184.066 250.705 184.165 250.3 184.362 249.989C184.559 249.675 184.822 249.428 185.151 249.25C185.481 249.072 185.845 248.94 186.242 248.853C186.644 248.762 187.047 248.69 187.453 248.637C187.983 248.568 188.413 248.517 188.742 248.483C189.076 248.445 189.318 248.383 189.47 248.296C189.625 248.209 189.703 248.057 189.703 247.841V247.796C189.703 247.235 189.549 246.8 189.242 246.489C188.939 246.178 188.479 246.023 187.862 246.023C187.222 246.023 186.72 246.163 186.356 246.443C185.992 246.724 185.737 247.023 185.589 247.341L184.316 246.887C184.544 246.356 184.847 245.943 185.225 245.648C185.608 245.349 186.025 245.14 186.475 245.023C186.93 244.902 187.377 244.841 187.816 244.841C188.097 244.841 188.419 244.875 188.782 244.943C189.15 245.008 189.504 245.142 189.845 245.347C190.189 245.551 190.475 245.86 190.703 246.273C190.93 246.686 191.044 247.239 191.044 247.932V253.682H189.703V252.5H189.634C189.544 252.69 189.392 252.892 189.18 253.108C188.968 253.324 188.686 253.508 188.333 253.659C187.981 253.811 187.551 253.887 187.044 253.887ZM187.248 252.682C187.778 252.682 188.225 252.578 188.589 252.37C188.956 252.161 189.233 251.892 189.419 251.563C189.608 251.233 189.703 250.887 189.703 250.523V249.296C189.646 249.364 189.521 249.426 189.328 249.483C189.138 249.536 188.919 249.584 188.669 249.625C188.422 249.663 188.182 249.697 187.947 249.728C187.716 249.754 187.528 249.777 187.384 249.796C187.036 249.841 186.71 249.915 186.407 250.017C186.108 250.116 185.865 250.265 185.68 250.466C185.498 250.663 185.407 250.932 185.407 251.273C185.407 251.739 185.579 252.091 185.924 252.33C186.273 252.565 186.714 252.682 187.248 252.682ZM199.673 246.909L198.468 247.25C198.392 247.05 198.281 246.854 198.133 246.665C197.989 246.472 197.792 246.313 197.542 246.188C197.292 246.063 196.972 246 196.582 246C196.048 246 195.603 246.123 195.247 246.37C194.894 246.612 194.718 246.921 194.718 247.296C194.718 247.629 194.839 247.892 195.082 248.086C195.324 248.279 195.703 248.44 196.218 248.568L197.514 248.887C198.294 249.076 198.875 249.366 199.258 249.756C199.641 250.142 199.832 250.64 199.832 251.25C199.832 251.75 199.688 252.197 199.4 252.591C199.116 252.985 198.718 253.296 198.207 253.523C197.695 253.75 197.101 253.864 196.423 253.864C195.533 253.864 194.796 253.671 194.213 253.284C193.629 252.898 193.26 252.334 193.105 251.591L194.377 251.273C194.499 251.743 194.728 252.095 195.065 252.33C195.406 252.565 195.851 252.682 196.4 252.682C197.025 252.682 197.521 252.55 197.889 252.284C198.26 252.015 198.445 251.693 198.445 251.318C198.445 251.015 198.339 250.762 198.127 250.557C197.915 250.349 197.589 250.193 197.15 250.091L195.695 249.75C194.896 249.561 194.309 249.267 193.934 248.87C193.563 248.468 193.377 247.966 193.377 247.364C193.377 246.872 193.516 246.436 193.792 246.057C194.072 245.678 194.453 245.381 194.934 245.165C195.419 244.949 195.968 244.841 196.582 244.841C197.445 244.841 198.124 245.031 198.616 245.409C199.112 245.788 199.464 246.288 199.673 246.909ZM205.646 244.955V246.091H201.123V244.955H205.646ZM202.441 242.864H203.782V251.182C203.782 251.561 203.837 251.845 203.947 252.034C204.061 252.22 204.204 252.345 204.379 252.409C204.557 252.47 204.744 252.5 204.941 252.5C205.089 252.5 205.21 252.493 205.305 252.478C205.4 252.459 205.475 252.443 205.532 252.432L205.805 253.637C205.714 253.671 205.587 253.705 205.424 253.739C205.261 253.777 205.055 253.796 204.805 253.796C204.426 253.796 204.055 253.714 203.691 253.551C203.331 253.389 203.032 253.14 202.794 252.807C202.559 252.474 202.441 252.053 202.441 251.546V242.864ZM207.663 253.682V244.955H208.958V246.273H209.049C209.208 245.841 209.496 245.491 209.913 245.222C210.329 244.953 210.799 244.818 211.322 244.818C211.42 244.818 211.544 244.82 211.691 244.824C211.839 244.828 211.951 244.834 212.026 244.841V246.205C211.981 246.193 211.877 246.176 211.714 246.154C211.555 246.127 211.386 246.114 211.208 246.114C210.784 246.114 210.405 246.203 210.072 246.381C209.742 246.555 209.481 246.798 209.288 247.108C209.098 247.415 209.004 247.765 209.004 248.159V253.682H207.663ZM219.116 250.114V244.955H220.457V253.682H219.116V252.205H219.025C218.82 252.648 218.502 253.025 218.07 253.336C217.639 253.642 217.093 253.796 216.434 253.796C215.889 253.796 215.404 253.676 214.98 253.438C214.555 253.195 214.222 252.832 213.98 252.347C213.737 251.858 213.616 251.243 213.616 250.5V244.955H214.957V250.409C214.957 251.046 215.135 251.553 215.491 251.932C215.851 252.311 216.309 252.5 216.866 252.5C217.199 252.5 217.538 252.415 217.883 252.245C218.231 252.074 218.523 251.813 218.758 251.461C218.997 251.108 219.116 250.659 219.116 250.114ZM226.458 253.864C225.64 253.864 224.936 253.671 224.345 253.284C223.754 252.898 223.299 252.366 222.981 251.688C222.663 251.01 222.504 250.235 222.504 249.364C222.504 248.478 222.667 247.695 222.992 247.017C223.322 246.336 223.78 245.803 224.367 245.421C224.958 245.034 225.648 244.841 226.436 244.841C227.049 244.841 227.602 244.955 228.095 245.182C228.587 245.409 228.99 245.728 229.305 246.137C229.619 246.546 229.814 247.023 229.89 247.568H228.549C228.447 247.171 228.22 246.818 227.867 246.512C227.519 246.201 227.049 246.046 226.458 246.046C225.936 246.046 225.477 246.182 225.083 246.455C224.693 246.724 224.388 247.104 224.169 247.597C223.953 248.086 223.845 248.659 223.845 249.318C223.845 249.993 223.951 250.58 224.163 251.08C224.379 251.58 224.682 251.968 225.072 252.245C225.466 252.521 225.928 252.659 226.458 252.659C226.807 252.659 227.123 252.599 227.407 252.478C227.691 252.356 227.932 252.182 228.129 251.955C228.326 251.728 228.466 251.455 228.549 251.137H229.89C229.814 251.652 229.627 252.116 229.328 252.529C229.032 252.938 228.64 253.264 228.151 253.506C227.667 253.745 227.102 253.864 226.458 253.864ZM235.646 244.955V246.091H231.123V244.955H235.646ZM232.441 242.864H233.782V251.182C233.782 251.561 233.837 251.845 233.947 252.034C234.061 252.22 234.204 252.345 234.379 252.409C234.557 252.47 234.744 252.5 234.941 252.5C235.089 252.5 235.21 252.493 235.305 252.478C235.4 252.459 235.475 252.443 235.532 252.432L235.805 253.637C235.714 253.671 235.587 253.705 235.424 253.739C235.261 253.777 235.055 253.796 234.805 253.796C234.426 253.796 234.055 253.714 233.691 253.551C233.331 253.389 233.032 253.14 232.794 252.807C232.559 252.474 232.441 252.053 232.441 251.546V242.864ZM243.163 250.114V244.955H244.504V253.682H243.163V252.205H243.072C242.867 252.648 242.549 253.025 242.117 253.336C241.686 253.642 241.14 253.796 240.481 253.796C239.936 253.796 239.451 253.676 239.026 253.438C238.602 253.195 238.269 252.832 238.026 252.347C237.784 251.858 237.663 251.243 237.663 250.5V244.955H239.004V250.409C239.004 251.046 239.182 251.553 239.538 251.932C239.898 252.311 240.356 252.5 240.913 252.5C241.246 252.5 241.585 252.415 241.93 252.245C242.278 252.074 242.57 251.813 242.805 251.461C243.044 251.108 243.163 250.659 243.163 250.114ZM246.96 253.682V244.955H248.255V246.273H248.346C248.505 245.841 248.793 245.491 249.21 245.222C249.626 244.953 250.096 244.818 250.619 244.818C250.717 244.818 250.84 244.82 250.988 244.824C251.136 244.828 251.248 244.834 251.323 244.841V246.205C251.278 246.193 251.174 246.176 251.011 246.154C250.852 246.127 250.683 246.114 250.505 246.114C250.081 246.114 249.702 246.203 249.369 246.381C249.039 246.555 248.778 246.798 248.585 247.108C248.395 247.415 248.301 247.765 248.301 248.159V253.682H246.96ZM256.306 253.864C255.465 253.864 254.74 253.678 254.13 253.307C253.524 252.932 253.056 252.409 252.727 251.739C252.401 251.065 252.238 250.281 252.238 249.387C252.238 248.493 252.401 247.705 252.727 247.023C253.056 246.337 253.515 245.803 254.102 245.421C254.693 245.034 255.382 244.841 256.17 244.841C256.624 244.841 257.073 244.917 257.517 245.068C257.96 245.22 258.363 245.466 258.727 245.807C259.09 246.144 259.38 246.591 259.596 247.148C259.812 247.705 259.92 248.39 259.92 249.205V249.773H253.193V248.614H258.556C258.556 248.122 258.458 247.682 258.261 247.296C258.068 246.909 257.791 246.604 257.431 246.381C257.075 246.158 256.655 246.046 256.17 246.046C255.636 246.046 255.174 246.178 254.784 246.443C254.397 246.705 254.1 247.046 253.892 247.466C253.683 247.887 253.579 248.337 253.579 248.818V249.591C253.579 250.25 253.693 250.809 253.92 251.267C254.151 251.722 254.471 252.068 254.88 252.307C255.289 252.542 255.765 252.659 256.306 252.659C256.659 252.659 256.977 252.61 257.261 252.512C257.549 252.409 257.797 252.258 258.005 252.057C258.213 251.853 258.374 251.599 258.488 251.296L259.784 251.659C259.647 252.099 259.418 252.485 259.096 252.818C258.774 253.148 258.376 253.406 257.903 253.591C257.429 253.773 256.897 253.864 256.306 253.864Z" fill="#2D313E"/>
<rect x="112.538" y="206.677" width="123.449" height="22.2181" rx="1.5" fill="#F8F8F8" stroke="#2D313E"/>
<rect x="117.61" y="211.749" width="12.0734" height="13.0021" fill="#52BD9D"/>
<rect x="151.973" y="212.678" width="11.1447" height="11.1447" fill="#929292"/>
<rect x="185.407" y="212.678" width="11.1447" height="11.1447" fill="#929292"/>
<rect x="135.257" y="212.678" width="11.1447" height="11.1447" fill="#929292"/>
<rect x="168.689" y="212.678" width="11.1447" height="11.1447" fill="#929292"/>
<rect x="202.124" y="212.678" width="11.1447" height="11.1447" fill="#929292"/>
<rect x="218.84" y="212.678" width="11.1447" height="11.1447" fill="#929292"/>
<path d="M239.15 419.874C239.15 421.616 238.607 423.174 237.753 424.286C236.9 425.398 235.755 426.043 234.53 426.043H114.954C112.512 426.043 110.334 423.415 110.334 419.874V329.865C110.334 328.122 110.877 326.564 111.731 325.453C112.585 324.341 113.729 323.696 114.954 323.696H234.53C236.972 323.696 239.15 326.324 239.15 329.865V419.874Z" stroke="#2D313E"/>
<path d="M235.603 407.047H235.595V407.547C235.595 410.282 233.6 412.415 231.241 412.415H118.244C115.885 412.415 113.89 410.282 113.89 407.547V335.2C113.89 332.464 115.885 330.331 118.244 330.331H231.248C233.608 330.331 235.603 332.464 235.603 335.2V407.047Z" stroke="#2D313E"/>
<path d="M166.45 435.341C166.932 434.879 167.468 434.237 167.846 433.417C168.289 432.455 168.507 431.26 168.179 429.853C167.907 428.684 167.263 427.394 166.098 425.985H186.798C184.07 429.568 184.021 432.119 184.913 433.848C185.239 434.481 185.678 434.972 186.104 435.341H166.45Z" stroke="#2D313E"/>
<path d="M155.632 435.938H197.129V440.121H155.632V435.938Z" stroke="#2D313E"/>
<path d="M110.334 419.873V407.993H239.15V419.873C239.15 423.415 236.972 426.043 234.53 426.043H114.954C113.729 426.043 112.585 425.397 111.731 424.286C110.877 423.174 110.334 421.616 110.334 419.873Z" fill="#F3F3F3" stroke="#2D313E"/>
<path d="M144.187 367H142.778C142.694 366.595 142.549 366.239 142.34 365.932C142.136 365.625 141.886 365.367 141.59 365.159C141.299 364.947 140.975 364.788 140.619 364.682C140.263 364.576 139.891 364.523 139.505 364.523C138.8 364.523 138.162 364.701 137.59 365.057C137.022 365.413 136.569 365.938 136.232 366.631C135.899 367.324 135.732 368.174 135.732 369.182C135.732 370.189 135.899 371.04 136.232 371.733C136.569 372.426 137.022 372.951 137.59 373.307C138.162 373.663 138.8 373.841 139.505 373.841C139.891 373.841 140.263 373.788 140.619 373.682C140.975 373.576 141.299 373.419 141.59 373.21C141.886 372.998 142.136 372.739 142.34 372.432C142.549 372.121 142.694 371.765 142.778 371.364H144.187C144.081 371.958 143.888 372.491 143.607 372.96C143.327 373.43 142.978 373.83 142.562 374.159C142.145 374.485 141.677 374.733 141.158 374.903C140.643 375.074 140.092 375.159 139.505 375.159C138.513 375.159 137.63 374.917 136.857 374.432C136.085 373.947 135.477 373.258 135.033 372.364C134.59 371.47 134.369 370.409 134.369 369.182C134.369 367.955 134.59 366.894 135.033 366C135.477 365.106 136.085 364.417 136.857 363.932C137.63 363.447 138.513 363.205 139.505 363.205C140.092 363.205 140.643 363.29 141.158 363.46C141.677 363.631 142.145 363.881 142.562 364.21C142.978 364.536 143.327 364.934 143.607 365.403C143.888 365.869 144.081 366.402 144.187 367ZM147.623 363.364V375H146.282V363.364H147.623ZM150.079 375V366.273H151.42V375H150.079ZM150.761 364.818C150.499 364.818 150.274 364.729 150.085 364.551C149.899 364.373 149.806 364.159 149.806 363.909C149.806 363.659 149.899 363.445 150.085 363.267C150.274 363.089 150.499 363 150.761 363C151.022 363 151.246 363.089 151.431 363.267C151.621 363.445 151.715 363.659 151.715 363.909C151.715 364.159 151.621 364.373 151.431 364.551C151.246 364.729 151.022 364.818 150.761 364.818ZM157.535 375.182C156.694 375.182 155.969 374.996 155.359 374.625C154.753 374.25 154.285 373.727 153.955 373.057C153.629 372.383 153.467 371.598 153.467 370.705C153.467 369.811 153.629 369.023 153.955 368.341C154.285 367.655 154.743 367.121 155.33 366.739C155.921 366.352 156.611 366.159 157.398 366.159C157.853 366.159 158.302 366.235 158.745 366.386C159.188 366.538 159.592 366.784 159.955 367.125C160.319 367.462 160.609 367.909 160.825 368.466C161.04 369.023 161.148 369.708 161.148 370.523V371.091H154.421V369.932H159.785C159.785 369.439 159.686 369 159.489 368.614C159.296 368.227 159.02 367.922 158.66 367.699C158.304 367.475 157.883 367.364 157.398 367.364C156.864 367.364 156.402 367.496 156.012 367.761C155.626 368.023 155.328 368.364 155.12 368.784C154.912 369.205 154.808 369.655 154.808 370.136V370.909C154.808 371.568 154.921 372.127 155.148 372.585C155.379 373.04 155.7 373.386 156.109 373.625C156.518 373.86 156.993 373.977 157.535 373.977C157.887 373.977 158.205 373.928 158.489 373.83C158.777 373.727 159.025 373.576 159.234 373.375C159.442 373.17 159.603 372.917 159.717 372.614L161.012 372.977C160.876 373.417 160.647 373.803 160.325 374.136C160.003 374.466 159.605 374.723 159.131 374.909C158.658 375.091 158.126 375.182 157.535 375.182ZM164.529 369.75V375H163.188V366.273H164.484V367.636H164.597C164.802 367.193 165.112 366.837 165.529 366.568C165.946 366.295 166.484 366.159 167.143 366.159C167.734 366.159 168.251 366.28 168.694 366.523C169.137 366.761 169.482 367.125 169.728 367.614C169.974 368.098 170.097 368.712 170.097 369.455V375H168.756V369.545C168.756 368.86 168.578 368.326 168.222 367.943C167.866 367.557 167.378 367.364 166.756 367.364C166.328 367.364 165.946 367.456 165.609 367.642C165.275 367.828 165.012 368.098 164.819 368.455C164.626 368.811 164.529 369.242 164.529 369.75ZM176.343 366.273V367.409H171.82V366.273H176.343ZM173.138 364.182H174.479V372.5C174.479 372.879 174.534 373.163 174.644 373.352C174.758 373.538 174.902 373.663 175.076 373.727C175.254 373.788 175.442 373.818 175.638 373.818C175.786 373.818 175.907 373.811 176.002 373.795C176.097 373.777 176.173 373.761 176.229 373.75L176.502 374.955C176.411 374.989 176.284 375.023 176.121 375.057C175.959 375.095 175.752 375.114 175.502 375.114C175.123 375.114 174.752 375.032 174.388 374.869C174.029 374.706 173.729 374.458 173.491 374.125C173.256 373.792 173.138 373.371 173.138 372.864V364.182ZM183.048 369.386V370.636H177.957V369.386H183.048ZM191.589 368.227L190.384 368.568C190.308 368.367 190.197 368.172 190.049 367.983C189.905 367.79 189.708 367.631 189.458 367.506C189.208 367.381 188.888 367.318 188.498 367.318C187.964 367.318 187.519 367.441 187.163 367.688C186.81 367.93 186.634 368.239 186.634 368.614C186.634 368.947 186.755 369.21 186.998 369.403C187.24 369.597 187.619 369.758 188.134 369.886L189.43 370.205C190.21 370.394 190.791 370.684 191.174 371.074C191.557 371.46 191.748 371.958 191.748 372.568C191.748 373.068 191.604 373.515 191.316 373.909C191.032 374.303 190.634 374.614 190.123 374.841C189.612 375.068 189.017 375.182 188.339 375.182C187.449 375.182 186.712 374.989 186.129 374.602C185.545 374.216 185.176 373.652 185.021 372.909L186.293 372.591C186.415 373.061 186.644 373.413 186.981 373.648C187.322 373.883 187.767 374 188.316 374C188.941 374 189.437 373.867 189.805 373.602C190.176 373.333 190.362 373.011 190.362 372.636C190.362 372.333 190.255 372.08 190.043 371.875C189.831 371.667 189.505 371.511 189.066 371.409L187.612 371.068C186.812 370.879 186.225 370.585 185.85 370.188C185.479 369.786 185.293 369.284 185.293 368.682C185.293 368.189 185.432 367.754 185.708 367.375C185.988 366.996 186.369 366.699 186.85 366.483C187.335 366.267 187.884 366.159 188.498 366.159C189.362 366.159 190.04 366.348 190.532 366.727C191.028 367.106 191.38 367.606 191.589 368.227ZM193.766 375V366.273H195.107V375H193.766ZM194.448 364.818C194.187 364.818 193.961 364.729 193.772 364.551C193.586 364.373 193.494 364.159 193.494 363.909C193.494 363.659 193.586 363.445 193.772 363.267C193.961 363.089 194.187 363 194.448 363C194.71 363 194.933 363.089 195.119 363.267C195.308 363.445 195.403 363.659 195.403 363.909C195.403 364.159 195.308 364.373 195.119 364.551C194.933 364.729 194.71 364.818 194.448 364.818ZM200.859 375.182C200.131 375.182 199.489 374.998 198.933 374.631C198.376 374.259 197.94 373.737 197.626 373.062C197.311 372.384 197.154 371.583 197.154 370.659C197.154 369.742 197.311 368.947 197.626 368.273C197.94 367.598 198.378 367.078 198.938 366.71C199.499 366.343 200.147 366.159 200.881 366.159C201.45 366.159 201.898 366.254 202.228 366.443C202.561 366.629 202.815 366.841 202.989 367.08C203.167 367.314 203.306 367.508 203.404 367.659H203.518V363.364H204.859V375H203.563V373.659H203.404C203.306 373.818 203.165 374.019 202.984 374.261C202.802 374.5 202.542 374.714 202.205 374.903C201.868 375.089 201.419 375.182 200.859 375.182ZM201.04 373.977C201.578 373.977 202.033 373.837 202.404 373.557C202.775 373.273 203.058 372.881 203.251 372.381C203.444 371.877 203.54 371.295 203.54 370.636C203.54 369.985 203.446 369.415 203.256 368.926C203.067 368.434 202.787 368.051 202.415 367.778C202.044 367.502 201.586 367.364 201.04 367.364C200.472 367.364 199.999 367.509 199.62 367.801C199.245 368.089 198.963 368.481 198.773 368.977C198.588 369.47 198.495 370.023 198.495 370.636C198.495 371.258 198.59 371.822 198.779 372.33C198.972 372.833 199.256 373.235 199.631 373.534C200.01 373.83 200.48 373.977 201.04 373.977ZM211.16 375.182C210.319 375.182 209.594 374.996 208.984 374.625C208.378 374.25 207.91 373.727 207.58 373.057C207.254 372.383 207.092 371.598 207.092 370.705C207.092 369.811 207.254 369.023 207.58 368.341C207.91 367.655 208.368 367.121 208.955 366.739C209.546 366.352 210.236 366.159 211.023 366.159C211.478 366.159 211.927 366.235 212.37 366.386C212.813 366.538 213.217 366.784 213.58 367.125C213.944 367.462 214.234 367.909 214.45 368.466C214.665 369.023 214.773 369.708 214.773 370.523V371.091H208.046V369.932H213.41C213.41 369.439 213.311 369 213.114 368.614C212.921 368.227 212.645 367.922 212.285 367.699C211.929 367.475 211.508 367.364 211.023 367.364C210.489 367.364 210.027 367.496 209.637 367.761C209.251 368.023 208.953 368.364 208.745 368.784C208.537 369.205 208.433 369.655 208.433 370.136V370.909C208.433 371.568 208.546 372.127 208.773 372.585C209.004 373.04 209.325 373.386 209.734 373.625C210.143 373.86 210.618 373.977 211.16 373.977C211.512 373.977 211.83 373.928 212.114 373.83C212.402 373.727 212.65 373.576 212.859 373.375C213.067 373.17 213.228 372.917 213.342 372.614L214.637 372.977C214.501 373.417 214.272 373.803 213.95 374.136C213.628 374.466 213.23 374.723 212.756 374.909C212.283 375.091 211.751 375.182 211.16 375.182Z" fill="#2D313E"/>
<path d="M175.208 96.3749H177.791V98.9583H175.208V96.3749ZM175.208 86.0416H177.791V93.7916H175.208V86.0416ZM176.487 79.5833C169.357 79.5833 163.583 85.3699 163.583 92.4999C163.583 99.6299 169.357 105.417 176.487 105.417C183.63 105.417 189.416 99.6299 189.416 92.4999C189.416 85.3699 183.63 79.5833 176.487 79.5833ZM176.5 102.833C170.791 102.833 166.166 98.2091 166.166 92.4999C166.166 86.7908 170.791 82.1666 176.5 82.1666C182.209 82.1666 186.833 86.7908 186.833 92.4999C186.833 98.2091 182.209 102.833 176.5 102.833Z" fill="#CF3838"/>
</svg>
