<svg width="350" height="443" viewBox="0 0 350 443" fill="none" xmlns="http://www.w3.org/2000/svg">
<path d="M18.6716 132.924H31.3756V134.092H18.6716V132.924ZM19.4076 137.612H30.7196V138.78H19.4076V137.612ZM17.9196 142.732H32.1916V143.9H17.9196V142.732ZM24.3676 133.868H25.6636V143.34H24.3676V133.868ZM23.0076 130.444L23.9836 129.788C24.3249 130.023 24.6823 130.295 25.0556 130.604C25.4396 130.913 25.7969 131.223 26.1276 131.532C26.4583 131.831 26.7303 132.108 26.9436 132.364L25.9036 133.116C25.7116 132.871 25.4503 132.593 25.1196 132.284C24.7996 131.964 24.4529 131.644 24.0796 131.324C23.7169 130.993 23.3596 130.7 23.0076 130.444ZM33.7596 138.46H48.3036V139.468H33.7596V138.46ZM34.1276 130.412H47.9036V131.484H34.1276V130.412ZM39.2956 136.796L40.4796 137.1C40.1276 137.655 39.7436 138.241 39.3276 138.86C38.9116 139.479 38.4956 140.081 38.0796 140.668C37.6636 141.244 37.2796 141.751 36.9276 142.188L35.7916 141.788C36.1436 141.351 36.5276 140.844 36.9436 140.268C37.3596 139.692 37.7756 139.1 38.1916 138.492C38.6076 137.884 38.9756 137.319 39.2956 136.796ZM44.0956 138.828L45.2476 139.164C44.9063 140.039 44.4263 140.785 43.8076 141.404C43.1996 142.023 42.4529 142.535 41.5676 142.94C40.6823 143.345 39.6476 143.665 38.4636 143.9C37.2796 144.145 35.9409 144.321 34.4476 144.428C34.4156 144.257 34.3516 144.071 34.2556 143.868C34.1703 143.676 34.0743 143.511 33.9676 143.372C35.8769 143.265 37.5036 143.057 38.8476 142.748C40.2023 142.428 41.3063 141.953 42.1596 141.324C43.0236 140.695 43.6689 139.863 44.0956 138.828ZM36.6716 141.644L37.2636 140.764C38.5863 140.988 39.8983 141.255 41.1996 141.564C42.5009 141.863 43.7223 142.183 44.8636 142.524C46.0156 142.855 47.0023 143.18 47.8236 143.5L47.0876 144.476C46.2769 144.145 45.3169 143.809 44.2076 143.468C43.1089 143.127 41.9143 142.801 40.6236 142.492C39.3436 142.172 38.0263 141.889 36.6716 141.644ZM38.4956 130.812H39.6316V136.412H38.4956V130.812ZM42.2396 130.812H43.3756V136.412H42.2396V130.812ZM36.0636 133.836V136.012H46.0476V133.836H36.0636ZM34.9276 132.844H47.2316V136.988H34.9276V132.844ZM51.2316 130.316H54.9596V131.436H51.2316V130.316ZM51.2316 134.06H54.9916V135.18H51.2316V134.06ZM57.4716 135.804H63.2956V136.908H57.4716V135.804ZM51.1996 137.884H54.9596V139.02H51.1996V137.884ZM50.7516 130.316H51.8396V136.06C51.8396 136.689 51.8236 137.367 51.7916 138.092C51.7596 138.817 51.7009 139.559 51.6156 140.316C51.5303 141.063 51.4023 141.793 51.2316 142.508C51.0609 143.223 50.8316 143.873 50.5436 144.46C50.4796 144.396 50.3889 144.327 50.2716 144.252C50.1543 144.177 50.0316 144.108 49.9036 144.044C49.7756 143.98 49.6636 143.932 49.5676 143.9C49.8449 143.335 50.0583 142.721 50.2076 142.06C50.3676 141.399 50.4849 140.721 50.5596 140.028C50.6343 139.324 50.6823 138.636 50.7036 137.964C50.7356 137.281 50.7516 136.647 50.7516 136.06V130.316ZM54.2876 130.316H55.4076V143.004C55.4076 143.324 55.3649 143.58 55.2796 143.772C55.1943 143.975 55.0503 144.124 54.8476 144.22C54.6449 144.327 54.3729 144.391 54.0316 144.412C53.6903 144.433 53.2476 144.444 52.7036 144.444C52.6929 144.348 52.6716 144.225 52.6396 144.076C52.6076 143.937 52.5649 143.799 52.5116 143.66C52.4689 143.521 52.4209 143.399 52.3676 143.292C52.7409 143.303 53.0769 143.308 53.3756 143.308C53.6743 143.308 53.8769 143.303 53.9836 143.292C54.0903 143.292 54.1649 143.271 54.2076 143.228C54.2609 143.185 54.2876 143.105 54.2876 142.988V130.316ZM62.4476 130.364H63.6156V133.468C63.6156 133.756 63.5729 133.985 63.4876 134.156C63.4023 134.327 63.2316 134.46 62.9756 134.556C62.7303 134.631 62.3996 134.679 61.9836 134.7C61.5676 134.711 61.0556 134.716 60.4476 134.716C60.4263 134.545 60.3729 134.369 60.2876 134.188C60.2129 133.996 60.1383 133.831 60.0636 133.692C60.3943 133.692 60.6983 133.697 60.9756 133.708C61.2636 133.719 61.5089 133.724 61.7116 133.724C61.9143 133.713 62.0583 133.708 62.1436 133.708C62.2716 133.697 62.3516 133.676 62.3836 133.644C62.4263 133.612 62.4476 133.548 62.4476 133.452V130.364ZM62.9596 135.804H63.1676L63.3756 135.756L64.0796 136.012C63.8129 137.377 63.4129 138.599 62.8796 139.676C62.3569 140.743 61.7383 141.665 61.0236 142.444C60.3196 143.223 59.5516 143.857 58.7196 144.348C58.6556 144.22 58.5543 144.065 58.4156 143.884C58.2769 143.703 58.1436 143.564 58.0156 143.468C58.7836 143.063 59.4983 142.503 60.1596 141.788C60.8209 141.063 61.3969 140.215 61.8876 139.244C62.3783 138.263 62.7356 137.191 62.9596 136.028V135.804ZM59.2636 136.492C59.5729 137.527 59.9783 138.503 60.4796 139.42C60.9916 140.337 61.5889 141.153 62.2716 141.868C62.9543 142.572 63.7116 143.127 64.5436 143.532C64.4156 143.639 64.2769 143.783 64.1276 143.964C63.9783 144.156 63.8556 144.321 63.7596 144.46C62.9063 143.991 62.1276 143.372 61.4236 142.604C60.7303 141.825 60.1223 140.94 59.5996 139.948C59.0769 138.945 58.6449 137.879 58.3036 136.748L59.2636 136.492ZM56.8156 130.364H62.7836V131.484H57.9516V144.444H56.8156V130.364ZM65.9356 130.524H71.3916V131.564H65.9356V130.524ZM72.1276 138.7H79.0556V139.74H72.1276V138.7ZM65.7596 135.356H71.7756V136.428H65.7596V135.356ZM68.5756 135.788H69.7276V143.052C69.7276 143.351 69.6903 143.585 69.6156 143.756C69.5409 143.937 69.3969 144.081 69.1836 144.188C68.9809 144.273 68.7143 144.327 68.3836 144.348C68.0636 144.369 67.6583 144.38 67.1676 144.38C67.1463 144.231 67.0983 144.044 67.0236 143.82C66.9596 143.607 66.8849 143.42 66.7996 143.26C67.1516 143.271 67.4663 143.276 67.7436 143.276C68.0316 143.287 68.2236 143.287 68.3196 143.276C68.4156 143.265 68.4796 143.244 68.5116 143.212C68.5543 143.18 68.5756 143.121 68.5756 143.036V135.788ZM78.6556 138.7H79.8716C79.8716 138.7 79.8663 138.764 79.8556 138.892C79.8556 139.02 79.8503 139.132 79.8396 139.228C79.7436 140.22 79.6369 141.036 79.5196 141.676C79.4129 142.305 79.3009 142.796 79.1836 143.148C79.0663 143.5 78.9276 143.756 78.7676 143.916C78.6289 144.065 78.4796 144.167 78.3196 144.22C78.1703 144.284 77.9836 144.327 77.7596 144.348C77.5783 144.359 77.3276 144.364 77.0076 144.364C76.6876 144.364 76.3409 144.353 75.9676 144.332C75.9569 144.161 75.9249 143.969 75.8716 143.756C75.8183 143.553 75.7436 143.372 75.6476 143.212C75.9996 143.244 76.3196 143.265 76.6076 143.276C76.8956 143.287 77.1036 143.292 77.2316 143.292C77.3703 143.292 77.4769 143.281 77.5516 143.26C77.6369 143.239 77.7169 143.196 77.7916 143.132C77.8983 143.015 78.0049 142.801 78.1116 142.492C78.2183 142.183 78.3143 141.735 78.3996 141.148C78.4956 140.561 78.5809 139.804 78.6556 138.876V138.7ZM75.1036 137.116H76.3036C76.2289 137.916 76.1063 138.684 75.9356 139.42C75.7756 140.156 75.5249 140.839 75.1836 141.468C74.8529 142.097 74.3996 142.663 73.8236 143.164C73.2476 143.665 72.5063 144.092 71.5996 144.444C71.5356 144.305 71.4343 144.14 71.2956 143.948C71.1569 143.767 71.0236 143.623 70.8956 143.516C71.7276 143.207 72.4049 142.833 72.9276 142.396C73.4503 141.948 73.8556 141.452 74.1436 140.908C74.4423 140.353 74.6609 139.756 74.7996 139.116C74.9383 138.476 75.0396 137.809 75.1036 137.116ZM66.4956 133.196L67.2476 132.412C67.7063 132.593 68.1756 132.817 68.6556 133.084C69.1463 133.34 69.6049 133.607 70.0316 133.884C70.4689 134.151 70.8209 134.407 71.0876 134.652L70.2876 135.532C70.0316 135.287 69.6903 135.02 69.2636 134.732C68.8476 134.444 68.3943 134.167 67.9036 133.9C67.4236 133.623 66.9543 133.388 66.4956 133.196ZM71.4556 135.356H71.6316L71.8076 135.292L72.5596 135.548C72.3889 136.22 72.1863 136.913 71.9516 137.628C71.7276 138.332 71.4876 138.929 71.2316 139.42L70.3996 139.004C70.6023 138.577 70.7996 138.044 70.9916 137.404C71.1836 136.753 71.3383 136.14 71.4556 135.564V135.356ZM77.8716 131.884L79.1196 132.092C78.7569 133.063 78.2556 133.895 77.6156 134.588C76.9863 135.281 76.2449 135.868 75.3916 136.348C74.5489 136.828 73.6209 137.228 72.6076 137.548C72.5649 137.463 72.5009 137.356 72.4156 137.228C72.3303 137.089 72.2343 136.961 72.1276 136.844C72.0316 136.716 71.9409 136.615 71.8556 136.54C72.8369 136.295 73.7276 135.969 74.5276 135.564C75.3383 135.148 76.0263 134.641 76.5916 134.044C77.1676 133.436 77.5943 132.716 77.8716 131.884ZM74.4636 129.708L75.5996 130.028C75.3543 130.593 75.0556 131.143 74.7036 131.676C74.3516 132.199 73.9783 132.689 73.5836 133.148C73.1889 133.607 72.7889 134.007 72.3836 134.348C72.3089 134.284 72.2129 134.209 72.0956 134.124C71.9783 134.028 71.8556 133.937 71.7276 133.852C71.5996 133.767 71.4876 133.697 71.3916 133.644C72.0209 133.175 72.6076 132.599 73.1516 131.916C73.6956 131.223 74.1329 130.487 74.4636 129.708ZM74.1756 132.236C74.5596 132.929 75.0663 133.569 75.6956 134.156C76.3249 134.743 77.0503 135.244 77.8716 135.66C78.7036 136.065 79.5996 136.369 80.5596 136.572C80.4743 136.657 80.3783 136.759 80.2716 136.876C80.1756 136.993 80.0849 137.116 79.9996 137.244C79.9143 137.372 79.8396 137.489 79.7756 137.596C78.8049 137.329 77.8983 136.961 77.0556 136.492C76.2129 136.012 75.4609 135.441 74.7996 134.78C74.1383 134.119 73.5943 133.383 73.1676 132.572L74.1756 132.236ZM68.4156 135.692L69.2316 135.996C69.0396 136.7 68.7836 137.425 68.4636 138.172C68.1543 138.919 67.8076 139.612 67.4236 140.252C67.0503 140.892 66.6503 141.42 66.2236 141.836C66.1596 141.676 66.0636 141.489 65.9356 141.276C65.8183 141.052 65.7063 140.865 65.5996 140.716C65.9943 140.353 66.3729 139.9 66.7356 139.356C67.0983 138.801 67.4236 138.209 67.7116 137.58C68.0103 136.94 68.2449 136.311 68.4156 135.692ZM74.1116 131.404H80.2076V132.428H73.5996L74.1116 131.404ZM71.1036 130.524H71.3756L71.5676 130.476L72.3516 130.972C72.1063 131.335 71.8129 131.708 71.4716 132.092C71.1303 132.465 70.7676 132.823 70.3836 133.164C69.9996 133.495 69.6263 133.783 69.2636 134.028C69.1569 133.932 69.0236 133.831 68.8636 133.724C68.7036 133.607 68.5649 133.516 68.4476 133.452C68.7889 133.217 69.1249 132.945 69.4556 132.636C69.7969 132.327 70.1116 132.007 70.3996 131.676C70.6983 131.335 70.9329 131.025 71.1036 130.748V130.524ZM82.6716 132.924H95.3756V134.092H82.6716V132.924ZM83.4076 137.612H94.7196V138.78H83.4076V137.612ZM81.9196 142.732H96.1916V143.9H81.9196V142.732ZM88.3676 133.868H89.6636V143.34H88.3676V133.868ZM87.0076 130.444L87.9836 129.788C88.3249 130.023 88.6823 130.295 89.0556 130.604C89.4396 130.913 89.7969 131.223 90.1276 131.532C90.4583 131.831 90.7303 132.108 90.9436 132.364L89.9036 133.116C89.7116 132.871 89.4503 132.593 89.1196 132.284C88.7996 131.964 88.4529 131.644 88.0796 131.324C87.7169 130.993 87.3596 130.7 87.0076 130.444ZM102.608 137.9H112.32V138.892H102.608V137.9ZM103.872 140.428L104.512 139.708C104.789 139.857 105.082 140.033 105.392 140.236C105.701 140.439 105.989 140.641 106.256 140.844C106.533 141.047 106.762 141.228 106.944 141.388L106.272 142.22C106.101 142.049 105.877 141.857 105.6 141.644C105.333 141.431 105.045 141.217 104.736 141.004C104.437 140.791 104.149 140.599 103.872 140.428ZM109.056 136.972L109.632 136.396C109.93 136.556 110.24 136.743 110.56 136.956C110.89 137.169 111.146 137.367 111.328 137.548L110.72 138.172C110.538 137.991 110.288 137.788 109.968 137.564C109.648 137.34 109.344 137.143 109.056 136.972ZM103.776 138.364H104.88C104.816 139.185 104.704 139.975 104.544 140.732C104.394 141.489 104.154 142.183 103.824 142.812C103.493 143.431 103.024 143.964 102.416 144.412C102.341 144.284 102.229 144.14 102.08 143.98C101.941 143.831 101.808 143.708 101.68 143.612C102.224 143.239 102.634 142.775 102.912 142.22C103.2 141.665 103.408 141.057 103.536 140.396C103.664 139.735 103.744 139.057 103.776 138.364ZM106.656 129.74H107.728C107.717 131.329 107.754 132.823 107.84 134.22C107.925 135.607 108.053 136.865 108.224 137.996C108.394 139.116 108.613 140.087 108.88 140.908C109.157 141.719 109.472 142.343 109.824 142.78C110.176 143.207 110.565 143.42 110.992 143.42C111.226 143.42 111.392 143.297 111.488 143.052C111.584 142.807 111.653 142.321 111.696 141.596C111.813 141.713 111.952 141.82 112.112 141.916C112.272 142.012 112.416 142.087 112.544 142.14C112.48 142.737 112.389 143.201 112.272 143.532C112.154 143.873 111.989 144.113 111.776 144.252C111.562 144.401 111.274 144.476 110.912 144.476C110.272 144.476 109.712 144.225 109.232 143.724C108.762 143.233 108.362 142.54 108.032 141.644C107.712 140.737 107.45 139.671 107.248 138.444C107.045 137.217 106.896 135.868 106.8 134.396C106.714 132.913 106.666 131.361 106.656 129.74ZM110.24 139.132L111.28 139.516C110.757 140.625 110.021 141.596 109.072 142.428C108.122 143.249 107.029 143.916 105.792 144.428C105.717 144.321 105.616 144.193 105.488 144.044C105.36 143.895 105.242 143.767 105.136 143.66C106.33 143.191 107.37 142.567 108.256 141.788C109.141 141.009 109.802 140.124 110.24 139.132ZM107.808 132.508L108.304 131.852C108.656 132.097 109.008 132.385 109.36 132.716C109.722 133.036 110 133.329 110.192 133.596L109.664 134.348C109.482 134.081 109.216 133.777 108.864 133.436C108.512 133.084 108.16 132.775 107.808 132.508ZM110.8 134.46L111.536 134.156C111.77 134.529 111.978 134.935 112.16 135.372C112.352 135.799 112.48 136.167 112.544 136.476L111.76 136.844C111.685 136.524 111.557 136.14 111.376 135.692C111.205 135.233 111.013 134.823 110.8 134.46ZM108.016 135.564C108.517 135.543 109.088 135.511 109.728 135.468C110.368 135.425 111.04 135.383 111.744 135.34L111.76 136.156C111.12 136.22 110.501 136.284 109.904 136.348C109.306 136.401 108.736 136.455 108.192 136.508L108.016 135.564ZM109.664 129.884L110.608 130.252C110.373 130.689 110.128 131.148 109.872 131.628C109.616 132.097 109.376 132.497 109.152 132.828L108.48 132.508C108.618 132.273 108.757 132.001 108.896 131.692C109.045 131.383 109.189 131.068 109.328 130.748C109.466 130.428 109.578 130.14 109.664 129.884ZM110.992 131.484L111.872 131.9C111.605 132.359 111.312 132.844 110.992 133.356C110.672 133.857 110.352 134.348 110.032 134.828C109.712 135.297 109.402 135.713 109.104 136.076L108.432 135.692C108.72 135.329 109.018 134.903 109.328 134.412C109.648 133.911 109.952 133.404 110.24 132.892C110.538 132.38 110.789 131.911 110.992 131.484ZM102.4 132.508L102.896 131.852C103.248 132.097 103.6 132.385 103.952 132.716C104.314 133.036 104.586 133.329 104.768 133.596L104.256 134.348C104.074 134.081 103.802 133.777 103.44 133.436C103.088 133.084 102.741 132.775 102.4 132.508ZM105.168 134.556L105.904 134.284C106.117 134.647 106.309 135.047 106.48 135.484C106.65 135.921 106.762 136.295 106.816 136.604L106.016 136.94C105.973 136.62 105.872 136.236 105.712 135.788C105.552 135.34 105.37 134.929 105.168 134.556ZM102.448 135.756C102.949 135.724 103.52 135.687 104.16 135.644C104.81 135.591 105.488 135.543 106.192 135.5L106.208 136.348C105.568 136.423 104.944 136.487 104.336 136.54C103.728 136.593 103.157 136.647 102.624 136.7L102.448 135.756ZM104.256 129.884L105.184 130.252C104.949 130.689 104.704 131.153 104.448 131.644C104.192 132.124 103.957 132.529 103.744 132.86L103.056 132.54C103.194 132.295 103.338 132.017 103.488 131.708C103.637 131.399 103.781 131.084 103.92 130.764C104.058 130.433 104.17 130.14 104.256 129.884ZM105.584 131.484L106.448 131.9C106.17 132.369 105.866 132.871 105.536 133.404C105.216 133.927 104.885 134.433 104.544 134.924C104.213 135.415 103.893 135.847 103.584 136.22L102.912 135.852C103.21 135.468 103.525 135.02 103.856 134.508C104.186 133.996 104.501 133.473 104.8 132.94C105.109 132.407 105.37 131.921 105.584 131.484ZM97.8556 133.196H102.704V134.316H97.8556V133.196ZM99.8716 129.724H100.96V144.428H99.8716V129.724ZM99.8396 133.868L100.544 134.092C100.437 134.711 100.298 135.367 100.128 136.06C99.9569 136.743 99.7649 137.415 99.5516 138.076C99.3383 138.737 99.1089 139.351 98.8636 139.916C98.6289 140.481 98.3783 140.967 98.1116 141.372C98.0476 141.223 97.9516 141.052 97.8236 140.86C97.7063 140.668 97.6049 140.503 97.5196 140.364C97.7649 140.001 97.9996 139.569 98.2236 139.068C98.4583 138.567 98.6769 138.023 98.8796 137.436C99.0929 136.849 99.2796 136.252 99.4396 135.644C99.6103 135.025 99.7436 134.433 99.8396 133.868ZM100.896 134.924C100.981 135.031 101.104 135.217 101.264 135.484C101.434 135.74 101.621 136.028 101.824 136.348C102.026 136.657 102.208 136.951 102.368 137.228C102.538 137.495 102.656 137.687 102.72 137.804L102.096 138.684C102.021 138.492 101.909 138.241 101.76 137.932C101.61 137.623 101.445 137.303 101.264 136.972C101.093 136.631 100.928 136.321 100.768 136.044C100.608 135.756 100.485 135.532 100.4 135.372L100.896 134.924Z" fill="#2D313E"/>
<path d="M260.641 129.852H261.761V133.596H260.641V129.852ZM264.769 129.852H265.905V133.596H264.769V129.852ZM263.697 136.732H264.673V144.364H263.697V136.732ZM258.033 131.228H268.417V132.284H258.033V131.228ZM261.009 138.716H267.377V139.564H261.009V138.716ZM261.009 140.94H267.377V141.788H261.009V140.94ZM258.849 134.156H268.497V135.212H258.849V134.156ZM258.321 134.156H259.425V137.612C259.425 138.113 259.409 138.663 259.377 139.26C259.345 139.847 259.275 140.449 259.169 141.068C259.062 141.676 258.907 142.268 258.705 142.844C258.513 143.42 258.262 143.953 257.953 144.444C257.889 144.369 257.798 144.284 257.681 144.188C257.574 144.092 257.462 143.996 257.345 143.9C257.238 143.815 257.142 143.751 257.057 143.708C257.441 143.1 257.718 142.439 257.889 141.724C258.07 141.009 258.187 140.295 258.241 139.58C258.294 138.865 258.321 138.204 258.321 137.596V134.156ZM260.401 136.396H267.521V137.324H261.441V144.444H260.401V136.396ZM267.041 136.396H268.081V143.276C268.081 143.543 268.049 143.751 267.985 143.9C267.921 144.06 267.798 144.183 267.617 144.268C267.425 144.353 267.169 144.407 266.849 144.428C266.539 144.449 266.145 144.455 265.665 144.444C265.654 144.316 265.617 144.161 265.553 143.98C265.499 143.799 265.435 143.639 265.361 143.5C265.702 143.511 266.006 143.516 266.273 143.516C266.539 143.516 266.715 143.511 266.801 143.5C266.961 143.5 267.041 143.42 267.041 143.26V136.396ZM256.833 129.804L257.937 130.108C257.638 131.036 257.281 131.953 256.865 132.86C256.459 133.767 256.017 134.625 255.537 135.436C255.057 136.236 254.55 136.945 254.017 137.564C253.985 137.468 253.931 137.345 253.857 137.196C253.782 137.036 253.702 136.881 253.617 136.732C253.531 136.572 253.457 136.444 253.393 136.348C253.862 135.804 254.31 135.185 254.737 134.492C255.163 133.788 255.553 133.036 255.905 132.236C256.267 131.436 256.577 130.625 256.833 129.804ZM255.537 133.724L256.657 132.62L256.689 132.652V144.444H255.537V133.724ZM275.073 134.044H283.857V135.036H275.073V134.044ZM274.705 136.3H284.337V137.324H274.705V136.3ZM276.897 138.412H282.401V139.34H276.897V138.412ZM275.537 132.012L276.481 131.756C276.641 132.065 276.795 132.407 276.945 132.78C277.094 133.153 277.206 133.463 277.281 133.708L276.289 134.044C276.225 133.777 276.118 133.452 275.969 133.068C275.83 132.673 275.686 132.321 275.537 132.012ZM278.401 131.676L279.377 131.516C279.483 131.857 279.579 132.225 279.665 132.62C279.761 133.015 279.83 133.345 279.873 133.612L278.849 133.852C278.817 133.575 278.758 133.228 278.673 132.812C278.587 132.396 278.497 132.017 278.401 131.676ZM282.897 129.836L283.601 130.732C283.057 130.849 282.438 130.956 281.745 131.052C281.062 131.148 280.342 131.233 279.585 131.308C278.838 131.372 278.081 131.425 277.313 131.468C276.555 131.5 275.819 131.527 275.105 131.548C275.094 131.409 275.057 131.255 274.993 131.084C274.939 130.903 274.881 130.748 274.817 130.62C275.51 130.599 276.23 130.567 276.977 130.524C277.723 130.471 278.459 130.412 279.185 130.348C279.91 130.273 280.593 130.199 281.233 130.124C281.873 130.039 282.427 129.943 282.897 129.836ZM277.825 139.036C278.209 139.793 278.726 140.471 279.377 141.068C280.027 141.665 280.795 142.167 281.681 142.572C282.577 142.977 283.558 143.276 284.625 143.468C284.497 143.585 284.358 143.745 284.209 143.948C284.07 144.151 283.958 144.332 283.873 144.492C282.23 144.129 280.806 143.516 279.601 142.652C278.395 141.777 277.467 140.673 276.817 139.34L277.825 139.036ZM282.257 131.34L283.409 131.708C283.121 132.199 282.811 132.705 282.481 133.228C282.15 133.751 281.841 134.199 281.553 134.572L280.657 134.236C280.838 133.969 281.03 133.671 281.233 133.34C281.435 132.999 281.627 132.652 281.809 132.3C281.99 131.948 282.139 131.628 282.257 131.34ZM282.113 138.412H282.353L282.561 138.364L283.233 138.668C282.891 139.788 282.395 140.732 281.745 141.5C281.094 142.268 280.331 142.887 279.457 143.356C278.593 143.836 277.643 144.209 276.609 144.476C276.577 144.391 276.518 144.289 276.433 144.172C276.358 144.065 276.278 143.953 276.193 143.836C276.107 143.719 276.022 143.628 275.937 143.564C276.929 143.351 277.835 143.041 278.657 142.636C279.489 142.22 280.198 141.681 280.785 141.02C281.382 140.359 281.825 139.548 282.113 138.588V138.412ZM277.217 134.684H278.369C278.315 135.324 278.241 136.001 278.145 136.716C278.059 137.42 277.926 138.135 277.745 138.86C277.563 139.575 277.318 140.279 277.009 140.972C276.71 141.655 276.326 142.289 275.857 142.876C275.398 143.463 274.827 143.98 274.145 144.428C274.059 144.289 273.937 144.135 273.777 143.964C273.627 143.804 273.478 143.676 273.329 143.58C273.969 143.185 274.507 142.716 274.945 142.172C275.382 141.617 275.739 141.025 276.017 140.396C276.305 139.756 276.523 139.105 276.673 138.444C276.833 137.772 276.95 137.116 277.025 136.476C277.099 135.836 277.163 135.239 277.217 134.684ZM269.633 138.588C270.262 138.417 271.014 138.199 271.889 137.932C272.774 137.655 273.67 137.367 274.577 137.068L274.737 138.188C273.883 138.465 273.03 138.743 272.177 139.02C271.323 139.297 270.55 139.548 269.857 139.772L269.633 138.588ZM269.777 132.956H274.625V134.076H269.777V132.956ZM271.777 129.74H272.897V143.052C272.897 143.372 272.854 143.623 272.769 143.804C272.694 143.985 272.555 144.124 272.353 144.22C272.161 144.316 271.905 144.38 271.585 144.412C271.265 144.444 270.849 144.455 270.337 144.444C270.326 144.305 270.283 144.124 270.209 143.9C270.145 143.687 270.075 143.495 270.001 143.324C270.342 143.335 270.651 143.34 270.929 143.34C271.217 143.351 271.409 143.351 271.505 143.34C271.601 143.34 271.67 143.319 271.713 143.276C271.755 143.244 271.777 143.169 271.777 143.052V129.74ZM286.753 132.924H299.457V134.092H286.753V132.924ZM287.489 137.612H298.801V138.78H287.489V137.612ZM286.001 142.732H300.273V143.9H286.001V142.732ZM292.449 133.868H293.745V143.34H292.449V133.868ZM291.089 130.444L292.065 129.788C292.406 130.023 292.763 130.295 293.137 130.604C293.521 130.913 293.878 131.223 294.209 131.532C294.539 131.831 294.811 132.108 295.025 132.364L293.985 133.116C293.793 132.871 293.531 132.593 293.201 132.284C292.881 131.964 292.534 131.644 292.161 131.324C291.798 130.993 291.441 130.7 291.089 130.444ZM306.689 137.9H316.401V138.892H306.689V137.9ZM307.953 140.428L308.593 139.708C308.87 139.857 309.163 140.033 309.473 140.236C309.782 140.439 310.07 140.641 310.337 140.844C310.614 141.047 310.843 141.228 311.025 141.388L310.353 142.22C310.182 142.049 309.958 141.857 309.681 141.644C309.414 141.431 309.126 141.217 308.817 141.004C308.518 140.791 308.23 140.599 307.953 140.428ZM313.137 136.972L313.713 136.396C314.011 136.556 314.321 136.743 314.641 136.956C314.971 137.169 315.227 137.367 315.409 137.548L314.801 138.172C314.619 137.991 314.369 137.788 314.049 137.564C313.729 137.34 313.425 137.143 313.137 136.972ZM307.857 138.364H308.961C308.897 139.185 308.785 139.975 308.625 140.732C308.475 141.489 308.235 142.183 307.905 142.812C307.574 143.431 307.105 143.964 306.497 144.412C306.422 144.284 306.31 144.14 306.161 143.98C306.022 143.831 305.889 143.708 305.761 143.612C306.305 143.239 306.715 142.775 306.993 142.22C307.281 141.665 307.489 141.057 307.617 140.396C307.745 139.735 307.825 139.057 307.857 138.364ZM310.737 129.74H311.809C311.798 131.329 311.835 132.823 311.921 134.22C312.006 135.607 312.134 136.865 312.305 137.996C312.475 139.116 312.694 140.087 312.961 140.908C313.238 141.719 313.553 142.343 313.905 142.78C314.257 143.207 314.646 143.42 315.073 143.42C315.307 143.42 315.473 143.297 315.569 143.052C315.665 142.807 315.734 142.321 315.777 141.596C315.894 141.713 316.033 141.82 316.193 141.916C316.353 142.012 316.497 142.087 316.625 142.14C316.561 142.737 316.47 143.201 316.353 143.532C316.235 143.873 316.07 144.113 315.857 144.252C315.643 144.401 315.355 144.476 314.993 144.476C314.353 144.476 313.793 144.225 313.313 143.724C312.843 143.233 312.443 142.54 312.113 141.644C311.793 140.737 311.531 139.671 311.329 138.444C311.126 137.217 310.977 135.868 310.881 134.396C310.795 132.913 310.747 131.361 310.737 129.74ZM314.321 139.132L315.361 139.516C314.838 140.625 314.102 141.596 313.153 142.428C312.203 143.249 311.11 143.916 309.873 144.428C309.798 144.321 309.697 144.193 309.569 144.044C309.441 143.895 309.323 143.767 309.217 143.66C310.411 143.191 311.451 142.567 312.337 141.788C313.222 141.009 313.883 140.124 314.321 139.132ZM311.889 132.508L312.385 131.852C312.737 132.097 313.089 132.385 313.441 132.716C313.803 133.036 314.081 133.329 314.273 133.596L313.745 134.348C313.563 134.081 313.297 133.777 312.945 133.436C312.593 133.084 312.241 132.775 311.889 132.508ZM314.881 134.46L315.617 134.156C315.851 134.529 316.059 134.935 316.241 135.372C316.433 135.799 316.561 136.167 316.625 136.476L315.841 136.844C315.766 136.524 315.638 136.14 315.457 135.692C315.286 135.233 315.094 134.823 314.881 134.46ZM312.097 135.564C312.598 135.543 313.169 135.511 313.809 135.468C314.449 135.425 315.121 135.383 315.825 135.34L315.841 136.156C315.201 136.22 314.582 136.284 313.985 136.348C313.387 136.401 312.817 136.455 312.273 136.508L312.097 135.564ZM313.745 129.884L314.689 130.252C314.454 130.689 314.209 131.148 313.953 131.628C313.697 132.097 313.457 132.497 313.233 132.828L312.561 132.508C312.699 132.273 312.838 132.001 312.977 131.692C313.126 131.383 313.27 131.068 313.409 130.748C313.547 130.428 313.659 130.14 313.745 129.884ZM315.073 131.484L315.953 131.9C315.686 132.359 315.393 132.844 315.073 133.356C314.753 133.857 314.433 134.348 314.113 134.828C313.793 135.297 313.483 135.713 313.185 136.076L312.513 135.692C312.801 135.329 313.099 134.903 313.409 134.412C313.729 133.911 314.033 133.404 314.321 132.892C314.619 132.38 314.87 131.911 315.073 131.484ZM306.481 132.508L306.977 131.852C307.329 132.097 307.681 132.385 308.033 132.716C308.395 133.036 308.667 133.329 308.849 133.596L308.337 134.348C308.155 134.081 307.883 133.777 307.521 133.436C307.169 133.084 306.822 132.775 306.481 132.508ZM309.249 134.556L309.985 134.284C310.198 134.647 310.39 135.047 310.561 135.484C310.731 135.921 310.843 136.295 310.897 136.604L310.097 136.94C310.054 136.62 309.953 136.236 309.793 135.788C309.633 135.34 309.451 134.929 309.249 134.556ZM306.529 135.756C307.03 135.724 307.601 135.687 308.241 135.644C308.891 135.591 309.569 135.543 310.273 135.5L310.289 136.348C309.649 136.423 309.025 136.487 308.417 136.54C307.809 136.593 307.238 136.647 306.705 136.7L306.529 135.756ZM308.337 129.884L309.265 130.252C309.03 130.689 308.785 131.153 308.529 131.644C308.273 132.124 308.038 132.529 307.825 132.86L307.137 132.54C307.275 132.295 307.419 132.017 307.569 131.708C307.718 131.399 307.862 131.084 308.001 130.764C308.139 130.433 308.251 130.14 308.337 129.884ZM309.665 131.484L310.529 131.9C310.251 132.369 309.947 132.871 309.617 133.404C309.297 133.927 308.966 134.433 308.625 134.924C308.294 135.415 307.974 135.847 307.665 136.22L306.993 135.852C307.291 135.468 307.606 135.02 307.937 134.508C308.267 133.996 308.582 133.473 308.881 132.94C309.19 132.407 309.451 131.921 309.665 131.484ZM301.937 133.196H306.785V134.316H301.937V133.196ZM303.953 129.724H305.041V144.428H303.953V129.724ZM303.921 133.868L304.625 134.092C304.518 134.711 304.379 135.367 304.209 136.06C304.038 136.743 303.846 137.415 303.633 138.076C303.419 138.737 303.19 139.351 302.945 139.916C302.71 140.481 302.459 140.967 302.193 141.372C302.129 141.223 302.033 141.052 301.905 140.86C301.787 140.668 301.686 140.503 301.601 140.364C301.846 140.001 302.081 139.569 302.305 139.068C302.539 138.567 302.758 138.023 302.961 137.436C303.174 136.849 303.361 136.252 303.521 135.644C303.691 135.025 303.825 134.433 303.921 133.868ZM304.977 134.924C305.062 135.031 305.185 135.217 305.345 135.484C305.515 135.74 305.702 136.028 305.905 136.348C306.107 136.657 306.289 136.951 306.449 137.228C306.619 137.495 306.737 137.687 306.801 137.804L306.177 138.684C306.102 138.492 305.99 138.241 305.841 137.932C305.691 137.623 305.526 137.303 305.345 136.972C305.174 136.631 305.009 136.321 304.849 136.044C304.689 135.756 304.566 135.532 304.481 135.372L304.977 134.924Z" fill="#2D313E"/>
<g opacity="0.5">
<rect x="130.021" y="30.6478" width="64.0819" height="3.7149" fill="#1C7057"/>
<path d="M203.391 32.5053L190.156 38.1354L190.156 26.8752L203.391 32.5053Z" fill="#1C7057"/>
</g>
<g opacity="0.5">
<rect x="130.021" y="62.2246" width="64.0819" height="3.7149" fill="#1C7057"/>
<path d="M203.391 64.082L190.156 69.7121L190.156 58.4519L203.391 64.082Z" fill="#1C7057"/>
</g>
<g opacity="0.7">
<rect x="174.599" y="277.689" width="26.0043" height="3.71489" transform="rotate(90 174.599 277.689)" fill="#3B93CA"/>
<path d="M172.742 313.909L167.112 300.675L178.372 300.675L172.742 313.909Z" fill="#3B93CA"/>
<path d="M172.742 267.473L167.112 280.707L178.372 280.707L172.742 267.473Z" fill="#3B93CA"/>
</g>
<g opacity="0.7">
<rect x="97.6475" y="165.604" width="26.0043" height="3.71489" transform="rotate(45 97.6475 165.604)" fill="#3B93CA"/>
<path d="M121.945 192.529L108.606 187.152L116.568 179.19L121.945 192.529Z" fill="#3B93CA"/>
<path d="M89.1101 159.694L94.4871 173.033L102.449 165.071L89.1101 159.694Z" fill="#3B93CA"/>
</g>
<path d="M129.419 96.7541C129.419 98.4985 128.875 100.058 128.021 101.171C127.166 102.283 126.021 102.929 124.794 102.929H5.12437C2.67958 102.929 0.5 100.299 0.5 96.7541V6.67472C0.5 4.93039 1.04329 3.37108 1.89809 2.25832C2.75251 1.14606 3.89776 0.5 5.12437 0.5H124.794C127.239 0.5 129.419 3.13009 129.419 6.67472V96.7541Z" stroke="#2D313E"/>
<path d="M125.869 83.9174H125.861V84.4174C125.861 87.1555 123.864 89.2905 121.503 89.2905H8.41686C6.05552 89.2905 4.05859 87.1555 4.05859 84.4174V12.0133C4.05859 9.27526 6.05552 7.14026 8.41686 7.14026H121.51C123.872 7.14026 125.869 9.27526 125.869 12.0133V83.9174Z" fill="#84D5BD" stroke="#2D313E"/>
<path d="M56.6598 112.234C57.1428 111.772 57.6797 111.129 58.0578 110.308C58.501 109.346 58.7196 108.149 58.3913 106.741C58.1185 105.571 57.4739 104.28 56.308 102.87H77.026C74.2956 106.456 74.2468 109.009 75.1392 110.74C75.4659 111.373 75.9049 111.865 76.3317 112.234H56.6598Z" stroke="#2D313E"/>
<path d="M45.833 117.017V112.83H87.3638V117.017H45.833Z" stroke="#2D313E"/>
<path d="M0.5 96.7541V84.8638H129.419V96.7541C129.419 100.299 127.239 102.929 124.794 102.929H5.12437C3.89776 102.929 2.75251 102.283 1.89809 101.171C1.04329 100.058 0.5 98.4984 0.5 96.7541Z" fill="#F3F3F3" stroke="#2D313E"/>
<path d="M44.458 65.1572H52.0136V42.4698H44.458V65.1572ZM86.0136 44.3604C86.0136 42.2807 84.3136 40.5792 82.2358 40.5792H70.3169L72.1114 31.939L72.168 31.3341C72.168 30.5589 71.8469 29.8405 71.3369 29.33L69.3347 27.3448L56.9058 39.804C56.2069 40.4846 55.7913 41.43 55.7913 42.4698V61.376C55.7913 63.4556 57.4913 65.1572 59.5691 65.1572H76.5691C78.1369 65.1572 79.478 64.2119 80.0447 62.8507L85.7491 49.5218C85.9191 49.087 86.0136 48.6332 86.0136 48.1416V44.3604Z" fill="#1C7057"/>
<path d="M349.501 96.7541C349.501 98.4985 348.958 100.058 348.103 101.171C347.248 102.283 346.103 102.929 344.876 102.929H225.206C222.762 102.929 220.582 100.299 220.582 96.7541V6.67472C220.582 4.93039 221.125 3.37108 221.98 2.25832C222.835 1.14606 223.98 0.5 225.206 0.5H344.876C347.321 0.5 349.501 3.13009 349.501 6.67472V96.7541Z" stroke="#2D313E"/>
<path d="M345.951 83.9174H345.943V84.4174C345.943 87.1555 343.946 89.2905 341.585 89.2905H228.499C226.138 89.2905 224.141 87.1555 224.141 84.4174V12.0133C224.141 9.27526 226.138 7.14026 228.499 7.14026H341.592C343.954 7.14026 345.951 9.27526 345.951 12.0133V83.9174Z" fill="#D3D3D3" stroke="#2D313E"/>
<path d="M276.742 112.234C277.225 111.772 277.762 111.129 278.14 110.308C278.583 109.346 278.802 108.149 278.473 106.741C278.201 105.571 277.556 104.28 276.39 102.87H297.108C294.378 106.456 294.329 109.009 295.221 110.74C295.548 111.373 295.987 111.865 296.414 112.234H276.742Z" stroke="#2D313E"/>
<path d="M265.915 117.017V112.83H307.446V117.017H265.915Z" stroke="#2D313E"/>
<path d="M220.582 96.7541V84.8638H349.501V96.7541C349.501 100.299 347.321 102.929 344.876 102.929H225.206C223.98 102.929 222.835 102.283 221.98 101.171C221.125 100.058 220.582 98.4984 220.582 96.7541Z" fill="#F3F3F3" stroke="#2D313E"/>
<path d="M279.651 55.7041H283.429V40.5792H279.651V55.7041ZM285.318 29.2355C274.891 29.2355 266.429 37.7054 266.429 48.1416C266.429 58.5779 274.891 67.0478 285.318 67.0478C295.744 67.0478 304.207 58.5779 304.207 48.1416C304.207 37.7054 295.744 29.2355 285.318 29.2355ZM285.318 63.2666C276.988 63.2666 270.206 56.4793 270.206 48.1416C270.206 39.804 276.988 33.0167 285.318 33.0167C293.648 33.0167 300.429 39.804 300.429 48.1416C300.429 56.4793 293.648 63.2666 285.318 63.2666ZM287.206 55.7041H290.984V40.5792H287.206V55.7041Z" fill="#7F7F7F"/>
<path d="M135.223 245.986H136.263V248.018H135.223V245.986ZM137.127 242.562L138.103 242.882C137.921 243.266 137.735 243.671 137.543 244.098C137.361 244.525 137.185 244.887 137.015 245.186L136.279 244.914C136.385 244.69 136.492 244.439 136.599 244.162C136.705 243.885 136.807 243.607 136.903 243.33C136.999 243.042 137.073 242.786 137.127 242.562ZM133.559 242.946L134.327 242.674C134.519 243.005 134.684 243.383 134.823 243.81C134.961 244.226 135.057 244.578 135.111 244.866L134.263 245.17C134.231 244.871 134.145 244.514 134.007 244.098C133.879 243.671 133.729 243.287 133.559 242.946ZM131.687 241.01H139.351V242.066H132.775V254.994H131.687V241.01ZM138.903 241.01H139.991V253.602C139.991 253.933 139.953 254.183 139.879 254.354C139.804 254.535 139.66 254.674 139.447 254.77C139.233 254.855 138.951 254.909 138.599 254.93C138.247 254.962 137.815 254.973 137.303 254.962C137.281 254.823 137.233 254.647 137.159 254.434C137.095 254.221 137.025 254.039 136.951 253.89C137.324 253.901 137.665 253.906 137.975 253.906C138.295 253.917 138.508 253.922 138.615 253.922C138.721 253.911 138.796 253.879 138.839 253.826C138.881 253.783 138.903 253.709 138.903 253.602V241.01ZM133.367 245.138H138.263V246.082H133.367V245.138ZM133.239 247.746H138.359V248.706H133.239V247.746ZM133.927 248.274H134.967V250.978C134.967 251.181 134.983 251.325 135.015 251.41C135.057 251.485 135.159 251.522 135.319 251.522C135.383 251.522 135.5 251.522 135.671 251.522C135.852 251.522 136.044 251.522 136.247 251.522C136.449 251.522 136.636 251.522 136.807 251.522C136.977 251.522 137.1 251.522 137.175 251.522C137.292 251.522 137.441 251.517 137.623 251.506C137.804 251.485 137.948 251.463 138.055 251.442C138.065 251.581 138.076 251.751 138.087 251.954C138.108 252.146 138.129 252.301 138.151 252.418C138.044 252.45 137.905 252.471 137.735 252.482C137.564 252.493 137.383 252.498 137.191 252.498C137.116 252.498 136.988 252.498 136.807 252.498C136.625 252.498 136.428 252.498 136.215 252.498C136.001 252.498 135.809 252.498 135.639 252.498C135.468 252.498 135.361 252.498 135.319 252.498C134.935 252.498 134.641 252.45 134.439 252.354C134.247 252.258 134.113 252.098 134.039 251.874C133.964 251.639 133.927 251.335 133.927 250.962V248.274ZM128.199 240.242L129.255 240.642C129.063 241.037 128.849 241.447 128.615 241.874C128.391 242.301 128.161 242.717 127.927 243.122C127.703 243.517 127.489 243.863 127.287 244.162L126.455 243.794C126.657 243.485 126.865 243.122 127.079 242.706C127.303 242.29 127.511 241.863 127.703 241.426C127.905 240.989 128.071 240.594 128.199 240.242ZM129.991 242.066L130.999 242.546C130.636 243.133 130.231 243.762 129.783 244.434C129.335 245.095 128.881 245.735 128.423 246.354C127.975 246.973 127.548 247.511 127.143 247.97L126.407 247.554C126.705 247.202 127.02 246.802 127.351 246.354C127.681 245.895 128.007 245.421 128.327 244.93C128.647 244.429 128.951 243.933 129.239 243.442C129.527 242.951 129.777 242.493 129.991 242.066ZM125.655 243.586L126.279 242.818C126.567 243.074 126.855 243.357 127.143 243.666C127.441 243.975 127.713 244.279 127.959 244.578C128.204 244.877 128.396 245.149 128.535 245.394L127.863 246.29C127.724 246.034 127.532 245.746 127.287 245.426C127.052 245.106 126.791 244.786 126.503 244.466C126.215 244.146 125.932 243.853 125.655 243.586ZM129.367 245.73L130.247 245.378C130.471 245.719 130.684 246.093 130.887 246.498C131.089 246.903 131.271 247.298 131.431 247.682C131.601 248.055 131.724 248.386 131.799 248.674L130.839 249.122C130.775 248.813 130.663 248.466 130.503 248.082C130.353 247.687 130.183 247.287 129.991 246.882C129.799 246.466 129.591 246.082 129.367 245.73ZM125.511 247.314C126.204 247.282 127.025 247.245 127.975 247.202C128.935 247.149 129.916 247.095 130.919 247.042V248.05C129.98 248.114 129.047 248.178 128.119 248.242C127.201 248.295 126.38 248.343 125.655 248.386L125.511 247.314ZM129.799 249.602L130.679 249.346C130.881 249.805 131.063 250.306 131.223 250.85C131.383 251.383 131.489 251.847 131.543 252.242L130.599 252.546C130.567 252.141 130.471 251.666 130.311 251.122C130.161 250.567 129.991 250.061 129.799 249.602ZM126.487 249.394L127.495 249.554C127.388 250.311 127.239 251.058 127.047 251.794C126.865 252.519 126.652 253.138 126.407 253.65C126.343 253.607 126.252 253.559 126.135 253.506C126.017 253.442 125.9 253.383 125.783 253.33C125.665 253.277 125.564 253.234 125.479 253.202C125.745 252.711 125.959 252.13 126.119 251.458C126.279 250.775 126.401 250.087 126.487 249.394ZM128.183 247.794H129.239V254.962H128.183V247.794ZM149.543 253.282H154.823V254.338H149.543V253.282ZM150.327 241.874H154.551V242.93H150.327V241.874ZM149.079 249.154H155.367V254.882H154.231V250.194H150.199V254.93H149.079V249.154ZM154.119 241.874H154.343L154.567 241.826L155.319 242.162C155.02 243.143 154.62 244.045 154.119 244.866C153.617 245.677 153.047 246.413 152.407 247.074C151.767 247.725 151.079 248.295 150.343 248.786C149.617 249.277 148.876 249.687 148.119 250.018C148.044 249.879 147.937 249.719 147.799 249.538C147.671 249.346 147.543 249.197 147.415 249.09C148.129 248.823 148.828 248.466 149.511 248.018C150.193 247.57 150.839 247.047 151.447 246.45C152.055 245.842 152.588 245.175 153.047 244.45C153.505 243.714 153.863 242.925 154.119 242.082V241.874ZM150.615 240.226L151.751 240.514C151.516 241.229 151.228 241.927 150.887 242.61C150.556 243.293 150.188 243.927 149.783 244.514C149.388 245.09 148.972 245.602 148.535 246.05C148.471 245.975 148.38 245.89 148.263 245.794C148.145 245.698 148.023 245.602 147.895 245.506C147.777 245.399 147.676 245.319 147.591 245.266C148.252 244.679 148.844 243.943 149.367 243.058C149.889 242.162 150.305 241.218 150.615 240.226ZM150.295 242.546C150.519 243.122 150.823 243.714 151.207 244.322C151.601 244.919 152.06 245.506 152.583 246.082C153.116 246.647 153.719 247.17 154.391 247.65C155.073 248.119 155.82 248.509 156.631 248.818C156.556 248.893 156.471 248.989 156.375 249.106C156.279 249.223 156.188 249.346 156.103 249.474C156.017 249.602 155.943 249.719 155.879 249.826C155.057 249.463 154.305 249.026 153.623 248.514C152.951 248.002 152.353 247.447 151.831 246.85C151.308 246.242 150.849 245.629 150.455 245.01C150.071 244.381 149.756 243.778 149.511 243.202L150.295 242.546ZM142.487 247.346H143.511V253.138H142.487V247.346ZM143.559 241.97V244.786H146.583V241.97H143.559ZM142.487 240.914H147.687V245.842H142.487V240.914ZM144.759 245.314H145.847V252.626H144.759V245.314ZM141.671 253.01C142.193 252.914 142.796 252.791 143.479 252.642C144.161 252.482 144.887 252.311 145.655 252.13C146.423 251.949 147.191 251.767 147.959 251.586L148.071 252.658C146.972 252.935 145.879 253.207 144.791 253.474C143.703 253.741 142.732 253.975 141.879 254.178L141.671 253.01ZM145.143 248.146H147.847V249.218H145.143V248.146ZM158.535 241.794H171.639V242.802H158.535V241.794ZM159.047 253.506H171.175V254.53H159.047V253.506ZM161.687 243.874H168.423V244.77H161.687V243.874ZM161.687 245.89H168.423V246.802H161.687V245.89ZM157.799 247.938H172.343V248.962H157.799V247.938ZM161.143 250.818H168.999V251.81H161.143V250.818ZM160.983 240.242H162.183V248.514H160.983V240.242ZM168.007 240.258H169.223V248.514H168.007V240.258ZM164.423 249.474H165.639V254.066H164.423V249.474ZM161.831 248.226L162.823 248.594C162.503 249.149 162.103 249.677 161.623 250.178C161.153 250.679 160.641 251.138 160.087 251.554C159.543 251.959 158.988 252.295 158.423 252.562C158.369 252.466 158.295 252.365 158.199 252.258C158.103 252.141 158.007 252.029 157.911 251.922C157.815 251.805 157.724 251.709 157.639 251.634C158.172 251.421 158.705 251.138 159.239 250.786C159.772 250.434 160.263 250.034 160.711 249.586C161.159 249.138 161.532 248.685 161.831 248.226ZM168.375 248.226C168.652 248.674 169.009 249.106 169.447 249.522C169.884 249.938 170.369 250.311 170.903 250.642C171.447 250.962 171.991 251.223 172.535 251.426C172.46 251.501 172.369 251.597 172.263 251.714C172.156 251.821 172.06 251.933 171.975 252.05C171.889 252.167 171.809 252.274 171.735 252.37C171.18 252.125 170.625 251.805 170.071 251.41C169.527 251.015 169.025 250.578 168.567 250.098C168.119 249.607 167.735 249.101 167.415 248.578L168.375 248.226ZM173.799 241.202H179.335V242.306H173.799V241.202ZM175.399 246.018H178.839V252.834H175.399V251.778H177.799V247.09H175.399V246.018ZM175.671 241.746L176.791 241.906C176.652 243.005 176.465 244.077 176.231 245.122C176.007 246.157 175.729 247.127 175.399 248.034C175.079 248.93 174.689 249.73 174.231 250.434C174.188 250.338 174.124 250.226 174.039 250.098C173.953 249.959 173.863 249.826 173.767 249.698C173.671 249.559 173.585 249.453 173.511 249.378C173.916 248.759 174.252 248.05 174.519 247.25C174.796 246.439 175.031 245.565 175.223 244.626C175.415 243.687 175.564 242.727 175.671 241.746ZM174.903 246.018H175.927V254.162H174.903V246.018ZM179.287 242.034H183.479V243.01H179.287V242.034ZM179.271 247.442H187.495V248.45H179.271V247.442ZM183.671 250.354H187.399V251.346H183.671V250.354ZM181.031 240.242H182.039V246.946H181.031V240.242ZM180.935 242.578L181.655 242.978C181.505 243.405 181.308 243.837 181.063 244.274C180.828 244.711 180.567 245.127 180.279 245.522C180.001 245.917 179.713 246.258 179.415 246.546C179.351 246.429 179.26 246.29 179.143 246.13C179.036 245.959 178.935 245.826 178.839 245.73C179.105 245.506 179.372 245.223 179.639 244.882C179.905 244.53 180.151 244.157 180.375 243.762C180.609 243.357 180.796 242.962 180.935 242.578ZM186.567 242.594C186.705 242.999 186.876 243.405 187.079 243.81C187.292 244.215 187.527 244.589 187.783 244.93C188.049 245.271 188.327 245.549 188.615 245.762C188.497 245.837 188.375 245.949 188.247 246.098C188.119 246.237 188.012 246.359 187.927 246.466C187.649 246.21 187.377 245.885 187.111 245.49C186.855 245.095 186.62 244.669 186.407 244.21C186.204 243.741 186.033 243.282 185.895 242.834L186.567 242.594ZM182.007 243.346C182.092 243.41 182.204 243.501 182.343 243.618C182.492 243.735 182.647 243.869 182.807 244.018C182.977 244.157 183.132 244.29 183.271 244.418C183.42 244.535 183.527 244.626 183.591 244.69L182.983 245.394C182.887 245.255 182.743 245.079 182.551 244.866C182.359 244.653 182.161 244.439 181.959 244.226C181.767 244.013 181.607 243.858 181.479 243.762L182.007 243.346ZM183.799 242.034H188.359V243.01H183.799V242.034ZM185.399 240.242H186.423V246.946H185.399V240.242ZM185.255 242.578L185.943 242.962C185.804 243.399 185.607 243.842 185.351 244.29C185.105 244.738 184.833 245.159 184.535 245.554C184.236 245.938 183.927 246.258 183.607 246.514C183.553 246.397 183.468 246.263 183.351 246.114C183.244 245.954 183.148 245.826 183.063 245.73C183.361 245.527 183.649 245.255 183.927 244.914C184.204 244.573 184.455 244.199 184.679 243.794C184.913 243.389 185.105 242.983 185.255 242.578ZM187.175 247.442H187.351L187.543 247.378L188.311 247.634C188.172 248.029 188.017 248.434 187.847 248.85C187.687 249.266 187.527 249.623 187.367 249.922L186.455 249.586C186.572 249.319 186.695 249.005 186.823 248.642C186.961 248.279 187.079 247.927 187.175 247.586V247.442ZM181.319 250.578C181.543 251.442 181.841 252.093 182.215 252.53C182.599 252.967 183.063 253.266 183.607 253.426C184.151 253.575 184.764 253.655 185.447 253.666C185.521 253.666 185.655 253.666 185.847 253.666C186.049 253.666 186.279 253.666 186.535 253.666C186.801 253.655 187.068 253.65 187.335 253.65C187.612 253.65 187.863 253.65 188.087 253.65C188.311 253.65 188.471 253.65 188.567 253.65C188.524 253.735 188.476 253.837 188.423 253.954C188.38 254.082 188.337 254.21 188.295 254.338C188.263 254.477 188.236 254.594 188.215 254.69H187.543H185.383C184.529 254.69 183.788 254.589 183.159 254.386C182.54 254.183 182.012 253.81 181.575 253.266C181.137 252.711 180.78 251.917 180.503 250.882L181.319 250.578ZM180.535 249.234H181.623C181.559 250.013 181.441 250.759 181.271 251.474C181.1 252.189 180.839 252.845 180.487 253.442C180.135 254.039 179.644 254.546 179.015 254.962C178.94 254.845 178.828 254.706 178.679 254.546C178.54 254.386 178.412 254.258 178.295 254.162C178.849 253.81 179.276 253.378 179.575 252.866C179.884 252.343 180.108 251.767 180.247 251.138C180.385 250.509 180.481 249.874 180.535 249.234ZM183.159 247.746H184.263V254.114L183.159 253.634V247.746ZM194.087 243.618H204.439V244.594H194.087V243.618ZM195.015 247.938H203.383V248.866H195.015V247.938ZM194.311 250.13H204.087V251.122H194.311V250.13ZM198.503 240.37H199.671V252.818H198.503V240.37ZM195.239 241.522H203.223V246.754H195.127V245.778H202.055V242.482H195.239V241.522ZM189.719 241.25H193.191V242.338H189.719V241.25ZM192.759 241.25H192.919L193.111 241.202L193.927 241.442C193.692 242.007 193.409 242.642 193.079 243.346C192.748 244.05 192.407 244.765 192.055 245.49C191.703 246.205 191.361 246.882 191.031 247.522L189.927 247.218C190.183 246.738 190.444 246.237 190.711 245.714C190.977 245.181 191.239 244.647 191.495 244.114C191.751 243.581 191.985 243.079 192.199 242.61C192.423 242.141 192.609 241.741 192.759 241.41V241.25ZM191.191 245.81H193.799V246.898H191.031L191.191 245.81ZM193.319 245.81H193.559L193.767 245.794L194.471 245.954C194.236 248.29 193.777 250.194 193.095 251.666C192.412 253.127 191.548 254.237 190.503 254.994C190.449 254.909 190.364 254.813 190.247 254.706C190.14 254.599 190.028 254.493 189.911 254.386C189.804 254.29 189.703 254.215 189.607 254.162C190.631 253.479 191.452 252.477 192.071 251.154C192.7 249.821 193.116 248.125 193.319 246.066V245.81ZM191.239 248.178C191.559 249.277 191.98 250.173 192.503 250.866C193.036 251.549 193.655 252.071 194.359 252.434C195.073 252.797 195.863 253.047 196.727 253.186C197.601 253.325 198.545 253.394 199.559 253.394C199.697 253.394 199.927 253.394 200.247 253.394C200.567 253.394 200.935 253.394 201.351 253.394C201.767 253.394 202.188 253.394 202.615 253.394C203.041 253.383 203.425 253.378 203.767 253.378C204.108 253.367 204.364 253.362 204.535 253.362C204.471 253.447 204.407 253.559 204.343 253.698C204.279 253.847 204.22 253.991 204.167 254.13C204.113 254.279 204.076 254.413 204.055 254.53H203.207H199.543C198.38 254.53 197.313 254.45 196.343 254.29C195.383 254.13 194.519 253.837 193.751 253.41C192.983 252.983 192.305 252.381 191.719 251.602C191.143 250.813 190.663 249.789 190.279 248.53L191.239 248.178ZM213.015 240.754H214.151V242.706C214.151 243.154 214.097 243.634 213.991 244.146C213.884 244.658 213.687 245.154 213.399 245.634C213.111 246.114 212.679 246.546 212.103 246.93C212.049 246.845 211.964 246.754 211.847 246.658C211.74 246.551 211.628 246.45 211.511 246.354C211.404 246.247 211.308 246.173 211.223 246.13C211.735 245.789 212.119 245.426 212.375 245.042C212.631 244.647 212.801 244.247 212.887 243.842C212.972 243.437 213.015 243.047 213.015 242.674V240.754ZM216.903 240.754H218.055V244.674C218.055 244.855 218.071 244.973 218.103 245.026C218.145 245.069 218.231 245.09 218.359 245.09C218.401 245.09 218.476 245.09 218.583 245.09C218.689 245.09 218.801 245.09 218.919 245.09C219.036 245.09 219.121 245.09 219.175 245.09C219.26 245.09 219.324 245.053 219.367 244.978C219.42 244.903 219.457 244.743 219.479 244.498C219.511 244.242 219.527 243.858 219.527 243.346C219.644 243.442 219.804 243.527 220.007 243.602C220.209 243.677 220.391 243.735 220.551 243.778C220.519 244.407 220.455 244.893 220.359 245.234C220.273 245.575 220.145 245.815 219.975 245.954C219.815 246.082 219.591 246.146 219.303 246.146C219.228 246.146 219.116 246.146 218.967 246.146C218.817 246.146 218.663 246.146 218.503 246.146C218.353 246.146 218.247 246.146 218.183 246.146C217.852 246.146 217.591 246.103 217.399 246.018C217.217 245.933 217.089 245.789 217.015 245.586C216.94 245.373 216.903 245.074 216.903 244.69V240.754ZM213.879 248.29C214.423 249.677 215.271 250.861 216.423 251.842C217.585 252.823 218.972 253.517 220.583 253.922C220.497 253.997 220.401 254.098 220.295 254.226C220.199 254.354 220.103 254.482 220.007 254.61C219.921 254.738 219.847 254.85 219.783 254.946C218.129 254.466 216.711 253.687 215.527 252.61C214.353 251.522 213.447 250.199 212.807 248.642L213.879 248.29ZM218.359 247.17H218.583L218.791 247.122L219.575 247.426C219.297 248.482 218.903 249.421 218.391 250.242C217.889 251.053 217.303 251.767 216.631 252.386C215.959 253.005 215.223 253.522 214.423 253.938C213.633 254.365 212.796 254.706 211.911 254.962C211.879 254.855 211.825 254.733 211.751 254.594C211.676 254.466 211.596 254.338 211.511 254.21C211.425 254.082 211.34 253.981 211.255 253.906C212.065 253.693 212.844 253.399 213.591 253.026C214.337 252.653 215.025 252.199 215.655 251.666C216.295 251.122 216.844 250.493 217.303 249.778C217.761 249.063 218.113 248.263 218.359 247.378V247.17ZM211.975 247.17H218.823V248.274H211.975V247.17ZM213.495 240.754H217.495V241.826H213.495V240.754ZM206.439 245.09H211.207V246.034H206.439V245.09ZM206.503 240.802H211.175V241.762H206.503V240.802ZM206.439 247.218H211.207V248.178H206.439V247.218ZM205.671 242.898H211.767V243.906H205.671V242.898ZM206.999 249.378H211.191V254.05H206.999V253.058H210.135V250.386H206.999V249.378ZM206.407 249.378H207.463V254.786H206.407V249.378Z" fill="#2D313E"/>
<rect x="110.538" y="206.677" width="123.449" height="22.2181" rx="1.5" fill="#F8F8F8" stroke="#2D313E"/>
<rect x="115.61" y="211.749" width="12.0734" height="13.0021" fill="#52BD9D"/>
<rect x="149.973" y="212.678" width="11.1447" height="11.1447" fill="#929292"/>
<rect x="183.407" y="212.678" width="11.1447" height="11.1447" fill="#929292"/>
<rect x="133.257" y="212.678" width="11.1447" height="11.1447" fill="#929292"/>
<rect x="166.689" y="212.678" width="11.1447" height="11.1447" fill="#929292"/>
<rect x="200.124" y="212.678" width="11.1447" height="11.1447" fill="#929292"/>
<rect x="216.84" y="212.678" width="11.1447" height="11.1447" fill="#929292"/>
<path d="M237.15 419.874C237.15 421.616 236.607 423.174 235.753 424.286C234.9 425.398 233.755 426.043 232.53 426.043H112.954C110.512 426.043 108.334 423.415 108.334 419.874V329.865C108.334 328.122 108.877 326.564 109.731 325.453C110.585 324.341 111.729 323.696 112.954 323.696H232.53C234.972 323.696 237.15 326.324 237.15 329.865V419.874Z" stroke="#2D313E"/>
<path d="M233.603 407.047H233.595V407.547C233.595 410.282 231.6 412.415 229.241 412.415H116.244C113.885 412.415 111.89 410.282 111.89 407.547V335.2C111.89 332.464 113.885 330.331 116.244 330.331H229.248C231.608 330.331 233.603 332.464 233.603 335.2V407.047Z" stroke="#2D313E"/>
<path d="M164.45 435.341C164.932 434.879 165.468 434.237 165.846 433.417C166.289 432.455 166.507 431.26 166.179 429.853C165.907 428.684 165.263 427.394 164.098 425.985H184.798C182.07 429.568 182.021 432.119 182.913 433.848C183.239 434.481 183.678 434.972 184.104 435.341H164.45Z" stroke="#2D313E"/>
<path d="M153.632 440.121V435.938H195.129V440.121H153.632Z" stroke="#2D313E"/>
<path d="M108.334 419.873V407.993H237.15V419.873C237.15 423.415 234.972 426.043 232.53 426.043H112.954C111.729 426.043 110.585 425.397 109.731 424.286C108.877 423.174 108.334 421.616 108.334 419.873Z" fill="#F3F3F3" stroke="#2D313E"/>
<path d="M154.553 364.392L155.849 364.632C155.305 365.411 154.617 366.168 153.785 366.904C152.964 367.629 151.966 368.285 150.793 368.872C150.729 368.776 150.649 368.675 150.553 368.568C150.468 368.451 150.372 368.344 150.265 368.248C150.158 368.152 150.062 368.072 149.977 368.008C151.086 367.517 152.025 366.947 152.793 366.296C153.572 365.645 154.158 365.011 154.553 364.392ZM154.377 365.592H159.961V366.536H153.513L154.377 365.592ZM159.609 365.592H159.849L160.057 365.528L160.873 366.024C160.34 366.867 159.657 367.629 158.825 368.312C158.004 368.984 157.092 369.581 156.089 370.104C155.086 370.616 154.041 371.059 152.953 371.432C151.865 371.805 150.782 372.109 149.705 372.344C149.652 372.184 149.566 372.003 149.449 371.8C149.332 371.587 149.22 371.416 149.113 371.288C150.137 371.096 151.172 370.835 152.217 370.504C153.262 370.163 154.26 369.763 155.209 369.304C156.169 368.835 157.028 368.307 157.785 367.72C158.553 367.133 159.161 366.488 159.609 365.784V365.592ZM153.913 366.328C154.542 367.128 155.369 367.832 156.393 368.44C157.417 369.048 158.574 369.555 159.865 369.96C161.166 370.355 162.526 370.643 163.945 370.824C163.86 370.92 163.769 371.037 163.673 371.176C163.577 371.304 163.486 371.437 163.401 371.576C163.316 371.715 163.241 371.843 163.177 371.96C161.748 371.736 160.382 371.4 159.081 370.952C157.78 370.493 156.596 369.923 155.529 369.24C154.473 368.547 153.588 367.736 152.873 366.808L153.913 366.328ZM152.137 371.352H161.017V376.248H159.801V372.36H153.305V376.264H152.137V371.352ZM152.713 374.712H160.409V375.72H152.713V374.712ZM155.881 361.56H157.113V363.656H155.881V361.56ZM149.769 363.016H163.305V366.024H162.073V364.104H150.937V366.024H149.769V363.016ZM168.009 370.056H177.225V371.176H168.009V370.056ZM168.105 365.72H177.945V372.04H176.745V366.84H168.105V365.72ZM176.473 361.592L177.465 362.488C176.654 362.755 175.721 363.005 174.665 363.24C173.62 363.475 172.526 363.688 171.385 363.88C170.254 364.061 169.156 364.221 168.089 364.36C168.068 364.221 168.02 364.056 167.945 363.864C167.881 363.672 167.812 363.512 167.737 363.384C168.526 363.277 169.326 363.16 170.137 363.032C170.948 362.904 171.742 362.765 172.521 362.616C173.31 362.456 174.041 362.291 174.713 362.12C175.385 361.949 175.972 361.773 176.473 361.592ZM167.369 363.064L168.921 363.512C168.91 363.629 168.798 363.704 168.585 363.736V368.248C168.585 368.835 168.558 369.48 168.505 370.184C168.452 370.877 168.334 371.581 168.153 372.296C167.982 373.011 167.732 373.709 167.401 374.392C167.07 375.075 166.633 375.704 166.089 376.28C166.025 376.184 165.94 376.083 165.833 375.976C165.726 375.869 165.609 375.763 165.481 375.656C165.364 375.56 165.252 375.491 165.145 375.448C165.646 374.925 166.046 374.365 166.345 373.768C166.644 373.16 166.862 372.541 167.001 371.912C167.15 371.272 167.246 370.637 167.289 370.008C167.342 369.379 167.369 368.781 167.369 368.216V363.064ZM186.569 367.352H195.881V368.44H186.569V367.352ZM189.561 370.344H190.537V376.104H189.561V370.344ZM192.009 370.344H192.969V376.056H192.009V370.344ZM190.601 361.592H191.753V365.72H190.601V361.592ZM187.081 369.944H195.033V370.984H188.169V376.264H187.081V369.944ZM194.441 369.944H195.529V375.16C195.529 375.405 195.502 375.603 195.449 375.752C195.406 375.912 195.3 376.029 195.129 376.104C194.958 376.189 194.75 376.243 194.505 376.264C194.27 376.285 193.972 376.296 193.609 376.296C193.598 376.157 193.556 375.992 193.481 375.8C193.417 375.619 193.353 375.459 193.289 375.32C193.513 375.331 193.716 375.336 193.897 375.336C194.078 375.336 194.201 375.331 194.265 375.32C194.382 375.32 194.441 375.261 194.441 375.144V369.944ZM190.585 367.704L191.977 367.992C191.817 368.451 191.668 368.92 191.529 369.4C191.39 369.869 191.252 370.269 191.113 370.6L190.089 370.312C190.185 369.949 190.281 369.523 190.377 369.032C190.473 368.531 190.542 368.088 190.585 367.704ZM187.273 362.36H188.377V365.112H194.169V362.36H195.321V366.168H187.273V362.36ZM181.369 364.776H186.425V365.864H181.369V364.776ZM183.385 361.768H184.473V365.304H183.385V361.768ZM181.065 373.016C181.79 372.867 182.654 372.685 183.657 372.472C184.66 372.259 185.673 372.035 186.697 371.8L186.825 372.84C185.865 373.085 184.905 373.325 183.945 373.56C182.985 373.795 182.116 374.003 181.337 374.184L181.065 373.016ZM181.705 366.648L182.633 366.488C182.761 367.032 182.873 367.619 182.969 368.248C183.065 368.867 183.14 369.475 183.193 370.072C183.257 370.659 183.289 371.187 183.289 371.656L182.313 371.816C182.302 371.347 182.27 370.819 182.217 370.232C182.174 369.635 182.105 369.027 182.009 368.408C181.924 367.779 181.822 367.192 181.705 366.648ZM184.921 366.36L186.041 366.6C185.945 367.219 185.833 367.885 185.705 368.6C185.577 369.315 185.449 370.008 185.321 370.68C185.193 371.352 185.065 371.933 184.937 372.424L184.041 372.184C184.126 371.811 184.212 371.384 184.297 370.904C184.393 370.413 184.478 369.907 184.553 369.384C184.638 368.851 184.713 368.323 184.777 367.8C184.841 367.277 184.889 366.797 184.921 366.36Z" fill="#2D313E"/>
</svg>
