<svg width="350" height="443" viewBox="0 0 350 443" fill="none" xmlns="http://www.w3.org/2000/svg">
<path d="M18.6716 132.997H31.3756V134.165H18.6716V132.997ZM19.4076 137.685H30.7196V138.853H19.4076V137.685ZM17.9196 142.805H32.1916V143.973H17.9196V142.805ZM24.3676 133.941H25.6636V143.413H24.3676V133.941ZM23.0076 130.517L23.9836 129.861C24.3249 130.095 24.6823 130.367 25.0556 130.677C25.4396 130.986 25.7969 131.295 26.1276 131.605C26.4583 131.903 26.7303 132.181 26.9436 132.437L25.9036 133.189C25.7116 132.943 25.4503 132.666 25.1196 132.357C24.7996 132.037 24.4529 131.717 24.0796 131.397C23.7169 131.066 23.3596 130.773 23.0076 130.517ZM33.7596 138.533H48.3036V139.541H33.7596V138.533ZM34.1276 130.485H47.9036V131.557H34.1276V130.485ZM39.2956 136.869L40.4796 137.173C40.1276 137.727 39.7436 138.314 39.3276 138.933C38.9116 139.551 38.4956 140.154 38.0796 140.741C37.6636 141.317 37.2796 141.823 36.9276 142.261L35.7916 141.861C36.1436 141.423 36.5276 140.917 36.9436 140.341C37.3596 139.765 37.7756 139.173 38.1916 138.565C38.6076 137.957 38.9756 137.391 39.2956 136.869ZM44.0956 138.901L45.2476 139.237C44.9063 140.111 44.4263 140.858 43.8076 141.477C43.1996 142.095 42.4529 142.607 41.5676 143.013C40.6823 143.418 39.6476 143.738 38.4636 143.973C37.2796 144.218 35.9409 144.394 34.4476 144.501C34.4156 144.33 34.3516 144.143 34.2556 143.941C34.1703 143.749 34.0743 143.583 33.9676 143.445C35.8769 143.338 37.5036 143.13 38.8476 142.821C40.2023 142.501 41.3063 142.026 42.1596 141.397C43.0236 140.767 43.6689 139.935 44.0956 138.901ZM36.6716 141.717L37.2636 140.837C38.5863 141.061 39.8983 141.327 41.1996 141.637C42.5009 141.935 43.7223 142.255 44.8636 142.597C46.0156 142.927 47.0023 143.253 47.8236 143.573L47.0876 144.549C46.2769 144.218 45.3169 143.882 44.2076 143.541C43.1089 143.199 41.9143 142.874 40.6236 142.565C39.3436 142.245 38.0263 141.962 36.6716 141.717ZM38.4956 130.885H39.6316V136.485H38.4956V130.885ZM42.2396 130.885H43.3756V136.485H42.2396V130.885ZM36.0636 133.909V136.085H46.0476V133.909H36.0636ZM34.9276 132.917H47.2316V137.061H34.9276V132.917ZM51.2316 130.389H54.9596V131.509H51.2316V130.389ZM51.2316 134.133H54.9916V135.253H51.2316V134.133ZM57.4716 135.877H63.2956V136.981H57.4716V135.877ZM51.1996 137.957H54.9596V139.093H51.1996V137.957ZM50.7516 130.389H51.8396V136.133C51.8396 136.762 51.8236 137.439 51.7916 138.165C51.7596 138.89 51.7009 139.631 51.6156 140.389C51.5303 141.135 51.4023 141.866 51.2316 142.581C51.0609 143.295 50.8316 143.946 50.5436 144.533C50.4796 144.469 50.3889 144.399 50.2716 144.325C50.1543 144.25 50.0316 144.181 49.9036 144.117C49.7756 144.053 49.6636 144.005 49.5676 143.973C49.8449 143.407 50.0583 142.794 50.2076 142.133C50.3676 141.471 50.4849 140.794 50.5596 140.101C50.6343 139.397 50.6823 138.709 50.7036 138.037C50.7356 137.354 50.7516 136.719 50.7516 136.133V130.389ZM54.2876 130.389H55.4076V143.077C55.4076 143.397 55.3649 143.653 55.2796 143.845C55.1943 144.047 55.0503 144.197 54.8476 144.293C54.6449 144.399 54.3729 144.463 54.0316 144.485C53.6903 144.506 53.2476 144.517 52.7036 144.517C52.6929 144.421 52.6716 144.298 52.6396 144.149C52.6076 144.01 52.5649 143.871 52.5116 143.733C52.4689 143.594 52.4209 143.471 52.3676 143.365C52.7409 143.375 53.0769 143.381 53.3756 143.381C53.6743 143.381 53.8769 143.375 53.9836 143.365C54.0903 143.365 54.1649 143.343 54.2076 143.301C54.2609 143.258 54.2876 143.178 54.2876 143.061V130.389ZM62.4476 130.437H63.6156V133.541C63.6156 133.829 63.5729 134.058 63.4876 134.229C63.4023 134.399 63.2316 134.533 62.9756 134.629C62.7303 134.703 62.3996 134.751 61.9836 134.773C61.5676 134.783 61.0556 134.789 60.4476 134.789C60.4263 134.618 60.3729 134.442 60.2876 134.261C60.2129 134.069 60.1383 133.903 60.0636 133.765C60.3943 133.765 60.6983 133.77 60.9756 133.781C61.2636 133.791 61.5089 133.797 61.7116 133.797C61.9143 133.786 62.0583 133.781 62.1436 133.781C62.2716 133.77 62.3516 133.749 62.3836 133.717C62.4263 133.685 62.4476 133.621 62.4476 133.525V130.437ZM62.9596 135.877H63.1676L63.3756 135.829L64.0796 136.085C63.8129 137.45 63.4129 138.671 62.8796 139.749C62.3569 140.815 61.7383 141.738 61.0236 142.517C60.3196 143.295 59.5516 143.93 58.7196 144.421C58.6556 144.293 58.5543 144.138 58.4156 143.957C58.2769 143.775 58.1436 143.637 58.0156 143.541C58.7836 143.135 59.4983 142.575 60.1596 141.861C60.8209 141.135 61.3969 140.287 61.8876 139.317C62.3783 138.335 62.7356 137.263 62.9596 136.101V135.877ZM59.2636 136.565C59.5729 137.599 59.9783 138.575 60.4796 139.493C60.9916 140.41 61.5889 141.226 62.2716 141.941C62.9543 142.645 63.7116 143.199 64.5436 143.605C64.4156 143.711 64.2769 143.855 64.1276 144.037C63.9783 144.229 63.8556 144.394 63.7596 144.533C62.9063 144.063 62.1276 143.445 61.4236 142.677C60.7303 141.898 60.1223 141.013 59.5996 140.021C59.0769 139.018 58.6449 137.951 58.3036 136.821L59.2636 136.565ZM56.8156 130.437H62.7836V131.557H57.9516V144.517H56.8156V130.437ZM65.9356 130.597H71.3916V131.637H65.9356V130.597ZM72.1276 138.773H79.0556V139.813H72.1276V138.773ZM65.7596 135.429H71.7756V136.501H65.7596V135.429ZM68.5756 135.861H69.7276V143.125C69.7276 143.423 69.6903 143.658 69.6156 143.829C69.5409 144.01 69.3969 144.154 69.1836 144.261C68.9809 144.346 68.7143 144.399 68.3836 144.421C68.0636 144.442 67.6583 144.453 67.1676 144.453C67.1463 144.303 67.0983 144.117 67.0236 143.893C66.9596 143.679 66.8849 143.493 66.7996 143.333C67.1516 143.343 67.4663 143.349 67.7436 143.349C68.0316 143.359 68.2236 143.359 68.3196 143.349C68.4156 143.338 68.4796 143.317 68.5116 143.285C68.5543 143.253 68.5756 143.194 68.5756 143.109V135.861ZM78.6556 138.773H79.8716C79.8716 138.773 79.8663 138.837 79.8556 138.965C79.8556 139.093 79.8503 139.205 79.8396 139.301C79.7436 140.293 79.6369 141.109 79.5196 141.749C79.4129 142.378 79.3009 142.869 79.1836 143.221C79.0663 143.573 78.9276 143.829 78.7676 143.989C78.6289 144.138 78.4796 144.239 78.3196 144.293C78.1703 144.357 77.9836 144.399 77.7596 144.421C77.5783 144.431 77.3276 144.437 77.0076 144.437C76.6876 144.437 76.3409 144.426 75.9676 144.405C75.9569 144.234 75.9249 144.042 75.8716 143.829C75.8183 143.626 75.7436 143.445 75.6476 143.285C75.9996 143.317 76.3196 143.338 76.6076 143.349C76.8956 143.359 77.1036 143.365 77.2316 143.365C77.3703 143.365 77.4769 143.354 77.5516 143.333C77.6369 143.311 77.7169 143.269 77.7916 143.205C77.8983 143.087 78.0049 142.874 78.1116 142.565C78.2183 142.255 78.3143 141.807 78.3996 141.221C78.4956 140.634 78.5809 139.877 78.6556 138.949V138.773ZM75.1036 137.189H76.3036C76.2289 137.989 76.1063 138.757 75.9356 139.493C75.7756 140.229 75.5249 140.911 75.1836 141.541C74.8529 142.17 74.3996 142.735 73.8236 143.237C73.2476 143.738 72.5063 144.165 71.5996 144.517C71.5356 144.378 71.4343 144.213 71.2956 144.021C71.1569 143.839 71.0236 143.695 70.8956 143.589C71.7276 143.279 72.4049 142.906 72.9276 142.469C73.4503 142.021 73.8556 141.525 74.1436 140.981C74.4423 140.426 74.6609 139.829 74.7996 139.189C74.9383 138.549 75.0396 137.882 75.1036 137.189ZM66.4956 133.269L67.2476 132.485C67.7063 132.666 68.1756 132.89 68.6556 133.157C69.1463 133.413 69.6049 133.679 70.0316 133.957C70.4689 134.223 70.8209 134.479 71.0876 134.725L70.2876 135.605C70.0316 135.359 69.6903 135.093 69.2636 134.805C68.8476 134.517 68.3943 134.239 67.9036 133.973C67.4236 133.695 66.9543 133.461 66.4956 133.269ZM71.4556 135.429H71.6316L71.8076 135.365L72.5596 135.621C72.3889 136.293 72.1863 136.986 71.9516 137.701C71.7276 138.405 71.4876 139.002 71.2316 139.493L70.3996 139.077C70.6023 138.65 70.7996 138.117 70.9916 137.477C71.1836 136.826 71.3383 136.213 71.4556 135.637V135.429ZM77.8716 131.957L79.1196 132.165C78.7569 133.135 78.2556 133.967 77.6156 134.661C76.9863 135.354 76.2449 135.941 75.3916 136.421C74.5489 136.901 73.6209 137.301 72.6076 137.621C72.5649 137.535 72.5009 137.429 72.4156 137.301C72.3303 137.162 72.2343 137.034 72.1276 136.917C72.0316 136.789 71.9409 136.687 71.8556 136.613C72.8369 136.367 73.7276 136.042 74.5276 135.637C75.3383 135.221 76.0263 134.714 76.5916 134.117C77.1676 133.509 77.5943 132.789 77.8716 131.957ZM74.4636 129.781L75.5996 130.101C75.3543 130.666 75.0556 131.215 74.7036 131.749C74.3516 132.271 73.9783 132.762 73.5836 133.221C73.1889 133.679 72.7889 134.079 72.3836 134.421C72.3089 134.357 72.2129 134.282 72.0956 134.197C71.9783 134.101 71.8556 134.01 71.7276 133.925C71.5996 133.839 71.4876 133.77 71.3916 133.717C72.0209 133.247 72.6076 132.671 73.1516 131.989C73.6956 131.295 74.1329 130.559 74.4636 129.781ZM74.1756 132.309C74.5596 133.002 75.0663 133.642 75.6956 134.229C76.3249 134.815 77.0503 135.317 77.8716 135.733C78.7036 136.138 79.5996 136.442 80.5596 136.645C80.4743 136.73 80.3783 136.831 80.2716 136.949C80.1756 137.066 80.0849 137.189 79.9996 137.317C79.9143 137.445 79.8396 137.562 79.7756 137.669C78.8049 137.402 77.8983 137.034 77.0556 136.565C76.2129 136.085 75.4609 135.514 74.7996 134.853C74.1383 134.191 73.5943 133.455 73.1676 132.645L74.1756 132.309ZM68.4156 135.765L69.2316 136.069C69.0396 136.773 68.7836 137.498 68.4636 138.245C68.1543 138.991 67.8076 139.685 67.4236 140.325C67.0503 140.965 66.6503 141.493 66.2236 141.909C66.1596 141.749 66.0636 141.562 65.9356 141.349C65.8183 141.125 65.7063 140.938 65.5996 140.789C65.9943 140.426 66.3729 139.973 66.7356 139.429C67.0983 138.874 67.4236 138.282 67.7116 137.653C68.0103 137.013 68.2449 136.383 68.4156 135.765ZM74.1116 131.477H80.2076V132.501H73.5996L74.1116 131.477ZM71.1036 130.597H71.3756L71.5676 130.549L72.3516 131.045C72.1063 131.407 71.8129 131.781 71.4716 132.165C71.1303 132.538 70.7676 132.895 70.3836 133.237C69.9996 133.567 69.6263 133.855 69.2636 134.101C69.1569 134.005 69.0236 133.903 68.8636 133.797C68.7036 133.679 68.5649 133.589 68.4476 133.525C68.7889 133.29 69.1249 133.018 69.4556 132.709C69.7969 132.399 70.1116 132.079 70.3996 131.749C70.6983 131.407 70.9329 131.098 71.1036 130.821V130.597ZM82.6716 132.997H95.3756V134.165H82.6716V132.997ZM83.4076 137.685H94.7196V138.853H83.4076V137.685ZM81.9196 142.805H96.1916V143.973H81.9196V142.805ZM88.3676 133.941H89.6636V143.413H88.3676V133.941ZM87.0076 130.517L87.9836 129.861C88.3249 130.095 88.6823 130.367 89.0556 130.677C89.4396 130.986 89.7969 131.295 90.1276 131.605C90.4583 131.903 90.7303 132.181 90.9436 132.437L89.9036 133.189C89.7116 132.943 89.4503 132.666 89.1196 132.357C88.7996 132.037 88.4529 131.717 88.0796 131.397C87.7169 131.066 87.3596 130.773 87.0076 130.517ZM102.608 137.973H112.32V138.965H102.608V137.973ZM103.872 140.501L104.512 139.781C104.789 139.93 105.082 140.106 105.392 140.309C105.701 140.511 105.989 140.714 106.256 140.917C106.533 141.119 106.762 141.301 106.944 141.461L106.272 142.293C106.101 142.122 105.877 141.93 105.6 141.717C105.333 141.503 105.045 141.29 104.736 141.077C104.437 140.863 104.149 140.671 103.872 140.501ZM109.056 137.045L109.632 136.469C109.93 136.629 110.24 136.815 110.56 137.029C110.89 137.242 111.146 137.439 111.328 137.621L110.72 138.245C110.538 138.063 110.288 137.861 109.968 137.637C109.648 137.413 109.344 137.215 109.056 137.045ZM103.776 138.437H104.88C104.816 139.258 104.704 140.047 104.544 140.805C104.394 141.562 104.154 142.255 103.824 142.885C103.493 143.503 103.024 144.037 102.416 144.485C102.341 144.357 102.229 144.213 102.08 144.053C101.941 143.903 101.808 143.781 101.68 143.685C102.224 143.311 102.634 142.847 102.912 142.293C103.2 141.738 103.408 141.13 103.536 140.469C103.664 139.807 103.744 139.13 103.776 138.437ZM106.656 129.813H107.728C107.717 131.402 107.754 132.895 107.84 134.293C107.925 135.679 108.053 136.938 108.224 138.069C108.394 139.189 108.613 140.159 108.88 140.981C109.157 141.791 109.472 142.415 109.824 142.853C110.176 143.279 110.565 143.493 110.992 143.493C111.226 143.493 111.392 143.37 111.488 143.125C111.584 142.879 111.653 142.394 111.696 141.669C111.813 141.786 111.952 141.893 112.112 141.989C112.272 142.085 112.416 142.159 112.544 142.213C112.48 142.81 112.389 143.274 112.272 143.605C112.154 143.946 111.989 144.186 111.776 144.325C111.562 144.474 111.274 144.549 110.912 144.549C110.272 144.549 109.712 144.298 109.232 143.797C108.762 143.306 108.362 142.613 108.032 141.717C107.712 140.81 107.45 139.743 107.248 138.517C107.045 137.29 106.896 135.941 106.8 134.469C106.714 132.986 106.666 131.434 106.656 129.813ZM110.24 139.205L111.28 139.589C110.757 140.698 110.021 141.669 109.072 142.501C108.122 143.322 107.029 143.989 105.792 144.501C105.717 144.394 105.616 144.266 105.488 144.117C105.36 143.967 105.242 143.839 105.136 143.733C106.33 143.263 107.37 142.639 108.256 141.861C109.141 141.082 109.802 140.197 110.24 139.205ZM107.808 132.581L108.304 131.925C108.656 132.17 109.008 132.458 109.36 132.789C109.722 133.109 110 133.402 110.192 133.669L109.664 134.421C109.482 134.154 109.216 133.85 108.864 133.509C108.512 133.157 108.16 132.847 107.808 132.581ZM110.8 134.533L111.536 134.229C111.77 134.602 111.978 135.007 112.16 135.445C112.352 135.871 112.48 136.239 112.544 136.549L111.76 136.917C111.685 136.597 111.557 136.213 111.376 135.765C111.205 135.306 111.013 134.895 110.8 134.533ZM108.016 135.637C108.517 135.615 109.088 135.583 109.728 135.541C110.368 135.498 111.04 135.455 111.744 135.413L111.76 136.229C111.12 136.293 110.501 136.357 109.904 136.421C109.306 136.474 108.736 136.527 108.192 136.581L108.016 135.637ZM109.664 129.957L110.608 130.325C110.373 130.762 110.128 131.221 109.872 131.701C109.616 132.17 109.376 132.57 109.152 132.901L108.48 132.581C108.618 132.346 108.757 132.074 108.896 131.765C109.045 131.455 109.189 131.141 109.328 130.821C109.466 130.501 109.578 130.213 109.664 129.957ZM110.992 131.557L111.872 131.973C111.605 132.431 111.312 132.917 110.992 133.429C110.672 133.93 110.352 134.421 110.032 134.901C109.712 135.37 109.402 135.786 109.104 136.149L108.432 135.765C108.72 135.402 109.018 134.975 109.328 134.485C109.648 133.983 109.952 133.477 110.24 132.965C110.538 132.453 110.789 131.983 110.992 131.557ZM102.4 132.581L102.896 131.925C103.248 132.17 103.6 132.458 103.952 132.789C104.314 133.109 104.586 133.402 104.768 133.669L104.256 134.421C104.074 134.154 103.802 133.85 103.44 133.509C103.088 133.157 102.741 132.847 102.4 132.581ZM105.168 134.629L105.904 134.357C106.117 134.719 106.309 135.119 106.48 135.557C106.65 135.994 106.762 136.367 106.816 136.677L106.016 137.013C105.973 136.693 105.872 136.309 105.712 135.861C105.552 135.413 105.37 135.002 105.168 134.629ZM102.448 135.829C102.949 135.797 103.52 135.759 104.16 135.717C104.81 135.663 105.488 135.615 106.192 135.573L106.208 136.421C105.568 136.495 104.944 136.559 104.336 136.613C103.728 136.666 103.157 136.719 102.624 136.773L102.448 135.829ZM104.256 129.957L105.184 130.325C104.949 130.762 104.704 131.226 104.448 131.717C104.192 132.197 103.957 132.602 103.744 132.933L103.056 132.613C103.194 132.367 103.338 132.09 103.488 131.781C103.637 131.471 103.781 131.157 103.92 130.837C104.058 130.506 104.17 130.213 104.256 129.957ZM105.584 131.557L106.448 131.973C106.17 132.442 105.866 132.943 105.536 133.477C105.216 133.999 104.885 134.506 104.544 134.997C104.213 135.487 103.893 135.919 103.584 136.293L102.912 135.925C103.21 135.541 103.525 135.093 103.856 134.581C104.186 134.069 104.501 133.546 104.8 133.013C105.109 132.479 105.37 131.994 105.584 131.557ZM97.8556 133.269H102.704V134.389H97.8556V133.269ZM99.8716 129.797H100.96V144.501H99.8716V129.797ZM99.8396 133.941L100.544 134.165C100.437 134.783 100.298 135.439 100.128 136.133C99.9569 136.815 99.7649 137.487 99.5516 138.149C99.3383 138.81 99.1089 139.423 98.8636 139.989C98.6289 140.554 98.3783 141.039 98.1116 141.445C98.0476 141.295 97.9516 141.125 97.8236 140.933C97.7063 140.741 97.6049 140.575 97.5196 140.437C97.7649 140.074 97.9996 139.642 98.2236 139.141C98.4583 138.639 98.6769 138.095 98.8796 137.509C99.0929 136.922 99.2796 136.325 99.4396 135.717C99.6103 135.098 99.7436 134.506 99.8396 133.941ZM100.896 134.997C100.981 135.103 101.104 135.29 101.264 135.557C101.434 135.813 101.621 136.101 101.824 136.421C102.026 136.73 102.208 137.023 102.368 137.301C102.538 137.567 102.656 137.759 102.72 137.877L102.096 138.757C102.021 138.565 101.909 138.314 101.76 138.005C101.61 137.695 101.445 137.375 101.264 137.045C101.093 136.703 100.928 136.394 100.768 136.117C100.608 135.829 100.485 135.605 100.4 135.445L100.896 134.997Z" fill="#2D313E"/>
<path d="M260.641 129.925H261.761V133.669H260.641V129.925ZM264.769 129.925H265.905V133.669H264.769V129.925ZM263.697 136.805H264.673V144.437H263.697V136.805ZM258.033 131.301H268.417V132.357H258.033V131.301ZM261.009 138.789H267.377V139.637H261.009V138.789ZM261.009 141.013H267.377V141.861H261.009V141.013ZM258.849 134.229H268.497V135.285H258.849V134.229ZM258.321 134.229H259.425V137.685C259.425 138.186 259.409 138.735 259.377 139.333C259.345 139.919 259.275 140.522 259.169 141.141C259.062 141.749 258.907 142.341 258.705 142.917C258.513 143.493 258.262 144.026 257.953 144.517C257.889 144.442 257.798 144.357 257.681 144.261C257.574 144.165 257.462 144.069 257.345 143.973C257.238 143.887 257.142 143.823 257.057 143.781C257.441 143.173 257.718 142.511 257.889 141.797C258.07 141.082 258.187 140.367 258.241 139.653C258.294 138.938 258.321 138.277 258.321 137.669V134.229ZM260.401 136.469H267.521V137.397H261.441V144.517H260.401V136.469ZM267.041 136.469H268.081V143.349C268.081 143.615 268.049 143.823 267.985 143.973C267.921 144.133 267.798 144.255 267.617 144.341C267.425 144.426 267.169 144.479 266.849 144.501C266.539 144.522 266.145 144.527 265.665 144.517C265.654 144.389 265.617 144.234 265.553 144.053C265.499 143.871 265.435 143.711 265.361 143.573C265.702 143.583 266.006 143.589 266.273 143.589C266.539 143.589 266.715 143.583 266.801 143.573C266.961 143.573 267.041 143.493 267.041 143.333V136.469ZM256.833 129.877L257.937 130.181C257.638 131.109 257.281 132.026 256.865 132.933C256.459 133.839 256.017 134.698 255.537 135.509C255.057 136.309 254.55 137.018 254.017 137.637C253.985 137.541 253.931 137.418 253.857 137.269C253.782 137.109 253.702 136.954 253.617 136.805C253.531 136.645 253.457 136.517 253.393 136.421C253.862 135.877 254.31 135.258 254.737 134.565C255.163 133.861 255.553 133.109 255.905 132.309C256.267 131.509 256.577 130.698 256.833 129.877ZM255.537 133.797L256.657 132.693L256.689 132.725V144.517H255.537V133.797ZM275.073 134.117H283.857V135.109H275.073V134.117ZM274.705 136.373H284.337V137.397H274.705V136.373ZM276.897 138.485H282.401V139.413H276.897V138.485ZM275.537 132.085L276.481 131.829C276.641 132.138 276.795 132.479 276.945 132.853C277.094 133.226 277.206 133.535 277.281 133.781L276.289 134.117C276.225 133.85 276.118 133.525 275.969 133.141C275.83 132.746 275.686 132.394 275.537 132.085ZM278.401 131.749L279.377 131.589C279.483 131.93 279.579 132.298 279.665 132.693C279.761 133.087 279.83 133.418 279.873 133.685L278.849 133.925C278.817 133.647 278.758 133.301 278.673 132.885C278.587 132.469 278.497 132.09 278.401 131.749ZM282.897 129.909L283.601 130.805C283.057 130.922 282.438 131.029 281.745 131.125C281.062 131.221 280.342 131.306 279.585 131.381C278.838 131.445 278.081 131.498 277.313 131.541C276.555 131.573 275.819 131.599 275.105 131.621C275.094 131.482 275.057 131.327 274.993 131.157C274.939 130.975 274.881 130.821 274.817 130.693C275.51 130.671 276.23 130.639 276.977 130.597C277.723 130.543 278.459 130.485 279.185 130.421C279.91 130.346 280.593 130.271 281.233 130.197C281.873 130.111 282.427 130.015 282.897 129.909ZM277.825 139.109C278.209 139.866 278.726 140.543 279.377 141.141C280.027 141.738 280.795 142.239 281.681 142.645C282.577 143.05 283.558 143.349 284.625 143.541C284.497 143.658 284.358 143.818 284.209 144.021C284.07 144.223 283.958 144.405 283.873 144.565C282.23 144.202 280.806 143.589 279.601 142.725C278.395 141.85 277.467 140.746 276.817 139.413L277.825 139.109ZM282.257 131.413L283.409 131.781C283.121 132.271 282.811 132.778 282.481 133.301C282.15 133.823 281.841 134.271 281.553 134.645L280.657 134.309C280.838 134.042 281.03 133.743 281.233 133.413C281.435 133.071 281.627 132.725 281.809 132.373C281.99 132.021 282.139 131.701 282.257 131.413ZM282.113 138.485H282.353L282.561 138.437L283.233 138.741C282.891 139.861 282.395 140.805 281.745 141.573C281.094 142.341 280.331 142.959 279.457 143.429C278.593 143.909 277.643 144.282 276.609 144.549C276.577 144.463 276.518 144.362 276.433 144.245C276.358 144.138 276.278 144.026 276.193 143.909C276.107 143.791 276.022 143.701 275.937 143.637C276.929 143.423 277.835 143.114 278.657 142.709C279.489 142.293 280.198 141.754 280.785 141.093C281.382 140.431 281.825 139.621 282.113 138.661V138.485ZM277.217 134.757H278.369C278.315 135.397 278.241 136.074 278.145 136.789C278.059 137.493 277.926 138.207 277.745 138.933C277.563 139.647 277.318 140.351 277.009 141.045C276.71 141.727 276.326 142.362 275.857 142.949C275.398 143.535 274.827 144.053 274.145 144.501C274.059 144.362 273.937 144.207 273.777 144.037C273.627 143.877 273.478 143.749 273.329 143.653C273.969 143.258 274.507 142.789 274.945 142.245C275.382 141.69 275.739 141.098 276.017 140.469C276.305 139.829 276.523 139.178 276.673 138.517C276.833 137.845 276.95 137.189 277.025 136.549C277.099 135.909 277.163 135.311 277.217 134.757ZM269.633 138.661C270.262 138.49 271.014 138.271 271.889 138.005C272.774 137.727 273.67 137.439 274.577 137.141L274.737 138.261C273.883 138.538 273.03 138.815 272.177 139.093C271.323 139.37 270.55 139.621 269.857 139.845L269.633 138.661ZM269.777 133.029H274.625V134.149H269.777V133.029ZM271.777 129.813H272.897V143.125C272.897 143.445 272.854 143.695 272.769 143.877C272.694 144.058 272.555 144.197 272.353 144.293C272.161 144.389 271.905 144.453 271.585 144.485C271.265 144.517 270.849 144.527 270.337 144.517C270.326 144.378 270.283 144.197 270.209 143.973C270.145 143.759 270.075 143.567 270.001 143.397C270.342 143.407 270.651 143.413 270.929 143.413C271.217 143.423 271.409 143.423 271.505 143.413C271.601 143.413 271.67 143.391 271.713 143.349C271.755 143.317 271.777 143.242 271.777 143.125V129.813ZM286.753 132.997H299.457V134.165H286.753V132.997ZM287.489 137.685H298.801V138.853H287.489V137.685ZM286.001 142.805H300.273V143.973H286.001V142.805ZM292.449 133.941H293.745V143.413H292.449V133.941ZM291.089 130.517L292.065 129.861C292.406 130.095 292.763 130.367 293.137 130.677C293.521 130.986 293.878 131.295 294.209 131.605C294.539 131.903 294.811 132.181 295.025 132.437L293.985 133.189C293.793 132.943 293.531 132.666 293.201 132.357C292.881 132.037 292.534 131.717 292.161 131.397C291.798 131.066 291.441 130.773 291.089 130.517ZM306.689 137.973H316.401V138.965H306.689V137.973ZM307.953 140.501L308.593 139.781C308.87 139.93 309.163 140.106 309.473 140.309C309.782 140.511 310.07 140.714 310.337 140.917C310.614 141.119 310.843 141.301 311.025 141.461L310.353 142.293C310.182 142.122 309.958 141.93 309.681 141.717C309.414 141.503 309.126 141.29 308.817 141.077C308.518 140.863 308.23 140.671 307.953 140.501ZM313.137 137.045L313.713 136.469C314.011 136.629 314.321 136.815 314.641 137.029C314.971 137.242 315.227 137.439 315.409 137.621L314.801 138.245C314.619 138.063 314.369 137.861 314.049 137.637C313.729 137.413 313.425 137.215 313.137 137.045ZM307.857 138.437H308.961C308.897 139.258 308.785 140.047 308.625 140.805C308.475 141.562 308.235 142.255 307.905 142.885C307.574 143.503 307.105 144.037 306.497 144.485C306.422 144.357 306.31 144.213 306.161 144.053C306.022 143.903 305.889 143.781 305.761 143.685C306.305 143.311 306.715 142.847 306.993 142.293C307.281 141.738 307.489 141.13 307.617 140.469C307.745 139.807 307.825 139.13 307.857 138.437ZM310.737 129.813H311.809C311.798 131.402 311.835 132.895 311.921 134.293C312.006 135.679 312.134 136.938 312.305 138.069C312.475 139.189 312.694 140.159 312.961 140.981C313.238 141.791 313.553 142.415 313.905 142.853C314.257 143.279 314.646 143.493 315.073 143.493C315.307 143.493 315.473 143.37 315.569 143.125C315.665 142.879 315.734 142.394 315.777 141.669C315.894 141.786 316.033 141.893 316.193 141.989C316.353 142.085 316.497 142.159 316.625 142.213C316.561 142.81 316.47 143.274 316.353 143.605C316.235 143.946 316.07 144.186 315.857 144.325C315.643 144.474 315.355 144.549 314.993 144.549C314.353 144.549 313.793 144.298 313.313 143.797C312.843 143.306 312.443 142.613 312.113 141.717C311.793 140.81 311.531 139.743 311.329 138.517C311.126 137.29 310.977 135.941 310.881 134.469C310.795 132.986 310.747 131.434 310.737 129.813ZM314.321 139.205L315.361 139.589C314.838 140.698 314.102 141.669 313.153 142.501C312.203 143.322 311.11 143.989 309.873 144.501C309.798 144.394 309.697 144.266 309.569 144.117C309.441 143.967 309.323 143.839 309.217 143.733C310.411 143.263 311.451 142.639 312.337 141.861C313.222 141.082 313.883 140.197 314.321 139.205ZM311.889 132.581L312.385 131.925C312.737 132.17 313.089 132.458 313.441 132.789C313.803 133.109 314.081 133.402 314.273 133.669L313.745 134.421C313.563 134.154 313.297 133.85 312.945 133.509C312.593 133.157 312.241 132.847 311.889 132.581ZM314.881 134.533L315.617 134.229C315.851 134.602 316.059 135.007 316.241 135.445C316.433 135.871 316.561 136.239 316.625 136.549L315.841 136.917C315.766 136.597 315.638 136.213 315.457 135.765C315.286 135.306 315.094 134.895 314.881 134.533ZM312.097 135.637C312.598 135.615 313.169 135.583 313.809 135.541C314.449 135.498 315.121 135.455 315.825 135.413L315.841 136.229C315.201 136.293 314.582 136.357 313.985 136.421C313.387 136.474 312.817 136.527 312.273 136.581L312.097 135.637ZM313.745 129.957L314.689 130.325C314.454 130.762 314.209 131.221 313.953 131.701C313.697 132.17 313.457 132.57 313.233 132.901L312.561 132.581C312.699 132.346 312.838 132.074 312.977 131.765C313.126 131.455 313.27 131.141 313.409 130.821C313.547 130.501 313.659 130.213 313.745 129.957ZM315.073 131.557L315.953 131.973C315.686 132.431 315.393 132.917 315.073 133.429C314.753 133.93 314.433 134.421 314.113 134.901C313.793 135.37 313.483 135.786 313.185 136.149L312.513 135.765C312.801 135.402 313.099 134.975 313.409 134.485C313.729 133.983 314.033 133.477 314.321 132.965C314.619 132.453 314.87 131.983 315.073 131.557ZM306.481 132.581L306.977 131.925C307.329 132.17 307.681 132.458 308.033 132.789C308.395 133.109 308.667 133.402 308.849 133.669L308.337 134.421C308.155 134.154 307.883 133.85 307.521 133.509C307.169 133.157 306.822 132.847 306.481 132.581ZM309.249 134.629L309.985 134.357C310.198 134.719 310.39 135.119 310.561 135.557C310.731 135.994 310.843 136.367 310.897 136.677L310.097 137.013C310.054 136.693 309.953 136.309 309.793 135.861C309.633 135.413 309.451 135.002 309.249 134.629ZM306.529 135.829C307.03 135.797 307.601 135.759 308.241 135.717C308.891 135.663 309.569 135.615 310.273 135.573L310.289 136.421C309.649 136.495 309.025 136.559 308.417 136.613C307.809 136.666 307.238 136.719 306.705 136.773L306.529 135.829ZM308.337 129.957L309.265 130.325C309.03 130.762 308.785 131.226 308.529 131.717C308.273 132.197 308.038 132.602 307.825 132.933L307.137 132.613C307.275 132.367 307.419 132.09 307.569 131.781C307.718 131.471 307.862 131.157 308.001 130.837C308.139 130.506 308.251 130.213 308.337 129.957ZM309.665 131.557L310.529 131.973C310.251 132.442 309.947 132.943 309.617 133.477C309.297 133.999 308.966 134.506 308.625 134.997C308.294 135.487 307.974 135.919 307.665 136.293L306.993 135.925C307.291 135.541 307.606 135.093 307.937 134.581C308.267 134.069 308.582 133.546 308.881 133.013C309.19 132.479 309.451 131.994 309.665 131.557ZM301.937 133.269H306.785V134.389H301.937V133.269ZM303.953 129.797H305.041V144.501H303.953V129.797ZM303.921 133.941L304.625 134.165C304.518 134.783 304.379 135.439 304.209 136.133C304.038 136.815 303.846 137.487 303.633 138.149C303.419 138.81 303.19 139.423 302.945 139.989C302.71 140.554 302.459 141.039 302.193 141.445C302.129 141.295 302.033 141.125 301.905 140.933C301.787 140.741 301.686 140.575 301.601 140.437C301.846 140.074 302.081 139.642 302.305 139.141C302.539 138.639 302.758 138.095 302.961 137.509C303.174 136.922 303.361 136.325 303.521 135.717C303.691 135.098 303.825 134.506 303.921 133.941ZM304.977 134.997C305.062 135.103 305.185 135.29 305.345 135.557C305.515 135.813 305.702 136.101 305.905 136.421C306.107 136.73 306.289 137.023 306.449 137.301C306.619 137.567 306.737 137.759 306.801 137.877L306.177 138.757C306.102 138.565 305.99 138.314 305.841 138.005C305.691 137.695 305.526 137.375 305.345 137.045C305.174 136.703 305.009 136.394 304.849 136.117C304.689 135.829 304.566 135.605 304.481 135.445L304.977 134.997Z" fill="#2D313E"/>
<g opacity="0.5">
<rect x="130.021" y="30.7202" width="64.0819" height="3.7149" fill="#792323"/>
<path d="M203.391 32.5777L190.156 38.2078L190.156 26.9476L203.391 32.5777Z" fill="#792323"/>
</g>
<g opacity="0.5">
<rect x="130.021" y="62.2971" width="64.0819" height="3.7149" fill="#792323"/>
<path d="M203.391 64.1544L190.156 69.7845L190.156 58.5243L203.391 64.1544Z" fill="#792323"/>
</g>
<g opacity="0.7">
<rect x="174.599" y="277.761" width="26.0043" height="3.71489" transform="rotate(90 174.599 277.761)" fill="#3B93CA"/>
<path d="M172.742 313.981L167.112 300.747L178.372 300.747L172.742 313.981Z" fill="#3B93CA"/>
<path d="M172.742 267.545L167.112 280.779L178.372 280.779L172.742 267.545Z" fill="#3B93CA"/>
</g>
<path d="M129.419 96.8266C129.419 98.571 128.875 100.13 128.021 101.243C127.166 102.355 126.021 103.001 124.794 103.001H5.12437C2.67958 103.001 0.5 100.371 0.5 96.8266V6.74723C0.5 5.0029 1.04329 3.44359 1.89809 2.33083C2.75251 1.21857 3.89776 0.57251 5.12437 0.57251H124.794C127.239 0.57251 129.419 3.2026 129.419 6.74723V96.8266Z" stroke="#2D313E"/>
<path d="M125.869 83.9898H125.861V84.4898C125.861 87.2279 123.864 89.3629 121.503 89.3629H8.41686C6.05552 89.3629 4.05859 87.2279 4.05859 84.4898V12.0857C4.05859 9.34764 6.05552 7.21265 8.41686 7.21265H121.51C123.872 7.21265 125.869 9.34764 125.869 12.0857V83.9898Z" fill="#DB9292" stroke="#2D313E"/>
<path fill-rule="evenodd" clip-rule="evenodd" d="M76.9775 112.403H87.8638V117.59H45.333V112.403H56.0411C57.4608 111.192 60.0167 108.006 55.774 102.996C55.6198 102.814 55.4567 102.629 55.2842 102.443H77.9509C77.7972 102.63 77.6506 102.815 77.511 102.996C73.2297 108.561 75.4857 111.329 76.9775 112.403ZM45.8859 112.956V117.037H87.3109V112.956H45.8859ZM76.1039 112.403C75.7042 112.034 75.3012 111.555 74.996 110.949C74.1088 109.189 74.157 106.606 76.8188 102.996H56.49C57.6133 104.403 58.2389 105.695 58.5063 106.869C58.8335 108.305 58.6159 109.527 58.1733 110.51C57.8155 111.306 57.3153 111.937 56.8534 112.403H76.1039Z" fill="#2D313E"/>
<path d="M0.5 96.8266V84.9363H129.419V96.8266C129.419 100.371 127.239 103.001 124.794 103.001H5.12437C3.89776 103.001 2.75251 102.355 1.89809 101.243C1.04329 100.13 0.5 98.5709 0.5 96.8266Z" fill="#F3F3F3" stroke="#2D313E"/>
<path d="M76.5694 42.5422V49.3957C76.5694 49.8998 76.4831 50.3801 76.3106 50.8363C76.1368 51.2939 75.8768 51.6959 75.5305 52.0425L74.9638 52.5625L57.6805 35.2633V33.0891C57.6805 32.5534 57.8618 32.1041 58.2245 31.7411C58.5859 31.3794 59.0342 31.1985 59.5694 31.1985C60.1046 31.1985 60.5535 31.3794 60.9162 31.7411C61.2776 32.1041 61.4583 32.5534 61.4583 33.0891V38.761H69.0138V33.0891C69.0138 32.5534 69.1952 32.1041 69.5578 31.7411C69.9192 31.3794 70.3675 31.1985 70.9027 31.1985C71.4379 31.1985 71.8868 31.3794 72.2495 31.7411C72.6109 32.1041 72.7916 32.5534 72.7916 33.0891V40.6516L70.9027 38.761H72.7916C73.8305 38.761 74.7202 39.1309 75.4606 39.8707C76.1998 40.6119 76.5694 41.5024 76.5694 42.5422ZM62.4027 65.2296C61.8675 65.2296 61.4192 65.0481 61.0578 64.6851C60.6952 64.3234 60.5138 63.8747 60.5138 63.339V59.5578L54.9888 54.0277C54.6425 53.6811 54.3749 53.2796 54.186 52.8234C53.9972 52.3658 53.9027 51.885 53.9027 51.3808V42.5422C53.9027 41.7859 54.0759 41.077 54.4222 40.4152C54.7685 39.7535 55.2722 39.2494 55.9333 38.9028V44.1965L46.536 34.7907C46.1897 34.444 46.0166 34.0029 46.0166 33.4672C46.0166 32.9316 46.1897 32.4904 46.536 32.1438C46.8823 31.7972 47.3231 31.6239 47.8583 31.6239C48.3935 31.6239 48.8342 31.7972 49.1805 32.1438L81.2916 64.2843C81.6379 64.6309 81.8111 65.0721 81.8111 65.6077C81.8111 66.1434 81.6379 66.5845 81.2916 66.9312C80.9453 67.2778 80.5046 67.4511 79.9694 67.4511C79.4342 67.4511 78.9935 67.2778 78.6472 66.9312L70.6194 58.896L69.9583 59.5578V63.339C69.9583 63.8747 69.7776 64.3234 69.4162 64.6851C69.0535 65.0481 68.6046 65.2296 68.0694 65.2296H62.4027Z" fill="#792323"/>
<path d="M349.501 96.8266C349.501 98.571 348.958 100.13 348.103 101.243C347.248 102.355 346.103 103.001 344.876 103.001H225.206C222.762 103.001 220.582 100.371 220.582 96.8266V6.74723C220.582 5.0029 221.125 3.44359 221.98 2.33083C222.835 1.21857 223.98 0.57251 225.206 0.57251H344.876C347.321 0.57251 349.501 3.2026 349.501 6.74723V96.8266Z" stroke="#2D313E"/>
<path d="M345.951 83.9898H345.943V84.4898C345.943 87.2279 343.946 89.3629 341.585 89.3629H228.499C226.138 89.3629 224.141 87.2279 224.141 84.4898V12.0857C224.141 9.34764 226.138 7.21265 228.499 7.21265H341.592C343.954 7.21265 345.951 9.34764 345.951 12.0857V83.9898Z" fill="#F8DB83" stroke="#2D313E"/>
<path d="M276.742 112.307C277.225 111.844 277.762 111.202 278.14 110.381C278.583 109.418 278.802 108.222 278.473 106.814C278.201 105.644 277.556 104.353 276.39 102.943H297.108C294.378 106.529 294.329 109.082 295.221 110.812C295.548 111.446 295.987 111.937 296.414 112.307H276.742Z" stroke="#2D313E"/>
<path d="M265.915 117.09V112.903H307.446V117.09H265.915Z" stroke="#2D313E"/>
<path d="M220.582 96.8266V84.9363H349.501V96.8266C349.501 100.371 347.321 103.001 344.876 103.001H225.206C223.98 103.001 222.835 102.355 221.98 101.243C221.125 100.13 220.582 98.5709 220.582 96.8266Z" fill="#F3F3F3" stroke="#2D313E"/>
<path d="M298.54 40.6516L290.984 48.2141H296.651C296.651 54.472 291.57 59.5578 285.318 59.5578C283.41 59.5578 281.597 59.0851 280.029 58.2343L277.271 60.9946C279.594 62.4693 282.352 63.339 285.318 63.339C293.667 63.339 300.429 56.5706 300.429 48.2141H306.096L298.54 40.6516ZM273.984 48.2141C273.984 41.9561 279.066 36.8703 285.318 36.8703C287.226 36.8703 289.039 37.343 290.607 38.1938L293.365 35.4335C291.041 33.9588 288.283 33.0891 285.318 33.0891C276.969 33.0891 270.207 39.8575 270.207 48.2141H264.54L272.096 55.7765L279.651 48.2141H273.984Z" fill="#886F0D"/>
<path d="M135.223 246.059H136.263V248.091H135.223V246.059ZM137.127 242.635L138.103 242.955C137.921 243.339 137.735 243.744 137.543 244.171C137.361 244.597 137.185 244.96 137.015 245.259L136.279 244.987C136.385 244.763 136.492 244.512 136.599 244.235C136.705 243.957 136.807 243.68 136.903 243.403C136.999 243.115 137.073 242.859 137.127 242.635ZM133.559 243.019L134.327 242.747C134.519 243.077 134.684 243.456 134.823 243.883C134.961 244.299 135.057 244.651 135.111 244.939L134.263 245.243C134.231 244.944 134.145 244.587 134.007 244.171C133.879 243.744 133.729 243.36 133.559 243.019ZM131.687 241.083H139.351V242.139H132.775V255.067H131.687V241.083ZM138.903 241.083H139.991V253.675C139.991 254.005 139.953 254.256 139.879 254.427C139.804 254.608 139.66 254.747 139.447 254.843C139.233 254.928 138.951 254.981 138.599 255.003C138.247 255.035 137.815 255.045 137.303 255.035C137.281 254.896 137.233 254.72 137.159 254.507C137.095 254.293 137.025 254.112 136.951 253.963C137.324 253.973 137.665 253.979 137.975 253.979C138.295 253.989 138.508 253.995 138.615 253.995C138.721 253.984 138.796 253.952 138.839 253.899C138.881 253.856 138.903 253.781 138.903 253.675V241.083ZM133.367 245.211H138.263V246.155H133.367V245.211ZM133.239 247.819H138.359V248.779H133.239V247.819ZM133.927 248.347H134.967V251.051C134.967 251.253 134.983 251.397 135.015 251.483C135.057 251.557 135.159 251.595 135.319 251.595C135.383 251.595 135.5 251.595 135.671 251.595C135.852 251.595 136.044 251.595 136.247 251.595C136.449 251.595 136.636 251.595 136.807 251.595C136.977 251.595 137.1 251.595 137.175 251.595C137.292 251.595 137.441 251.589 137.623 251.579C137.804 251.557 137.948 251.536 138.055 251.515C138.065 251.653 138.076 251.824 138.087 252.027C138.108 252.219 138.129 252.373 138.151 252.491C138.044 252.523 137.905 252.544 137.735 252.555C137.564 252.565 137.383 252.571 137.191 252.571C137.116 252.571 136.988 252.571 136.807 252.571C136.625 252.571 136.428 252.571 136.215 252.571C136.001 252.571 135.809 252.571 135.639 252.571C135.468 252.571 135.361 252.571 135.319 252.571C134.935 252.571 134.641 252.523 134.439 252.427C134.247 252.331 134.113 252.171 134.039 251.947C133.964 251.712 133.927 251.408 133.927 251.035V248.347ZM128.199 240.315L129.255 240.715C129.063 241.109 128.849 241.52 128.615 241.947C128.391 242.373 128.161 242.789 127.927 243.195C127.703 243.589 127.489 243.936 127.287 244.235L126.455 243.867C126.657 243.557 126.865 243.195 127.079 242.779C127.303 242.363 127.511 241.936 127.703 241.499C127.905 241.061 128.071 240.667 128.199 240.315ZM129.991 242.139L130.999 242.619C130.636 243.205 130.231 243.835 129.783 244.507C129.335 245.168 128.881 245.808 128.423 246.427C127.975 247.045 127.548 247.584 127.143 248.043L126.407 247.627C126.705 247.275 127.02 246.875 127.351 246.427C127.681 245.968 128.007 245.493 128.327 245.003C128.647 244.501 128.951 244.005 129.239 243.515C129.527 243.024 129.777 242.565 129.991 242.139ZM125.655 243.659L126.279 242.891C126.567 243.147 126.855 243.429 127.143 243.739C127.441 244.048 127.713 244.352 127.959 244.651C128.204 244.949 128.396 245.221 128.535 245.467L127.863 246.363C127.724 246.107 127.532 245.819 127.287 245.499C127.052 245.179 126.791 244.859 126.503 244.539C126.215 244.219 125.932 243.925 125.655 243.659ZM129.367 245.803L130.247 245.451C130.471 245.792 130.684 246.165 130.887 246.571C131.089 246.976 131.271 247.371 131.431 247.755C131.601 248.128 131.724 248.459 131.799 248.747L130.839 249.195C130.775 248.885 130.663 248.539 130.503 248.155C130.353 247.76 130.183 247.36 129.991 246.955C129.799 246.539 129.591 246.155 129.367 245.803ZM125.511 247.387C126.204 247.355 127.025 247.317 127.975 247.275C128.935 247.221 129.916 247.168 130.919 247.115V248.123C129.98 248.187 129.047 248.251 128.119 248.315C127.201 248.368 126.38 248.416 125.655 248.459L125.511 247.387ZM129.799 249.675L130.679 249.419C130.881 249.877 131.063 250.379 131.223 250.923C131.383 251.456 131.489 251.92 131.543 252.315L130.599 252.619C130.567 252.213 130.471 251.739 130.311 251.195C130.161 250.64 129.991 250.133 129.799 249.675ZM126.487 249.467L127.495 249.627C127.388 250.384 127.239 251.131 127.047 251.867C126.865 252.592 126.652 253.211 126.407 253.723C126.343 253.68 126.252 253.632 126.135 253.579C126.017 253.515 125.9 253.456 125.783 253.403C125.665 253.349 125.564 253.307 125.479 253.275C125.745 252.784 125.959 252.203 126.119 251.531C126.279 250.848 126.401 250.16 126.487 249.467ZM128.183 247.867H129.239V255.035H128.183V247.867ZM149.543 253.355H154.823V254.411H149.543V253.355ZM150.327 241.947H154.551V243.003H150.327V241.947ZM149.079 249.227H155.367V254.955H154.231V250.267H150.199V255.003H149.079V249.227ZM154.119 241.947H154.343L154.567 241.899L155.319 242.235C155.02 243.216 154.62 244.117 154.119 244.939C153.617 245.749 153.047 246.485 152.407 247.147C151.767 247.797 151.079 248.368 150.343 248.859C149.617 249.349 148.876 249.76 148.119 250.091C148.044 249.952 147.937 249.792 147.799 249.611C147.671 249.419 147.543 249.269 147.415 249.163C148.129 248.896 148.828 248.539 149.511 248.091C150.193 247.643 150.839 247.12 151.447 246.523C152.055 245.915 152.588 245.248 153.047 244.523C153.505 243.787 153.863 242.997 154.119 242.155V241.947ZM150.615 240.299L151.751 240.587C151.516 241.301 151.228 242 150.887 242.683C150.556 243.365 150.188 244 149.783 244.587C149.388 245.163 148.972 245.675 148.535 246.123C148.471 246.048 148.38 245.963 148.263 245.867C148.145 245.771 148.023 245.675 147.895 245.579C147.777 245.472 147.676 245.392 147.591 245.339C148.252 244.752 148.844 244.016 149.367 243.131C149.889 242.235 150.305 241.291 150.615 240.299ZM150.295 242.619C150.519 243.195 150.823 243.787 151.207 244.395C151.601 244.992 152.06 245.579 152.583 246.155C153.116 246.72 153.719 247.243 154.391 247.723C155.073 248.192 155.82 248.581 156.631 248.891C156.556 248.965 156.471 249.061 156.375 249.179C156.279 249.296 156.188 249.419 156.103 249.547C156.017 249.675 155.943 249.792 155.879 249.899C155.057 249.536 154.305 249.099 153.623 248.587C152.951 248.075 152.353 247.52 151.831 246.923C151.308 246.315 150.849 245.701 150.455 245.083C150.071 244.453 149.756 243.851 149.511 243.275L150.295 242.619ZM142.487 247.419H143.511V253.211H142.487V247.419ZM143.559 242.043V244.859H146.583V242.043H143.559ZM142.487 240.987H147.687V245.915H142.487V240.987ZM144.759 245.387H145.847V252.699H144.759V245.387ZM141.671 253.083C142.193 252.987 142.796 252.864 143.479 252.715C144.161 252.555 144.887 252.384 145.655 252.203C146.423 252.021 147.191 251.84 147.959 251.659L148.071 252.731C146.972 253.008 145.879 253.28 144.791 253.547C143.703 253.813 142.732 254.048 141.879 254.251L141.671 253.083ZM145.143 248.219H147.847V249.291H145.143V248.219ZM158.535 241.867H171.639V242.875H158.535V241.867ZM159.047 253.579H171.175V254.603H159.047V253.579ZM161.687 243.947H168.423V244.843H161.687V243.947ZM161.687 245.963H168.423V246.875H161.687V245.963ZM157.799 248.011H172.343V249.035H157.799V248.011ZM161.143 250.891H168.999V251.883H161.143V250.891ZM160.983 240.315H162.183V248.587H160.983V240.315ZM168.007 240.331H169.223V248.587H168.007V240.331ZM164.423 249.547H165.639V254.139H164.423V249.547ZM161.831 248.299L162.823 248.667C162.503 249.221 162.103 249.749 161.623 250.251C161.153 250.752 160.641 251.211 160.087 251.627C159.543 252.032 158.988 252.368 158.423 252.635C158.369 252.539 158.295 252.437 158.199 252.331C158.103 252.213 158.007 252.101 157.911 251.995C157.815 251.877 157.724 251.781 157.639 251.707C158.172 251.493 158.705 251.211 159.239 250.859C159.772 250.507 160.263 250.107 160.711 249.659C161.159 249.211 161.532 248.757 161.831 248.299ZM168.375 248.299C168.652 248.747 169.009 249.179 169.447 249.595C169.884 250.011 170.369 250.384 170.903 250.715C171.447 251.035 171.991 251.296 172.535 251.499C172.46 251.573 172.369 251.669 172.263 251.787C172.156 251.893 172.06 252.005 171.975 252.123C171.889 252.24 171.809 252.347 171.735 252.443C171.18 252.197 170.625 251.877 170.071 251.483C169.527 251.088 169.025 250.651 168.567 250.171C168.119 249.68 167.735 249.173 167.415 248.651L168.375 248.299ZM173.799 241.275H179.335V242.379H173.799V241.275ZM175.399 246.091H178.839V252.907H175.399V251.851H177.799V247.163H175.399V246.091ZM175.671 241.819L176.791 241.979C176.652 243.077 176.465 244.149 176.231 245.195C176.007 246.229 175.729 247.2 175.399 248.107C175.079 249.003 174.689 249.803 174.231 250.507C174.188 250.411 174.124 250.299 174.039 250.171C173.953 250.032 173.863 249.899 173.767 249.771C173.671 249.632 173.585 249.525 173.511 249.451C173.916 248.832 174.252 248.123 174.519 247.323C174.796 246.512 175.031 245.637 175.223 244.699C175.415 243.76 175.564 242.8 175.671 241.819ZM174.903 246.091H175.927V254.235H174.903V246.091ZM179.287 242.107H183.479V243.083H179.287V242.107ZM179.271 247.515H187.495V248.523H179.271V247.515ZM183.671 250.427H187.399V251.419H183.671V250.427ZM181.031 240.315H182.039V247.019H181.031V240.315ZM180.935 242.651L181.655 243.051C181.505 243.477 181.308 243.909 181.063 244.347C180.828 244.784 180.567 245.2 180.279 245.595C180.001 245.989 179.713 246.331 179.415 246.619C179.351 246.501 179.26 246.363 179.143 246.203C179.036 246.032 178.935 245.899 178.839 245.803C179.105 245.579 179.372 245.296 179.639 244.955C179.905 244.603 180.151 244.229 180.375 243.835C180.609 243.429 180.796 243.035 180.935 242.651ZM186.567 242.667C186.705 243.072 186.876 243.477 187.079 243.883C187.292 244.288 187.527 244.661 187.783 245.003C188.049 245.344 188.327 245.621 188.615 245.835C188.497 245.909 188.375 246.021 188.247 246.171C188.119 246.309 188.012 246.432 187.927 246.539C187.649 246.283 187.377 245.957 187.111 245.563C186.855 245.168 186.62 244.741 186.407 244.283C186.204 243.813 186.033 243.355 185.895 242.907L186.567 242.667ZM182.007 243.419C182.092 243.483 182.204 243.573 182.343 243.691C182.492 243.808 182.647 243.941 182.807 244.091C182.977 244.229 183.132 244.363 183.271 244.491C183.42 244.608 183.527 244.699 183.591 244.763L182.983 245.467C182.887 245.328 182.743 245.152 182.551 244.939C182.359 244.725 182.161 244.512 181.959 244.299C181.767 244.085 181.607 243.931 181.479 243.835L182.007 243.419ZM183.799 242.107H188.359V243.083H183.799V242.107ZM185.399 240.315H186.423V247.019H185.399V240.315ZM185.255 242.651L185.943 243.035C185.804 243.472 185.607 243.915 185.351 244.363C185.105 244.811 184.833 245.232 184.535 245.627C184.236 246.011 183.927 246.331 183.607 246.587C183.553 246.469 183.468 246.336 183.351 246.187C183.244 246.027 183.148 245.899 183.063 245.803C183.361 245.6 183.649 245.328 183.927 244.987C184.204 244.645 184.455 244.272 184.679 243.867C184.913 243.461 185.105 243.056 185.255 242.651ZM187.175 247.515H187.351L187.543 247.451L188.311 247.707C188.172 248.101 188.017 248.507 187.847 248.923C187.687 249.339 187.527 249.696 187.367 249.995L186.455 249.659C186.572 249.392 186.695 249.077 186.823 248.715C186.961 248.352 187.079 248 187.175 247.659V247.515ZM181.319 250.651C181.543 251.515 181.841 252.165 182.215 252.603C182.599 253.04 183.063 253.339 183.607 253.499C184.151 253.648 184.764 253.728 185.447 253.739C185.521 253.739 185.655 253.739 185.847 253.739C186.049 253.739 186.279 253.739 186.535 253.739C186.801 253.728 187.068 253.723 187.335 253.723C187.612 253.723 187.863 253.723 188.087 253.723C188.311 253.723 188.471 253.723 188.567 253.723C188.524 253.808 188.476 253.909 188.423 254.027C188.38 254.155 188.337 254.283 188.295 254.411C188.263 254.549 188.236 254.667 188.215 254.763H187.543H185.383C184.529 254.763 183.788 254.661 183.159 254.459C182.54 254.256 182.012 253.883 181.575 253.339C181.137 252.784 180.78 251.989 180.503 250.955L181.319 250.651ZM180.535 249.307H181.623C181.559 250.085 181.441 250.832 181.271 251.547C181.1 252.261 180.839 252.917 180.487 253.515C180.135 254.112 179.644 254.619 179.015 255.035C178.94 254.917 178.828 254.779 178.679 254.619C178.54 254.459 178.412 254.331 178.295 254.235C178.849 253.883 179.276 253.451 179.575 252.939C179.884 252.416 180.108 251.84 180.247 251.211C180.385 250.581 180.481 249.947 180.535 249.307ZM183.159 247.819H184.263V254.187L183.159 253.707V247.819ZM194.087 243.691H204.439V244.667H194.087V243.691ZM195.015 248.011H203.383V248.939H195.015V248.011ZM194.311 250.203H204.087V251.195H194.311V250.203ZM198.503 240.443H199.671V252.891H198.503V240.443ZM195.239 241.595H203.223V246.827H195.127V245.851H202.055V242.555H195.239V241.595ZM189.719 241.323H193.191V242.411H189.719V241.323ZM192.759 241.323H192.919L193.111 241.275L193.927 241.515C193.692 242.08 193.409 242.715 193.079 243.419C192.748 244.123 192.407 244.837 192.055 245.563C191.703 246.277 191.361 246.955 191.031 247.595L189.927 247.291C190.183 246.811 190.444 246.309 190.711 245.787C190.977 245.253 191.239 244.72 191.495 244.187C191.751 243.653 191.985 243.152 192.199 242.683C192.423 242.213 192.609 241.813 192.759 241.483V241.323ZM191.191 245.883H193.799V246.971H191.031L191.191 245.883ZM193.319 245.883H193.559L193.767 245.867L194.471 246.027C194.236 248.363 193.777 250.267 193.095 251.739C192.412 253.2 191.548 254.309 190.503 255.067C190.449 254.981 190.364 254.885 190.247 254.779C190.14 254.672 190.028 254.565 189.911 254.459C189.804 254.363 189.703 254.288 189.607 254.235C190.631 253.552 191.452 252.549 192.071 251.227C192.7 249.893 193.116 248.197 193.319 246.139V245.883ZM191.239 248.251C191.559 249.349 191.98 250.245 192.503 250.939C193.036 251.621 193.655 252.144 194.359 252.507C195.073 252.869 195.863 253.12 196.727 253.259C197.601 253.397 198.545 253.467 199.559 253.467C199.697 253.467 199.927 253.467 200.247 253.467C200.567 253.467 200.935 253.467 201.351 253.467C201.767 253.467 202.188 253.467 202.615 253.467C203.041 253.456 203.425 253.451 203.767 253.451C204.108 253.44 204.364 253.435 204.535 253.435C204.471 253.52 204.407 253.632 204.343 253.771C204.279 253.92 204.22 254.064 204.167 254.203C204.113 254.352 204.076 254.485 204.055 254.603H203.207H199.543C198.38 254.603 197.313 254.523 196.343 254.363C195.383 254.203 194.519 253.909 193.751 253.483C192.983 253.056 192.305 252.453 191.719 251.675C191.143 250.885 190.663 249.861 190.279 248.603L191.239 248.251ZM213.015 240.827H214.151V242.779C214.151 243.227 214.097 243.707 213.991 244.219C213.884 244.731 213.687 245.227 213.399 245.707C213.111 246.187 212.679 246.619 212.103 247.003C212.049 246.917 211.964 246.827 211.847 246.731C211.74 246.624 211.628 246.523 211.511 246.427C211.404 246.32 211.308 246.245 211.223 246.203C211.735 245.861 212.119 245.499 212.375 245.115C212.631 244.72 212.801 244.32 212.887 243.915C212.972 243.509 213.015 243.12 213.015 242.747V240.827ZM216.903 240.827H218.055V244.747C218.055 244.928 218.071 245.045 218.103 245.099C218.145 245.141 218.231 245.163 218.359 245.163C218.401 245.163 218.476 245.163 218.583 245.163C218.689 245.163 218.801 245.163 218.919 245.163C219.036 245.163 219.121 245.163 219.175 245.163C219.26 245.163 219.324 245.125 219.367 245.051C219.42 244.976 219.457 244.816 219.479 244.571C219.511 244.315 219.527 243.931 219.527 243.419C219.644 243.515 219.804 243.6 220.007 243.675C220.209 243.749 220.391 243.808 220.551 243.851C220.519 244.48 220.455 244.965 220.359 245.307C220.273 245.648 220.145 245.888 219.975 246.027C219.815 246.155 219.591 246.219 219.303 246.219C219.228 246.219 219.116 246.219 218.967 246.219C218.817 246.219 218.663 246.219 218.503 246.219C218.353 246.219 218.247 246.219 218.183 246.219C217.852 246.219 217.591 246.176 217.399 246.091C217.217 246.005 217.089 245.861 217.015 245.659C216.94 245.445 216.903 245.147 216.903 244.763V240.827ZM213.879 248.363C214.423 249.749 215.271 250.933 216.423 251.915C217.585 252.896 218.972 253.589 220.583 253.995C220.497 254.069 220.401 254.171 220.295 254.299C220.199 254.427 220.103 254.555 220.007 254.683C219.921 254.811 219.847 254.923 219.783 255.019C218.129 254.539 216.711 253.76 215.527 252.683C214.353 251.595 213.447 250.272 212.807 248.715L213.879 248.363ZM218.359 247.243H218.583L218.791 247.195L219.575 247.499C219.297 248.555 218.903 249.493 218.391 250.315C217.889 251.125 217.303 251.84 216.631 252.459C215.959 253.077 215.223 253.595 214.423 254.011C213.633 254.437 212.796 254.779 211.911 255.035C211.879 254.928 211.825 254.805 211.751 254.667C211.676 254.539 211.596 254.411 211.511 254.283C211.425 254.155 211.34 254.053 211.255 253.979C212.065 253.765 212.844 253.472 213.591 253.099C214.337 252.725 215.025 252.272 215.655 251.739C216.295 251.195 216.844 250.565 217.303 249.851C217.761 249.136 218.113 248.336 218.359 247.451V247.243ZM211.975 247.243H218.823V248.347H211.975V247.243ZM213.495 240.827H217.495V241.899H213.495V240.827ZM206.439 245.163H211.207V246.107H206.439V245.163ZM206.503 240.875H211.175V241.835H206.503V240.875ZM206.439 247.291H211.207V248.251H206.439V247.291ZM205.671 242.971H211.767V243.979H205.671V242.971ZM206.999 249.451H211.191V254.123H206.999V253.131H210.135V250.459H206.999V249.451ZM206.407 249.451H207.463V254.859H206.407V249.451Z" fill="#2D313E"/>
<rect x="110.538" y="206.749" width="123.449" height="22.2181" rx="1.5" fill="#F8F8F8" stroke="#2D313E"/>
<rect x="115.61" y="211.822" width="12.0734" height="13.0021" fill="#52BD9D"/>
<rect x="149.973" y="212.75" width="11.1447" height="11.1447" fill="#929292"/>
<rect x="183.407" y="212.75" width="11.1447" height="11.1447" fill="#929292"/>
<rect x="133.257" y="212.75" width="11.1447" height="11.1447" fill="#929292"/>
<rect x="166.689" y="212.75" width="11.1447" height="11.1447" fill="#929292"/>
<rect x="200.124" y="212.75" width="11.1447" height="11.1447" fill="#929292"/>
<rect x="216.84" y="212.75" width="11.1447" height="11.1447" fill="#929292"/>
<path d="M237.15 419.946C237.15 421.689 236.607 423.247 235.753 424.359C234.9 425.47 233.755 426.116 232.53 426.116H112.954C110.512 426.116 108.334 423.488 108.334 419.946V329.938C108.334 328.195 108.877 326.637 109.731 325.525C110.585 324.414 111.729 323.768 112.954 323.768H232.53C234.972 323.768 237.15 326.396 237.15 329.938V419.946Z" stroke="#2D313E"/>
<path d="M233.603 407.119H233.595V407.619C233.595 410.355 231.6 412.488 229.241 412.488H116.244C113.885 412.488 111.89 410.355 111.89 407.619V335.272C111.89 332.536 113.885 330.403 116.244 330.403H229.248C231.608 330.403 233.603 332.536 233.603 335.272V407.119Z" stroke="#2D313E"/>
<path d="M164.45 435.414C164.932 434.951 165.468 434.31 165.846 433.49C166.289 432.528 166.507 431.332 166.179 429.925C165.907 428.756 165.263 427.466 164.098 426.058H184.798C182.07 429.64 182.021 432.192 182.913 433.921C183.239 434.553 183.678 435.044 184.104 435.414H164.45Z" stroke="#2D313E"/>
<path d="M153.632 440.193V436.01H195.129V440.193H153.632Z" stroke="#2D313E"/>
<path d="M108.334 419.946V408.065H237.15V419.946C237.15 423.488 234.972 426.115 232.53 426.115H112.954C111.729 426.115 110.585 425.47 109.731 424.359C108.877 423.247 108.334 421.689 108.334 419.946Z" fill="#F3F3F3" stroke="#2D313E"/>
<path d="M154.516 364.465L155.812 364.705C155.268 365.483 154.58 366.241 153.748 366.977C152.927 367.702 151.929 368.358 150.756 368.945C150.692 368.849 150.612 368.747 150.516 368.641C150.431 368.523 150.335 368.417 150.228 368.321C150.121 368.225 150.025 368.145 149.94 368.081C151.049 367.59 151.988 367.019 152.756 366.369C153.535 365.718 154.121 365.083 154.516 364.465ZM154.34 365.665H159.924V366.609H153.476L154.34 365.665ZM159.572 365.665H159.812L160.02 365.601L160.836 366.097C160.303 366.939 159.62 367.702 158.788 368.385C157.967 369.057 157.055 369.654 156.052 370.177C155.049 370.689 154.004 371.131 152.916 371.505C151.828 371.878 150.745 372.182 149.668 372.417C149.615 372.257 149.529 372.075 149.412 371.873C149.295 371.659 149.183 371.489 149.076 371.361C150.1 371.169 151.135 370.907 152.18 370.577C153.225 370.235 154.223 369.835 155.172 369.377C156.132 368.907 156.991 368.379 157.748 367.793C158.516 367.206 159.124 366.561 159.572 365.857V365.665ZM153.876 366.401C154.505 367.201 155.332 367.905 156.356 368.513C157.38 369.121 158.537 369.627 159.828 370.033C161.129 370.427 162.489 370.715 163.908 370.897C163.823 370.993 163.732 371.11 163.636 371.249C163.54 371.377 163.449 371.51 163.364 371.649C163.279 371.787 163.204 371.915 163.14 372.033C161.711 371.809 160.345 371.473 159.044 371.025C157.743 370.566 156.559 369.995 155.492 369.313C154.436 368.619 153.551 367.809 152.836 366.881L153.876 366.401ZM152.1 371.425H160.98V376.321H159.764V372.433H153.268V376.337H152.1V371.425ZM152.676 374.785H160.372V375.793H152.676V374.785ZM155.844 361.633H157.076V363.729H155.844V361.633ZM149.732 363.089H163.268V366.097H162.036V364.177H150.9V366.097H149.732V363.089ZM167.972 370.129H177.188V371.249H167.972V370.129ZM168.068 365.793H177.908V372.113H176.708V366.913H168.068V365.793ZM176.436 361.665L177.428 362.561C176.617 362.827 175.684 363.078 174.628 363.313C173.583 363.547 172.489 363.761 171.348 363.953C170.217 364.134 169.119 364.294 168.052 364.433C168.031 364.294 167.983 364.129 167.908 363.937C167.844 363.745 167.775 363.585 167.7 363.457C168.489 363.35 169.289 363.233 170.1 363.105C170.911 362.977 171.705 362.838 172.484 362.689C173.273 362.529 174.004 362.363 174.676 362.193C175.348 362.022 175.935 361.846 176.436 361.665ZM167.332 363.137L168.884 363.585C168.873 363.702 168.761 363.777 168.548 363.809V368.321C168.548 368.907 168.521 369.553 168.468 370.257C168.415 370.95 168.297 371.654 168.116 372.369C167.945 373.083 167.695 373.782 167.364 374.465C167.033 375.147 166.596 375.777 166.052 376.353C165.988 376.257 165.903 376.155 165.796 376.049C165.689 375.942 165.572 375.835 165.444 375.729C165.327 375.633 165.215 375.563 165.108 375.521C165.609 374.998 166.009 374.438 166.308 373.841C166.607 373.233 166.825 372.614 166.964 371.985C167.113 371.345 167.209 370.71 167.252 370.081C167.305 369.451 167.332 368.854 167.332 368.289V363.137ZM186.532 367.425H195.844V368.513H186.532V367.425ZM189.524 370.417H190.5V376.177H189.524V370.417ZM191.972 370.417H192.932V376.129H191.972V370.417ZM190.564 361.665H191.716V365.793H190.564V361.665ZM187.044 370.017H194.996V371.057H188.132V376.337H187.044V370.017ZM194.404 370.017H195.492V375.233C195.492 375.478 195.465 375.675 195.412 375.825C195.369 375.985 195.263 376.102 195.092 376.177C194.921 376.262 194.713 376.315 194.468 376.337C194.233 376.358 193.935 376.369 193.572 376.369C193.561 376.23 193.519 376.065 193.444 375.873C193.38 375.691 193.316 375.531 193.252 375.393C193.476 375.403 193.679 375.409 193.86 375.409C194.041 375.409 194.164 375.403 194.228 375.393C194.345 375.393 194.404 375.334 194.404 375.217V370.017ZM190.548 367.777L191.94 368.065C191.78 368.523 191.631 368.993 191.492 369.473C191.353 369.942 191.215 370.342 191.076 370.673L190.052 370.385C190.148 370.022 190.244 369.595 190.34 369.105C190.436 368.603 190.505 368.161 190.548 367.777ZM187.236 362.433H188.34V365.185H194.132V362.433H195.284V366.241H187.236V362.433ZM181.332 364.849H186.388V365.937H181.332V364.849ZM183.348 361.841H184.436V365.377H183.348V361.841ZM181.028 373.089C181.753 372.939 182.617 372.758 183.62 372.545C184.623 372.331 185.636 372.107 186.66 371.873L186.788 372.913C185.828 373.158 184.868 373.398 183.908 373.633C182.948 373.867 182.079 374.075 181.3 374.257L181.028 373.089ZM181.668 366.721L182.596 366.561C182.724 367.105 182.836 367.691 182.932 368.321C183.028 368.939 183.103 369.547 183.156 370.145C183.22 370.731 183.252 371.259 183.252 371.729L182.276 371.889C182.265 371.419 182.233 370.891 182.18 370.305C182.137 369.707 182.068 369.099 181.972 368.481C181.887 367.851 181.785 367.265 181.668 366.721ZM184.884 366.433L186.004 366.673C185.908 367.291 185.796 367.958 185.668 368.673C185.54 369.387 185.412 370.081 185.284 370.753C185.156 371.425 185.028 372.006 184.9 372.497L184.004 372.257C184.089 371.883 184.175 371.457 184.26 370.977C184.356 370.486 184.441 369.979 184.516 369.457C184.601 368.923 184.676 368.395 184.74 367.873C184.804 367.35 184.852 366.87 184.884 366.433Z" fill="#2D313E"/>
<path d="M173.208 96.4474H175.791V99.0308H173.208V96.4474ZM173.208 86.1141H175.791V93.8641H173.208V86.1141ZM174.487 79.6558C167.357 79.6558 161.583 85.4424 161.583 92.5724C161.583 99.7024 167.357 105.489 174.487 105.489C181.63 105.489 187.416 99.7024 187.416 92.5724C187.416 85.4424 181.63 79.6558 174.487 79.6558ZM174.5 102.906C168.791 102.906 164.166 98.2816 164.166 92.5724C164.166 86.8633 168.791 82.2391 174.5 82.2391C180.209 82.2391 184.833 86.8633 184.833 92.5724C184.833 98.2816 180.209 102.906 174.5 102.906Z" fill="#CF3838"/>
</svg>
