<svg width="352" height="443" viewBox="0 0 352 443" fill="none" xmlns="http://www.w3.org/2000/svg">
<path d="M1.69815 131.364H3.37997L7.33452 141.023H7.47088L11.4254 131.364H13.1072V143H11.7891V134.159H11.6754L8.03906 143H6.76634L3.12997 134.159H3.01634V143H1.69815V131.364ZM18.3189 143.205C17.7659 143.205 17.264 143.1 16.8132 142.892C16.3625 142.68 16.0045 142.375 15.7393 141.977C15.4742 141.576 15.3416 141.091 15.3416 140.523C15.3416 140.023 15.4401 139.617 15.6371 139.307C15.834 138.992 16.0973 138.746 16.4268 138.568C16.7564 138.39 17.12 138.258 17.5178 138.17C17.9193 138.08 18.3227 138.008 18.728 137.955C19.2583 137.886 19.6882 137.835 20.0178 137.801C20.3511 137.763 20.5935 137.701 20.745 137.614C20.9003 137.527 20.978 137.375 20.978 137.159V137.114C20.978 136.553 20.8246 136.117 20.5178 135.807C20.2147 135.496 19.7545 135.341 19.1371 135.341C18.4969 135.341 17.995 135.481 17.6314 135.761C17.2678 136.042 17.0121 136.341 16.8643 136.659L15.5916 136.205C15.8189 135.674 16.1219 135.261 16.5007 134.966C16.8833 134.667 17.3 134.458 17.7507 134.341C18.2053 134.22 18.6522 134.159 19.0916 134.159C19.3719 134.159 19.6939 134.193 20.0575 134.261C20.425 134.326 20.7791 134.46 21.12 134.665C21.4647 134.869 21.7507 135.178 21.978 135.591C22.2053 136.004 22.3189 136.557 22.3189 137.25V143H20.978V141.818H20.9098C20.8189 142.008 20.6674 142.21 20.4553 142.426C20.2431 142.642 19.9609 142.826 19.6087 142.977C19.2564 143.129 18.8265 143.205 18.3189 143.205ZM18.5234 142C19.0537 142 19.5007 141.896 19.8643 141.688C20.2318 141.479 20.5083 141.21 20.6939 140.881C20.8833 140.551 20.978 140.205 20.978 139.841V138.614C20.9212 138.682 20.7962 138.744 20.603 138.801C20.4136 138.854 20.1939 138.902 19.9439 138.943C19.6977 138.981 19.4571 139.015 19.2223 139.045C18.9912 139.072 18.8037 139.095 18.6598 139.114C18.3113 139.159 17.9856 139.233 17.6825 139.335C17.3833 139.434 17.1409 139.583 16.9553 139.784C16.7734 139.981 16.6825 140.25 16.6825 140.591C16.6825 141.057 16.8549 141.409 17.1996 141.648C17.5481 141.883 17.9893 142 18.5234 142ZM24.7663 143V134.273H26.1072V143H24.7663ZM25.4482 132.818C25.1868 132.818 24.9614 132.729 24.772 132.551C24.5864 132.373 24.4936 132.159 24.4936 131.909C24.4936 131.659 24.5864 131.445 24.772 131.267C24.9614 131.089 25.1868 131 25.4482 131C25.7095 131 25.933 131.089 26.1186 131.267C26.308 131.445 26.4027 131.659 26.4027 131.909C26.4027 132.159 26.308 132.373 26.1186 132.551C25.933 132.729 25.7095 132.818 25.4482 132.818ZM29.9041 137.75V143H28.5632V134.273H29.8587V135.636H29.9723C30.1768 135.193 30.4875 134.837 30.9041 134.568C31.3208 134.295 31.8587 134.159 32.5178 134.159C33.1087 134.159 33.6257 134.28 34.0689 134.523C34.5121 134.761 34.8568 135.125 35.103 135.614C35.3492 136.098 35.4723 136.712 35.4723 137.455V143H34.1314V137.545C34.1314 136.86 33.9534 136.326 33.5973 135.943C33.2412 135.557 32.7526 135.364 32.1314 135.364C31.7034 135.364 31.3208 135.456 30.9837 135.642C30.6503 135.828 30.3871 136.098 30.1939 136.455C30.0007 136.811 29.9041 137.242 29.9041 137.75ZM48.6044 136.227L47.3999 136.568C47.3241 136.367 47.2124 136.172 47.0646 135.983C46.9207 135.79 46.7237 135.631 46.4737 135.506C46.2237 135.381 45.9036 135.318 45.5135 135.318C44.9794 135.318 44.5343 135.441 44.1783 135.688C43.826 135.93 43.6499 136.239 43.6499 136.614C43.6499 136.947 43.7711 137.21 44.0135 137.403C44.2559 137.597 44.6347 137.758 45.1499 137.886L46.4453 138.205C47.2256 138.394 47.8071 138.684 48.1896 139.074C48.5722 139.46 48.7635 139.958 48.7635 140.568C48.7635 141.068 48.6196 141.515 48.3317 141.909C48.0476 142.303 47.6499 142.614 47.1385 142.841C46.6271 143.068 46.0324 143.182 45.3544 143.182C44.4643 143.182 43.7275 142.989 43.1442 142.602C42.5608 142.216 42.1915 141.652 42.0362 140.909L43.3089 140.591C43.4302 141.061 43.6593 141.413 43.9964 141.648C44.3374 141.883 44.7824 142 45.3317 142C45.9567 142 46.4529 141.867 46.8203 141.602C47.1915 141.333 47.3771 141.011 47.3771 140.636C47.3771 140.333 47.2711 140.08 47.0589 139.875C46.8468 139.667 46.5211 139.511 46.0817 139.409L44.6271 139.068C43.8279 138.879 43.2408 138.585 42.8658 138.188C42.4946 137.786 42.3089 137.284 42.3089 136.682C42.3089 136.189 42.4472 135.754 42.7237 135.375C43.004 134.996 43.3847 134.699 43.8658 134.483C44.3506 134.267 44.8999 134.159 45.5135 134.159C46.3771 134.159 47.0552 134.348 47.5476 134.727C48.0438 135.106 48.3961 135.606 48.6044 136.227ZM54.4411 143.182C53.6001 143.182 52.8748 142.996 52.2649 142.625C51.6589 142.25 51.1911 141.727 50.8615 141.057C50.5357 140.383 50.3729 139.598 50.3729 138.705C50.3729 137.811 50.5357 137.023 50.8615 136.341C51.1911 135.655 51.6494 135.121 52.2365 134.739C52.8274 134.352 53.5168 134.159 54.3047 134.159C54.7592 134.159 55.2081 134.235 55.6513 134.386C56.0945 134.538 56.4979 134.784 56.8615 135.125C57.2251 135.462 57.5149 135.909 57.7308 136.466C57.9467 137.023 58.0547 137.708 58.0547 138.523V139.091H51.3274V137.932H56.6911C56.6911 137.439 56.5926 137 56.3956 136.614C56.2024 136.227 55.9259 135.922 55.5661 135.699C55.21 135.475 54.7895 135.364 54.3047 135.364C53.7706 135.364 53.3085 135.496 52.9183 135.761C52.532 136.023 52.2346 136.364 52.0263 136.784C51.8179 137.205 51.7138 137.655 51.7138 138.136V138.909C51.7138 139.568 51.8274 140.127 52.0547 140.585C52.2857 141.04 52.6058 141.386 53.0149 141.625C53.424 141.86 53.8994 141.977 54.4411 141.977C54.7933 141.977 55.1115 141.928 55.3956 141.83C55.6835 141.727 55.9316 141.576 56.1399 141.375C56.3482 141.17 56.5092 140.917 56.6229 140.614L57.9183 140.977C57.782 141.417 57.5528 141.803 57.2308 142.136C56.9089 142.466 56.5111 142.723 56.0376 142.909C55.5642 143.091 55.032 143.182 54.4411 143.182ZM60.0945 143V134.273H61.3899V135.591H61.4808C61.6399 135.159 61.9278 134.809 62.3445 134.54C62.7611 134.271 63.2308 134.136 63.7536 134.136C63.852 134.136 63.9751 134.138 64.1229 134.142C64.2706 134.146 64.3823 134.152 64.4581 134.159V135.523C64.4126 135.511 64.3085 135.494 64.1456 135.472C63.9865 135.445 63.8179 135.432 63.6399 135.432C63.2157 135.432 62.8369 135.521 62.5036 135.699C62.174 135.873 61.9126 136.116 61.7195 136.426C61.5301 136.733 61.4354 137.083 61.4354 137.477V143H60.0945ZM73.4496 134.273L70.2223 143H68.8587L65.6314 134.273H67.0859L69.495 141.227H69.5859L71.995 134.273H73.4496ZM75.2195 143V134.273H76.5604V143H75.2195ZM75.9013 132.818C75.6399 132.818 75.4145 132.729 75.2251 132.551C75.0395 132.373 74.9467 132.159 74.9467 131.909C74.9467 131.659 75.0395 131.445 75.2251 131.267C75.4145 131.089 75.6399 131 75.9013 131C76.1626 131 76.3861 131.089 76.5717 131.267C76.7611 131.445 76.8558 131.659 76.8558 131.909C76.8558 132.159 76.7611 132.373 76.5717 132.551C76.3861 132.729 76.1626 132.818 75.9013 132.818ZM82.5618 143.182C81.7436 143.182 81.0391 142.989 80.4482 142.602C79.8572 142.216 79.4027 141.684 79.0845 141.006C78.7663 140.328 78.6072 139.553 78.6072 138.682C78.6072 137.795 78.7701 137.013 79.0959 136.335C79.4254 135.653 79.8838 135.121 80.4709 134.739C81.0618 134.352 81.7512 134.159 82.5391 134.159C83.1527 134.159 83.7057 134.273 84.1982 134.5C84.6906 134.727 85.094 135.045 85.4084 135.455C85.7228 135.864 85.9179 136.341 85.9936 136.886H84.6527C84.5504 136.489 84.3232 136.136 83.9709 135.83C83.6224 135.519 83.1527 135.364 82.5618 135.364C82.0391 135.364 81.5807 135.5 81.1868 135.773C80.7966 136.042 80.4917 136.422 80.272 136.915C80.0561 137.403 79.9482 137.977 79.9482 138.636C79.9482 139.311 80.0542 139.898 80.2663 140.398C80.4822 140.898 80.7853 141.286 81.1754 141.562C81.5694 141.839 82.0315 141.977 82.5618 141.977C82.9103 141.977 83.2266 141.917 83.5107 141.795C83.7947 141.674 84.0353 141.5 84.2322 141.273C84.4292 141.045 84.5694 140.773 84.6527 140.455H85.9936C85.9179 140.97 85.7304 141.434 85.4311 141.847C85.1357 142.256 84.7436 142.581 84.255 142.824C83.7701 143.062 83.2057 143.182 82.5618 143.182ZM91.6129 143.182C90.772 143.182 90.0466 142.996 89.4368 142.625C88.8307 142.25 88.3629 141.727 88.0334 141.057C87.7076 140.383 87.5447 139.598 87.5447 138.705C87.5447 137.811 87.7076 137.023 88.0334 136.341C88.3629 135.655 88.8213 135.121 89.4084 134.739C89.9993 134.352 90.6887 134.159 91.4766 134.159C91.9311 134.159 92.38 134.235 92.8232 134.386C93.2663 134.538 93.6697 134.784 94.0334 135.125C94.397 135.462 94.6868 135.909 94.9027 136.466C95.1186 137.023 95.2266 137.708 95.2266 138.523V139.091H88.4993V137.932H93.8629C93.8629 137.439 93.7644 137 93.5675 136.614C93.3743 136.227 93.0978 135.922 92.7379 135.699C92.3819 135.475 91.9614 135.364 91.4766 135.364C90.9425 135.364 90.4804 135.496 90.0902 135.761C89.7038 136.023 89.4065 136.364 89.1982 136.784C88.9898 137.205 88.8857 137.655 88.8857 138.136V138.909C88.8857 139.568 88.9993 140.127 89.2266 140.585C89.4576 141.04 89.7777 141.386 90.1868 141.625C90.5959 141.86 91.0713 141.977 91.6129 141.977C91.9652 141.977 92.2834 141.928 92.5675 141.83C92.8554 141.727 93.1035 141.576 93.3118 141.375C93.5201 141.17 93.6811 140.917 93.7947 140.614L95.0902 140.977C94.9538 141.417 94.7247 141.803 94.4027 142.136C94.0807 142.466 93.683 142.723 93.2095 142.909C92.736 143.091 92.2038 143.182 91.6129 143.182ZM103.107 137.75V143H101.766V131.364H103.107V135.636H103.221C103.425 135.186 103.732 134.828 104.141 134.562C104.554 134.294 105.103 134.159 105.789 134.159C106.384 134.159 106.905 134.278 107.352 134.517C107.799 134.752 108.145 135.114 108.391 135.602C108.641 136.087 108.766 136.705 108.766 137.455V143H107.425V137.545C107.425 136.852 107.246 136.316 106.886 135.938C106.53 135.555 106.035 135.364 105.403 135.364C104.963 135.364 104.569 135.456 104.221 135.642C103.876 135.828 103.603 136.098 103.403 136.455C103.206 136.811 103.107 137.242 103.107 137.75ZM114.765 143.182C113.977 143.182 113.286 142.994 112.691 142.619C112.1 142.244 111.638 141.72 111.305 141.045C110.975 140.371 110.81 139.583 110.81 138.682C110.81 137.773 110.975 136.979 111.305 136.301C111.638 135.623 112.1 135.097 112.691 134.722C113.286 134.347 113.977 134.159 114.765 134.159C115.553 134.159 116.242 134.347 116.833 134.722C117.428 135.097 117.89 135.623 118.219 136.301C118.553 136.979 118.719 137.773 118.719 138.682C118.719 139.583 118.553 140.371 118.219 141.045C117.89 141.72 117.428 142.244 116.833 142.619C116.242 142.994 115.553 143.182 114.765 143.182ZM114.765 141.977C115.363 141.977 115.856 141.824 116.242 141.517C116.629 141.21 116.915 140.807 117.1 140.307C117.286 139.807 117.379 139.265 117.379 138.682C117.379 138.098 117.286 137.555 117.1 137.051C116.915 136.547 116.629 136.14 116.242 135.83C115.856 135.519 115.363 135.364 114.765 135.364C114.166 135.364 113.674 135.519 113.288 135.83C112.901 136.14 112.615 136.547 112.43 137.051C112.244 137.555 112.151 138.098 112.151 138.682C112.151 139.265 112.244 139.807 112.43 140.307C112.615 140.807 112.901 141.21 113.288 141.517C113.674 141.824 114.166 141.977 114.765 141.977ZM126.948 136.227L125.744 136.568C125.668 136.367 125.556 136.172 125.408 135.983C125.264 135.79 125.067 135.631 124.817 135.506C124.567 135.381 124.247 135.318 123.857 135.318C123.323 135.318 122.878 135.441 122.522 135.688C122.17 135.93 121.994 136.239 121.994 136.614C121.994 136.947 122.115 137.21 122.357 137.403C122.6 137.597 122.978 137.758 123.494 137.886L124.789 138.205C125.569 138.394 126.151 138.684 126.533 139.074C126.916 139.46 127.107 139.958 127.107 140.568C127.107 141.068 126.963 141.515 126.675 141.909C126.391 142.303 125.994 142.614 125.482 142.841C124.971 143.068 124.376 143.182 123.698 143.182C122.808 143.182 122.071 142.989 121.488 142.602C120.905 142.216 120.535 141.652 120.38 140.909L121.653 140.591C121.774 141.061 122.003 141.413 122.34 141.648C122.681 141.883 123.126 142 123.675 142C124.3 142 124.797 141.867 125.164 141.602C125.535 141.333 125.721 141.011 125.721 140.636C125.721 140.333 125.615 140.08 125.403 139.875C125.191 139.667 124.865 139.511 124.425 139.409L122.971 139.068C122.172 138.879 121.585 138.585 121.21 138.188C120.838 137.786 120.653 137.284 120.653 136.682C120.653 136.189 120.791 135.754 121.067 135.375C121.348 134.996 121.728 134.699 122.21 134.483C122.694 134.267 123.244 134.159 123.857 134.159C124.721 134.159 125.399 134.348 125.891 134.727C126.388 135.106 126.74 135.606 126.948 136.227ZM132.921 134.273V135.409H128.398V134.273H132.921ZM129.717 132.182H131.058V140.5C131.058 140.879 131.112 141.163 131.222 141.352C131.336 141.538 131.48 141.663 131.654 141.727C131.832 141.788 132.02 141.818 132.217 141.818C132.364 141.818 132.486 141.811 132.58 141.795C132.675 141.777 132.751 141.761 132.808 141.75L133.08 142.955C132.989 142.989 132.862 143.023 132.7 143.057C132.537 143.095 132.33 143.114 132.08 143.114C131.701 143.114 131.33 143.032 130.967 142.869C130.607 142.706 130.308 142.458 130.069 142.125C129.834 141.792 129.717 141.371 129.717 140.864V132.182Z" fill="#2D313E"/>
<path d="M241.611 143.164V131.528H245.679C246.49 131.528 247.159 131.668 247.685 131.948C248.212 132.225 248.604 132.598 248.861 133.067C249.119 133.533 249.248 134.05 249.248 134.618C249.248 135.118 249.159 135.531 248.981 135.857C248.806 136.183 248.575 136.44 248.287 136.63C248.003 136.819 247.695 136.959 247.361 137.05V137.164C247.717 137.187 248.075 137.312 248.435 137.539C248.795 137.766 249.096 138.092 249.339 138.516C249.581 138.94 249.702 139.459 249.702 140.073C249.702 140.656 249.57 141.181 249.304 141.647C249.039 142.113 248.621 142.482 248.049 142.755C247.477 143.028 246.732 143.164 245.816 143.164H241.611ZM243.02 141.914H245.816C246.736 141.914 247.39 141.736 247.776 141.38C248.166 141.02 248.361 140.584 248.361 140.073C248.361 139.679 248.261 139.315 248.06 138.982C247.859 138.645 247.573 138.376 247.202 138.175C246.831 137.971 246.392 137.868 245.884 137.868H243.02V141.914ZM243.02 136.641H245.634C246.058 136.641 246.441 136.558 246.782 136.391C247.126 136.225 247.399 135.99 247.6 135.687C247.804 135.384 247.907 135.028 247.907 134.618C247.907 134.107 247.729 133.673 247.373 133.317C247.017 132.958 246.452 132.778 245.679 132.778H243.02V136.641ZM254.404 143.368C253.851 143.368 253.349 143.264 252.898 143.056C252.447 142.844 252.089 142.539 251.824 142.141C251.559 141.74 251.427 141.255 251.427 140.687C251.427 140.187 251.525 139.781 251.722 139.471C251.919 139.156 252.182 138.91 252.512 138.732C252.841 138.554 253.205 138.422 253.603 138.334C254.004 138.243 254.408 138.172 254.813 138.118C255.343 138.05 255.773 137.999 256.103 137.965C256.436 137.927 256.678 137.865 256.83 137.778C256.985 137.69 257.063 137.539 257.063 137.323V137.278C257.063 136.717 256.91 136.281 256.603 135.971C256.3 135.66 255.839 135.505 255.222 135.505C254.582 135.505 254.08 135.645 253.716 135.925C253.353 136.206 253.097 136.505 252.949 136.823L251.677 136.368C251.904 135.838 252.207 135.425 252.586 135.13C252.968 134.831 253.385 134.622 253.836 134.505C254.29 134.384 254.737 134.323 255.177 134.323C255.457 134.323 255.779 134.357 256.142 134.425C256.51 134.49 256.864 134.624 257.205 134.829C257.55 135.033 257.836 135.342 258.063 135.755C258.29 136.168 258.404 136.721 258.404 137.414V143.164H257.063V141.982H256.995C256.904 142.172 256.752 142.374 256.54 142.59C256.328 142.806 256.046 142.99 255.694 143.141C255.341 143.293 254.911 143.368 254.404 143.368ZM254.608 142.164C255.139 142.164 255.586 142.06 255.949 141.851C256.317 141.643 256.593 141.374 256.779 141.045C256.968 140.715 257.063 140.368 257.063 140.005V138.778C257.006 138.846 256.881 138.908 256.688 138.965C256.499 139.018 256.279 139.065 256.029 139.107C255.783 139.145 255.542 139.179 255.307 139.209C255.076 139.236 254.889 139.259 254.745 139.278C254.396 139.323 254.071 139.397 253.767 139.499C253.468 139.598 253.226 139.747 253.04 139.948C252.858 140.145 252.767 140.414 252.767 140.755C252.767 141.221 252.94 141.573 253.285 141.812C253.633 142.047 254.074 142.164 254.608 142.164ZM264.397 143.346C263.579 143.346 262.874 143.153 262.283 142.766C261.692 142.38 261.238 141.848 260.919 141.17C260.601 140.492 260.442 139.717 260.442 138.846C260.442 137.959 260.605 137.177 260.931 136.499C261.26 135.817 261.719 135.285 262.306 134.903C262.897 134.516 263.586 134.323 264.374 134.323C264.988 134.323 265.541 134.437 266.033 134.664C266.526 134.891 266.929 135.209 267.243 135.618C267.558 136.028 267.753 136.505 267.829 137.05H266.488C266.385 136.653 266.158 136.3 265.806 135.993C265.457 135.683 264.988 135.528 264.397 135.528C263.874 135.528 263.416 135.664 263.022 135.937C262.632 136.206 262.327 136.586 262.107 137.079C261.891 137.567 261.783 138.141 261.783 138.8C261.783 139.475 261.889 140.062 262.101 140.562C262.317 141.062 262.62 141.45 263.01 141.726C263.404 142.003 263.866 142.141 264.397 142.141C264.745 142.141 265.062 142.081 265.346 141.959C265.63 141.838 265.87 141.664 266.067 141.437C266.264 141.209 266.404 140.937 266.488 140.618H267.829C267.753 141.134 267.565 141.598 267.266 142.011C266.971 142.42 266.579 142.745 266.09 142.988C265.605 143.226 265.041 143.346 264.397 143.346ZM271.039 139.982L271.016 138.323H271.289L275.107 134.437H276.766L272.698 138.55H272.584L271.039 139.982ZM269.789 143.164V131.528H271.13V143.164H269.789ZM275.334 143.164L271.925 138.846L272.88 137.914L277.039 143.164H275.334ZM283.992 139.596V134.437H285.333V143.164H283.992V141.687H283.901C283.696 142.13 283.378 142.507 282.946 142.817C282.515 143.124 281.969 143.278 281.31 143.278C280.765 143.278 280.28 143.158 279.856 142.92C279.431 142.677 279.098 142.314 278.856 141.829C278.613 141.34 278.492 140.725 278.492 139.982V134.437H279.833V139.891C279.833 140.528 280.011 141.035 280.367 141.414C280.727 141.793 281.185 141.982 281.742 141.982C282.075 141.982 282.414 141.897 282.759 141.726C283.107 141.556 283.399 141.295 283.634 140.942C283.873 140.59 283.992 140.141 283.992 139.596ZM287.789 146.437V134.437H289.084V135.823H289.243C289.342 135.672 289.478 135.478 289.652 135.243C289.83 135.005 290.084 134.793 290.414 134.607C290.747 134.418 291.198 134.323 291.766 134.323C292.501 134.323 293.149 134.507 293.709 134.874C294.27 135.242 294.707 135.762 295.022 136.437C295.336 137.111 295.493 137.906 295.493 138.823C295.493 139.747 295.336 140.548 295.022 141.226C294.707 141.901 294.272 142.423 293.715 142.795C293.158 143.162 292.516 143.346 291.789 143.346C291.228 143.346 290.779 143.253 290.442 143.067C290.105 142.878 289.846 142.664 289.664 142.425C289.482 142.183 289.342 141.982 289.243 141.823H289.13V146.437H287.789ZM289.107 138.8C289.107 139.459 289.204 140.041 289.397 140.545C289.59 141.045 289.872 141.437 290.243 141.721C290.615 142.001 291.069 142.141 291.607 142.141C292.168 142.141 292.635 141.993 293.01 141.698C293.389 141.399 293.673 140.997 293.863 140.493C294.056 139.986 294.152 139.422 294.152 138.8C294.152 138.187 294.058 137.634 293.868 137.141C293.683 136.645 293.401 136.253 293.022 135.965C292.647 135.673 292.175 135.528 291.607 135.528C291.062 135.528 290.603 135.666 290.232 135.942C289.861 136.215 289.58 136.598 289.391 137.09C289.202 137.579 289.107 138.149 289.107 138.8ZM303.38 137.914V143.164H302.039V131.528H303.38V135.8H303.493C303.698 135.35 304.005 134.992 304.414 134.726C304.827 134.458 305.376 134.323 306.062 134.323C306.656 134.323 307.177 134.442 307.624 134.681C308.071 134.916 308.418 135.278 308.664 135.766C308.914 136.251 309.039 136.868 309.039 137.618V143.164H307.698V137.709C307.698 137.016 307.518 136.48 307.158 136.101C306.802 135.719 306.308 135.528 305.675 135.528C305.236 135.528 304.842 135.62 304.493 135.806C304.149 135.992 303.876 136.262 303.675 136.618C303.478 136.975 303.38 137.406 303.38 137.914ZM315.037 143.346C314.249 143.346 313.558 143.158 312.964 142.783C312.373 142.408 311.91 141.884 311.577 141.209C311.248 140.535 311.083 139.747 311.083 138.846C311.083 137.937 311.248 137.143 311.577 136.465C311.91 135.787 312.373 135.261 312.964 134.886C313.558 134.511 314.249 134.323 315.037 134.323C315.825 134.323 316.515 134.511 317.106 134.886C317.7 135.261 318.162 135.787 318.492 136.465C318.825 137.143 318.992 137.937 318.992 138.846C318.992 139.747 318.825 140.535 318.492 141.209C318.162 141.884 317.7 142.408 317.106 142.783C316.515 143.158 315.825 143.346 315.037 143.346ZM315.037 142.141C315.636 142.141 316.128 141.988 316.515 141.681C316.901 141.374 317.187 140.971 317.373 140.471C317.558 139.971 317.651 139.429 317.651 138.846C317.651 138.262 317.558 137.719 317.373 137.215C317.187 136.711 316.901 136.304 316.515 135.993C316.128 135.683 315.636 135.528 315.037 135.528C314.439 135.528 313.946 135.683 313.56 135.993C313.174 136.304 312.888 136.711 312.702 137.215C312.517 137.719 312.424 138.262 312.424 138.846C312.424 139.429 312.517 139.971 312.702 140.471C312.888 140.971 313.174 141.374 313.56 141.681C313.946 141.988 314.439 142.141 315.037 142.141ZM327.221 136.391L326.016 136.732C325.94 136.531 325.829 136.336 325.681 136.147C325.537 135.954 325.34 135.795 325.09 135.67C324.84 135.545 324.52 135.482 324.13 135.482C323.596 135.482 323.151 135.605 322.794 135.851C322.442 136.094 322.266 136.403 322.266 136.778C322.266 137.111 322.387 137.374 322.63 137.567C322.872 137.761 323.251 137.922 323.766 138.05L325.062 138.368C325.842 138.558 326.423 138.848 326.806 139.238C327.188 139.624 327.38 140.122 327.38 140.732C327.38 141.232 327.236 141.679 326.948 142.073C326.664 142.467 326.266 142.778 325.755 143.005C325.243 143.232 324.649 143.346 323.971 143.346C323.08 143.346 322.344 143.153 321.76 142.766C321.177 142.38 320.808 141.815 320.652 141.073L321.925 140.755C322.046 141.225 322.276 141.577 322.613 141.812C322.954 142.047 323.399 142.164 323.948 142.164C324.573 142.164 325.069 142.031 325.437 141.766C325.808 141.497 325.993 141.175 325.993 140.8C325.993 140.497 325.887 140.243 325.675 140.039C325.463 139.831 325.137 139.675 324.698 139.573L323.243 139.232C322.444 139.043 321.857 138.749 321.482 138.351C321.111 137.95 320.925 137.448 320.925 136.846C320.925 136.353 321.063 135.918 321.34 135.539C321.62 135.16 322.001 134.863 322.482 134.647C322.967 134.431 323.516 134.323 324.13 134.323C324.993 134.323 325.671 134.512 326.164 134.891C326.66 135.27 327.012 135.77 327.221 136.391ZM333.194 134.437V135.573H328.671V134.437H333.194ZM329.989 132.346H331.33V140.664C331.33 141.043 331.385 141.327 331.495 141.516C331.608 141.702 331.752 141.827 331.927 141.891C332.105 141.952 332.292 141.982 332.489 141.982C332.637 141.982 332.758 141.975 332.853 141.959C332.947 141.94 333.023 141.925 333.08 141.914L333.353 143.118C333.262 143.153 333.135 143.187 332.972 143.221C332.809 143.259 332.603 143.278 332.353 143.278C331.974 143.278 331.603 143.196 331.239 143.033C330.879 142.87 330.58 142.622 330.341 142.289C330.107 141.956 329.989 141.535 329.989 141.028V132.346Z" fill="#2D313E"/>
<g opacity="0.5">
<rect x="132.021" y="30.6478" width="64.0819" height="3.7149" fill="#1C7057"/>
<path d="M205.391 32.5053L192.156 38.1354L192.156 26.8752L205.391 32.5053Z" fill="#1C7057"/>
</g>
<g opacity="0.5">
<rect x="132.021" y="62.2246" width="64.0819" height="3.7149" fill="#1C7057"/>
<path d="M205.391 64.082L192.156 69.7121L192.156 58.4519L205.391 64.082Z" fill="#1C7057"/>
</g>
<g opacity="0.7">
<rect x="176.599" y="277.689" width="26.0043" height="3.71489" transform="rotate(90 176.599 277.689)" fill="#3B93CA"/>
<path d="M174.742 313.909L169.112 300.675L180.372 300.675L174.742 313.909Z" fill="#3B93CA"/>
<path d="M174.742 267.473L169.112 280.707L180.372 280.707L174.742 267.473Z" fill="#3B93CA"/>
</g>
<g opacity="0.7">
<rect x="99.6475" y="165.604" width="26.0043" height="3.71489" transform="rotate(45 99.6475 165.604)" fill="#3B93CA"/>
<path d="M123.945 192.529L110.606 187.152L118.568 179.19L123.945 192.529Z" fill="#3B93CA"/>
<path d="M91.1101 159.694L96.4871 173.033L104.449 165.071L91.1101 159.694Z" fill="#3B93CA"/>
</g>
<path d="M131.419 96.7541C131.419 98.4985 130.875 100.058 130.021 101.171C129.166 102.283 128.021 102.929 126.794 102.929H7.12437C4.67958 102.929 2.5 100.299 2.5 96.7541V6.67472C2.5 4.93039 3.04329 3.37108 3.89809 2.25832C4.75251 1.14606 5.89776 0.5 7.12437 0.5H126.794C129.239 0.5 131.419 3.13009 131.419 6.67472V96.7541Z" stroke="#2D313E"/>
<path d="M127.869 83.9174H127.861V84.4174C127.861 87.1555 125.864 89.2905 123.503 89.2905H10.4169C8.05552 89.2905 6.05859 87.1555 6.05859 84.4174V12.0133C6.05859 9.27526 8.05552 7.14026 10.4169 7.14026H123.51C125.872 7.14026 127.869 9.27526 127.869 12.0133V83.9174Z" fill="#84D5BD" stroke="#2D313E"/>
<path d="M58.6598 112.234C59.1428 111.772 59.6797 111.129 60.0578 110.308C60.501 109.346 60.7196 108.149 60.3913 106.741C60.1185 105.571 59.4739 104.28 58.308 102.87H79.026C76.2957 106.456 76.2468 109.009 77.1392 110.74C77.4659 111.373 77.9049 111.865 78.3317 112.234H58.6598Z" stroke="#2D313E"/>
<path d="M47.833 112.83H89.3638V117.017H47.833V112.83Z" stroke="#2D313E"/>
<path d="M2.5 96.7541V84.8638H131.419V96.7541C131.419 100.299 129.239 102.929 126.794 102.929H7.12437C5.89776 102.929 4.75251 102.283 3.89809 101.171C3.04329 100.058 2.5 98.4984 2.5 96.7541Z" fill="#F3F3F3" stroke="#2D313E"/>
<path d="M46.458 65.1572H54.0136V42.4698H46.458V65.1572ZM88.0136 44.3604C88.0136 42.2807 86.3136 40.5792 84.2358 40.5792H72.3169L74.1114 31.939L74.168 31.3341C74.168 30.5589 73.8469 29.8405 73.3369 29.33L71.3347 27.3448L58.9058 39.804C58.2069 40.4846 57.7913 41.43 57.7913 42.4698V61.376C57.7913 63.4556 59.4913 65.1572 61.5691 65.1572H78.5691C80.1369 65.1572 81.478 64.2119 82.0447 62.8507L87.7491 49.5218C87.9191 49.087 88.0136 48.6332 88.0136 48.1416V44.3604Z" fill="#1C7057"/>
<path d="M351.501 96.7541C351.501 98.4985 350.958 100.058 350.103 101.171C349.248 102.283 348.103 102.929 346.876 102.929H227.206C224.762 102.929 222.582 100.299 222.582 96.7541V6.67472C222.582 4.93039 223.125 3.37108 223.98 2.25832C224.835 1.14606 225.98 0.5 227.206 0.5H346.876C349.321 0.5 351.501 3.13009 351.501 6.67472V96.7541Z" stroke="#2D313E"/>
<path d="M347.951 83.9174H347.943V84.4174C347.943 87.1555 345.946 89.2905 343.585 89.2905H230.499C228.138 89.2905 226.141 87.1555 226.141 84.4174V12.0133C226.141 9.27526 228.138 7.14026 230.499 7.14026H343.592C345.954 7.14026 347.951 9.27526 347.951 12.0133V83.9174Z" fill="#D3D3D3" stroke="#2D313E"/>
<path d="M278.742 112.234C279.225 111.772 279.762 111.129 280.14 110.308C280.583 109.346 280.802 108.149 280.473 106.741C280.201 105.571 279.556 104.28 278.39 102.87H299.108C296.378 106.456 296.329 109.009 297.221 110.74C297.548 111.373 297.987 111.865 298.414 112.234H278.742Z" stroke="#2D313E"/>
<path d="M267.915 112.83H309.446V117.017H267.915V112.83Z" stroke="#2D313E"/>
<path d="M222.582 96.7541V84.8638H351.501V96.7541C351.501 100.299 349.321 102.929 346.876 102.929H227.206C225.98 102.929 224.835 102.283 223.98 101.171C223.125 100.058 222.582 98.4984 222.582 96.7541Z" fill="#F3F3F3" stroke="#2D313E"/>
<path d="M281.651 55.7041H285.429V40.5792H281.651V55.7041ZM287.318 29.2355C276.891 29.2355 268.429 37.7054 268.429 48.1416C268.429 58.5779 276.891 67.0478 287.318 67.0478C297.744 67.0478 306.207 58.5779 306.207 48.1416C306.207 37.7054 297.744 29.2355 287.318 29.2355ZM287.318 63.2666C278.988 63.2666 272.206 56.4793 272.206 48.1416C272.206 39.804 278.988 33.0167 287.318 33.0167C295.648 33.0167 302.429 39.804 302.429 48.1416C302.429 56.4793 295.648 63.2666 287.318 63.2666ZM289.206 55.7041H292.984V40.5792H289.206V55.7041Z" fill="#7F7F7F"/>
<path d="M99.9938 242.046V253.682H98.6301L92.2892 244.546H92.1756V253.682H90.7665V242.046H92.1301L98.4938 251.205H98.6074V242.046H99.9938ZM106.291 253.864C105.45 253.864 104.724 253.678 104.115 253.307C103.508 252.932 103.041 252.409 102.711 251.739C102.385 251.065 102.222 250.28 102.222 249.387C102.222 248.493 102.385 247.705 102.711 247.023C103.041 246.337 103.499 245.803 104.086 245.421C104.677 245.034 105.366 244.841 106.154 244.841C106.609 244.841 107.058 244.917 107.501 245.068C107.944 245.22 108.347 245.466 108.711 245.807C109.075 246.144 109.365 246.591 109.58 247.148C109.796 247.705 109.904 248.39 109.904 249.205V249.773H103.177V248.614H108.541C108.541 248.121 108.442 247.682 108.245 247.296C108.052 246.909 107.776 246.604 107.416 246.381C107.06 246.157 106.639 246.046 106.154 246.046C105.62 246.046 105.158 246.178 104.768 246.443C104.382 246.705 104.084 247.046 103.876 247.466C103.668 247.887 103.563 248.337 103.563 248.818V249.591C103.563 250.25 103.677 250.809 103.904 251.267C104.135 251.722 104.455 252.068 104.865 252.307C105.274 252.542 105.749 252.659 106.291 252.659C106.643 252.659 106.961 252.61 107.245 252.512C107.533 252.409 107.781 252.258 107.99 252.057C108.198 251.852 108.359 251.599 108.472 251.296L109.768 251.659C109.632 252.099 109.402 252.485 109.08 252.818C108.758 253.148 108.361 253.405 107.887 253.591C107.414 253.773 106.882 253.864 106.291 253.864ZM115.74 244.955V246.091H111.217V244.955H115.74ZM112.535 242.864H113.876V251.182C113.876 251.561 113.931 251.845 114.041 252.034C114.154 252.22 114.298 252.345 114.472 252.409C114.651 252.47 114.838 252.5 115.035 252.5C115.183 252.5 115.304 252.493 115.399 252.477C115.493 252.459 115.569 252.443 115.626 252.432L115.899 253.637C115.808 253.671 115.681 253.705 115.518 253.739C115.355 253.777 115.149 253.796 114.899 253.796C114.52 253.796 114.149 253.714 113.785 253.551C113.425 253.388 113.126 253.14 112.887 252.807C112.652 252.474 112.535 252.053 112.535 251.546V242.864ZM119.734 253.682L117.075 244.955H118.484L120.37 251.637H120.461L122.325 244.955H123.757L125.597 251.614H125.688L127.575 244.955H128.984L126.325 253.682H125.007L123.097 246.977H122.961L121.052 253.682H119.734ZM134.005 253.864C133.217 253.864 132.526 253.676 131.931 253.301C131.34 252.926 130.878 252.402 130.545 251.727C130.215 251.053 130.051 250.265 130.051 249.364C130.051 248.455 130.215 247.661 130.545 246.983C130.878 246.305 131.34 245.779 131.931 245.404C132.526 245.029 133.217 244.841 134.005 244.841C134.793 244.841 135.482 245.029 136.073 245.404C136.668 245.779 137.13 246.305 137.46 246.983C137.793 247.661 137.96 248.455 137.96 249.364C137.96 250.265 137.793 251.053 137.46 251.727C137.13 252.402 136.668 252.926 136.073 253.301C135.482 253.676 134.793 253.864 134.005 253.864ZM134.005 252.659C134.604 252.659 135.096 252.506 135.482 252.199C135.869 251.892 136.155 251.489 136.34 250.989C136.526 250.489 136.619 249.947 136.619 249.364C136.619 248.78 136.526 248.237 136.34 247.733C136.155 247.229 135.869 246.822 135.482 246.512C135.096 246.201 134.604 246.046 134.005 246.046C133.407 246.046 132.914 246.201 132.528 246.512C132.142 246.822 131.856 247.229 131.67 247.733C131.484 248.237 131.392 248.78 131.392 249.364C131.392 249.947 131.484 250.489 131.67 250.989C131.856 251.489 132.142 251.892 132.528 252.199C132.914 252.506 133.407 252.659 134.005 252.659ZM140.007 253.682V244.955H141.302V246.273H141.393C141.552 245.841 141.84 245.491 142.257 245.222C142.673 244.953 143.143 244.818 143.666 244.818C143.764 244.818 143.887 244.82 144.035 244.824C144.183 244.828 144.294 244.834 144.37 244.841V246.205C144.325 246.193 144.221 246.176 144.058 246.154C143.899 246.127 143.73 246.114 143.552 246.114C143.128 246.114 142.749 246.203 142.416 246.381C142.086 246.555 141.825 246.798 141.632 247.108C141.442 247.415 141.347 247.765 141.347 248.159V253.682H140.007ZM147.21 250.5L147.187 248.841H147.46L151.278 244.955H152.937L148.869 249.068H148.755L147.21 250.5ZM145.96 253.682V242.046H147.301V253.682H145.96ZM151.505 253.682L148.096 249.364L149.051 248.432L153.21 253.682H151.505ZM160.754 242.046V253.682H159.345V242.046H160.754ZM164.738 248.432V253.682H163.397V244.955H164.693V246.318H164.806C165.011 245.875 165.321 245.519 165.738 245.25C166.155 244.977 166.693 244.841 167.352 244.841C167.943 244.841 168.46 244.962 168.903 245.205C169.346 245.443 169.691 245.807 169.937 246.296C170.183 246.78 170.306 247.394 170.306 248.137V253.682H168.965V248.227C168.965 247.542 168.787 247.008 168.431 246.625C168.075 246.239 167.587 246.046 166.965 246.046C166.537 246.046 166.155 246.138 165.818 246.324C165.484 246.51 165.221 246.78 165.028 247.137C164.835 247.493 164.738 247.924 164.738 248.432ZM176.643 244.955V246.091H171.938V244.955H176.643ZM173.347 253.682V243.75C173.347 243.25 173.465 242.834 173.7 242.5C173.935 242.167 174.24 241.917 174.615 241.75C174.99 241.584 175.385 241.5 175.802 241.5C176.132 241.5 176.401 241.527 176.609 241.58C176.817 241.633 176.972 241.682 177.075 241.727L176.688 242.887C176.62 242.864 176.526 242.835 176.404 242.801C176.287 242.767 176.132 242.75 175.938 242.75C175.495 242.75 175.175 242.862 174.978 243.085C174.785 243.309 174.688 243.637 174.688 244.068V253.682H173.347ZM178.522 253.682V244.955H179.818V246.273H179.909C180.068 245.841 180.356 245.491 180.772 245.222C181.189 244.953 181.659 244.818 182.181 244.818C182.28 244.818 182.403 244.82 182.551 244.824C182.698 244.828 182.81 244.834 182.886 244.841V246.205C182.84 246.193 182.736 246.176 182.573 246.154C182.414 246.127 182.246 246.114 182.068 246.114C181.643 246.114 181.265 246.203 180.931 246.381C180.602 246.555 180.34 246.798 180.147 247.108C179.958 247.415 179.863 247.765 179.863 248.159V253.682H178.522ZM187.044 253.887C186.49 253.887 185.989 253.782 185.538 253.574C185.087 253.362 184.729 253.057 184.464 252.659C184.199 252.258 184.066 251.773 184.066 251.205C184.066 250.705 184.165 250.299 184.362 249.989C184.559 249.674 184.822 249.428 185.151 249.25C185.481 249.072 185.845 248.94 186.242 248.852C186.644 248.762 187.047 248.69 187.453 248.637C187.983 248.568 188.413 248.517 188.742 248.483C189.076 248.445 189.318 248.383 189.47 248.296C189.625 248.209 189.703 248.057 189.703 247.841V247.796C189.703 247.235 189.549 246.799 189.242 246.489C188.939 246.178 188.479 246.023 187.862 246.023C187.222 246.023 186.72 246.163 186.356 246.443C185.992 246.724 185.737 247.023 185.589 247.341L184.316 246.887C184.544 246.356 184.847 245.943 185.225 245.648C185.608 245.349 186.025 245.14 186.475 245.023C186.93 244.902 187.377 244.841 187.816 244.841C188.097 244.841 188.419 244.875 188.782 244.943C189.15 245.008 189.504 245.142 189.845 245.347C190.189 245.551 190.475 245.86 190.703 246.273C190.93 246.686 191.044 247.239 191.044 247.932V253.682H189.703V252.5H189.634C189.544 252.69 189.392 252.892 189.18 253.108C188.968 253.324 188.686 253.508 188.333 253.659C187.981 253.811 187.551 253.887 187.044 253.887ZM187.248 252.682C187.778 252.682 188.225 252.578 188.589 252.37C188.956 252.161 189.233 251.892 189.419 251.563C189.608 251.233 189.703 250.887 189.703 250.523V249.296C189.646 249.364 189.521 249.426 189.328 249.483C189.138 249.536 188.919 249.584 188.669 249.625C188.422 249.663 188.182 249.697 187.947 249.727C187.716 249.754 187.528 249.777 187.384 249.796C187.036 249.841 186.71 249.915 186.407 250.017C186.108 250.116 185.865 250.265 185.68 250.466C185.498 250.663 185.407 250.932 185.407 251.273C185.407 251.739 185.579 252.091 185.924 252.33C186.273 252.565 186.714 252.682 187.248 252.682ZM199.673 246.909L198.468 247.25C198.392 247.049 198.281 246.854 198.133 246.665C197.989 246.472 197.792 246.313 197.542 246.188C197.292 246.063 196.972 246 196.582 246C196.048 246 195.603 246.123 195.247 246.37C194.894 246.612 194.718 246.921 194.718 247.296C194.718 247.629 194.839 247.892 195.082 248.085C195.324 248.279 195.703 248.44 196.218 248.568L197.514 248.887C198.294 249.076 198.875 249.366 199.258 249.756C199.641 250.142 199.832 250.64 199.832 251.25C199.832 251.75 199.688 252.197 199.4 252.591C199.116 252.985 198.718 253.296 198.207 253.523C197.695 253.75 197.101 253.864 196.423 253.864C195.533 253.864 194.796 253.671 194.213 253.284C193.629 252.898 193.26 252.334 193.105 251.591L194.377 251.273C194.499 251.743 194.728 252.095 195.065 252.33C195.406 252.565 195.851 252.682 196.4 252.682C197.025 252.682 197.521 252.549 197.889 252.284C198.26 252.015 198.445 251.693 198.445 251.318C198.445 251.015 198.339 250.762 198.127 250.557C197.915 250.349 197.589 250.193 197.15 250.091L195.695 249.75C194.896 249.561 194.309 249.267 193.934 248.87C193.563 248.468 193.377 247.966 193.377 247.364C193.377 246.871 193.516 246.436 193.792 246.057C194.072 245.678 194.453 245.381 194.934 245.165C195.419 244.949 195.968 244.841 196.582 244.841C197.445 244.841 198.124 245.03 198.616 245.409C199.112 245.788 199.464 246.288 199.673 246.909ZM205.646 244.955V246.091H201.123V244.955H205.646ZM202.441 242.864H203.782V251.182C203.782 251.561 203.837 251.845 203.947 252.034C204.061 252.22 204.204 252.345 204.379 252.409C204.557 252.47 204.744 252.5 204.941 252.5C205.089 252.5 205.21 252.493 205.305 252.477C205.4 252.459 205.475 252.443 205.532 252.432L205.805 253.637C205.714 253.671 205.587 253.705 205.424 253.739C205.261 253.777 205.055 253.796 204.805 253.796C204.426 253.796 204.055 253.714 203.691 253.551C203.331 253.388 203.032 253.14 202.794 252.807C202.559 252.474 202.441 252.053 202.441 251.546V242.864ZM207.663 253.682V244.955H208.958V246.273H209.049C209.208 245.841 209.496 245.491 209.913 245.222C210.329 244.953 210.799 244.818 211.322 244.818C211.42 244.818 211.544 244.82 211.691 244.824C211.839 244.828 211.951 244.834 212.026 244.841V246.205C211.981 246.193 211.877 246.176 211.714 246.154C211.555 246.127 211.386 246.114 211.208 246.114C210.784 246.114 210.405 246.203 210.072 246.381C209.742 246.555 209.481 246.798 209.288 247.108C209.098 247.415 209.004 247.765 209.004 248.159V253.682H207.663ZM219.116 250.114V244.955H220.457V253.682H219.116V252.205H219.025C218.82 252.648 218.502 253.025 218.07 253.335C217.639 253.642 217.093 253.796 216.434 253.796C215.889 253.796 215.404 253.676 214.98 253.438C214.555 253.195 214.222 252.832 213.98 252.347C213.737 251.858 213.616 251.243 213.616 250.5V244.955H214.957V250.409C214.957 251.046 215.135 251.553 215.491 251.932C215.851 252.311 216.309 252.5 216.866 252.5C217.199 252.5 217.538 252.415 217.883 252.245C218.231 252.074 218.523 251.813 218.758 251.46C218.997 251.108 219.116 250.659 219.116 250.114ZM226.458 253.864C225.64 253.864 224.936 253.671 224.345 253.284C223.754 252.898 223.299 252.366 222.981 251.688C222.663 251.01 222.504 250.235 222.504 249.364C222.504 248.477 222.667 247.695 222.992 247.017C223.322 246.335 223.78 245.803 224.367 245.421C224.958 245.034 225.648 244.841 226.436 244.841C227.049 244.841 227.602 244.955 228.095 245.182C228.587 245.409 228.99 245.727 229.305 246.137C229.619 246.546 229.814 247.023 229.89 247.568H228.549C228.447 247.171 228.22 246.818 227.867 246.512C227.519 246.201 227.049 246.046 226.458 246.046C225.936 246.046 225.477 246.182 225.083 246.455C224.693 246.724 224.388 247.104 224.169 247.597C223.953 248.085 223.845 248.659 223.845 249.318C223.845 249.993 223.951 250.58 224.163 251.08C224.379 251.58 224.682 251.968 225.072 252.245C225.466 252.521 225.928 252.659 226.458 252.659C226.807 252.659 227.123 252.599 227.407 252.477C227.691 252.356 227.932 252.182 228.129 251.955C228.326 251.727 228.466 251.455 228.549 251.137H229.89C229.814 251.652 229.627 252.116 229.328 252.529C229.032 252.938 228.64 253.263 228.151 253.506C227.667 253.745 227.102 253.864 226.458 253.864ZM235.646 244.955V246.091H231.123V244.955H235.646ZM232.441 242.864H233.782V251.182C233.782 251.561 233.837 251.845 233.947 252.034C234.061 252.22 234.204 252.345 234.379 252.409C234.557 252.47 234.744 252.5 234.941 252.5C235.089 252.5 235.21 252.493 235.305 252.477C235.4 252.459 235.475 252.443 235.532 252.432L235.805 253.637C235.714 253.671 235.587 253.705 235.424 253.739C235.261 253.777 235.055 253.796 234.805 253.796C234.426 253.796 234.055 253.714 233.691 253.551C233.331 253.388 233.032 253.14 232.794 252.807C232.559 252.474 232.441 252.053 232.441 251.546V242.864ZM243.163 250.114V244.955H244.504V253.682H243.163V252.205H243.072C242.867 252.648 242.549 253.025 242.117 253.335C241.686 253.642 241.14 253.796 240.481 253.796C239.936 253.796 239.451 253.676 239.026 253.438C238.602 253.195 238.269 252.832 238.026 252.347C237.784 251.858 237.663 251.243 237.663 250.5V244.955H239.004V250.409C239.004 251.046 239.182 251.553 239.538 251.932C239.898 252.311 240.356 252.5 240.913 252.5C241.246 252.5 241.585 252.415 241.93 252.245C242.278 252.074 242.57 251.813 242.805 251.46C243.044 251.108 243.163 250.659 243.163 250.114ZM246.96 253.682V244.955H248.255V246.273H248.346C248.505 245.841 248.793 245.491 249.21 245.222C249.626 244.953 250.096 244.818 250.619 244.818C250.717 244.818 250.84 244.82 250.988 244.824C251.136 244.828 251.248 244.834 251.323 244.841V246.205C251.278 246.193 251.174 246.176 251.011 246.154C250.852 246.127 250.683 246.114 250.505 246.114C250.081 246.114 249.702 246.203 249.369 246.381C249.039 246.555 248.778 246.798 248.585 247.108C248.395 247.415 248.301 247.765 248.301 248.159V253.682H246.96ZM256.306 253.864C255.465 253.864 254.74 253.678 254.13 253.307C253.524 252.932 253.056 252.409 252.727 251.739C252.401 251.065 252.238 250.28 252.238 249.387C252.238 248.493 252.401 247.705 252.727 247.023C253.056 246.337 253.515 245.803 254.102 245.421C254.693 245.034 255.382 244.841 256.17 244.841C256.624 244.841 257.073 244.917 257.517 245.068C257.96 245.22 258.363 245.466 258.727 245.807C259.09 246.144 259.38 246.591 259.596 247.148C259.812 247.705 259.92 248.39 259.92 249.205V249.773H253.193V248.614H258.556C258.556 248.121 258.458 247.682 258.261 247.296C258.068 246.909 257.791 246.604 257.431 246.381C257.075 246.157 256.655 246.046 256.17 246.046C255.636 246.046 255.174 246.178 254.784 246.443C254.397 246.705 254.1 247.046 253.892 247.466C253.683 247.887 253.579 248.337 253.579 248.818V249.591C253.579 250.25 253.693 250.809 253.92 251.267C254.151 251.722 254.471 252.068 254.88 252.307C255.289 252.542 255.765 252.659 256.306 252.659C256.659 252.659 256.977 252.61 257.261 252.512C257.549 252.409 257.797 252.258 258.005 252.057C258.213 251.852 258.374 251.599 258.488 251.296L259.784 251.659C259.647 252.099 259.418 252.485 259.096 252.818C258.774 253.148 258.376 253.405 257.903 253.591C257.429 253.773 256.897 253.864 256.306 253.864Z" fill="#2D313E"/>
<rect x="112.538" y="206.677" width="123.449" height="22.2181" rx="1.5" fill="#F8F8F8" stroke="#2D313E"/>
<rect x="117.61" y="211.749" width="12.0734" height="13.0021" fill="#52BD9D"/>
<rect x="151.973" y="212.678" width="11.1447" height="11.1447" fill="#929292"/>
<rect x="185.407" y="212.678" width="11.1447" height="11.1447" fill="#929292"/>
<rect x="135.257" y="212.678" width="11.1447" height="11.1447" fill="#929292"/>
<rect x="168.689" y="212.678" width="11.1447" height="11.1447" fill="#929292"/>
<rect x="202.124" y="212.678" width="11.1447" height="11.1447" fill="#929292"/>
<rect x="218.84" y="212.678" width="11.1447" height="11.1447" fill="#929292"/>
<path d="M239.15 419.874C239.15 421.616 238.607 423.174 237.753 424.286C236.9 425.398 235.755 426.043 234.53 426.043H114.954C112.512 426.043 110.334 423.415 110.334 419.874V329.865C110.334 328.122 110.877 326.564 111.731 325.453C112.585 324.341 113.729 323.696 114.954 323.696H234.53C236.972 323.696 239.15 326.324 239.15 329.865V419.874Z" stroke="#2D313E"/>
<path d="M235.603 407.047H235.595V407.547C235.595 410.282 233.6 412.415 231.241 412.415H118.244C115.885 412.415 113.89 410.282 113.89 407.547V335.2C113.89 332.464 115.885 330.331 118.244 330.331H231.248C233.608 330.331 235.603 332.464 235.603 335.2V407.047Z" stroke="#2D313E"/>
<path d="M166.45 435.341C166.932 434.879 167.468 434.237 167.846 433.417C168.289 432.455 168.507 431.26 168.179 429.853C167.907 428.684 167.263 427.394 166.098 425.985H186.798C184.07 429.568 184.021 432.119 184.913 433.848C185.239 434.481 185.678 434.972 186.104 435.341H166.45Z" stroke="#2D313E"/>
<path d="M155.632 435.938H197.129V440.121H155.632V435.938Z" stroke="#2D313E"/>
<path d="M110.334 419.873V407.993H239.15V419.873C239.15 423.415 236.972 426.043 234.53 426.043H114.954C113.729 426.043 112.585 425.397 111.731 424.286C110.877 423.174 110.334 421.616 110.334 419.873Z" fill="#F3F3F3" stroke="#2D313E"/>
<path d="M144.224 367H142.815C142.731 366.595 142.586 366.239 142.377 365.932C142.173 365.625 141.923 365.367 141.627 365.159C141.336 364.947 141.012 364.788 140.656 364.682C140.3 364.576 139.928 364.523 139.542 364.523C138.838 364.523 138.199 364.701 137.627 365.057C137.059 365.413 136.606 365.938 136.269 366.631C135.936 367.324 135.769 368.174 135.769 369.182C135.769 370.189 135.936 371.04 136.269 371.733C136.606 372.426 137.059 372.951 137.627 373.307C138.199 373.663 138.838 373.841 139.542 373.841C139.928 373.841 140.3 373.788 140.656 373.682C141.012 373.576 141.336 373.419 141.627 373.21C141.923 372.998 142.173 372.739 142.377 372.432C142.586 372.121 142.731 371.765 142.815 371.364H144.224C144.118 371.958 143.925 372.491 143.644 372.96C143.364 373.43 143.016 373.83 142.599 374.159C142.182 374.485 141.714 374.733 141.195 374.903C140.68 375.074 140.129 375.159 139.542 375.159C138.55 375.159 137.667 374.917 136.894 374.432C136.122 373.947 135.514 373.258 135.07 372.364C134.627 371.47 134.406 370.409 134.406 369.182C134.406 367.955 134.627 366.894 135.07 366C135.514 365.106 136.122 364.417 136.894 363.932C137.667 363.447 138.55 363.205 139.542 363.205C140.129 363.205 140.68 363.29 141.195 363.46C141.714 363.631 142.182 363.881 142.599 364.21C143.016 364.536 143.364 364.934 143.644 365.403C143.925 365.869 144.118 366.402 144.224 367ZM147.66 363.364V375H146.319V363.364H147.66ZM150.116 375V366.273H151.457V375H150.116ZM150.798 364.818C150.536 364.818 150.311 364.729 150.122 364.551C149.936 364.373 149.843 364.159 149.843 363.909C149.843 363.659 149.936 363.445 150.122 363.267C150.311 363.089 150.536 363 150.798 363C151.059 363 151.283 363.089 151.468 363.267C151.658 363.445 151.752 363.659 151.752 363.909C151.752 364.159 151.658 364.373 151.468 364.551C151.283 364.729 151.059 364.818 150.798 364.818ZM157.572 375.182C156.731 375.182 156.006 374.996 155.396 374.625C154.79 374.25 154.322 373.727 153.992 373.057C153.667 372.383 153.504 371.598 153.504 370.705C153.504 369.811 153.667 369.023 153.992 368.341C154.322 367.655 154.78 367.121 155.367 366.739C155.958 366.352 156.648 366.159 157.436 366.159C157.89 366.159 158.339 366.235 158.782 366.386C159.225 366.538 159.629 366.784 159.992 367.125C160.356 367.462 160.646 367.909 160.862 368.466C161.078 369.023 161.186 369.708 161.186 370.523V371.091H154.458V369.932H159.822C159.822 369.439 159.723 369 159.526 368.614C159.333 368.227 159.057 367.922 158.697 367.699C158.341 367.475 157.92 367.364 157.436 367.364C156.901 367.364 156.439 367.496 156.049 367.761C155.663 368.023 155.365 368.364 155.157 368.784C154.949 369.205 154.845 369.655 154.845 370.136V370.909C154.845 371.568 154.958 372.127 155.186 372.585C155.417 373.04 155.737 373.386 156.146 373.625C156.555 373.86 157.03 373.977 157.572 373.977C157.924 373.977 158.242 373.928 158.526 373.83C158.814 373.727 159.062 373.576 159.271 373.375C159.479 373.17 159.64 372.917 159.754 372.614L161.049 372.977C160.913 373.417 160.684 373.803 160.362 374.136C160.04 374.466 159.642 374.723 159.169 374.909C158.695 375.091 158.163 375.182 157.572 375.182ZM164.566 369.75V375H163.225V366.273H164.521V367.636H164.634C164.839 367.193 165.15 366.837 165.566 366.568C165.983 366.295 166.521 366.159 167.18 366.159C167.771 366.159 168.288 366.28 168.731 366.523C169.174 366.761 169.519 367.125 169.765 367.614C170.011 368.098 170.134 368.712 170.134 369.455V375H168.794V369.545C168.794 368.86 168.615 368.326 168.259 367.943C167.903 367.557 167.415 367.364 166.794 367.364C166.365 367.364 165.983 367.456 165.646 367.642C165.312 367.828 165.049 368.098 164.856 368.455C164.663 368.811 164.566 369.242 164.566 369.75ZM176.38 366.273V367.409H171.857V366.273H176.38ZM173.176 364.182H174.517V372.5C174.517 372.879 174.571 373.163 174.681 373.352C174.795 373.538 174.939 373.663 175.113 373.727C175.291 373.788 175.479 373.818 175.676 373.818C175.823 373.818 175.945 373.811 176.039 373.795C176.134 373.777 176.21 373.761 176.267 373.75L176.539 374.955C176.448 374.989 176.321 375.023 176.159 375.057C175.996 375.095 175.789 375.114 175.539 375.114C175.16 375.114 174.789 375.032 174.426 374.869C174.066 374.706 173.767 374.458 173.528 374.125C173.293 373.792 173.176 373.371 173.176 372.864V364.182ZM183.085 369.386V370.636H177.994V369.386H183.085ZM191.626 368.227L190.421 368.568C190.346 368.367 190.234 368.172 190.086 367.983C189.942 367.79 189.745 367.631 189.495 367.506C189.245 367.381 188.925 367.318 188.535 367.318C188.001 367.318 187.556 367.441 187.2 367.688C186.847 367.93 186.671 368.239 186.671 368.614C186.671 368.947 186.793 369.21 187.035 369.403C187.277 369.597 187.656 369.758 188.171 369.886L189.467 370.205C190.247 370.394 190.829 370.684 191.211 371.074C191.594 371.46 191.785 371.958 191.785 372.568C191.785 373.068 191.641 373.515 191.353 373.909C191.069 374.303 190.671 374.614 190.16 374.841C189.649 375.068 189.054 375.182 188.376 375.182C187.486 375.182 186.749 374.989 186.166 374.602C185.582 374.216 185.213 373.652 185.058 372.909L186.33 372.591C186.452 373.061 186.681 373.413 187.018 373.648C187.359 373.883 187.804 374 188.353 374C188.978 374 189.474 373.867 189.842 373.602C190.213 373.333 190.399 373.011 190.399 372.636C190.399 372.333 190.293 372.08 190.08 371.875C189.868 371.667 189.543 371.511 189.103 371.409L187.649 371.068C186.849 370.879 186.262 370.585 185.887 370.188C185.516 369.786 185.33 369.284 185.33 368.682C185.33 368.189 185.469 367.754 185.745 367.375C186.026 366.996 186.406 366.699 186.887 366.483C187.372 366.267 187.921 366.159 188.535 366.159C189.399 366.159 190.077 366.348 190.569 366.727C191.065 367.106 191.418 367.606 191.626 368.227ZM193.803 375V366.273H195.144V375H193.803ZM194.485 364.818C194.224 364.818 193.999 364.729 193.809 364.551C193.624 364.373 193.531 364.159 193.531 363.909C193.531 363.659 193.624 363.445 193.809 363.267C193.999 363.089 194.224 363 194.485 363C194.747 363 194.97 363.089 195.156 363.267C195.345 363.445 195.44 363.659 195.44 363.909C195.44 364.159 195.345 364.373 195.156 364.551C194.97 364.729 194.747 364.818 194.485 364.818ZM200.896 375.182C200.169 375.182 199.526 374.998 198.97 374.631C198.413 374.259 197.977 373.737 197.663 373.062C197.348 372.384 197.191 371.583 197.191 370.659C197.191 369.742 197.348 368.947 197.663 368.273C197.977 367.598 198.415 367.078 198.975 366.71C199.536 366.343 200.184 366.159 200.919 366.159C201.487 366.159 201.936 366.254 202.265 366.443C202.598 366.629 202.852 366.841 203.026 367.08C203.204 367.314 203.343 367.508 203.441 367.659H203.555V363.364H204.896V375H203.6V373.659H203.441C203.343 373.818 203.203 374.019 203.021 374.261C202.839 374.5 202.579 374.714 202.242 374.903C201.905 375.089 201.456 375.182 200.896 375.182ZM201.078 373.977C201.615 373.977 202.07 373.837 202.441 373.557C202.812 373.273 203.095 372.881 203.288 372.381C203.481 371.877 203.578 371.295 203.578 370.636C203.578 369.985 203.483 369.415 203.294 368.926C203.104 368.434 202.824 368.051 202.453 367.778C202.081 367.502 201.623 367.364 201.078 367.364C200.509 367.364 200.036 367.509 199.657 367.801C199.282 368.089 199 368.481 198.811 368.977C198.625 369.47 198.532 370.023 198.532 370.636C198.532 371.258 198.627 371.822 198.816 372.33C199.009 372.833 199.294 373.235 199.669 373.534C200.047 373.83 200.517 373.977 201.078 373.977ZM211.197 375.182C210.356 375.182 209.631 374.996 209.021 374.625C208.415 374.25 207.947 373.727 207.617 373.057C207.292 372.383 207.129 371.598 207.129 370.705C207.129 369.811 207.292 369.023 207.617 368.341C207.947 367.655 208.405 367.121 208.992 366.739C209.583 366.352 210.273 366.159 211.061 366.159C211.515 366.159 211.964 366.235 212.407 366.386C212.85 366.538 213.254 366.784 213.617 367.125C213.981 367.462 214.271 367.909 214.487 368.466C214.703 369.023 214.811 369.708 214.811 370.523V371.091H208.083V369.932H213.447C213.447 369.439 213.348 369 213.151 368.614C212.958 368.227 212.682 367.922 212.322 367.699C211.966 367.475 211.545 367.364 211.061 367.364C210.526 367.364 210.064 367.496 209.674 367.761C209.288 368.023 208.99 368.364 208.782 368.784C208.574 369.205 208.47 369.655 208.47 370.136V370.909C208.47 371.568 208.583 372.127 208.811 372.585C209.042 373.04 209.362 373.386 209.771 373.625C210.18 373.86 210.655 373.977 211.197 373.977C211.549 373.977 211.867 373.928 212.151 373.83C212.439 373.727 212.687 373.576 212.896 373.375C213.104 373.17 213.265 372.917 213.379 372.614L214.674 372.977C214.538 373.417 214.309 373.803 213.987 374.136C213.665 374.466 213.267 374.723 212.794 374.909C212.32 375.091 211.788 375.182 211.197 375.182Z" fill="#2D313E"/>
</svg>
